M48
; DRILL file {KiCad 8.0.0} date 2024-05-22T20:52:54+0200
; FORMAT={-:-/ absolute / inch / decimal}
; #@! TF.CreationDate,2024-05-22T20:52:54+02:00
; #@! TF.GenerationSoftware,Kicad,Pcbnew,8.0.0
; #@! TF.FileFunction,Plated,1,2,PTH
FMAT,2
INCH
; #@! TA.AperFunction,Plated,PTH,ViaDrill
T1C0.0236
; #@! TA.AperFunction,Plated,PTH,ComponentDrill
T2C0.0300
; #@! TA.AperFunction,Plated,PTH,ComponentDrill
T3C0.0315
; #@! TA.AperFunction,Plated,PTH,ComponentDrill
T4C0.0350
; #@! TA.AperFunction,Plated,PTH,ComponentDrill
T5C0.0354
; #@! TA.AperFunction,Plated,PTH,ComponentDrill
T6C0.0394
; #@! TA.AperFunction,Plated,PTH,ComponentDrill
T7C0.0402
; #@! TA.AperFunction,Plated,PTH,ComponentDrill
T8C0.0512
%
G90
G05
T1
X5.3008Y-3.3205
X5.5256Y-3.3205
X6.2382Y-5.8287
X6.248Y-5.6496
X6.248Y-5.6496
X6.252Y-5.3583
X6.6398Y-3.7992
X6.6398Y-4.65
X6.6398Y-4.752
X6.7382Y-2.6181
X6.7402Y-3.7283
X6.8346Y-3.7913
X6.9331Y-5.8327
X6.9724Y-5.4094
X6.9783Y-5.0866
X7.0098Y-3.7894
X7.5315Y-5.5295
X7.5315Y-6.063
X7.5433Y-5.4587
X7.7933Y-2.9429
X8.5906Y-5.6535
X8.6949Y-2.9409
X8.9055Y-5.6535
X9.0709Y-5.8425
X9.7362Y-3.0177
X9.7362Y-3.2874
X9.7835Y-5.8425
X9.9213Y-5.4606
X9.9213Y-5.748
T2
X10.1181Y-4.311
X10.1181Y-4.5079
X10.3346Y-4.0945
X10.3346Y-4.7244
X10.5315Y-4.0945
X10.5315Y-4.7244
X10.748Y-4.311
X10.748Y-4.5079
T3
X5.4693Y-5.3709
X5.4693Y-5.7709
X5.7252Y-5.9874
X5.822Y-6.2795
X5.8268Y-6.1417
X5.8661Y-5.8268
X6.063Y-5.8268
X6.122Y-6.2795
X6.1252Y-5.9874
X6.1268Y-6.1417
X6.3406Y-5.5748
X6.4406Y-5.6748
X6.5406Y-5.5748
X7.2354Y-2.8283
X7.2354Y-2.9283
X7.2354Y-3.0283
X7.2354Y-3.1283
X7.2354Y-3.2283
X7.2354Y-3.3283
X7.2354Y-3.4283
X7.5354Y-2.8283
X7.5354Y-2.9283
X7.5354Y-3.0283
X7.5354Y-3.1283
X7.5354Y-3.2283
X7.5354Y-3.3283
X7.5354Y-3.4283
X7.8744Y-3.0256
X7.8744Y-3.4256
X8.0862Y-3.0256
X8.0862Y-3.3256
X8.1862Y-3.0256
X8.1862Y-3.3256
X8.2083Y-5.752
X8.2083Y-5.8839
X8.2862Y-3.0256
X8.2862Y-3.3256
X8.3862Y-3.0256
X8.3862Y-3.3256
X8.4862Y-3.0256
X8.4862Y-3.3256
X8.5862Y-3.0256
X8.5862Y-3.3256
X8.6083Y-5.752
X8.6083Y-5.8839
X8.6862Y-3.0256
X8.6862Y-3.3256
X8.7862Y-3.0256
X8.7862Y-3.3256
X8.8862Y-3.0256
X8.8862Y-3.3256
X9.4252Y-3.2874
X9.5803Y-3.6811
X9.5803Y-3.8189
X9.622Y-3.2874
X9.6654Y-3.5039
X9.7077Y-2.7746
X9.7077Y-2.9006
X9.8591Y-3.2874
X9.8622Y-3.5039
X9.9803Y-3.6811
X9.9803Y-3.8189
X10.0362Y-3.5039
X10.0559Y-3.2874
X10.1077Y-2.7746
X10.1077Y-2.9006
X10.2102Y-3.2874
X10.2331Y-3.5039
X10.3205Y-2.7717
X10.3244Y-2.8996
X10.3874Y-3.5039
X10.6102Y-3.2874
X10.7205Y-2.7717
X10.7244Y-2.8996
X10.7874Y-3.5039
T4
X5.6787Y-2.7205
X5.6787Y-2.8205
X5.6787Y-2.9205
X5.6787Y-3.0205
X5.6787Y-3.1205
X5.6787Y-3.2205
X5.6787Y-3.3205
X5.6787Y-3.4205
X6.5787Y-2.7205
X6.5787Y-2.8205
X6.5787Y-2.9205
X6.5787Y-3.0205
X6.5787Y-3.1205
X6.5787Y-3.2205
X6.5787Y-3.3205
X6.5787Y-3.4205
T5
X7.9606Y-2.7504
X7.9606Y-2.8504
X8.1746Y-2.7528
X8.1746Y-2.8528
X8.3858Y-2.7528
X8.3858Y-2.8528
X8.5984Y-2.7583
X8.5984Y-2.8583
T6
X5.4291Y-5.9843
X5.439Y-2.8193
X5.439Y-2.9193
X5.5291Y-5.9843
X5.726Y-5.6496
X5.826Y-5.6496
X5.926Y-5.6496
X6.026Y-5.6496
X6.126Y-5.6496
X6.4173Y-5.9843
X6.5173Y-5.9843
X6.6173Y-5.9843
X6.7323Y-5.1398
X6.7402Y-3.95
X6.7402Y-4.05
X6.7402Y-4.15
X6.7402Y-4.25
X6.7402Y-4.35
X6.7402Y-4.45
X6.7402Y-4.55
X6.7402Y-4.65
X6.7402Y-4.75
X6.7402Y-4.85
X6.7402Y-4.95
X8.0904Y-5.2923
X8.1904Y-5.2923
X8.2904Y-5.2923
X8.7913Y-5.2992
X9.3892Y-5.2549
X9.4892Y-5.2549
X9.9Y-5.9449
X10.0Y-5.9449
X10.1Y-5.9449
X10.2Y-5.9449
T7
X7.8913Y-5.463
X7.8913Y-6.063
X7.9913Y-5.463
X7.9913Y-6.063
X8.0913Y-5.463
X8.0913Y-6.063
X8.1913Y-5.463
X8.1913Y-6.063
X8.2913Y-5.463
X8.2913Y-6.063
X8.3913Y-5.463
X8.3913Y-6.063
X8.4913Y-5.463
X8.4913Y-6.063
X8.5913Y-5.463
X8.5913Y-6.063
X8.6913Y-5.463
X8.6913Y-6.063
X8.7913Y-5.463
X8.7913Y-6.063
X8.8913Y-5.463
X8.8913Y-6.063
X8.9913Y-5.463
X8.9913Y-6.063
X9.0913Y-5.463
X9.0913Y-6.063
X9.1913Y-5.463
X9.1913Y-6.063
X9.2913Y-5.463
X9.2913Y-6.063
T8
X7.0669Y-6.0827
X7.2638Y-6.0827
M30
