%TF.GenerationSoftware,KiCad,Pcbnew,8.0.0*%
%TF.CreationDate,2024-05-22T20:52:54+02:00*%
%TF.ProjectId,Game_Board_v1,47616d65-5f42-46f6-9172-645f76312e6b,rev?*%
%TF.SameCoordinates,Original*%
%TF.FileFunction,Drillmap*%
%TF.FilePolarity,Positive*%
%FSLAX45Y45*%
G04 Gerber Fmt 4.5, Leading zero omitted, Abs format (unit mm)*
G04 Created by KiCad (PCBNEW 8.0.0) date 2024-05-22 20:52:54*
%MOMM*%
%LPD*%
G01*
G04 APERTURE LIST*
%ADD10C,0.050000*%
%ADD11C,0.200000*%
%ADD12C,0.100000*%
%ADD13C,0.102000*%
%ADD14C,0.130000*%
G04 APERTURE END LIST*
D10*
X13200000Y-6350000D02*
X28200000Y-6350000D01*
X28200000Y-16350000D01*
X13200000Y-16350000D01*
X13200000Y-6350000D01*
X13685000Y-9730000D02*
X16410000Y-9730000D01*
X16410000Y-13380000D01*
X13685000Y-13380000D01*
X13685000Y-9730000D01*
X19800000Y-14050000D02*
X20200000Y-14050000D01*
X20200000Y-14450000D01*
X19800000Y-14450000D01*
X19800000Y-14050000D01*
X18050000Y-9400000D02*
X23400000Y-9400000D01*
X23400000Y-13200000D01*
X18050000Y-13200000D01*
X18050000Y-9400000D01*
D11*
D12*
X13434000Y-8404000D02*
X13494000Y-8464000D01*
X13494000Y-8404000D02*
X13434000Y-8464000D01*
X14005000Y-8404000D02*
X14065000Y-8464000D01*
X14065000Y-8404000D02*
X14005000Y-8464000D01*
X15815000Y-14775000D02*
X15875000Y-14835000D01*
X15875000Y-14775000D02*
X15815000Y-14835000D01*
X15840000Y-14320000D02*
X15900000Y-14380000D01*
X15900000Y-14320000D02*
X15840000Y-14380000D01*
X15840000Y-14320000D02*
X15900000Y-14380000D01*
X15900000Y-14320000D02*
X15840000Y-14380000D01*
X15850000Y-13580000D02*
X15910000Y-13640000D01*
X15910000Y-13580000D02*
X15850000Y-13640000D01*
X16835000Y-9620000D02*
X16895000Y-9680000D01*
X16895000Y-9620000D02*
X16835000Y-9680000D01*
X16835000Y-11781000D02*
X16895000Y-11841000D01*
X16895000Y-11781000D02*
X16835000Y-11841000D01*
X16835000Y-12040000D02*
X16895000Y-12100000D01*
X16895000Y-12040000D02*
X16835000Y-12100000D01*
X17085000Y-6620000D02*
X17145000Y-6680000D01*
X17145000Y-6620000D02*
X17085000Y-6680000D01*
X17090000Y-9440000D02*
X17150000Y-9500000D01*
X17150000Y-9440000D02*
X17090000Y-9500000D01*
X17330000Y-9600000D02*
X17390000Y-9660000D01*
X17390000Y-9600000D02*
X17330000Y-9660000D01*
X17580000Y-14785000D02*
X17640000Y-14845000D01*
X17640000Y-14785000D02*
X17580000Y-14845000D01*
X17680000Y-13710000D02*
X17740000Y-13770000D01*
X17740000Y-13710000D02*
X17680000Y-13770000D01*
X17695000Y-12890000D02*
X17755000Y-12950000D01*
X17755000Y-12890000D02*
X17695000Y-12950000D01*
X17775000Y-9595000D02*
X17835000Y-9655000D01*
X17835000Y-9595000D02*
X17775000Y-9655000D01*
X19100000Y-14015000D02*
X19160000Y-14075000D01*
X19160000Y-14015000D02*
X19100000Y-14075000D01*
X19100000Y-15370000D02*
X19160000Y-15430000D01*
X19160000Y-15370000D02*
X19100000Y-15430000D01*
X19130000Y-13835000D02*
X19190000Y-13895000D01*
X19190000Y-13835000D02*
X19130000Y-13895000D01*
X19765000Y-7445000D02*
X19825000Y-7505000D01*
X19825000Y-7445000D02*
X19765000Y-7505000D01*
X21790000Y-14330000D02*
X21850000Y-14390000D01*
X21850000Y-14330000D02*
X21790000Y-14390000D01*
X22055000Y-7440000D02*
X22115000Y-7500000D01*
X22115000Y-7440000D02*
X22055000Y-7500000D01*
X22590000Y-14330000D02*
X22650000Y-14390000D01*
X22650000Y-14330000D02*
X22590000Y-14390000D01*
X23010000Y-14810000D02*
X23070000Y-14870000D01*
X23070000Y-14810000D02*
X23010000Y-14870000D01*
X24700000Y-7635000D02*
X24760000Y-7695000D01*
X24760000Y-7635000D02*
X24700000Y-7695000D01*
X24700000Y-8320000D02*
X24760000Y-8380000D01*
X24760000Y-8320000D02*
X24700000Y-8380000D01*
X24820000Y-14810000D02*
X24880000Y-14870000D01*
X24880000Y-14810000D02*
X24820000Y-14870000D01*
X25170000Y-13840000D02*
X25230000Y-13900000D01*
X25230000Y-13840000D02*
X25170000Y-13900000D01*
X25170000Y-14570000D02*
X25230000Y-14630000D01*
X25230000Y-14570000D02*
X25170000Y-14630000D01*
X25738100Y-10950000D02*
G75*
G02*
X25661900Y-10950000I-38100J0D01*
G01*
X25661900Y-10950000D02*
G75*
G02*
X25738100Y-10950000I38100J0D01*
G01*
X25738100Y-11450000D02*
G75*
G02*
X25661900Y-11450000I-38100J0D01*
G01*
X25661900Y-11450000D02*
G75*
G02*
X25738100Y-11450000I38100J0D01*
G01*
X26288100Y-10400000D02*
G75*
G02*
X26211900Y-10400000I-38100J0D01*
G01*
X26211900Y-10400000D02*
G75*
G02*
X26288100Y-10400000I38100J0D01*
G01*
X26288100Y-12000000D02*
G75*
G02*
X26211900Y-12000000I-38100J0D01*
G01*
X26211900Y-12000000D02*
G75*
G02*
X26288100Y-12000000I38100J0D01*
G01*
X26788100Y-10400000D02*
G75*
G02*
X26711900Y-10400000I-38100J0D01*
G01*
X26711900Y-10400000D02*
G75*
G02*
X26788100Y-10400000I38100J0D01*
G01*
X26788100Y-12000000D02*
G75*
G02*
X26711900Y-12000000I-38100J0D01*
G01*
X26711900Y-12000000D02*
G75*
G02*
X26788100Y-12000000I38100J0D01*
G01*
X27338100Y-10950000D02*
G75*
G02*
X27261900Y-10950000I-38100J0D01*
G01*
X27261900Y-10950000D02*
G75*
G02*
X27338100Y-10950000I38100J0D01*
G01*
X27338100Y-11450000D02*
G75*
G02*
X27261900Y-11450000I-38100J0D01*
G01*
X27261900Y-11450000D02*
G75*
G02*
X27338100Y-11450000I38100J0D01*
G01*
X13892000Y-13602000D02*
X13892000Y-13682000D01*
X13852000Y-13642000D02*
X13932000Y-13642000D01*
X13892000Y-14618000D02*
X13892000Y-14698000D01*
X13852000Y-14658000D02*
X13932000Y-14658000D01*
X14542000Y-15168000D02*
X14542000Y-15248000D01*
X14502000Y-15208000D02*
X14582000Y-15208000D01*
X14788000Y-15910000D02*
X14788000Y-15990000D01*
X14748000Y-15950000D02*
X14828000Y-15950000D01*
X14800000Y-15560000D02*
X14800000Y-15640000D01*
X14760000Y-15600000D02*
X14840000Y-15600000D01*
X14900000Y-14760000D02*
X14900000Y-14840000D01*
X14860000Y-14800000D02*
X14940000Y-14800000D01*
X15400000Y-14760000D02*
X15400000Y-14840000D01*
X15360000Y-14800000D02*
X15440000Y-14800000D01*
X15550000Y-15910000D02*
X15550000Y-15990000D01*
X15510000Y-15950000D02*
X15590000Y-15950000D01*
X15558000Y-15168000D02*
X15558000Y-15248000D01*
X15518000Y-15208000D02*
X15598000Y-15208000D01*
X15562000Y-15560000D02*
X15562000Y-15640000D01*
X15522000Y-15600000D02*
X15602000Y-15600000D01*
X16105000Y-14120000D02*
X16105000Y-14200000D01*
X16065000Y-14160000D02*
X16145000Y-14160000D01*
X16359000Y-14374000D02*
X16359000Y-14454000D01*
X16319000Y-14414000D02*
X16399000Y-14414000D01*
X16613000Y-14120000D02*
X16613000Y-14200000D01*
X16573000Y-14160000D02*
X16653000Y-14160000D01*
X18378000Y-7144000D02*
X18378000Y-7224000D01*
X18338000Y-7184000D02*
X18418000Y-7184000D01*
X18378000Y-7398000D02*
X18378000Y-7478000D01*
X18338000Y-7438000D02*
X18418000Y-7438000D01*
X18378000Y-7652000D02*
X18378000Y-7732000D01*
X18338000Y-7692000D02*
X18418000Y-7692000D01*
X18378000Y-7906000D02*
X18378000Y-7986000D01*
X18338000Y-7946000D02*
X18418000Y-7946000D01*
X18378000Y-8160000D02*
X18378000Y-8240000D01*
X18338000Y-8200000D02*
X18418000Y-8200000D01*
X18378000Y-8414000D02*
X18378000Y-8494000D01*
X18338000Y-8454000D02*
X18418000Y-8454000D01*
X18378000Y-8668000D02*
X18378000Y-8748000D01*
X18338000Y-8708000D02*
X18418000Y-8708000D01*
X19140000Y-7144000D02*
X19140000Y-7224000D01*
X19100000Y-7184000D02*
X19180000Y-7184000D01*
X19140000Y-7398000D02*
X19140000Y-7478000D01*
X19100000Y-7438000D02*
X19180000Y-7438000D01*
X19140000Y-7652000D02*
X19140000Y-7732000D01*
X19100000Y-7692000D02*
X19180000Y-7692000D01*
X19140000Y-7906000D02*
X19140000Y-7986000D01*
X19100000Y-7946000D02*
X19180000Y-7946000D01*
X19140000Y-8160000D02*
X19140000Y-8240000D01*
X19100000Y-8200000D02*
X19180000Y-8200000D01*
X19140000Y-8414000D02*
X19140000Y-8494000D01*
X19100000Y-8454000D02*
X19180000Y-8454000D01*
X19140000Y-8668000D02*
X19140000Y-8748000D01*
X19100000Y-8708000D02*
X19180000Y-8708000D01*
X20001000Y-7645000D02*
X20001000Y-7725000D01*
X19961000Y-7685000D02*
X20041000Y-7685000D01*
X20001000Y-8661000D02*
X20001000Y-8741000D01*
X19961000Y-8701000D02*
X20041000Y-8701000D01*
X20539000Y-7645000D02*
X20539000Y-7725000D01*
X20499000Y-7685000D02*
X20579000Y-7685000D01*
X20539000Y-8407000D02*
X20539000Y-8487000D01*
X20499000Y-8447000D02*
X20579000Y-8447000D01*
X20793000Y-7645000D02*
X20793000Y-7725000D01*
X20753000Y-7685000D02*
X20833000Y-7685000D01*
X20793000Y-8407000D02*
X20793000Y-8487000D01*
X20753000Y-8447000D02*
X20833000Y-8447000D01*
X20849000Y-14570000D02*
X20849000Y-14650000D01*
X20809000Y-14610000D02*
X20889000Y-14610000D01*
X20849000Y-14905000D02*
X20849000Y-14985000D01*
X20809000Y-14945000D02*
X20889000Y-14945000D01*
X21047000Y-7645000D02*
X21047000Y-7725000D01*
X21007000Y-7685000D02*
X21087000Y-7685000D01*
X21047000Y-8407000D02*
X21047000Y-8487000D01*
X21007000Y-8447000D02*
X21087000Y-8447000D01*
X21301000Y-7645000D02*
X21301000Y-7725000D01*
X21261000Y-7685000D02*
X21341000Y-7685000D01*
X21301000Y-8407000D02*
X21301000Y-8487000D01*
X21261000Y-8447000D02*
X21341000Y-8447000D01*
X21555000Y-7645000D02*
X21555000Y-7725000D01*
X21515000Y-7685000D02*
X21595000Y-7685000D01*
X21555000Y-8407000D02*
X21555000Y-8487000D01*
X21515000Y-8447000D02*
X21595000Y-8447000D01*
X21809000Y-7645000D02*
X21809000Y-7725000D01*
X21769000Y-7685000D02*
X21849000Y-7685000D01*
X21809000Y-8407000D02*
X21809000Y-8487000D01*
X21769000Y-8447000D02*
X21849000Y-8447000D01*
X21865000Y-14570000D02*
X21865000Y-14650000D01*
X21825000Y-14610000D02*
X21905000Y-14610000D01*
X21865000Y-14905000D02*
X21865000Y-14985000D01*
X21825000Y-14945000D02*
X21905000Y-14945000D01*
X22063000Y-7645000D02*
X22063000Y-7725000D01*
X22023000Y-7685000D02*
X22103000Y-7685000D01*
X22063000Y-8407000D02*
X22063000Y-8487000D01*
X22023000Y-8447000D02*
X22103000Y-8447000D01*
X22317000Y-7645000D02*
X22317000Y-7725000D01*
X22277000Y-7685000D02*
X22357000Y-7685000D01*
X22317000Y-8407000D02*
X22317000Y-8487000D01*
X22277000Y-8447000D02*
X22357000Y-8447000D01*
X22571000Y-7645000D02*
X22571000Y-7725000D01*
X22531000Y-7685000D02*
X22611000Y-7685000D01*
X22571000Y-8407000D02*
X22571000Y-8487000D01*
X22531000Y-8447000D02*
X22611000Y-8447000D01*
X23940000Y-8310000D02*
X23940000Y-8390000D01*
X23900000Y-8350000D02*
X23980000Y-8350000D01*
X24334000Y-9310000D02*
X24334000Y-9390000D01*
X24294000Y-9350000D02*
X24374000Y-9350000D01*
X24334000Y-9660000D02*
X24334000Y-9740000D01*
X24294000Y-9700000D02*
X24374000Y-9700000D01*
X24440000Y-8310000D02*
X24440000Y-8390000D01*
X24400000Y-8350000D02*
X24480000Y-8350000D01*
X24550000Y-8860000D02*
X24550000Y-8940000D01*
X24510000Y-8900000D02*
X24590000Y-8900000D01*
X24657500Y-7007500D02*
X24657500Y-7087500D01*
X24617500Y-7047500D02*
X24697500Y-7047500D01*
X24657500Y-7327500D02*
X24657500Y-7407500D01*
X24617500Y-7367500D02*
X24697500Y-7367500D01*
X25042000Y-8310000D02*
X25042000Y-8390000D01*
X25002000Y-8350000D02*
X25082000Y-8350000D01*
X25050000Y-8860000D02*
X25050000Y-8940000D01*
X25010000Y-8900000D02*
X25090000Y-8900000D01*
X25350000Y-9310000D02*
X25350000Y-9390000D01*
X25310000Y-9350000D02*
X25390000Y-9350000D01*
X25350000Y-9660000D02*
X25350000Y-9740000D01*
X25310000Y-9700000D02*
X25390000Y-9700000D01*
X25492000Y-8860000D02*
X25492000Y-8940000D01*
X25452000Y-8900000D02*
X25532000Y-8900000D01*
X25542000Y-8310000D02*
X25542000Y-8390000D01*
X25502000Y-8350000D02*
X25582000Y-8350000D01*
X25673500Y-7007500D02*
X25673500Y-7087500D01*
X25633500Y-7047500D02*
X25713500Y-7047500D01*
X25673500Y-7327500D02*
X25673500Y-7407500D01*
X25633500Y-7367500D02*
X25713500Y-7367500D01*
X25934000Y-8310000D02*
X25934000Y-8390000D01*
X25894000Y-8350000D02*
X25974000Y-8350000D01*
X25992000Y-8860000D02*
X25992000Y-8940000D01*
X25952000Y-8900000D02*
X26032000Y-8900000D01*
X26214000Y-7000000D02*
X26214000Y-7080000D01*
X26174000Y-7040000D02*
X26254000Y-7040000D01*
X26224000Y-7325000D02*
X26224000Y-7405000D01*
X26184000Y-7365000D02*
X26264000Y-7365000D01*
X26384000Y-8860000D02*
X26384000Y-8940000D01*
X26344000Y-8900000D02*
X26424000Y-8900000D01*
X26950000Y-8310000D02*
X26950000Y-8390000D01*
X26910000Y-8350000D02*
X26990000Y-8350000D01*
X27230000Y-7000000D02*
X27230000Y-7080000D01*
X27190000Y-7040000D02*
X27270000Y-7040000D01*
X27240000Y-7325000D02*
X27240000Y-7405000D01*
X27200000Y-7365000D02*
X27280000Y-7365000D01*
X27400000Y-8860000D02*
X27400000Y-8940000D01*
X27360000Y-8900000D02*
X27440000Y-8900000D01*
X14455431Y-6941431D02*
X14455431Y-6878569D01*
X14392569Y-6878569D01*
X14392569Y-6941431D01*
X14455431Y-6941431D01*
X14455431Y-7195431D02*
X14455431Y-7132569D01*
X14392569Y-7132569D01*
X14392569Y-7195431D01*
X14455431Y-7195431D01*
X14455431Y-7449431D02*
X14455431Y-7386569D01*
X14392569Y-7386569D01*
X14392569Y-7449431D01*
X14455431Y-7449431D01*
X14455431Y-7703431D02*
X14455431Y-7640569D01*
X14392569Y-7640569D01*
X14392569Y-7703431D01*
X14455431Y-7703431D01*
X14455431Y-7957431D02*
X14455431Y-7894569D01*
X14392569Y-7894569D01*
X14392569Y-7957431D01*
X14455431Y-7957431D01*
X14455431Y-8211431D02*
X14455431Y-8148569D01*
X14392569Y-8148569D01*
X14392569Y-8211431D01*
X14455431Y-8211431D01*
X14455431Y-8465431D02*
X14455431Y-8402569D01*
X14392569Y-8402569D01*
X14392569Y-8465431D01*
X14455431Y-8465431D01*
X14455431Y-8719431D02*
X14455431Y-8656569D01*
X14392569Y-8656569D01*
X14392569Y-8719431D01*
X14455431Y-8719431D01*
X16741431Y-6941431D02*
X16741431Y-6878569D01*
X16678569Y-6878569D01*
X16678569Y-6941431D01*
X16741431Y-6941431D01*
X16741431Y-7195431D02*
X16741431Y-7132569D01*
X16678569Y-7132569D01*
X16678569Y-7195431D01*
X16741431Y-7195431D01*
X16741431Y-7449431D02*
X16741431Y-7386569D01*
X16678569Y-7386569D01*
X16678569Y-7449431D01*
X16741431Y-7449431D01*
X16741431Y-7703431D02*
X16741431Y-7640569D01*
X16678569Y-7640569D01*
X16678569Y-7703431D01*
X16741431Y-7703431D01*
X16741431Y-7957431D02*
X16741431Y-7894569D01*
X16678569Y-7894569D01*
X16678569Y-7957431D01*
X16741431Y-7957431D01*
X16741431Y-8211431D02*
X16741431Y-8148569D01*
X16678569Y-8148569D01*
X16678569Y-8211431D01*
X16741431Y-8211431D01*
X16741431Y-8465431D02*
X16741431Y-8402569D01*
X16678569Y-8402569D01*
X16678569Y-8465431D01*
X16741431Y-8465431D01*
X16741431Y-8719431D02*
X16741431Y-8656569D01*
X16678569Y-8656569D01*
X16678569Y-8719431D01*
X16741431Y-8719431D01*
X20220000Y-7031000D02*
X20265000Y-6986000D01*
X20220000Y-6941000D01*
X20175000Y-6986000D01*
X20220000Y-7031000D01*
X20220000Y-7285000D02*
X20265000Y-7240000D01*
X20220000Y-7195000D01*
X20175000Y-7240000D01*
X20220000Y-7285000D01*
X20763500Y-7037000D02*
X20808500Y-6992000D01*
X20763500Y-6947000D01*
X20718500Y-6992000D01*
X20763500Y-7037000D01*
X20763500Y-7291000D02*
X20808500Y-7246000D01*
X20763500Y-7201000D01*
X20718500Y-7246000D01*
X20763500Y-7291000D01*
X21300000Y-7037000D02*
X21345000Y-6992000D01*
X21300000Y-6947000D01*
X21255000Y-6992000D01*
X21300000Y-7037000D01*
X21300000Y-7291000D02*
X21345000Y-7246000D01*
X21300000Y-7201000D01*
X21255000Y-7246000D01*
X21300000Y-7291000D01*
X21840000Y-7051000D02*
X21885000Y-7006000D01*
X21840000Y-6961000D01*
X21795000Y-7006000D01*
X21840000Y-7051000D01*
X21840000Y-7305000D02*
X21885000Y-7260000D01*
X21840000Y-7215000D01*
X21795000Y-7260000D01*
X21840000Y-7305000D01*
X13740000Y-15150000D02*
X13840000Y-15250000D01*
X13840000Y-15150000D02*
X13740000Y-15250000D01*
X13840000Y-15200000D02*
G75*
G02*
X13740000Y-15200000I-50000J0D01*
G01*
X13740000Y-15200000D02*
G75*
G02*
X13840000Y-15200000I50000J0D01*
G01*
X13765000Y-7111000D02*
X13865000Y-7211000D01*
X13865000Y-7111000D02*
X13765000Y-7211000D01*
X13865000Y-7161000D02*
G75*
G02*
X13765000Y-7161000I-50000J0D01*
G01*
X13765000Y-7161000D02*
G75*
G02*
X13865000Y-7161000I50000J0D01*
G01*
X13765000Y-7365000D02*
X13865000Y-7465000D01*
X13865000Y-7365000D02*
X13765000Y-7465000D01*
X13865000Y-7415000D02*
G75*
G02*
X13765000Y-7415000I-50000J0D01*
G01*
X13765000Y-7415000D02*
G75*
G02*
X13865000Y-7415000I50000J0D01*
G01*
X13994000Y-15150000D02*
X14094000Y-15250000D01*
X14094000Y-15150000D02*
X13994000Y-15250000D01*
X14094000Y-15200000D02*
G75*
G02*
X13994000Y-15200000I-50000J0D01*
G01*
X13994000Y-15200000D02*
G75*
G02*
X14094000Y-15200000I50000J0D01*
G01*
X14494000Y-14300000D02*
X14594000Y-14400000D01*
X14594000Y-14300000D02*
X14494000Y-14400000D01*
X14594000Y-14350000D02*
G75*
G02*
X14494000Y-14350000I-50000J0D01*
G01*
X14494000Y-14350000D02*
G75*
G02*
X14594000Y-14350000I50000J0D01*
G01*
X14748000Y-14300000D02*
X14848000Y-14400000D01*
X14848000Y-14300000D02*
X14748000Y-14400000D01*
X14848000Y-14350000D02*
G75*
G02*
X14748000Y-14350000I-50000J0D01*
G01*
X14748000Y-14350000D02*
G75*
G02*
X14848000Y-14350000I50000J0D01*
G01*
X15002000Y-14300000D02*
X15102000Y-14400000D01*
X15102000Y-14300000D02*
X15002000Y-14400000D01*
X15102000Y-14350000D02*
G75*
G02*
X15002000Y-14350000I-50000J0D01*
G01*
X15002000Y-14350000D02*
G75*
G02*
X15102000Y-14350000I50000J0D01*
G01*
X15256000Y-14300000D02*
X15356000Y-14400000D01*
X15356000Y-14300000D02*
X15256000Y-14400000D01*
X15356000Y-14350000D02*
G75*
G02*
X15256000Y-14350000I-50000J0D01*
G01*
X15256000Y-14350000D02*
G75*
G02*
X15356000Y-14350000I50000J0D01*
G01*
X15510000Y-14300000D02*
X15610000Y-14400000D01*
X15610000Y-14300000D02*
X15510000Y-14400000D01*
X15610000Y-14350000D02*
G75*
G02*
X15510000Y-14350000I-50000J0D01*
G01*
X15510000Y-14350000D02*
G75*
G02*
X15610000Y-14350000I50000J0D01*
G01*
X16250000Y-15150000D02*
X16350000Y-15250000D01*
X16350000Y-15150000D02*
X16250000Y-15250000D01*
X16350000Y-15200000D02*
G75*
G02*
X16250000Y-15200000I-50000J0D01*
G01*
X16250000Y-15200000D02*
G75*
G02*
X16350000Y-15200000I50000J0D01*
G01*
X16504000Y-15150000D02*
X16604000Y-15250000D01*
X16604000Y-15150000D02*
X16504000Y-15250000D01*
X16604000Y-15200000D02*
G75*
G02*
X16504000Y-15200000I-50000J0D01*
G01*
X16504000Y-15200000D02*
G75*
G02*
X16604000Y-15200000I50000J0D01*
G01*
X16758000Y-15150000D02*
X16858000Y-15250000D01*
X16858000Y-15150000D02*
X16758000Y-15250000D01*
X16858000Y-15200000D02*
G75*
G02*
X16758000Y-15200000I-50000J0D01*
G01*
X16758000Y-15200000D02*
G75*
G02*
X16858000Y-15200000I50000J0D01*
G01*
X17050000Y-13005000D02*
X17150000Y-13105000D01*
X17150000Y-13005000D02*
X17050000Y-13105000D01*
X17150000Y-13055000D02*
G75*
G02*
X17050000Y-13055000I-50000J0D01*
G01*
X17050000Y-13055000D02*
G75*
G02*
X17150000Y-13055000I50000J0D01*
G01*
X17070000Y-9983000D02*
X17170000Y-10083000D01*
X17170000Y-9983000D02*
X17070000Y-10083000D01*
X17170000Y-10033000D02*
G75*
G02*
X17070000Y-10033000I-50000J0D01*
G01*
X17070000Y-10033000D02*
G75*
G02*
X17170000Y-10033000I50000J0D01*
G01*
X17070000Y-10237000D02*
X17170000Y-10337000D01*
X17170000Y-10237000D02*
X17070000Y-10337000D01*
X17170000Y-10287000D02*
G75*
G02*
X17070000Y-10287000I-50000J0D01*
G01*
X17070000Y-10287000D02*
G75*
G02*
X17170000Y-10287000I50000J0D01*
G01*
X17070000Y-10491000D02*
X17170000Y-10591000D01*
X17170000Y-10491000D02*
X17070000Y-10591000D01*
X17170000Y-10541000D02*
G75*
G02*
X17070000Y-10541000I-50000J0D01*
G01*
X17070000Y-10541000D02*
G75*
G02*
X17170000Y-10541000I50000J0D01*
G01*
X17070000Y-10745000D02*
X17170000Y-10845000D01*
X17170000Y-10745000D02*
X17070000Y-10845000D01*
X17170000Y-10795000D02*
G75*
G02*
X17070000Y-10795000I-50000J0D01*
G01*
X17070000Y-10795000D02*
G75*
G02*
X17170000Y-10795000I50000J0D01*
G01*
X17070000Y-10999000D02*
X17170000Y-11099000D01*
X17170000Y-10999000D02*
X17070000Y-11099000D01*
X17170000Y-11049000D02*
G75*
G02*
X17070000Y-11049000I-50000J0D01*
G01*
X17070000Y-11049000D02*
G75*
G02*
X17170000Y-11049000I50000J0D01*
G01*
X17070000Y-11253000D02*
X17170000Y-11353000D01*
X17170000Y-11253000D02*
X17070000Y-11353000D01*
X17170000Y-11303000D02*
G75*
G02*
X17070000Y-11303000I-50000J0D01*
G01*
X17070000Y-11303000D02*
G75*
G02*
X17170000Y-11303000I50000J0D01*
G01*
X17070000Y-11507000D02*
X17170000Y-11607000D01*
X17170000Y-11507000D02*
X17070000Y-11607000D01*
X17170000Y-11557000D02*
G75*
G02*
X17070000Y-11557000I-50000J0D01*
G01*
X17070000Y-11557000D02*
G75*
G02*
X17170000Y-11557000I50000J0D01*
G01*
X17070000Y-11761000D02*
X17170000Y-11861000D01*
X17170000Y-11761000D02*
X17070000Y-11861000D01*
X17170000Y-11811000D02*
G75*
G02*
X17070000Y-11811000I-50000J0D01*
G01*
X17070000Y-11811000D02*
G75*
G02*
X17170000Y-11811000I50000J0D01*
G01*
X17070000Y-12015000D02*
X17170000Y-12115000D01*
X17170000Y-12015000D02*
X17070000Y-12115000D01*
X17170000Y-12065000D02*
G75*
G02*
X17070000Y-12065000I-50000J0D01*
G01*
X17070000Y-12065000D02*
G75*
G02*
X17170000Y-12065000I50000J0D01*
G01*
X17070000Y-12269000D02*
X17170000Y-12369000D01*
X17170000Y-12269000D02*
X17070000Y-12369000D01*
X17170000Y-12319000D02*
G75*
G02*
X17070000Y-12319000I-50000J0D01*
G01*
X17070000Y-12319000D02*
G75*
G02*
X17170000Y-12319000I50000J0D01*
G01*
X17070000Y-12523000D02*
X17170000Y-12623000D01*
X17170000Y-12523000D02*
X17070000Y-12623000D01*
X17170000Y-12573000D02*
G75*
G02*
X17070000Y-12573000I-50000J0D01*
G01*
X17070000Y-12573000D02*
G75*
G02*
X17170000Y-12573000I50000J0D01*
G01*
X20499500Y-13392500D02*
X20599500Y-13492500D01*
X20599500Y-13392500D02*
X20499500Y-13492500D01*
X20599500Y-13442500D02*
G75*
G02*
X20499500Y-13442500I-50000J0D01*
G01*
X20499500Y-13442500D02*
G75*
G02*
X20599500Y-13442500I50000J0D01*
G01*
X20753500Y-13392500D02*
X20853500Y-13492500D01*
X20853500Y-13392500D02*
X20753500Y-13492500D01*
X20853500Y-13442500D02*
G75*
G02*
X20753500Y-13442500I-50000J0D01*
G01*
X20753500Y-13442500D02*
G75*
G02*
X20853500Y-13442500I50000J0D01*
G01*
X21007500Y-13392500D02*
X21107500Y-13492500D01*
X21107500Y-13392500D02*
X21007500Y-13492500D01*
X21107500Y-13442500D02*
G75*
G02*
X21007500Y-13442500I-50000J0D01*
G01*
X21007500Y-13442500D02*
G75*
G02*
X21107500Y-13442500I50000J0D01*
G01*
X22280000Y-13410000D02*
X22380000Y-13510000D01*
X22380000Y-13410000D02*
X22280000Y-13510000D01*
X22380000Y-13460000D02*
G75*
G02*
X22280000Y-13460000I-50000J0D01*
G01*
X22280000Y-13460000D02*
G75*
G02*
X22380000Y-13460000I50000J0D01*
G01*
X23798500Y-13297500D02*
X23898500Y-13397500D01*
X23898500Y-13297500D02*
X23798500Y-13397500D01*
X23898500Y-13347500D02*
G75*
G02*
X23798500Y-13347500I-50000J0D01*
G01*
X23798500Y-13347500D02*
G75*
G02*
X23898500Y-13347500I50000J0D01*
G01*
X24052500Y-13297500D02*
X24152500Y-13397500D01*
X24152500Y-13297500D02*
X24052500Y-13397500D01*
X24152500Y-13347500D02*
G75*
G02*
X24052500Y-13347500I-50000J0D01*
G01*
X24052500Y-13347500D02*
G75*
G02*
X24152500Y-13347500I50000J0D01*
G01*
X25096000Y-15050000D02*
X25196000Y-15150000D01*
X25196000Y-15050000D02*
X25096000Y-15150000D01*
X25196000Y-15100000D02*
G75*
G02*
X25096000Y-15100000I-50000J0D01*
G01*
X25096000Y-15100000D02*
G75*
G02*
X25196000Y-15100000I50000J0D01*
G01*
X25350000Y-15050000D02*
X25450000Y-15150000D01*
X25450000Y-15050000D02*
X25350000Y-15150000D01*
X25450000Y-15100000D02*
G75*
G02*
X25350000Y-15100000I-50000J0D01*
G01*
X25350000Y-15100000D02*
G75*
G02*
X25450000Y-15100000I50000J0D01*
G01*
X25604000Y-15050000D02*
X25704000Y-15150000D01*
X25704000Y-15050000D02*
X25604000Y-15150000D01*
X25704000Y-15100000D02*
G75*
G02*
X25604000Y-15100000I-50000J0D01*
G01*
X25604000Y-15100000D02*
G75*
G02*
X25704000Y-15100000I50000J0D01*
G01*
X25858000Y-15050000D02*
X25958000Y-15150000D01*
X25958000Y-15050000D02*
X25858000Y-15150000D01*
X25958000Y-15100000D02*
G75*
G02*
X25858000Y-15100000I-50000J0D01*
G01*
X25858000Y-15100000D02*
G75*
G02*
X25958000Y-15100000I50000J0D01*
G01*
D13*
X19993000Y-13825000D02*
X20095000Y-13927000D01*
X20095000Y-13825000D02*
X19993000Y-13927000D01*
X20044000Y-13825000D02*
X20044000Y-13927000D01*
X19993000Y-13876000D02*
X20095000Y-13876000D01*
X19993000Y-15349000D02*
X20095000Y-15451000D01*
X20095000Y-15349000D02*
X19993000Y-15451000D01*
X20044000Y-15349000D02*
X20044000Y-15451000D01*
X19993000Y-15400000D02*
X20095000Y-15400000D01*
X20247000Y-13825000D02*
X20349000Y-13927000D01*
X20349000Y-13825000D02*
X20247000Y-13927000D01*
X20298000Y-13825000D02*
X20298000Y-13927000D01*
X20247000Y-13876000D02*
X20349000Y-13876000D01*
X20247000Y-15349000D02*
X20349000Y-15451000D01*
X20349000Y-15349000D02*
X20247000Y-15451000D01*
X20298000Y-15349000D02*
X20298000Y-15451000D01*
X20247000Y-15400000D02*
X20349000Y-15400000D01*
X20501000Y-13825000D02*
X20603000Y-13927000D01*
X20603000Y-13825000D02*
X20501000Y-13927000D01*
X20552000Y-13825000D02*
X20552000Y-13927000D01*
X20501000Y-13876000D02*
X20603000Y-13876000D01*
X20501000Y-15349000D02*
X20603000Y-15451000D01*
X20603000Y-15349000D02*
X20501000Y-15451000D01*
X20552000Y-15349000D02*
X20552000Y-15451000D01*
X20501000Y-15400000D02*
X20603000Y-15400000D01*
X20755000Y-13825000D02*
X20857000Y-13927000D01*
X20857000Y-13825000D02*
X20755000Y-13927000D01*
X20806000Y-13825000D02*
X20806000Y-13927000D01*
X20755000Y-13876000D02*
X20857000Y-13876000D01*
X20755000Y-15349000D02*
X20857000Y-15451000D01*
X20857000Y-15349000D02*
X20755000Y-15451000D01*
X20806000Y-15349000D02*
X20806000Y-15451000D01*
X20755000Y-15400000D02*
X20857000Y-15400000D01*
X21009000Y-13825000D02*
X21111000Y-13927000D01*
X21111000Y-13825000D02*
X21009000Y-13927000D01*
X21060000Y-13825000D02*
X21060000Y-13927000D01*
X21009000Y-13876000D02*
X21111000Y-13876000D01*
X21009000Y-15349000D02*
X21111000Y-15451000D01*
X21111000Y-15349000D02*
X21009000Y-15451000D01*
X21060000Y-15349000D02*
X21060000Y-15451000D01*
X21009000Y-15400000D02*
X21111000Y-15400000D01*
X21263000Y-13825000D02*
X21365000Y-13927000D01*
X21365000Y-13825000D02*
X21263000Y-13927000D01*
X21314000Y-13825000D02*
X21314000Y-13927000D01*
X21263000Y-13876000D02*
X21365000Y-13876000D01*
X21263000Y-15349000D02*
X21365000Y-15451000D01*
X21365000Y-15349000D02*
X21263000Y-15451000D01*
X21314000Y-15349000D02*
X21314000Y-15451000D01*
X21263000Y-15400000D02*
X21365000Y-15400000D01*
X21517000Y-13825000D02*
X21619000Y-13927000D01*
X21619000Y-13825000D02*
X21517000Y-13927000D01*
X21568000Y-13825000D02*
X21568000Y-13927000D01*
X21517000Y-13876000D02*
X21619000Y-13876000D01*
X21517000Y-15349000D02*
X21619000Y-15451000D01*
X21619000Y-15349000D02*
X21517000Y-15451000D01*
X21568000Y-15349000D02*
X21568000Y-15451000D01*
X21517000Y-15400000D02*
X21619000Y-15400000D01*
X21771000Y-13825000D02*
X21873000Y-13927000D01*
X21873000Y-13825000D02*
X21771000Y-13927000D01*
X21822000Y-13825000D02*
X21822000Y-13927000D01*
X21771000Y-13876000D02*
X21873000Y-13876000D01*
X21771000Y-15349000D02*
X21873000Y-15451000D01*
X21873000Y-15349000D02*
X21771000Y-15451000D01*
X21822000Y-15349000D02*
X21822000Y-15451000D01*
X21771000Y-15400000D02*
X21873000Y-15400000D01*
X22025000Y-13825000D02*
X22127000Y-13927000D01*
X22127000Y-13825000D02*
X22025000Y-13927000D01*
X22076000Y-13825000D02*
X22076000Y-13927000D01*
X22025000Y-13876000D02*
X22127000Y-13876000D01*
X22025000Y-15349000D02*
X22127000Y-15451000D01*
X22127000Y-15349000D02*
X22025000Y-15451000D01*
X22076000Y-15349000D02*
X22076000Y-15451000D01*
X22025000Y-15400000D02*
X22127000Y-15400000D01*
X22279000Y-13825000D02*
X22381000Y-13927000D01*
X22381000Y-13825000D02*
X22279000Y-13927000D01*
X22330000Y-13825000D02*
X22330000Y-13927000D01*
X22279000Y-13876000D02*
X22381000Y-13876000D01*
X22279000Y-15349000D02*
X22381000Y-15451000D01*
X22381000Y-15349000D02*
X22279000Y-15451000D01*
X22330000Y-15349000D02*
X22330000Y-15451000D01*
X22279000Y-15400000D02*
X22381000Y-15400000D01*
X22533000Y-13825000D02*
X22635000Y-13927000D01*
X22635000Y-13825000D02*
X22533000Y-13927000D01*
X22584000Y-13825000D02*
X22584000Y-13927000D01*
X22533000Y-13876000D02*
X22635000Y-13876000D01*
X22533000Y-15349000D02*
X22635000Y-15451000D01*
X22635000Y-15349000D02*
X22533000Y-15451000D01*
X22584000Y-15349000D02*
X22584000Y-15451000D01*
X22533000Y-15400000D02*
X22635000Y-15400000D01*
X22787000Y-13825000D02*
X22889000Y-13927000D01*
X22889000Y-13825000D02*
X22787000Y-13927000D01*
X22838000Y-13825000D02*
X22838000Y-13927000D01*
X22787000Y-13876000D02*
X22889000Y-13876000D01*
X22787000Y-15349000D02*
X22889000Y-15451000D01*
X22889000Y-15349000D02*
X22787000Y-15451000D01*
X22838000Y-15349000D02*
X22838000Y-15451000D01*
X22787000Y-15400000D02*
X22889000Y-15400000D01*
X23041000Y-13825000D02*
X23143000Y-13927000D01*
X23143000Y-13825000D02*
X23041000Y-13927000D01*
X23092000Y-13825000D02*
X23092000Y-13927000D01*
X23041000Y-13876000D02*
X23143000Y-13876000D01*
X23041000Y-15349000D02*
X23143000Y-15451000D01*
X23143000Y-15349000D02*
X23041000Y-15451000D01*
X23092000Y-15349000D02*
X23092000Y-15451000D01*
X23041000Y-15400000D02*
X23143000Y-15400000D01*
X23295000Y-13825000D02*
X23397000Y-13927000D01*
X23397000Y-13825000D02*
X23295000Y-13927000D01*
X23346000Y-13825000D02*
X23346000Y-13927000D01*
X23295000Y-13876000D02*
X23397000Y-13876000D01*
X23295000Y-15349000D02*
X23397000Y-15451000D01*
X23397000Y-15349000D02*
X23295000Y-15451000D01*
X23346000Y-15349000D02*
X23346000Y-15451000D01*
X23295000Y-15400000D02*
X23397000Y-15400000D01*
X23549000Y-13825000D02*
X23651000Y-13927000D01*
X23651000Y-13825000D02*
X23549000Y-13927000D01*
X23600000Y-13825000D02*
X23600000Y-13927000D01*
X23549000Y-13876000D02*
X23651000Y-13876000D01*
X23549000Y-15349000D02*
X23651000Y-15451000D01*
X23651000Y-15349000D02*
X23549000Y-15451000D01*
X23600000Y-15349000D02*
X23600000Y-15451000D01*
X23549000Y-15400000D02*
X23651000Y-15400000D01*
D14*
X17885000Y-15385000D02*
X18015000Y-15515000D01*
X18015000Y-15385000D02*
X17885000Y-15515000D01*
X17995962Y-15495962D02*
X17995962Y-15404038D01*
X17904038Y-15404038D01*
X17904038Y-15495962D01*
X17995962Y-15495962D01*
X18385000Y-15385000D02*
X18515000Y-15515000D01*
X18515000Y-15385000D02*
X18385000Y-15515000D01*
X18495962Y-15495962D02*
X18495962Y-15404038D01*
X18404038Y-15404038D01*
X18404038Y-15495962D01*
X18495962Y-15495962D01*
D11*
X13458277Y-16663984D02*
X13458277Y-16463984D01*
X13458277Y-16463984D02*
X13505896Y-16463984D01*
X13505896Y-16463984D02*
X13534467Y-16473508D01*
X13534467Y-16473508D02*
X13553515Y-16492555D01*
X13553515Y-16492555D02*
X13563039Y-16511603D01*
X13563039Y-16511603D02*
X13572562Y-16549698D01*
X13572562Y-16549698D02*
X13572562Y-16578269D01*
X13572562Y-16578269D02*
X13563039Y-16616365D01*
X13563039Y-16616365D02*
X13553515Y-16635412D01*
X13553515Y-16635412D02*
X13534467Y-16654460D01*
X13534467Y-16654460D02*
X13505896Y-16663984D01*
X13505896Y-16663984D02*
X13458277Y-16663984D01*
X13658277Y-16663984D02*
X13658277Y-16530650D01*
X13658277Y-16568746D02*
X13667801Y-16549698D01*
X13667801Y-16549698D02*
X13677324Y-16540174D01*
X13677324Y-16540174D02*
X13696372Y-16530650D01*
X13696372Y-16530650D02*
X13715420Y-16530650D01*
X13782086Y-16663984D02*
X13782086Y-16530650D01*
X13782086Y-16463984D02*
X13772562Y-16473508D01*
X13772562Y-16473508D02*
X13782086Y-16483031D01*
X13782086Y-16483031D02*
X13791610Y-16473508D01*
X13791610Y-16473508D02*
X13782086Y-16463984D01*
X13782086Y-16463984D02*
X13782086Y-16483031D01*
X13905896Y-16663984D02*
X13886848Y-16654460D01*
X13886848Y-16654460D02*
X13877324Y-16635412D01*
X13877324Y-16635412D02*
X13877324Y-16463984D01*
X14010658Y-16663984D02*
X13991610Y-16654460D01*
X13991610Y-16654460D02*
X13982086Y-16635412D01*
X13982086Y-16635412D02*
X13982086Y-16463984D01*
X14239229Y-16663984D02*
X14239229Y-16463984D01*
X14239229Y-16463984D02*
X14305896Y-16606841D01*
X14305896Y-16606841D02*
X14372562Y-16463984D01*
X14372562Y-16463984D02*
X14372562Y-16663984D01*
X14553515Y-16663984D02*
X14553515Y-16559222D01*
X14553515Y-16559222D02*
X14543991Y-16540174D01*
X14543991Y-16540174D02*
X14524943Y-16530650D01*
X14524943Y-16530650D02*
X14486848Y-16530650D01*
X14486848Y-16530650D02*
X14467801Y-16540174D01*
X14553515Y-16654460D02*
X14534467Y-16663984D01*
X14534467Y-16663984D02*
X14486848Y-16663984D01*
X14486848Y-16663984D02*
X14467801Y-16654460D01*
X14467801Y-16654460D02*
X14458277Y-16635412D01*
X14458277Y-16635412D02*
X14458277Y-16616365D01*
X14458277Y-16616365D02*
X14467801Y-16597317D01*
X14467801Y-16597317D02*
X14486848Y-16587793D01*
X14486848Y-16587793D02*
X14534467Y-16587793D01*
X14534467Y-16587793D02*
X14553515Y-16578269D01*
X14648753Y-16530650D02*
X14648753Y-16730650D01*
X14648753Y-16540174D02*
X14667801Y-16530650D01*
X14667801Y-16530650D02*
X14705896Y-16530650D01*
X14705896Y-16530650D02*
X14724943Y-16540174D01*
X14724943Y-16540174D02*
X14734467Y-16549698D01*
X14734467Y-16549698D02*
X14743991Y-16568746D01*
X14743991Y-16568746D02*
X14743991Y-16625888D01*
X14743991Y-16625888D02*
X14734467Y-16644936D01*
X14734467Y-16644936D02*
X14724943Y-16654460D01*
X14724943Y-16654460D02*
X14705896Y-16663984D01*
X14705896Y-16663984D02*
X14667801Y-16663984D01*
X14667801Y-16663984D02*
X14648753Y-16654460D01*
X14829705Y-16644936D02*
X14839229Y-16654460D01*
X14839229Y-16654460D02*
X14829705Y-16663984D01*
X14829705Y-16663984D02*
X14820182Y-16654460D01*
X14820182Y-16654460D02*
X14829705Y-16644936D01*
X14829705Y-16644936D02*
X14829705Y-16663984D01*
X14829705Y-16540174D02*
X14839229Y-16549698D01*
X14839229Y-16549698D02*
X14829705Y-16559222D01*
X14829705Y-16559222D02*
X14820182Y-16549698D01*
X14820182Y-16549698D02*
X14829705Y-16540174D01*
X14829705Y-16540174D02*
X14829705Y-16559222D01*
D12*
X13137500Y-16962500D02*
X13197500Y-17022500D01*
X13197500Y-16962500D02*
X13137500Y-17022500D01*
D11*
X13496372Y-16883984D02*
X13515420Y-16883984D01*
X13515420Y-16883984D02*
X13534467Y-16893508D01*
X13534467Y-16893508D02*
X13543991Y-16903031D01*
X13543991Y-16903031D02*
X13553515Y-16922079D01*
X13553515Y-16922079D02*
X13563039Y-16960174D01*
X13563039Y-16960174D02*
X13563039Y-17007793D01*
X13563039Y-17007793D02*
X13553515Y-17045889D01*
X13553515Y-17045889D02*
X13543991Y-17064936D01*
X13543991Y-17064936D02*
X13534467Y-17074460D01*
X13534467Y-17074460D02*
X13515420Y-17083984D01*
X13515420Y-17083984D02*
X13496372Y-17083984D01*
X13496372Y-17083984D02*
X13477324Y-17074460D01*
X13477324Y-17074460D02*
X13467801Y-17064936D01*
X13467801Y-17064936D02*
X13458277Y-17045889D01*
X13458277Y-17045889D02*
X13448753Y-17007793D01*
X13448753Y-17007793D02*
X13448753Y-16960174D01*
X13448753Y-16960174D02*
X13458277Y-16922079D01*
X13458277Y-16922079D02*
X13467801Y-16903031D01*
X13467801Y-16903031D02*
X13477324Y-16893508D01*
X13477324Y-16893508D02*
X13496372Y-16883984D01*
X13648753Y-17064936D02*
X13658277Y-17074460D01*
X13658277Y-17074460D02*
X13648753Y-17083984D01*
X13648753Y-17083984D02*
X13639229Y-17074460D01*
X13639229Y-17074460D02*
X13648753Y-17064936D01*
X13648753Y-17064936D02*
X13648753Y-17083984D01*
X13829705Y-16883984D02*
X13791610Y-16883984D01*
X13791610Y-16883984D02*
X13772562Y-16893508D01*
X13772562Y-16893508D02*
X13763039Y-16903031D01*
X13763039Y-16903031D02*
X13743991Y-16931603D01*
X13743991Y-16931603D02*
X13734467Y-16969698D01*
X13734467Y-16969698D02*
X13734467Y-17045889D01*
X13734467Y-17045889D02*
X13743991Y-17064936D01*
X13743991Y-17064936D02*
X13753515Y-17074460D01*
X13753515Y-17074460D02*
X13772562Y-17083984D01*
X13772562Y-17083984D02*
X13810658Y-17083984D01*
X13810658Y-17083984D02*
X13829705Y-17074460D01*
X13829705Y-17074460D02*
X13839229Y-17064936D01*
X13839229Y-17064936D02*
X13848753Y-17045889D01*
X13848753Y-17045889D02*
X13848753Y-16998270D01*
X13848753Y-16998270D02*
X13839229Y-16979222D01*
X13839229Y-16979222D02*
X13829705Y-16969698D01*
X13829705Y-16969698D02*
X13810658Y-16960174D01*
X13810658Y-16960174D02*
X13772562Y-16960174D01*
X13772562Y-16960174D02*
X13753515Y-16969698D01*
X13753515Y-16969698D02*
X13743991Y-16979222D01*
X13743991Y-16979222D02*
X13734467Y-16998270D01*
X13972562Y-16883984D02*
X13991610Y-16883984D01*
X13991610Y-16883984D02*
X14010658Y-16893508D01*
X14010658Y-16893508D02*
X14020182Y-16903031D01*
X14020182Y-16903031D02*
X14029705Y-16922079D01*
X14029705Y-16922079D02*
X14039229Y-16960174D01*
X14039229Y-16960174D02*
X14039229Y-17007793D01*
X14039229Y-17007793D02*
X14029705Y-17045889D01*
X14029705Y-17045889D02*
X14020182Y-17064936D01*
X14020182Y-17064936D02*
X14010658Y-17074460D01*
X14010658Y-17074460D02*
X13991610Y-17083984D01*
X13991610Y-17083984D02*
X13972562Y-17083984D01*
X13972562Y-17083984D02*
X13953515Y-17074460D01*
X13953515Y-17074460D02*
X13943991Y-17064936D01*
X13943991Y-17064936D02*
X13934467Y-17045889D01*
X13934467Y-17045889D02*
X13924943Y-17007793D01*
X13924943Y-17007793D02*
X13924943Y-16960174D01*
X13924943Y-16960174D02*
X13934467Y-16922079D01*
X13934467Y-16922079D02*
X13943991Y-16903031D01*
X13943991Y-16903031D02*
X13953515Y-16893508D01*
X13953515Y-16893508D02*
X13972562Y-16883984D01*
X14163039Y-16883984D02*
X14182086Y-16883984D01*
X14182086Y-16883984D02*
X14201134Y-16893508D01*
X14201134Y-16893508D02*
X14210658Y-16903031D01*
X14210658Y-16903031D02*
X14220182Y-16922079D01*
X14220182Y-16922079D02*
X14229705Y-16960174D01*
X14229705Y-16960174D02*
X14229705Y-17007793D01*
X14229705Y-17007793D02*
X14220182Y-17045889D01*
X14220182Y-17045889D02*
X14210658Y-17064936D01*
X14210658Y-17064936D02*
X14201134Y-17074460D01*
X14201134Y-17074460D02*
X14182086Y-17083984D01*
X14182086Y-17083984D02*
X14163039Y-17083984D01*
X14163039Y-17083984D02*
X14143991Y-17074460D01*
X14143991Y-17074460D02*
X14134467Y-17064936D01*
X14134467Y-17064936D02*
X14124943Y-17045889D01*
X14124943Y-17045889D02*
X14115420Y-17007793D01*
X14115420Y-17007793D02*
X14115420Y-16960174D01*
X14115420Y-16960174D02*
X14124943Y-16922079D01*
X14124943Y-16922079D02*
X14134467Y-16903031D01*
X14134467Y-16903031D02*
X14143991Y-16893508D01*
X14143991Y-16893508D02*
X14163039Y-16883984D01*
X14315420Y-17083984D02*
X14315420Y-16950650D01*
X14315420Y-16969698D02*
X14324943Y-16960174D01*
X14324943Y-16960174D02*
X14343991Y-16950650D01*
X14343991Y-16950650D02*
X14372563Y-16950650D01*
X14372563Y-16950650D02*
X14391610Y-16960174D01*
X14391610Y-16960174D02*
X14401134Y-16979222D01*
X14401134Y-16979222D02*
X14401134Y-17083984D01*
X14401134Y-16979222D02*
X14410658Y-16960174D01*
X14410658Y-16960174D02*
X14429705Y-16950650D01*
X14429705Y-16950650D02*
X14458277Y-16950650D01*
X14458277Y-16950650D02*
X14477324Y-16960174D01*
X14477324Y-16960174D02*
X14486848Y-16979222D01*
X14486848Y-16979222D02*
X14486848Y-17083984D01*
X14582086Y-17083984D02*
X14582086Y-16950650D01*
X14582086Y-16969698D02*
X14591610Y-16960174D01*
X14591610Y-16960174D02*
X14610658Y-16950650D01*
X14610658Y-16950650D02*
X14639229Y-16950650D01*
X14639229Y-16950650D02*
X14658277Y-16960174D01*
X14658277Y-16960174D02*
X14667801Y-16979222D01*
X14667801Y-16979222D02*
X14667801Y-17083984D01*
X14667801Y-16979222D02*
X14677324Y-16960174D01*
X14677324Y-16960174D02*
X14696372Y-16950650D01*
X14696372Y-16950650D02*
X14724943Y-16950650D01*
X14724943Y-16950650D02*
X14743991Y-16960174D01*
X14743991Y-16960174D02*
X14753515Y-16979222D01*
X14753515Y-16979222D02*
X14753515Y-17083984D01*
X15143991Y-16874460D02*
X14972563Y-17131603D01*
X15401134Y-16883984D02*
X15420182Y-16883984D01*
X15420182Y-16883984D02*
X15439229Y-16893508D01*
X15439229Y-16893508D02*
X15448753Y-16903031D01*
X15448753Y-16903031D02*
X15458277Y-16922079D01*
X15458277Y-16922079D02*
X15467801Y-16960174D01*
X15467801Y-16960174D02*
X15467801Y-17007793D01*
X15467801Y-17007793D02*
X15458277Y-17045889D01*
X15458277Y-17045889D02*
X15448753Y-17064936D01*
X15448753Y-17064936D02*
X15439229Y-17074460D01*
X15439229Y-17074460D02*
X15420182Y-17083984D01*
X15420182Y-17083984D02*
X15401134Y-17083984D01*
X15401134Y-17083984D02*
X15382086Y-17074460D01*
X15382086Y-17074460D02*
X15372563Y-17064936D01*
X15372563Y-17064936D02*
X15363039Y-17045889D01*
X15363039Y-17045889D02*
X15353515Y-17007793D01*
X15353515Y-17007793D02*
X15353515Y-16960174D01*
X15353515Y-16960174D02*
X15363039Y-16922079D01*
X15363039Y-16922079D02*
X15372563Y-16903031D01*
X15372563Y-16903031D02*
X15382086Y-16893508D01*
X15382086Y-16893508D02*
X15401134Y-16883984D01*
X15553515Y-17064936D02*
X15563039Y-17074460D01*
X15563039Y-17074460D02*
X15553515Y-17083984D01*
X15553515Y-17083984D02*
X15543991Y-17074460D01*
X15543991Y-17074460D02*
X15553515Y-17064936D01*
X15553515Y-17064936D02*
X15553515Y-17083984D01*
X15686848Y-16883984D02*
X15705896Y-16883984D01*
X15705896Y-16883984D02*
X15724944Y-16893508D01*
X15724944Y-16893508D02*
X15734467Y-16903031D01*
X15734467Y-16903031D02*
X15743991Y-16922079D01*
X15743991Y-16922079D02*
X15753515Y-16960174D01*
X15753515Y-16960174D02*
X15753515Y-17007793D01*
X15753515Y-17007793D02*
X15743991Y-17045889D01*
X15743991Y-17045889D02*
X15734467Y-17064936D01*
X15734467Y-17064936D02*
X15724944Y-17074460D01*
X15724944Y-17074460D02*
X15705896Y-17083984D01*
X15705896Y-17083984D02*
X15686848Y-17083984D01*
X15686848Y-17083984D02*
X15667801Y-17074460D01*
X15667801Y-17074460D02*
X15658277Y-17064936D01*
X15658277Y-17064936D02*
X15648753Y-17045889D01*
X15648753Y-17045889D02*
X15639229Y-17007793D01*
X15639229Y-17007793D02*
X15639229Y-16960174D01*
X15639229Y-16960174D02*
X15648753Y-16922079D01*
X15648753Y-16922079D02*
X15658277Y-16903031D01*
X15658277Y-16903031D02*
X15667801Y-16893508D01*
X15667801Y-16893508D02*
X15686848Y-16883984D01*
X15829706Y-16903031D02*
X15839229Y-16893508D01*
X15839229Y-16893508D02*
X15858277Y-16883984D01*
X15858277Y-16883984D02*
X15905896Y-16883984D01*
X15905896Y-16883984D02*
X15924944Y-16893508D01*
X15924944Y-16893508D02*
X15934467Y-16903031D01*
X15934467Y-16903031D02*
X15943991Y-16922079D01*
X15943991Y-16922079D02*
X15943991Y-16941127D01*
X15943991Y-16941127D02*
X15934467Y-16969698D01*
X15934467Y-16969698D02*
X15820182Y-17083984D01*
X15820182Y-17083984D02*
X15943991Y-17083984D01*
X16010658Y-16883984D02*
X16134467Y-16883984D01*
X16134467Y-16883984D02*
X16067801Y-16960174D01*
X16067801Y-16960174D02*
X16096372Y-16960174D01*
X16096372Y-16960174D02*
X16115420Y-16969698D01*
X16115420Y-16969698D02*
X16124944Y-16979222D01*
X16124944Y-16979222D02*
X16134467Y-16998270D01*
X16134467Y-16998270D02*
X16134467Y-17045889D01*
X16134467Y-17045889D02*
X16124944Y-17064936D01*
X16124944Y-17064936D02*
X16115420Y-17074460D01*
X16115420Y-17074460D02*
X16096372Y-17083984D01*
X16096372Y-17083984D02*
X16039229Y-17083984D01*
X16039229Y-17083984D02*
X16020182Y-17074460D01*
X16020182Y-17074460D02*
X16010658Y-17064936D01*
X16305896Y-16883984D02*
X16267801Y-16883984D01*
X16267801Y-16883984D02*
X16248753Y-16893508D01*
X16248753Y-16893508D02*
X16239229Y-16903031D01*
X16239229Y-16903031D02*
X16220182Y-16931603D01*
X16220182Y-16931603D02*
X16210658Y-16969698D01*
X16210658Y-16969698D02*
X16210658Y-17045889D01*
X16210658Y-17045889D02*
X16220182Y-17064936D01*
X16220182Y-17064936D02*
X16229706Y-17074460D01*
X16229706Y-17074460D02*
X16248753Y-17083984D01*
X16248753Y-17083984D02*
X16286848Y-17083984D01*
X16286848Y-17083984D02*
X16305896Y-17074460D01*
X16305896Y-17074460D02*
X16315420Y-17064936D01*
X16315420Y-17064936D02*
X16324944Y-17045889D01*
X16324944Y-17045889D02*
X16324944Y-16998270D01*
X16324944Y-16998270D02*
X16315420Y-16979222D01*
X16315420Y-16979222D02*
X16305896Y-16969698D01*
X16305896Y-16969698D02*
X16286848Y-16960174D01*
X16286848Y-16960174D02*
X16248753Y-16960174D01*
X16248753Y-16960174D02*
X16229706Y-16969698D01*
X16229706Y-16969698D02*
X16220182Y-16979222D01*
X16220182Y-16979222D02*
X16210658Y-16998270D01*
X16401134Y-16883984D02*
X16401134Y-16922079D01*
X16477325Y-16883984D02*
X16477325Y-16922079D01*
X16772563Y-17160174D02*
X16763039Y-17150650D01*
X16763039Y-17150650D02*
X16743991Y-17122079D01*
X16743991Y-17122079D02*
X16734468Y-17103031D01*
X16734468Y-17103031D02*
X16724944Y-17074460D01*
X16724944Y-17074460D02*
X16715420Y-17026841D01*
X16715420Y-17026841D02*
X16715420Y-16988746D01*
X16715420Y-16988746D02*
X16724944Y-16941127D01*
X16724944Y-16941127D02*
X16734468Y-16912555D01*
X16734468Y-16912555D02*
X16743991Y-16893508D01*
X16743991Y-16893508D02*
X16763039Y-16864936D01*
X16763039Y-16864936D02*
X16772563Y-16855412D01*
X16839230Y-16903031D02*
X16848753Y-16893508D01*
X16848753Y-16893508D02*
X16867801Y-16883984D01*
X16867801Y-16883984D02*
X16915420Y-16883984D01*
X16915420Y-16883984D02*
X16934468Y-16893508D01*
X16934468Y-16893508D02*
X16943991Y-16903031D01*
X16943991Y-16903031D02*
X16953515Y-16922079D01*
X16953515Y-16922079D02*
X16953515Y-16941127D01*
X16953515Y-16941127D02*
X16943991Y-16969698D01*
X16943991Y-16969698D02*
X16829706Y-17083984D01*
X16829706Y-17083984D02*
X16953515Y-17083984D01*
X17048753Y-17083984D02*
X17086849Y-17083984D01*
X17086849Y-17083984D02*
X17105896Y-17074460D01*
X17105896Y-17074460D02*
X17115420Y-17064936D01*
X17115420Y-17064936D02*
X17134468Y-17036365D01*
X17134468Y-17036365D02*
X17143991Y-16998270D01*
X17143991Y-16998270D02*
X17143991Y-16922079D01*
X17143991Y-16922079D02*
X17134468Y-16903031D01*
X17134468Y-16903031D02*
X17124944Y-16893508D01*
X17124944Y-16893508D02*
X17105896Y-16883984D01*
X17105896Y-16883984D02*
X17067801Y-16883984D01*
X17067801Y-16883984D02*
X17048753Y-16893508D01*
X17048753Y-16893508D02*
X17039230Y-16903031D01*
X17039230Y-16903031D02*
X17029706Y-16922079D01*
X17029706Y-16922079D02*
X17029706Y-16969698D01*
X17029706Y-16969698D02*
X17039230Y-16988746D01*
X17039230Y-16988746D02*
X17048753Y-16998270D01*
X17048753Y-16998270D02*
X17067801Y-17007793D01*
X17067801Y-17007793D02*
X17105896Y-17007793D01*
X17105896Y-17007793D02*
X17124944Y-16998270D01*
X17124944Y-16998270D02*
X17134468Y-16988746D01*
X17134468Y-16988746D02*
X17143991Y-16969698D01*
X17382087Y-17083984D02*
X17382087Y-16883984D01*
X17467801Y-17083984D02*
X17467801Y-16979222D01*
X17467801Y-16979222D02*
X17458277Y-16960174D01*
X17458277Y-16960174D02*
X17439230Y-16950650D01*
X17439230Y-16950650D02*
X17410658Y-16950650D01*
X17410658Y-16950650D02*
X17391611Y-16960174D01*
X17391611Y-16960174D02*
X17382087Y-16969698D01*
X17591611Y-17083984D02*
X17572563Y-17074460D01*
X17572563Y-17074460D02*
X17563039Y-17064936D01*
X17563039Y-17064936D02*
X17553515Y-17045889D01*
X17553515Y-17045889D02*
X17553515Y-16988746D01*
X17553515Y-16988746D02*
X17563039Y-16969698D01*
X17563039Y-16969698D02*
X17572563Y-16960174D01*
X17572563Y-16960174D02*
X17591611Y-16950650D01*
X17591611Y-16950650D02*
X17620182Y-16950650D01*
X17620182Y-16950650D02*
X17639230Y-16960174D01*
X17639230Y-16960174D02*
X17648753Y-16969698D01*
X17648753Y-16969698D02*
X17658277Y-16988746D01*
X17658277Y-16988746D02*
X17658277Y-17045889D01*
X17658277Y-17045889D02*
X17648753Y-17064936D01*
X17648753Y-17064936D02*
X17639230Y-17074460D01*
X17639230Y-17074460D02*
X17620182Y-17083984D01*
X17620182Y-17083984D02*
X17591611Y-17083984D01*
X17772563Y-17083984D02*
X17753515Y-17074460D01*
X17753515Y-17074460D02*
X17743992Y-17055412D01*
X17743992Y-17055412D02*
X17743992Y-16883984D01*
X17924944Y-17074460D02*
X17905896Y-17083984D01*
X17905896Y-17083984D02*
X17867801Y-17083984D01*
X17867801Y-17083984D02*
X17848753Y-17074460D01*
X17848753Y-17074460D02*
X17839230Y-17055412D01*
X17839230Y-17055412D02*
X17839230Y-16979222D01*
X17839230Y-16979222D02*
X17848753Y-16960174D01*
X17848753Y-16960174D02*
X17867801Y-16950650D01*
X17867801Y-16950650D02*
X17905896Y-16950650D01*
X17905896Y-16950650D02*
X17924944Y-16960174D01*
X17924944Y-16960174D02*
X17934468Y-16979222D01*
X17934468Y-16979222D02*
X17934468Y-16998270D01*
X17934468Y-16998270D02*
X17839230Y-17017317D01*
X18010658Y-17074460D02*
X18029706Y-17083984D01*
X18029706Y-17083984D02*
X18067801Y-17083984D01*
X18067801Y-17083984D02*
X18086849Y-17074460D01*
X18086849Y-17074460D02*
X18096373Y-17055412D01*
X18096373Y-17055412D02*
X18096373Y-17045889D01*
X18096373Y-17045889D02*
X18086849Y-17026841D01*
X18086849Y-17026841D02*
X18067801Y-17017317D01*
X18067801Y-17017317D02*
X18039230Y-17017317D01*
X18039230Y-17017317D02*
X18020182Y-17007793D01*
X18020182Y-17007793D02*
X18010658Y-16988746D01*
X18010658Y-16988746D02*
X18010658Y-16979222D01*
X18010658Y-16979222D02*
X18020182Y-16960174D01*
X18020182Y-16960174D02*
X18039230Y-16950650D01*
X18039230Y-16950650D02*
X18067801Y-16950650D01*
X18067801Y-16950650D02*
X18086849Y-16960174D01*
X18163039Y-17160174D02*
X18172563Y-17150650D01*
X18172563Y-17150650D02*
X18191611Y-17122079D01*
X18191611Y-17122079D02*
X18201134Y-17103031D01*
X18201134Y-17103031D02*
X18210658Y-17074460D01*
X18210658Y-17074460D02*
X18220182Y-17026841D01*
X18220182Y-17026841D02*
X18220182Y-16988746D01*
X18220182Y-16988746D02*
X18210658Y-16941127D01*
X18210658Y-16941127D02*
X18201134Y-16912555D01*
X18201134Y-16912555D02*
X18191611Y-16893508D01*
X18191611Y-16893508D02*
X18172563Y-16864936D01*
X18172563Y-16864936D02*
X18163039Y-16855412D01*
D12*
X13197500Y-17256500D02*
G75*
G02*
X13121300Y-17256500I-38100J0D01*
G01*
X13121300Y-17256500D02*
G75*
G02*
X13197500Y-17256500I38100J0D01*
G01*
D11*
X13496372Y-17147984D02*
X13515420Y-17147984D01*
X13515420Y-17147984D02*
X13534467Y-17157508D01*
X13534467Y-17157508D02*
X13543991Y-17167031D01*
X13543991Y-17167031D02*
X13553515Y-17186079D01*
X13553515Y-17186079D02*
X13563039Y-17224174D01*
X13563039Y-17224174D02*
X13563039Y-17271793D01*
X13563039Y-17271793D02*
X13553515Y-17309889D01*
X13553515Y-17309889D02*
X13543991Y-17328936D01*
X13543991Y-17328936D02*
X13534467Y-17338460D01*
X13534467Y-17338460D02*
X13515420Y-17347984D01*
X13515420Y-17347984D02*
X13496372Y-17347984D01*
X13496372Y-17347984D02*
X13477324Y-17338460D01*
X13477324Y-17338460D02*
X13467801Y-17328936D01*
X13467801Y-17328936D02*
X13458277Y-17309889D01*
X13458277Y-17309889D02*
X13448753Y-17271793D01*
X13448753Y-17271793D02*
X13448753Y-17224174D01*
X13448753Y-17224174D02*
X13458277Y-17186079D01*
X13458277Y-17186079D02*
X13467801Y-17167031D01*
X13467801Y-17167031D02*
X13477324Y-17157508D01*
X13477324Y-17157508D02*
X13496372Y-17147984D01*
X13648753Y-17328936D02*
X13658277Y-17338460D01*
X13658277Y-17338460D02*
X13648753Y-17347984D01*
X13648753Y-17347984D02*
X13639229Y-17338460D01*
X13639229Y-17338460D02*
X13648753Y-17328936D01*
X13648753Y-17328936D02*
X13648753Y-17347984D01*
X13724943Y-17147984D02*
X13858277Y-17147984D01*
X13858277Y-17147984D02*
X13772562Y-17347984D01*
X14020182Y-17147984D02*
X13982086Y-17147984D01*
X13982086Y-17147984D02*
X13963039Y-17157508D01*
X13963039Y-17157508D02*
X13953515Y-17167031D01*
X13953515Y-17167031D02*
X13934467Y-17195603D01*
X13934467Y-17195603D02*
X13924943Y-17233698D01*
X13924943Y-17233698D02*
X13924943Y-17309889D01*
X13924943Y-17309889D02*
X13934467Y-17328936D01*
X13934467Y-17328936D02*
X13943991Y-17338460D01*
X13943991Y-17338460D02*
X13963039Y-17347984D01*
X13963039Y-17347984D02*
X14001134Y-17347984D01*
X14001134Y-17347984D02*
X14020182Y-17338460D01*
X14020182Y-17338460D02*
X14029705Y-17328936D01*
X14029705Y-17328936D02*
X14039229Y-17309889D01*
X14039229Y-17309889D02*
X14039229Y-17262270D01*
X14039229Y-17262270D02*
X14029705Y-17243222D01*
X14029705Y-17243222D02*
X14020182Y-17233698D01*
X14020182Y-17233698D02*
X14001134Y-17224174D01*
X14001134Y-17224174D02*
X13963039Y-17224174D01*
X13963039Y-17224174D02*
X13943991Y-17233698D01*
X13943991Y-17233698D02*
X13934467Y-17243222D01*
X13934467Y-17243222D02*
X13924943Y-17262270D01*
X14115420Y-17167031D02*
X14124943Y-17157508D01*
X14124943Y-17157508D02*
X14143991Y-17147984D01*
X14143991Y-17147984D02*
X14191610Y-17147984D01*
X14191610Y-17147984D02*
X14210658Y-17157508D01*
X14210658Y-17157508D02*
X14220182Y-17167031D01*
X14220182Y-17167031D02*
X14229705Y-17186079D01*
X14229705Y-17186079D02*
X14229705Y-17205127D01*
X14229705Y-17205127D02*
X14220182Y-17233698D01*
X14220182Y-17233698D02*
X14105896Y-17347984D01*
X14105896Y-17347984D02*
X14229705Y-17347984D01*
X14315420Y-17347984D02*
X14315420Y-17214650D01*
X14315420Y-17233698D02*
X14324943Y-17224174D01*
X14324943Y-17224174D02*
X14343991Y-17214650D01*
X14343991Y-17214650D02*
X14372563Y-17214650D01*
X14372563Y-17214650D02*
X14391610Y-17224174D01*
X14391610Y-17224174D02*
X14401134Y-17243222D01*
X14401134Y-17243222D02*
X14401134Y-17347984D01*
X14401134Y-17243222D02*
X14410658Y-17224174D01*
X14410658Y-17224174D02*
X14429705Y-17214650D01*
X14429705Y-17214650D02*
X14458277Y-17214650D01*
X14458277Y-17214650D02*
X14477324Y-17224174D01*
X14477324Y-17224174D02*
X14486848Y-17243222D01*
X14486848Y-17243222D02*
X14486848Y-17347984D01*
X14582086Y-17347984D02*
X14582086Y-17214650D01*
X14582086Y-17233698D02*
X14591610Y-17224174D01*
X14591610Y-17224174D02*
X14610658Y-17214650D01*
X14610658Y-17214650D02*
X14639229Y-17214650D01*
X14639229Y-17214650D02*
X14658277Y-17224174D01*
X14658277Y-17224174D02*
X14667801Y-17243222D01*
X14667801Y-17243222D02*
X14667801Y-17347984D01*
X14667801Y-17243222D02*
X14677324Y-17224174D01*
X14677324Y-17224174D02*
X14696372Y-17214650D01*
X14696372Y-17214650D02*
X14724943Y-17214650D01*
X14724943Y-17214650D02*
X14743991Y-17224174D01*
X14743991Y-17224174D02*
X14753515Y-17243222D01*
X14753515Y-17243222D02*
X14753515Y-17347984D01*
X15143991Y-17138460D02*
X14972563Y-17395603D01*
X15401134Y-17147984D02*
X15420182Y-17147984D01*
X15420182Y-17147984D02*
X15439229Y-17157508D01*
X15439229Y-17157508D02*
X15448753Y-17167031D01*
X15448753Y-17167031D02*
X15458277Y-17186079D01*
X15458277Y-17186079D02*
X15467801Y-17224174D01*
X15467801Y-17224174D02*
X15467801Y-17271793D01*
X15467801Y-17271793D02*
X15458277Y-17309889D01*
X15458277Y-17309889D02*
X15448753Y-17328936D01*
X15448753Y-17328936D02*
X15439229Y-17338460D01*
X15439229Y-17338460D02*
X15420182Y-17347984D01*
X15420182Y-17347984D02*
X15401134Y-17347984D01*
X15401134Y-17347984D02*
X15382086Y-17338460D01*
X15382086Y-17338460D02*
X15372563Y-17328936D01*
X15372563Y-17328936D02*
X15363039Y-17309889D01*
X15363039Y-17309889D02*
X15353515Y-17271793D01*
X15353515Y-17271793D02*
X15353515Y-17224174D01*
X15353515Y-17224174D02*
X15363039Y-17186079D01*
X15363039Y-17186079D02*
X15372563Y-17167031D01*
X15372563Y-17167031D02*
X15382086Y-17157508D01*
X15382086Y-17157508D02*
X15401134Y-17147984D01*
X15553515Y-17328936D02*
X15563039Y-17338460D01*
X15563039Y-17338460D02*
X15553515Y-17347984D01*
X15553515Y-17347984D02*
X15543991Y-17338460D01*
X15543991Y-17338460D02*
X15553515Y-17328936D01*
X15553515Y-17328936D02*
X15553515Y-17347984D01*
X15686848Y-17147984D02*
X15705896Y-17147984D01*
X15705896Y-17147984D02*
X15724944Y-17157508D01*
X15724944Y-17157508D02*
X15734467Y-17167031D01*
X15734467Y-17167031D02*
X15743991Y-17186079D01*
X15743991Y-17186079D02*
X15753515Y-17224174D01*
X15753515Y-17224174D02*
X15753515Y-17271793D01*
X15753515Y-17271793D02*
X15743991Y-17309889D01*
X15743991Y-17309889D02*
X15734467Y-17328936D01*
X15734467Y-17328936D02*
X15724944Y-17338460D01*
X15724944Y-17338460D02*
X15705896Y-17347984D01*
X15705896Y-17347984D02*
X15686848Y-17347984D01*
X15686848Y-17347984D02*
X15667801Y-17338460D01*
X15667801Y-17338460D02*
X15658277Y-17328936D01*
X15658277Y-17328936D02*
X15648753Y-17309889D01*
X15648753Y-17309889D02*
X15639229Y-17271793D01*
X15639229Y-17271793D02*
X15639229Y-17224174D01*
X15639229Y-17224174D02*
X15648753Y-17186079D01*
X15648753Y-17186079D02*
X15658277Y-17167031D01*
X15658277Y-17167031D02*
X15667801Y-17157508D01*
X15667801Y-17157508D02*
X15686848Y-17147984D01*
X15820182Y-17147984D02*
X15943991Y-17147984D01*
X15943991Y-17147984D02*
X15877325Y-17224174D01*
X15877325Y-17224174D02*
X15905896Y-17224174D01*
X15905896Y-17224174D02*
X15924944Y-17233698D01*
X15924944Y-17233698D02*
X15934467Y-17243222D01*
X15934467Y-17243222D02*
X15943991Y-17262270D01*
X15943991Y-17262270D02*
X15943991Y-17309889D01*
X15943991Y-17309889D02*
X15934467Y-17328936D01*
X15934467Y-17328936D02*
X15924944Y-17338460D01*
X15924944Y-17338460D02*
X15905896Y-17347984D01*
X15905896Y-17347984D02*
X15848753Y-17347984D01*
X15848753Y-17347984D02*
X15829706Y-17338460D01*
X15829706Y-17338460D02*
X15820182Y-17328936D01*
X16067801Y-17147984D02*
X16086848Y-17147984D01*
X16086848Y-17147984D02*
X16105896Y-17157508D01*
X16105896Y-17157508D02*
X16115420Y-17167031D01*
X16115420Y-17167031D02*
X16124944Y-17186079D01*
X16124944Y-17186079D02*
X16134467Y-17224174D01*
X16134467Y-17224174D02*
X16134467Y-17271793D01*
X16134467Y-17271793D02*
X16124944Y-17309889D01*
X16124944Y-17309889D02*
X16115420Y-17328936D01*
X16115420Y-17328936D02*
X16105896Y-17338460D01*
X16105896Y-17338460D02*
X16086848Y-17347984D01*
X16086848Y-17347984D02*
X16067801Y-17347984D01*
X16067801Y-17347984D02*
X16048753Y-17338460D01*
X16048753Y-17338460D02*
X16039229Y-17328936D01*
X16039229Y-17328936D02*
X16029706Y-17309889D01*
X16029706Y-17309889D02*
X16020182Y-17271793D01*
X16020182Y-17271793D02*
X16020182Y-17224174D01*
X16020182Y-17224174D02*
X16029706Y-17186079D01*
X16029706Y-17186079D02*
X16039229Y-17167031D01*
X16039229Y-17167031D02*
X16048753Y-17157508D01*
X16048753Y-17157508D02*
X16067801Y-17147984D01*
X16258277Y-17147984D02*
X16277325Y-17147984D01*
X16277325Y-17147984D02*
X16296372Y-17157508D01*
X16296372Y-17157508D02*
X16305896Y-17167031D01*
X16305896Y-17167031D02*
X16315420Y-17186079D01*
X16315420Y-17186079D02*
X16324944Y-17224174D01*
X16324944Y-17224174D02*
X16324944Y-17271793D01*
X16324944Y-17271793D02*
X16315420Y-17309889D01*
X16315420Y-17309889D02*
X16305896Y-17328936D01*
X16305896Y-17328936D02*
X16296372Y-17338460D01*
X16296372Y-17338460D02*
X16277325Y-17347984D01*
X16277325Y-17347984D02*
X16258277Y-17347984D01*
X16258277Y-17347984D02*
X16239229Y-17338460D01*
X16239229Y-17338460D02*
X16229706Y-17328936D01*
X16229706Y-17328936D02*
X16220182Y-17309889D01*
X16220182Y-17309889D02*
X16210658Y-17271793D01*
X16210658Y-17271793D02*
X16210658Y-17224174D01*
X16210658Y-17224174D02*
X16220182Y-17186079D01*
X16220182Y-17186079D02*
X16229706Y-17167031D01*
X16229706Y-17167031D02*
X16239229Y-17157508D01*
X16239229Y-17157508D02*
X16258277Y-17147984D01*
X16401134Y-17147984D02*
X16401134Y-17186079D01*
X16477325Y-17147984D02*
X16477325Y-17186079D01*
X16772563Y-17424174D02*
X16763039Y-17414650D01*
X16763039Y-17414650D02*
X16743991Y-17386079D01*
X16743991Y-17386079D02*
X16734468Y-17367031D01*
X16734468Y-17367031D02*
X16724944Y-17338460D01*
X16724944Y-17338460D02*
X16715420Y-17290841D01*
X16715420Y-17290841D02*
X16715420Y-17252746D01*
X16715420Y-17252746D02*
X16724944Y-17205127D01*
X16724944Y-17205127D02*
X16734468Y-17176555D01*
X16734468Y-17176555D02*
X16743991Y-17157508D01*
X16743991Y-17157508D02*
X16763039Y-17128936D01*
X16763039Y-17128936D02*
X16772563Y-17119412D01*
X16877325Y-17233698D02*
X16858277Y-17224174D01*
X16858277Y-17224174D02*
X16848753Y-17214650D01*
X16848753Y-17214650D02*
X16839230Y-17195603D01*
X16839230Y-17195603D02*
X16839230Y-17186079D01*
X16839230Y-17186079D02*
X16848753Y-17167031D01*
X16848753Y-17167031D02*
X16858277Y-17157508D01*
X16858277Y-17157508D02*
X16877325Y-17147984D01*
X16877325Y-17147984D02*
X16915420Y-17147984D01*
X16915420Y-17147984D02*
X16934468Y-17157508D01*
X16934468Y-17157508D02*
X16943991Y-17167031D01*
X16943991Y-17167031D02*
X16953515Y-17186079D01*
X16953515Y-17186079D02*
X16953515Y-17195603D01*
X16953515Y-17195603D02*
X16943991Y-17214650D01*
X16943991Y-17214650D02*
X16934468Y-17224174D01*
X16934468Y-17224174D02*
X16915420Y-17233698D01*
X16915420Y-17233698D02*
X16877325Y-17233698D01*
X16877325Y-17233698D02*
X16858277Y-17243222D01*
X16858277Y-17243222D02*
X16848753Y-17252746D01*
X16848753Y-17252746D02*
X16839230Y-17271793D01*
X16839230Y-17271793D02*
X16839230Y-17309889D01*
X16839230Y-17309889D02*
X16848753Y-17328936D01*
X16848753Y-17328936D02*
X16858277Y-17338460D01*
X16858277Y-17338460D02*
X16877325Y-17347984D01*
X16877325Y-17347984D02*
X16915420Y-17347984D01*
X16915420Y-17347984D02*
X16934468Y-17338460D01*
X16934468Y-17338460D02*
X16943991Y-17328936D01*
X16943991Y-17328936D02*
X16953515Y-17309889D01*
X16953515Y-17309889D02*
X16953515Y-17271793D01*
X16953515Y-17271793D02*
X16943991Y-17252746D01*
X16943991Y-17252746D02*
X16934468Y-17243222D01*
X16934468Y-17243222D02*
X16915420Y-17233698D01*
X17191611Y-17347984D02*
X17191611Y-17147984D01*
X17277325Y-17347984D02*
X17277325Y-17243222D01*
X17277325Y-17243222D02*
X17267801Y-17224174D01*
X17267801Y-17224174D02*
X17248753Y-17214650D01*
X17248753Y-17214650D02*
X17220182Y-17214650D01*
X17220182Y-17214650D02*
X17201134Y-17224174D01*
X17201134Y-17224174D02*
X17191611Y-17233698D01*
X17401134Y-17347984D02*
X17382087Y-17338460D01*
X17382087Y-17338460D02*
X17372563Y-17328936D01*
X17372563Y-17328936D02*
X17363039Y-17309889D01*
X17363039Y-17309889D02*
X17363039Y-17252746D01*
X17363039Y-17252746D02*
X17372563Y-17233698D01*
X17372563Y-17233698D02*
X17382087Y-17224174D01*
X17382087Y-17224174D02*
X17401134Y-17214650D01*
X17401134Y-17214650D02*
X17429706Y-17214650D01*
X17429706Y-17214650D02*
X17448753Y-17224174D01*
X17448753Y-17224174D02*
X17458277Y-17233698D01*
X17458277Y-17233698D02*
X17467801Y-17252746D01*
X17467801Y-17252746D02*
X17467801Y-17309889D01*
X17467801Y-17309889D02*
X17458277Y-17328936D01*
X17458277Y-17328936D02*
X17448753Y-17338460D01*
X17448753Y-17338460D02*
X17429706Y-17347984D01*
X17429706Y-17347984D02*
X17401134Y-17347984D01*
X17582087Y-17347984D02*
X17563039Y-17338460D01*
X17563039Y-17338460D02*
X17553515Y-17319412D01*
X17553515Y-17319412D02*
X17553515Y-17147984D01*
X17734468Y-17338460D02*
X17715420Y-17347984D01*
X17715420Y-17347984D02*
X17677325Y-17347984D01*
X17677325Y-17347984D02*
X17658277Y-17338460D01*
X17658277Y-17338460D02*
X17648753Y-17319412D01*
X17648753Y-17319412D02*
X17648753Y-17243222D01*
X17648753Y-17243222D02*
X17658277Y-17224174D01*
X17658277Y-17224174D02*
X17677325Y-17214650D01*
X17677325Y-17214650D02*
X17715420Y-17214650D01*
X17715420Y-17214650D02*
X17734468Y-17224174D01*
X17734468Y-17224174D02*
X17743992Y-17243222D01*
X17743992Y-17243222D02*
X17743992Y-17262270D01*
X17743992Y-17262270D02*
X17648753Y-17281317D01*
X17820182Y-17338460D02*
X17839230Y-17347984D01*
X17839230Y-17347984D02*
X17877325Y-17347984D01*
X17877325Y-17347984D02*
X17896373Y-17338460D01*
X17896373Y-17338460D02*
X17905896Y-17319412D01*
X17905896Y-17319412D02*
X17905896Y-17309889D01*
X17905896Y-17309889D02*
X17896373Y-17290841D01*
X17896373Y-17290841D02*
X17877325Y-17281317D01*
X17877325Y-17281317D02*
X17848753Y-17281317D01*
X17848753Y-17281317D02*
X17829706Y-17271793D01*
X17829706Y-17271793D02*
X17820182Y-17252746D01*
X17820182Y-17252746D02*
X17820182Y-17243222D01*
X17820182Y-17243222D02*
X17829706Y-17224174D01*
X17829706Y-17224174D02*
X17848753Y-17214650D01*
X17848753Y-17214650D02*
X17877325Y-17214650D01*
X17877325Y-17214650D02*
X17896373Y-17224174D01*
X17972563Y-17424174D02*
X17982087Y-17414650D01*
X17982087Y-17414650D02*
X18001134Y-17386079D01*
X18001134Y-17386079D02*
X18010658Y-17367031D01*
X18010658Y-17367031D02*
X18020182Y-17338460D01*
X18020182Y-17338460D02*
X18029706Y-17290841D01*
X18029706Y-17290841D02*
X18029706Y-17252746D01*
X18029706Y-17252746D02*
X18020182Y-17205127D01*
X18020182Y-17205127D02*
X18010658Y-17176555D01*
X18010658Y-17176555D02*
X18001134Y-17157508D01*
X18001134Y-17157508D02*
X17982087Y-17128936D01*
X17982087Y-17128936D02*
X17972563Y-17119412D01*
D12*
X13157500Y-17480500D02*
X13157500Y-17560500D01*
X13117500Y-17520500D02*
X13197500Y-17520500D01*
D11*
X13496372Y-17411984D02*
X13515420Y-17411984D01*
X13515420Y-17411984D02*
X13534467Y-17421508D01*
X13534467Y-17421508D02*
X13543991Y-17431031D01*
X13543991Y-17431031D02*
X13553515Y-17450079D01*
X13553515Y-17450079D02*
X13563039Y-17488174D01*
X13563039Y-17488174D02*
X13563039Y-17535793D01*
X13563039Y-17535793D02*
X13553515Y-17573889D01*
X13553515Y-17573889D02*
X13543991Y-17592936D01*
X13543991Y-17592936D02*
X13534467Y-17602460D01*
X13534467Y-17602460D02*
X13515420Y-17611984D01*
X13515420Y-17611984D02*
X13496372Y-17611984D01*
X13496372Y-17611984D02*
X13477324Y-17602460D01*
X13477324Y-17602460D02*
X13467801Y-17592936D01*
X13467801Y-17592936D02*
X13458277Y-17573889D01*
X13458277Y-17573889D02*
X13448753Y-17535793D01*
X13448753Y-17535793D02*
X13448753Y-17488174D01*
X13448753Y-17488174D02*
X13458277Y-17450079D01*
X13458277Y-17450079D02*
X13467801Y-17431031D01*
X13467801Y-17431031D02*
X13477324Y-17421508D01*
X13477324Y-17421508D02*
X13496372Y-17411984D01*
X13648753Y-17592936D02*
X13658277Y-17602460D01*
X13658277Y-17602460D02*
X13648753Y-17611984D01*
X13648753Y-17611984D02*
X13639229Y-17602460D01*
X13639229Y-17602460D02*
X13648753Y-17592936D01*
X13648753Y-17592936D02*
X13648753Y-17611984D01*
X13772562Y-17497698D02*
X13753515Y-17488174D01*
X13753515Y-17488174D02*
X13743991Y-17478650D01*
X13743991Y-17478650D02*
X13734467Y-17459603D01*
X13734467Y-17459603D02*
X13734467Y-17450079D01*
X13734467Y-17450079D02*
X13743991Y-17431031D01*
X13743991Y-17431031D02*
X13753515Y-17421508D01*
X13753515Y-17421508D02*
X13772562Y-17411984D01*
X13772562Y-17411984D02*
X13810658Y-17411984D01*
X13810658Y-17411984D02*
X13829705Y-17421508D01*
X13829705Y-17421508D02*
X13839229Y-17431031D01*
X13839229Y-17431031D02*
X13848753Y-17450079D01*
X13848753Y-17450079D02*
X13848753Y-17459603D01*
X13848753Y-17459603D02*
X13839229Y-17478650D01*
X13839229Y-17478650D02*
X13829705Y-17488174D01*
X13829705Y-17488174D02*
X13810658Y-17497698D01*
X13810658Y-17497698D02*
X13772562Y-17497698D01*
X13772562Y-17497698D02*
X13753515Y-17507222D01*
X13753515Y-17507222D02*
X13743991Y-17516746D01*
X13743991Y-17516746D02*
X13734467Y-17535793D01*
X13734467Y-17535793D02*
X13734467Y-17573889D01*
X13734467Y-17573889D02*
X13743991Y-17592936D01*
X13743991Y-17592936D02*
X13753515Y-17602460D01*
X13753515Y-17602460D02*
X13772562Y-17611984D01*
X13772562Y-17611984D02*
X13810658Y-17611984D01*
X13810658Y-17611984D02*
X13829705Y-17602460D01*
X13829705Y-17602460D02*
X13839229Y-17592936D01*
X13839229Y-17592936D02*
X13848753Y-17573889D01*
X13848753Y-17573889D02*
X13848753Y-17535793D01*
X13848753Y-17535793D02*
X13839229Y-17516746D01*
X13839229Y-17516746D02*
X13829705Y-17507222D01*
X13829705Y-17507222D02*
X13810658Y-17497698D01*
X13972562Y-17411984D02*
X13991610Y-17411984D01*
X13991610Y-17411984D02*
X14010658Y-17421508D01*
X14010658Y-17421508D02*
X14020182Y-17431031D01*
X14020182Y-17431031D02*
X14029705Y-17450079D01*
X14029705Y-17450079D02*
X14039229Y-17488174D01*
X14039229Y-17488174D02*
X14039229Y-17535793D01*
X14039229Y-17535793D02*
X14029705Y-17573889D01*
X14029705Y-17573889D02*
X14020182Y-17592936D01*
X14020182Y-17592936D02*
X14010658Y-17602460D01*
X14010658Y-17602460D02*
X13991610Y-17611984D01*
X13991610Y-17611984D02*
X13972562Y-17611984D01*
X13972562Y-17611984D02*
X13953515Y-17602460D01*
X13953515Y-17602460D02*
X13943991Y-17592936D01*
X13943991Y-17592936D02*
X13934467Y-17573889D01*
X13934467Y-17573889D02*
X13924943Y-17535793D01*
X13924943Y-17535793D02*
X13924943Y-17488174D01*
X13924943Y-17488174D02*
X13934467Y-17450079D01*
X13934467Y-17450079D02*
X13943991Y-17431031D01*
X13943991Y-17431031D02*
X13953515Y-17421508D01*
X13953515Y-17421508D02*
X13972562Y-17411984D01*
X14163039Y-17411984D02*
X14182086Y-17411984D01*
X14182086Y-17411984D02*
X14201134Y-17421508D01*
X14201134Y-17421508D02*
X14210658Y-17431031D01*
X14210658Y-17431031D02*
X14220182Y-17450079D01*
X14220182Y-17450079D02*
X14229705Y-17488174D01*
X14229705Y-17488174D02*
X14229705Y-17535793D01*
X14229705Y-17535793D02*
X14220182Y-17573889D01*
X14220182Y-17573889D02*
X14210658Y-17592936D01*
X14210658Y-17592936D02*
X14201134Y-17602460D01*
X14201134Y-17602460D02*
X14182086Y-17611984D01*
X14182086Y-17611984D02*
X14163039Y-17611984D01*
X14163039Y-17611984D02*
X14143991Y-17602460D01*
X14143991Y-17602460D02*
X14134467Y-17592936D01*
X14134467Y-17592936D02*
X14124943Y-17573889D01*
X14124943Y-17573889D02*
X14115420Y-17535793D01*
X14115420Y-17535793D02*
X14115420Y-17488174D01*
X14115420Y-17488174D02*
X14124943Y-17450079D01*
X14124943Y-17450079D02*
X14134467Y-17431031D01*
X14134467Y-17431031D02*
X14143991Y-17421508D01*
X14143991Y-17421508D02*
X14163039Y-17411984D01*
X14315420Y-17611984D02*
X14315420Y-17478650D01*
X14315420Y-17497698D02*
X14324943Y-17488174D01*
X14324943Y-17488174D02*
X14343991Y-17478650D01*
X14343991Y-17478650D02*
X14372563Y-17478650D01*
X14372563Y-17478650D02*
X14391610Y-17488174D01*
X14391610Y-17488174D02*
X14401134Y-17507222D01*
X14401134Y-17507222D02*
X14401134Y-17611984D01*
X14401134Y-17507222D02*
X14410658Y-17488174D01*
X14410658Y-17488174D02*
X14429705Y-17478650D01*
X14429705Y-17478650D02*
X14458277Y-17478650D01*
X14458277Y-17478650D02*
X14477324Y-17488174D01*
X14477324Y-17488174D02*
X14486848Y-17507222D01*
X14486848Y-17507222D02*
X14486848Y-17611984D01*
X14582086Y-17611984D02*
X14582086Y-17478650D01*
X14582086Y-17497698D02*
X14591610Y-17488174D01*
X14591610Y-17488174D02*
X14610658Y-17478650D01*
X14610658Y-17478650D02*
X14639229Y-17478650D01*
X14639229Y-17478650D02*
X14658277Y-17488174D01*
X14658277Y-17488174D02*
X14667801Y-17507222D01*
X14667801Y-17507222D02*
X14667801Y-17611984D01*
X14667801Y-17507222D02*
X14677324Y-17488174D01*
X14677324Y-17488174D02*
X14696372Y-17478650D01*
X14696372Y-17478650D02*
X14724943Y-17478650D01*
X14724943Y-17478650D02*
X14743991Y-17488174D01*
X14743991Y-17488174D02*
X14753515Y-17507222D01*
X14753515Y-17507222D02*
X14753515Y-17611984D01*
X15143991Y-17402460D02*
X14972563Y-17659603D01*
X15401134Y-17411984D02*
X15420182Y-17411984D01*
X15420182Y-17411984D02*
X15439229Y-17421508D01*
X15439229Y-17421508D02*
X15448753Y-17431031D01*
X15448753Y-17431031D02*
X15458277Y-17450079D01*
X15458277Y-17450079D02*
X15467801Y-17488174D01*
X15467801Y-17488174D02*
X15467801Y-17535793D01*
X15467801Y-17535793D02*
X15458277Y-17573889D01*
X15458277Y-17573889D02*
X15448753Y-17592936D01*
X15448753Y-17592936D02*
X15439229Y-17602460D01*
X15439229Y-17602460D02*
X15420182Y-17611984D01*
X15420182Y-17611984D02*
X15401134Y-17611984D01*
X15401134Y-17611984D02*
X15382086Y-17602460D01*
X15382086Y-17602460D02*
X15372563Y-17592936D01*
X15372563Y-17592936D02*
X15363039Y-17573889D01*
X15363039Y-17573889D02*
X15353515Y-17535793D01*
X15353515Y-17535793D02*
X15353515Y-17488174D01*
X15353515Y-17488174D02*
X15363039Y-17450079D01*
X15363039Y-17450079D02*
X15372563Y-17431031D01*
X15372563Y-17431031D02*
X15382086Y-17421508D01*
X15382086Y-17421508D02*
X15401134Y-17411984D01*
X15553515Y-17592936D02*
X15563039Y-17602460D01*
X15563039Y-17602460D02*
X15553515Y-17611984D01*
X15553515Y-17611984D02*
X15543991Y-17602460D01*
X15543991Y-17602460D02*
X15553515Y-17592936D01*
X15553515Y-17592936D02*
X15553515Y-17611984D01*
X15686848Y-17411984D02*
X15705896Y-17411984D01*
X15705896Y-17411984D02*
X15724944Y-17421508D01*
X15724944Y-17421508D02*
X15734467Y-17431031D01*
X15734467Y-17431031D02*
X15743991Y-17450079D01*
X15743991Y-17450079D02*
X15753515Y-17488174D01*
X15753515Y-17488174D02*
X15753515Y-17535793D01*
X15753515Y-17535793D02*
X15743991Y-17573889D01*
X15743991Y-17573889D02*
X15734467Y-17592936D01*
X15734467Y-17592936D02*
X15724944Y-17602460D01*
X15724944Y-17602460D02*
X15705896Y-17611984D01*
X15705896Y-17611984D02*
X15686848Y-17611984D01*
X15686848Y-17611984D02*
X15667801Y-17602460D01*
X15667801Y-17602460D02*
X15658277Y-17592936D01*
X15658277Y-17592936D02*
X15648753Y-17573889D01*
X15648753Y-17573889D02*
X15639229Y-17535793D01*
X15639229Y-17535793D02*
X15639229Y-17488174D01*
X15639229Y-17488174D02*
X15648753Y-17450079D01*
X15648753Y-17450079D02*
X15658277Y-17431031D01*
X15658277Y-17431031D02*
X15667801Y-17421508D01*
X15667801Y-17421508D02*
X15686848Y-17411984D01*
X15820182Y-17411984D02*
X15943991Y-17411984D01*
X15943991Y-17411984D02*
X15877325Y-17488174D01*
X15877325Y-17488174D02*
X15905896Y-17488174D01*
X15905896Y-17488174D02*
X15924944Y-17497698D01*
X15924944Y-17497698D02*
X15934467Y-17507222D01*
X15934467Y-17507222D02*
X15943991Y-17526270D01*
X15943991Y-17526270D02*
X15943991Y-17573889D01*
X15943991Y-17573889D02*
X15934467Y-17592936D01*
X15934467Y-17592936D02*
X15924944Y-17602460D01*
X15924944Y-17602460D02*
X15905896Y-17611984D01*
X15905896Y-17611984D02*
X15848753Y-17611984D01*
X15848753Y-17611984D02*
X15829706Y-17602460D01*
X15829706Y-17602460D02*
X15820182Y-17592936D01*
X16134467Y-17611984D02*
X16020182Y-17611984D01*
X16077325Y-17611984D02*
X16077325Y-17411984D01*
X16077325Y-17411984D02*
X16058277Y-17440555D01*
X16058277Y-17440555D02*
X16039229Y-17459603D01*
X16039229Y-17459603D02*
X16020182Y-17469127D01*
X16315420Y-17411984D02*
X16220182Y-17411984D01*
X16220182Y-17411984D02*
X16210658Y-17507222D01*
X16210658Y-17507222D02*
X16220182Y-17497698D01*
X16220182Y-17497698D02*
X16239229Y-17488174D01*
X16239229Y-17488174D02*
X16286848Y-17488174D01*
X16286848Y-17488174D02*
X16305896Y-17497698D01*
X16305896Y-17497698D02*
X16315420Y-17507222D01*
X16315420Y-17507222D02*
X16324944Y-17526270D01*
X16324944Y-17526270D02*
X16324944Y-17573889D01*
X16324944Y-17573889D02*
X16315420Y-17592936D01*
X16315420Y-17592936D02*
X16305896Y-17602460D01*
X16305896Y-17602460D02*
X16286848Y-17611984D01*
X16286848Y-17611984D02*
X16239229Y-17611984D01*
X16239229Y-17611984D02*
X16220182Y-17602460D01*
X16220182Y-17602460D02*
X16210658Y-17592936D01*
X16401134Y-17411984D02*
X16401134Y-17450079D01*
X16477325Y-17411984D02*
X16477325Y-17450079D01*
X16772563Y-17688174D02*
X16763039Y-17678650D01*
X16763039Y-17678650D02*
X16743991Y-17650079D01*
X16743991Y-17650079D02*
X16734468Y-17631031D01*
X16734468Y-17631031D02*
X16724944Y-17602460D01*
X16724944Y-17602460D02*
X16715420Y-17554841D01*
X16715420Y-17554841D02*
X16715420Y-17516746D01*
X16715420Y-17516746D02*
X16724944Y-17469127D01*
X16724944Y-17469127D02*
X16734468Y-17440555D01*
X16734468Y-17440555D02*
X16743991Y-17421508D01*
X16743991Y-17421508D02*
X16763039Y-17392936D01*
X16763039Y-17392936D02*
X16772563Y-17383412D01*
X16829706Y-17411984D02*
X16963039Y-17411984D01*
X16963039Y-17411984D02*
X16877325Y-17611984D01*
X17134468Y-17411984D02*
X17039230Y-17411984D01*
X17039230Y-17411984D02*
X17029706Y-17507222D01*
X17029706Y-17507222D02*
X17039230Y-17497698D01*
X17039230Y-17497698D02*
X17058277Y-17488174D01*
X17058277Y-17488174D02*
X17105896Y-17488174D01*
X17105896Y-17488174D02*
X17124944Y-17497698D01*
X17124944Y-17497698D02*
X17134468Y-17507222D01*
X17134468Y-17507222D02*
X17143991Y-17526270D01*
X17143991Y-17526270D02*
X17143991Y-17573889D01*
X17143991Y-17573889D02*
X17134468Y-17592936D01*
X17134468Y-17592936D02*
X17124944Y-17602460D01*
X17124944Y-17602460D02*
X17105896Y-17611984D01*
X17105896Y-17611984D02*
X17058277Y-17611984D01*
X17058277Y-17611984D02*
X17039230Y-17602460D01*
X17039230Y-17602460D02*
X17029706Y-17592936D01*
X17382087Y-17611984D02*
X17382087Y-17411984D01*
X17467801Y-17611984D02*
X17467801Y-17507222D01*
X17467801Y-17507222D02*
X17458277Y-17488174D01*
X17458277Y-17488174D02*
X17439230Y-17478650D01*
X17439230Y-17478650D02*
X17410658Y-17478650D01*
X17410658Y-17478650D02*
X17391611Y-17488174D01*
X17391611Y-17488174D02*
X17382087Y-17497698D01*
X17591611Y-17611984D02*
X17572563Y-17602460D01*
X17572563Y-17602460D02*
X17563039Y-17592936D01*
X17563039Y-17592936D02*
X17553515Y-17573889D01*
X17553515Y-17573889D02*
X17553515Y-17516746D01*
X17553515Y-17516746D02*
X17563039Y-17497698D01*
X17563039Y-17497698D02*
X17572563Y-17488174D01*
X17572563Y-17488174D02*
X17591611Y-17478650D01*
X17591611Y-17478650D02*
X17620182Y-17478650D01*
X17620182Y-17478650D02*
X17639230Y-17488174D01*
X17639230Y-17488174D02*
X17648753Y-17497698D01*
X17648753Y-17497698D02*
X17658277Y-17516746D01*
X17658277Y-17516746D02*
X17658277Y-17573889D01*
X17658277Y-17573889D02*
X17648753Y-17592936D01*
X17648753Y-17592936D02*
X17639230Y-17602460D01*
X17639230Y-17602460D02*
X17620182Y-17611984D01*
X17620182Y-17611984D02*
X17591611Y-17611984D01*
X17772563Y-17611984D02*
X17753515Y-17602460D01*
X17753515Y-17602460D02*
X17743992Y-17583412D01*
X17743992Y-17583412D02*
X17743992Y-17411984D01*
X17924944Y-17602460D02*
X17905896Y-17611984D01*
X17905896Y-17611984D02*
X17867801Y-17611984D01*
X17867801Y-17611984D02*
X17848753Y-17602460D01*
X17848753Y-17602460D02*
X17839230Y-17583412D01*
X17839230Y-17583412D02*
X17839230Y-17507222D01*
X17839230Y-17507222D02*
X17848753Y-17488174D01*
X17848753Y-17488174D02*
X17867801Y-17478650D01*
X17867801Y-17478650D02*
X17905896Y-17478650D01*
X17905896Y-17478650D02*
X17924944Y-17488174D01*
X17924944Y-17488174D02*
X17934468Y-17507222D01*
X17934468Y-17507222D02*
X17934468Y-17526270D01*
X17934468Y-17526270D02*
X17839230Y-17545317D01*
X18010658Y-17602460D02*
X18029706Y-17611984D01*
X18029706Y-17611984D02*
X18067801Y-17611984D01*
X18067801Y-17611984D02*
X18086849Y-17602460D01*
X18086849Y-17602460D02*
X18096373Y-17583412D01*
X18096373Y-17583412D02*
X18096373Y-17573889D01*
X18096373Y-17573889D02*
X18086849Y-17554841D01*
X18086849Y-17554841D02*
X18067801Y-17545317D01*
X18067801Y-17545317D02*
X18039230Y-17545317D01*
X18039230Y-17545317D02*
X18020182Y-17535793D01*
X18020182Y-17535793D02*
X18010658Y-17516746D01*
X18010658Y-17516746D02*
X18010658Y-17507222D01*
X18010658Y-17507222D02*
X18020182Y-17488174D01*
X18020182Y-17488174D02*
X18039230Y-17478650D01*
X18039230Y-17478650D02*
X18067801Y-17478650D01*
X18067801Y-17478650D02*
X18086849Y-17488174D01*
X18163039Y-17688174D02*
X18172563Y-17678650D01*
X18172563Y-17678650D02*
X18191611Y-17650079D01*
X18191611Y-17650079D02*
X18201134Y-17631031D01*
X18201134Y-17631031D02*
X18210658Y-17602460D01*
X18210658Y-17602460D02*
X18220182Y-17554841D01*
X18220182Y-17554841D02*
X18220182Y-17516746D01*
X18220182Y-17516746D02*
X18210658Y-17469127D01*
X18210658Y-17469127D02*
X18201134Y-17440555D01*
X18201134Y-17440555D02*
X18191611Y-17421508D01*
X18191611Y-17421508D02*
X18172563Y-17392936D01*
X18172563Y-17392936D02*
X18163039Y-17383412D01*
D12*
X13184481Y-17815931D02*
X13184481Y-17753069D01*
X13121619Y-17753069D01*
X13121619Y-17815931D01*
X13184481Y-17815931D01*
D11*
X13496372Y-17675984D02*
X13515420Y-17675984D01*
X13515420Y-17675984D02*
X13534467Y-17685508D01*
X13534467Y-17685508D02*
X13543991Y-17695031D01*
X13543991Y-17695031D02*
X13553515Y-17714079D01*
X13553515Y-17714079D02*
X13563039Y-17752174D01*
X13563039Y-17752174D02*
X13563039Y-17799793D01*
X13563039Y-17799793D02*
X13553515Y-17837889D01*
X13553515Y-17837889D02*
X13543991Y-17856936D01*
X13543991Y-17856936D02*
X13534467Y-17866460D01*
X13534467Y-17866460D02*
X13515420Y-17875984D01*
X13515420Y-17875984D02*
X13496372Y-17875984D01*
X13496372Y-17875984D02*
X13477324Y-17866460D01*
X13477324Y-17866460D02*
X13467801Y-17856936D01*
X13467801Y-17856936D02*
X13458277Y-17837889D01*
X13458277Y-17837889D02*
X13448753Y-17799793D01*
X13448753Y-17799793D02*
X13448753Y-17752174D01*
X13448753Y-17752174D02*
X13458277Y-17714079D01*
X13458277Y-17714079D02*
X13467801Y-17695031D01*
X13467801Y-17695031D02*
X13477324Y-17685508D01*
X13477324Y-17685508D02*
X13496372Y-17675984D01*
X13648753Y-17856936D02*
X13658277Y-17866460D01*
X13658277Y-17866460D02*
X13648753Y-17875984D01*
X13648753Y-17875984D02*
X13639229Y-17866460D01*
X13639229Y-17866460D02*
X13648753Y-17856936D01*
X13648753Y-17856936D02*
X13648753Y-17875984D01*
X13772562Y-17761698D02*
X13753515Y-17752174D01*
X13753515Y-17752174D02*
X13743991Y-17742650D01*
X13743991Y-17742650D02*
X13734467Y-17723603D01*
X13734467Y-17723603D02*
X13734467Y-17714079D01*
X13734467Y-17714079D02*
X13743991Y-17695031D01*
X13743991Y-17695031D02*
X13753515Y-17685508D01*
X13753515Y-17685508D02*
X13772562Y-17675984D01*
X13772562Y-17675984D02*
X13810658Y-17675984D01*
X13810658Y-17675984D02*
X13829705Y-17685508D01*
X13829705Y-17685508D02*
X13839229Y-17695031D01*
X13839229Y-17695031D02*
X13848753Y-17714079D01*
X13848753Y-17714079D02*
X13848753Y-17723603D01*
X13848753Y-17723603D02*
X13839229Y-17742650D01*
X13839229Y-17742650D02*
X13829705Y-17752174D01*
X13829705Y-17752174D02*
X13810658Y-17761698D01*
X13810658Y-17761698D02*
X13772562Y-17761698D01*
X13772562Y-17761698D02*
X13753515Y-17771222D01*
X13753515Y-17771222D02*
X13743991Y-17780746D01*
X13743991Y-17780746D02*
X13734467Y-17799793D01*
X13734467Y-17799793D02*
X13734467Y-17837889D01*
X13734467Y-17837889D02*
X13743991Y-17856936D01*
X13743991Y-17856936D02*
X13753515Y-17866460D01*
X13753515Y-17866460D02*
X13772562Y-17875984D01*
X13772562Y-17875984D02*
X13810658Y-17875984D01*
X13810658Y-17875984D02*
X13829705Y-17866460D01*
X13829705Y-17866460D02*
X13839229Y-17856936D01*
X13839229Y-17856936D02*
X13848753Y-17837889D01*
X13848753Y-17837889D02*
X13848753Y-17799793D01*
X13848753Y-17799793D02*
X13839229Y-17780746D01*
X13839229Y-17780746D02*
X13829705Y-17771222D01*
X13829705Y-17771222D02*
X13810658Y-17761698D01*
X13963039Y-17761698D02*
X13943991Y-17752174D01*
X13943991Y-17752174D02*
X13934467Y-17742650D01*
X13934467Y-17742650D02*
X13924943Y-17723603D01*
X13924943Y-17723603D02*
X13924943Y-17714079D01*
X13924943Y-17714079D02*
X13934467Y-17695031D01*
X13934467Y-17695031D02*
X13943991Y-17685508D01*
X13943991Y-17685508D02*
X13963039Y-17675984D01*
X13963039Y-17675984D02*
X14001134Y-17675984D01*
X14001134Y-17675984D02*
X14020182Y-17685508D01*
X14020182Y-17685508D02*
X14029705Y-17695031D01*
X14029705Y-17695031D02*
X14039229Y-17714079D01*
X14039229Y-17714079D02*
X14039229Y-17723603D01*
X14039229Y-17723603D02*
X14029705Y-17742650D01*
X14029705Y-17742650D02*
X14020182Y-17752174D01*
X14020182Y-17752174D02*
X14001134Y-17761698D01*
X14001134Y-17761698D02*
X13963039Y-17761698D01*
X13963039Y-17761698D02*
X13943991Y-17771222D01*
X13943991Y-17771222D02*
X13934467Y-17780746D01*
X13934467Y-17780746D02*
X13924943Y-17799793D01*
X13924943Y-17799793D02*
X13924943Y-17837889D01*
X13924943Y-17837889D02*
X13934467Y-17856936D01*
X13934467Y-17856936D02*
X13943991Y-17866460D01*
X13943991Y-17866460D02*
X13963039Y-17875984D01*
X13963039Y-17875984D02*
X14001134Y-17875984D01*
X14001134Y-17875984D02*
X14020182Y-17866460D01*
X14020182Y-17866460D02*
X14029705Y-17856936D01*
X14029705Y-17856936D02*
X14039229Y-17837889D01*
X14039229Y-17837889D02*
X14039229Y-17799793D01*
X14039229Y-17799793D02*
X14029705Y-17780746D01*
X14029705Y-17780746D02*
X14020182Y-17771222D01*
X14020182Y-17771222D02*
X14001134Y-17761698D01*
X14134467Y-17875984D02*
X14172562Y-17875984D01*
X14172562Y-17875984D02*
X14191610Y-17866460D01*
X14191610Y-17866460D02*
X14201134Y-17856936D01*
X14201134Y-17856936D02*
X14220182Y-17828365D01*
X14220182Y-17828365D02*
X14229705Y-17790270D01*
X14229705Y-17790270D02*
X14229705Y-17714079D01*
X14229705Y-17714079D02*
X14220182Y-17695031D01*
X14220182Y-17695031D02*
X14210658Y-17685508D01*
X14210658Y-17685508D02*
X14191610Y-17675984D01*
X14191610Y-17675984D02*
X14153515Y-17675984D01*
X14153515Y-17675984D02*
X14134467Y-17685508D01*
X14134467Y-17685508D02*
X14124943Y-17695031D01*
X14124943Y-17695031D02*
X14115420Y-17714079D01*
X14115420Y-17714079D02*
X14115420Y-17761698D01*
X14115420Y-17761698D02*
X14124943Y-17780746D01*
X14124943Y-17780746D02*
X14134467Y-17790270D01*
X14134467Y-17790270D02*
X14153515Y-17799793D01*
X14153515Y-17799793D02*
X14191610Y-17799793D01*
X14191610Y-17799793D02*
X14210658Y-17790270D01*
X14210658Y-17790270D02*
X14220182Y-17780746D01*
X14220182Y-17780746D02*
X14229705Y-17761698D01*
X14315420Y-17875984D02*
X14315420Y-17742650D01*
X14315420Y-17761698D02*
X14324943Y-17752174D01*
X14324943Y-17752174D02*
X14343991Y-17742650D01*
X14343991Y-17742650D02*
X14372563Y-17742650D01*
X14372563Y-17742650D02*
X14391610Y-17752174D01*
X14391610Y-17752174D02*
X14401134Y-17771222D01*
X14401134Y-17771222D02*
X14401134Y-17875984D01*
X14401134Y-17771222D02*
X14410658Y-17752174D01*
X14410658Y-17752174D02*
X14429705Y-17742650D01*
X14429705Y-17742650D02*
X14458277Y-17742650D01*
X14458277Y-17742650D02*
X14477324Y-17752174D01*
X14477324Y-17752174D02*
X14486848Y-17771222D01*
X14486848Y-17771222D02*
X14486848Y-17875984D01*
X14582086Y-17875984D02*
X14582086Y-17742650D01*
X14582086Y-17761698D02*
X14591610Y-17752174D01*
X14591610Y-17752174D02*
X14610658Y-17742650D01*
X14610658Y-17742650D02*
X14639229Y-17742650D01*
X14639229Y-17742650D02*
X14658277Y-17752174D01*
X14658277Y-17752174D02*
X14667801Y-17771222D01*
X14667801Y-17771222D02*
X14667801Y-17875984D01*
X14667801Y-17771222D02*
X14677324Y-17752174D01*
X14677324Y-17752174D02*
X14696372Y-17742650D01*
X14696372Y-17742650D02*
X14724943Y-17742650D01*
X14724943Y-17742650D02*
X14743991Y-17752174D01*
X14743991Y-17752174D02*
X14753515Y-17771222D01*
X14753515Y-17771222D02*
X14753515Y-17875984D01*
X15143991Y-17666460D02*
X14972563Y-17923603D01*
X15401134Y-17675984D02*
X15420182Y-17675984D01*
X15420182Y-17675984D02*
X15439229Y-17685508D01*
X15439229Y-17685508D02*
X15448753Y-17695031D01*
X15448753Y-17695031D02*
X15458277Y-17714079D01*
X15458277Y-17714079D02*
X15467801Y-17752174D01*
X15467801Y-17752174D02*
X15467801Y-17799793D01*
X15467801Y-17799793D02*
X15458277Y-17837889D01*
X15458277Y-17837889D02*
X15448753Y-17856936D01*
X15448753Y-17856936D02*
X15439229Y-17866460D01*
X15439229Y-17866460D02*
X15420182Y-17875984D01*
X15420182Y-17875984D02*
X15401134Y-17875984D01*
X15401134Y-17875984D02*
X15382086Y-17866460D01*
X15382086Y-17866460D02*
X15372563Y-17856936D01*
X15372563Y-17856936D02*
X15363039Y-17837889D01*
X15363039Y-17837889D02*
X15353515Y-17799793D01*
X15353515Y-17799793D02*
X15353515Y-17752174D01*
X15353515Y-17752174D02*
X15363039Y-17714079D01*
X15363039Y-17714079D02*
X15372563Y-17695031D01*
X15372563Y-17695031D02*
X15382086Y-17685508D01*
X15382086Y-17685508D02*
X15401134Y-17675984D01*
X15553515Y-17856936D02*
X15563039Y-17866460D01*
X15563039Y-17866460D02*
X15553515Y-17875984D01*
X15553515Y-17875984D02*
X15543991Y-17866460D01*
X15543991Y-17866460D02*
X15553515Y-17856936D01*
X15553515Y-17856936D02*
X15553515Y-17875984D01*
X15686848Y-17675984D02*
X15705896Y-17675984D01*
X15705896Y-17675984D02*
X15724944Y-17685508D01*
X15724944Y-17685508D02*
X15734467Y-17695031D01*
X15734467Y-17695031D02*
X15743991Y-17714079D01*
X15743991Y-17714079D02*
X15753515Y-17752174D01*
X15753515Y-17752174D02*
X15753515Y-17799793D01*
X15753515Y-17799793D02*
X15743991Y-17837889D01*
X15743991Y-17837889D02*
X15734467Y-17856936D01*
X15734467Y-17856936D02*
X15724944Y-17866460D01*
X15724944Y-17866460D02*
X15705896Y-17875984D01*
X15705896Y-17875984D02*
X15686848Y-17875984D01*
X15686848Y-17875984D02*
X15667801Y-17866460D01*
X15667801Y-17866460D02*
X15658277Y-17856936D01*
X15658277Y-17856936D02*
X15648753Y-17837889D01*
X15648753Y-17837889D02*
X15639229Y-17799793D01*
X15639229Y-17799793D02*
X15639229Y-17752174D01*
X15639229Y-17752174D02*
X15648753Y-17714079D01*
X15648753Y-17714079D02*
X15658277Y-17695031D01*
X15658277Y-17695031D02*
X15667801Y-17685508D01*
X15667801Y-17685508D02*
X15686848Y-17675984D01*
X15820182Y-17675984D02*
X15943991Y-17675984D01*
X15943991Y-17675984D02*
X15877325Y-17752174D01*
X15877325Y-17752174D02*
X15905896Y-17752174D01*
X15905896Y-17752174D02*
X15924944Y-17761698D01*
X15924944Y-17761698D02*
X15934467Y-17771222D01*
X15934467Y-17771222D02*
X15943991Y-17790270D01*
X15943991Y-17790270D02*
X15943991Y-17837889D01*
X15943991Y-17837889D02*
X15934467Y-17856936D01*
X15934467Y-17856936D02*
X15924944Y-17866460D01*
X15924944Y-17866460D02*
X15905896Y-17875984D01*
X15905896Y-17875984D02*
X15848753Y-17875984D01*
X15848753Y-17875984D02*
X15829706Y-17866460D01*
X15829706Y-17866460D02*
X15820182Y-17856936D01*
X16124944Y-17675984D02*
X16029706Y-17675984D01*
X16029706Y-17675984D02*
X16020182Y-17771222D01*
X16020182Y-17771222D02*
X16029706Y-17761698D01*
X16029706Y-17761698D02*
X16048753Y-17752174D01*
X16048753Y-17752174D02*
X16096372Y-17752174D01*
X16096372Y-17752174D02*
X16115420Y-17761698D01*
X16115420Y-17761698D02*
X16124944Y-17771222D01*
X16124944Y-17771222D02*
X16134467Y-17790270D01*
X16134467Y-17790270D02*
X16134467Y-17837889D01*
X16134467Y-17837889D02*
X16124944Y-17856936D01*
X16124944Y-17856936D02*
X16115420Y-17866460D01*
X16115420Y-17866460D02*
X16096372Y-17875984D01*
X16096372Y-17875984D02*
X16048753Y-17875984D01*
X16048753Y-17875984D02*
X16029706Y-17866460D01*
X16029706Y-17866460D02*
X16020182Y-17856936D01*
X16258277Y-17675984D02*
X16277325Y-17675984D01*
X16277325Y-17675984D02*
X16296372Y-17685508D01*
X16296372Y-17685508D02*
X16305896Y-17695031D01*
X16305896Y-17695031D02*
X16315420Y-17714079D01*
X16315420Y-17714079D02*
X16324944Y-17752174D01*
X16324944Y-17752174D02*
X16324944Y-17799793D01*
X16324944Y-17799793D02*
X16315420Y-17837889D01*
X16315420Y-17837889D02*
X16305896Y-17856936D01*
X16305896Y-17856936D02*
X16296372Y-17866460D01*
X16296372Y-17866460D02*
X16277325Y-17875984D01*
X16277325Y-17875984D02*
X16258277Y-17875984D01*
X16258277Y-17875984D02*
X16239229Y-17866460D01*
X16239229Y-17866460D02*
X16229706Y-17856936D01*
X16229706Y-17856936D02*
X16220182Y-17837889D01*
X16220182Y-17837889D02*
X16210658Y-17799793D01*
X16210658Y-17799793D02*
X16210658Y-17752174D01*
X16210658Y-17752174D02*
X16220182Y-17714079D01*
X16220182Y-17714079D02*
X16229706Y-17695031D01*
X16229706Y-17695031D02*
X16239229Y-17685508D01*
X16239229Y-17685508D02*
X16258277Y-17675984D01*
X16401134Y-17675984D02*
X16401134Y-17714079D01*
X16477325Y-17675984D02*
X16477325Y-17714079D01*
X16772563Y-17952174D02*
X16763039Y-17942650D01*
X16763039Y-17942650D02*
X16743991Y-17914079D01*
X16743991Y-17914079D02*
X16734468Y-17895031D01*
X16734468Y-17895031D02*
X16724944Y-17866460D01*
X16724944Y-17866460D02*
X16715420Y-17818841D01*
X16715420Y-17818841D02*
X16715420Y-17780746D01*
X16715420Y-17780746D02*
X16724944Y-17733127D01*
X16724944Y-17733127D02*
X16734468Y-17704555D01*
X16734468Y-17704555D02*
X16743991Y-17685508D01*
X16743991Y-17685508D02*
X16763039Y-17656936D01*
X16763039Y-17656936D02*
X16772563Y-17647412D01*
X16953515Y-17875984D02*
X16839230Y-17875984D01*
X16896372Y-17875984D02*
X16896372Y-17675984D01*
X16896372Y-17675984D02*
X16877325Y-17704555D01*
X16877325Y-17704555D02*
X16858277Y-17723603D01*
X16858277Y-17723603D02*
X16839230Y-17733127D01*
X17124944Y-17675984D02*
X17086849Y-17675984D01*
X17086849Y-17675984D02*
X17067801Y-17685508D01*
X17067801Y-17685508D02*
X17058277Y-17695031D01*
X17058277Y-17695031D02*
X17039230Y-17723603D01*
X17039230Y-17723603D02*
X17029706Y-17761698D01*
X17029706Y-17761698D02*
X17029706Y-17837889D01*
X17029706Y-17837889D02*
X17039230Y-17856936D01*
X17039230Y-17856936D02*
X17048753Y-17866460D01*
X17048753Y-17866460D02*
X17067801Y-17875984D01*
X17067801Y-17875984D02*
X17105896Y-17875984D01*
X17105896Y-17875984D02*
X17124944Y-17866460D01*
X17124944Y-17866460D02*
X17134468Y-17856936D01*
X17134468Y-17856936D02*
X17143991Y-17837889D01*
X17143991Y-17837889D02*
X17143991Y-17790270D01*
X17143991Y-17790270D02*
X17134468Y-17771222D01*
X17134468Y-17771222D02*
X17124944Y-17761698D01*
X17124944Y-17761698D02*
X17105896Y-17752174D01*
X17105896Y-17752174D02*
X17067801Y-17752174D01*
X17067801Y-17752174D02*
X17048753Y-17761698D01*
X17048753Y-17761698D02*
X17039230Y-17771222D01*
X17039230Y-17771222D02*
X17029706Y-17790270D01*
X17382087Y-17875984D02*
X17382087Y-17675984D01*
X17467801Y-17875984D02*
X17467801Y-17771222D01*
X17467801Y-17771222D02*
X17458277Y-17752174D01*
X17458277Y-17752174D02*
X17439230Y-17742650D01*
X17439230Y-17742650D02*
X17410658Y-17742650D01*
X17410658Y-17742650D02*
X17391611Y-17752174D01*
X17391611Y-17752174D02*
X17382087Y-17761698D01*
X17591611Y-17875984D02*
X17572563Y-17866460D01*
X17572563Y-17866460D02*
X17563039Y-17856936D01*
X17563039Y-17856936D02*
X17553515Y-17837889D01*
X17553515Y-17837889D02*
X17553515Y-17780746D01*
X17553515Y-17780746D02*
X17563039Y-17761698D01*
X17563039Y-17761698D02*
X17572563Y-17752174D01*
X17572563Y-17752174D02*
X17591611Y-17742650D01*
X17591611Y-17742650D02*
X17620182Y-17742650D01*
X17620182Y-17742650D02*
X17639230Y-17752174D01*
X17639230Y-17752174D02*
X17648753Y-17761698D01*
X17648753Y-17761698D02*
X17658277Y-17780746D01*
X17658277Y-17780746D02*
X17658277Y-17837889D01*
X17658277Y-17837889D02*
X17648753Y-17856936D01*
X17648753Y-17856936D02*
X17639230Y-17866460D01*
X17639230Y-17866460D02*
X17620182Y-17875984D01*
X17620182Y-17875984D02*
X17591611Y-17875984D01*
X17772563Y-17875984D02*
X17753515Y-17866460D01*
X17753515Y-17866460D02*
X17743992Y-17847412D01*
X17743992Y-17847412D02*
X17743992Y-17675984D01*
X17924944Y-17866460D02*
X17905896Y-17875984D01*
X17905896Y-17875984D02*
X17867801Y-17875984D01*
X17867801Y-17875984D02*
X17848753Y-17866460D01*
X17848753Y-17866460D02*
X17839230Y-17847412D01*
X17839230Y-17847412D02*
X17839230Y-17771222D01*
X17839230Y-17771222D02*
X17848753Y-17752174D01*
X17848753Y-17752174D02*
X17867801Y-17742650D01*
X17867801Y-17742650D02*
X17905896Y-17742650D01*
X17905896Y-17742650D02*
X17924944Y-17752174D01*
X17924944Y-17752174D02*
X17934468Y-17771222D01*
X17934468Y-17771222D02*
X17934468Y-17790270D01*
X17934468Y-17790270D02*
X17839230Y-17809317D01*
X18010658Y-17866460D02*
X18029706Y-17875984D01*
X18029706Y-17875984D02*
X18067801Y-17875984D01*
X18067801Y-17875984D02*
X18086849Y-17866460D01*
X18086849Y-17866460D02*
X18096373Y-17847412D01*
X18096373Y-17847412D02*
X18096373Y-17837889D01*
X18096373Y-17837889D02*
X18086849Y-17818841D01*
X18086849Y-17818841D02*
X18067801Y-17809317D01*
X18067801Y-17809317D02*
X18039230Y-17809317D01*
X18039230Y-17809317D02*
X18020182Y-17799793D01*
X18020182Y-17799793D02*
X18010658Y-17780746D01*
X18010658Y-17780746D02*
X18010658Y-17771222D01*
X18010658Y-17771222D02*
X18020182Y-17752174D01*
X18020182Y-17752174D02*
X18039230Y-17742650D01*
X18039230Y-17742650D02*
X18067801Y-17742650D01*
X18067801Y-17742650D02*
X18086849Y-17752174D01*
X18163039Y-17952174D02*
X18172563Y-17942650D01*
X18172563Y-17942650D02*
X18191611Y-17914079D01*
X18191611Y-17914079D02*
X18201134Y-17895031D01*
X18201134Y-17895031D02*
X18210658Y-17866460D01*
X18210658Y-17866460D02*
X18220182Y-17818841D01*
X18220182Y-17818841D02*
X18220182Y-17780746D01*
X18220182Y-17780746D02*
X18210658Y-17733127D01*
X18210658Y-17733127D02*
X18201134Y-17704555D01*
X18201134Y-17704555D02*
X18191611Y-17685508D01*
X18191611Y-17685508D02*
X18172563Y-17656936D01*
X18172563Y-17656936D02*
X18163039Y-17647412D01*
D12*
X13152500Y-18093500D02*
X13197500Y-18048500D01*
X13152500Y-18003500D01*
X13107500Y-18048500D01*
X13152500Y-18093500D01*
D11*
X13496372Y-17939984D02*
X13515420Y-17939984D01*
X13515420Y-17939984D02*
X13534467Y-17949508D01*
X13534467Y-17949508D02*
X13543991Y-17959031D01*
X13543991Y-17959031D02*
X13553515Y-17978079D01*
X13553515Y-17978079D02*
X13563039Y-18016174D01*
X13563039Y-18016174D02*
X13563039Y-18063793D01*
X13563039Y-18063793D02*
X13553515Y-18101889D01*
X13553515Y-18101889D02*
X13543991Y-18120936D01*
X13543991Y-18120936D02*
X13534467Y-18130460D01*
X13534467Y-18130460D02*
X13515420Y-18139984D01*
X13515420Y-18139984D02*
X13496372Y-18139984D01*
X13496372Y-18139984D02*
X13477324Y-18130460D01*
X13477324Y-18130460D02*
X13467801Y-18120936D01*
X13467801Y-18120936D02*
X13458277Y-18101889D01*
X13458277Y-18101889D02*
X13448753Y-18063793D01*
X13448753Y-18063793D02*
X13448753Y-18016174D01*
X13448753Y-18016174D02*
X13458277Y-17978079D01*
X13458277Y-17978079D02*
X13467801Y-17959031D01*
X13467801Y-17959031D02*
X13477324Y-17949508D01*
X13477324Y-17949508D02*
X13496372Y-17939984D01*
X13648753Y-18120936D02*
X13658277Y-18130460D01*
X13658277Y-18130460D02*
X13648753Y-18139984D01*
X13648753Y-18139984D02*
X13639229Y-18130460D01*
X13639229Y-18130460D02*
X13648753Y-18120936D01*
X13648753Y-18120936D02*
X13648753Y-18139984D01*
X13753515Y-18139984D02*
X13791610Y-18139984D01*
X13791610Y-18139984D02*
X13810658Y-18130460D01*
X13810658Y-18130460D02*
X13820182Y-18120936D01*
X13820182Y-18120936D02*
X13839229Y-18092365D01*
X13839229Y-18092365D02*
X13848753Y-18054270D01*
X13848753Y-18054270D02*
X13848753Y-17978079D01*
X13848753Y-17978079D02*
X13839229Y-17959031D01*
X13839229Y-17959031D02*
X13829705Y-17949508D01*
X13829705Y-17949508D02*
X13810658Y-17939984D01*
X13810658Y-17939984D02*
X13772562Y-17939984D01*
X13772562Y-17939984D02*
X13753515Y-17949508D01*
X13753515Y-17949508D02*
X13743991Y-17959031D01*
X13743991Y-17959031D02*
X13734467Y-17978079D01*
X13734467Y-17978079D02*
X13734467Y-18025698D01*
X13734467Y-18025698D02*
X13743991Y-18044746D01*
X13743991Y-18044746D02*
X13753515Y-18054270D01*
X13753515Y-18054270D02*
X13772562Y-18063793D01*
X13772562Y-18063793D02*
X13810658Y-18063793D01*
X13810658Y-18063793D02*
X13829705Y-18054270D01*
X13829705Y-18054270D02*
X13839229Y-18044746D01*
X13839229Y-18044746D02*
X13848753Y-18025698D01*
X13972562Y-17939984D02*
X13991610Y-17939984D01*
X13991610Y-17939984D02*
X14010658Y-17949508D01*
X14010658Y-17949508D02*
X14020182Y-17959031D01*
X14020182Y-17959031D02*
X14029705Y-17978079D01*
X14029705Y-17978079D02*
X14039229Y-18016174D01*
X14039229Y-18016174D02*
X14039229Y-18063793D01*
X14039229Y-18063793D02*
X14029705Y-18101889D01*
X14029705Y-18101889D02*
X14020182Y-18120936D01*
X14020182Y-18120936D02*
X14010658Y-18130460D01*
X14010658Y-18130460D02*
X13991610Y-18139984D01*
X13991610Y-18139984D02*
X13972562Y-18139984D01*
X13972562Y-18139984D02*
X13953515Y-18130460D01*
X13953515Y-18130460D02*
X13943991Y-18120936D01*
X13943991Y-18120936D02*
X13934467Y-18101889D01*
X13934467Y-18101889D02*
X13924943Y-18063793D01*
X13924943Y-18063793D02*
X13924943Y-18016174D01*
X13924943Y-18016174D02*
X13934467Y-17978079D01*
X13934467Y-17978079D02*
X13943991Y-17959031D01*
X13943991Y-17959031D02*
X13953515Y-17949508D01*
X13953515Y-17949508D02*
X13972562Y-17939984D01*
X14163039Y-17939984D02*
X14182086Y-17939984D01*
X14182086Y-17939984D02*
X14201134Y-17949508D01*
X14201134Y-17949508D02*
X14210658Y-17959031D01*
X14210658Y-17959031D02*
X14220182Y-17978079D01*
X14220182Y-17978079D02*
X14229705Y-18016174D01*
X14229705Y-18016174D02*
X14229705Y-18063793D01*
X14229705Y-18063793D02*
X14220182Y-18101889D01*
X14220182Y-18101889D02*
X14210658Y-18120936D01*
X14210658Y-18120936D02*
X14201134Y-18130460D01*
X14201134Y-18130460D02*
X14182086Y-18139984D01*
X14182086Y-18139984D02*
X14163039Y-18139984D01*
X14163039Y-18139984D02*
X14143991Y-18130460D01*
X14143991Y-18130460D02*
X14134467Y-18120936D01*
X14134467Y-18120936D02*
X14124943Y-18101889D01*
X14124943Y-18101889D02*
X14115420Y-18063793D01*
X14115420Y-18063793D02*
X14115420Y-18016174D01*
X14115420Y-18016174D02*
X14124943Y-17978079D01*
X14124943Y-17978079D02*
X14134467Y-17959031D01*
X14134467Y-17959031D02*
X14143991Y-17949508D01*
X14143991Y-17949508D02*
X14163039Y-17939984D01*
X14315420Y-18139984D02*
X14315420Y-18006650D01*
X14315420Y-18025698D02*
X14324943Y-18016174D01*
X14324943Y-18016174D02*
X14343991Y-18006650D01*
X14343991Y-18006650D02*
X14372563Y-18006650D01*
X14372563Y-18006650D02*
X14391610Y-18016174D01*
X14391610Y-18016174D02*
X14401134Y-18035222D01*
X14401134Y-18035222D02*
X14401134Y-18139984D01*
X14401134Y-18035222D02*
X14410658Y-18016174D01*
X14410658Y-18016174D02*
X14429705Y-18006650D01*
X14429705Y-18006650D02*
X14458277Y-18006650D01*
X14458277Y-18006650D02*
X14477324Y-18016174D01*
X14477324Y-18016174D02*
X14486848Y-18035222D01*
X14486848Y-18035222D02*
X14486848Y-18139984D01*
X14582086Y-18139984D02*
X14582086Y-18006650D01*
X14582086Y-18025698D02*
X14591610Y-18016174D01*
X14591610Y-18016174D02*
X14610658Y-18006650D01*
X14610658Y-18006650D02*
X14639229Y-18006650D01*
X14639229Y-18006650D02*
X14658277Y-18016174D01*
X14658277Y-18016174D02*
X14667801Y-18035222D01*
X14667801Y-18035222D02*
X14667801Y-18139984D01*
X14667801Y-18035222D02*
X14677324Y-18016174D01*
X14677324Y-18016174D02*
X14696372Y-18006650D01*
X14696372Y-18006650D02*
X14724943Y-18006650D01*
X14724943Y-18006650D02*
X14743991Y-18016174D01*
X14743991Y-18016174D02*
X14753515Y-18035222D01*
X14753515Y-18035222D02*
X14753515Y-18139984D01*
X15143991Y-17930460D02*
X14972563Y-18187603D01*
X15401134Y-17939984D02*
X15420182Y-17939984D01*
X15420182Y-17939984D02*
X15439229Y-17949508D01*
X15439229Y-17949508D02*
X15448753Y-17959031D01*
X15448753Y-17959031D02*
X15458277Y-17978079D01*
X15458277Y-17978079D02*
X15467801Y-18016174D01*
X15467801Y-18016174D02*
X15467801Y-18063793D01*
X15467801Y-18063793D02*
X15458277Y-18101889D01*
X15458277Y-18101889D02*
X15448753Y-18120936D01*
X15448753Y-18120936D02*
X15439229Y-18130460D01*
X15439229Y-18130460D02*
X15420182Y-18139984D01*
X15420182Y-18139984D02*
X15401134Y-18139984D01*
X15401134Y-18139984D02*
X15382086Y-18130460D01*
X15382086Y-18130460D02*
X15372563Y-18120936D01*
X15372563Y-18120936D02*
X15363039Y-18101889D01*
X15363039Y-18101889D02*
X15353515Y-18063793D01*
X15353515Y-18063793D02*
X15353515Y-18016174D01*
X15353515Y-18016174D02*
X15363039Y-17978079D01*
X15363039Y-17978079D02*
X15372563Y-17959031D01*
X15372563Y-17959031D02*
X15382086Y-17949508D01*
X15382086Y-17949508D02*
X15401134Y-17939984D01*
X15553515Y-18120936D02*
X15563039Y-18130460D01*
X15563039Y-18130460D02*
X15553515Y-18139984D01*
X15553515Y-18139984D02*
X15543991Y-18130460D01*
X15543991Y-18130460D02*
X15553515Y-18120936D01*
X15553515Y-18120936D02*
X15553515Y-18139984D01*
X15686848Y-17939984D02*
X15705896Y-17939984D01*
X15705896Y-17939984D02*
X15724944Y-17949508D01*
X15724944Y-17949508D02*
X15734467Y-17959031D01*
X15734467Y-17959031D02*
X15743991Y-17978079D01*
X15743991Y-17978079D02*
X15753515Y-18016174D01*
X15753515Y-18016174D02*
X15753515Y-18063793D01*
X15753515Y-18063793D02*
X15743991Y-18101889D01*
X15743991Y-18101889D02*
X15734467Y-18120936D01*
X15734467Y-18120936D02*
X15724944Y-18130460D01*
X15724944Y-18130460D02*
X15705896Y-18139984D01*
X15705896Y-18139984D02*
X15686848Y-18139984D01*
X15686848Y-18139984D02*
X15667801Y-18130460D01*
X15667801Y-18130460D02*
X15658277Y-18120936D01*
X15658277Y-18120936D02*
X15648753Y-18101889D01*
X15648753Y-18101889D02*
X15639229Y-18063793D01*
X15639229Y-18063793D02*
X15639229Y-18016174D01*
X15639229Y-18016174D02*
X15648753Y-17978079D01*
X15648753Y-17978079D02*
X15658277Y-17959031D01*
X15658277Y-17959031D02*
X15667801Y-17949508D01*
X15667801Y-17949508D02*
X15686848Y-17939984D01*
X15820182Y-17939984D02*
X15943991Y-17939984D01*
X15943991Y-17939984D02*
X15877325Y-18016174D01*
X15877325Y-18016174D02*
X15905896Y-18016174D01*
X15905896Y-18016174D02*
X15924944Y-18025698D01*
X15924944Y-18025698D02*
X15934467Y-18035222D01*
X15934467Y-18035222D02*
X15943991Y-18054270D01*
X15943991Y-18054270D02*
X15943991Y-18101889D01*
X15943991Y-18101889D02*
X15934467Y-18120936D01*
X15934467Y-18120936D02*
X15924944Y-18130460D01*
X15924944Y-18130460D02*
X15905896Y-18139984D01*
X15905896Y-18139984D02*
X15848753Y-18139984D01*
X15848753Y-18139984D02*
X15829706Y-18130460D01*
X15829706Y-18130460D02*
X15820182Y-18120936D01*
X16124944Y-17939984D02*
X16029706Y-17939984D01*
X16029706Y-17939984D02*
X16020182Y-18035222D01*
X16020182Y-18035222D02*
X16029706Y-18025698D01*
X16029706Y-18025698D02*
X16048753Y-18016174D01*
X16048753Y-18016174D02*
X16096372Y-18016174D01*
X16096372Y-18016174D02*
X16115420Y-18025698D01*
X16115420Y-18025698D02*
X16124944Y-18035222D01*
X16124944Y-18035222D02*
X16134467Y-18054270D01*
X16134467Y-18054270D02*
X16134467Y-18101889D01*
X16134467Y-18101889D02*
X16124944Y-18120936D01*
X16124944Y-18120936D02*
X16115420Y-18130460D01*
X16115420Y-18130460D02*
X16096372Y-18139984D01*
X16096372Y-18139984D02*
X16048753Y-18139984D01*
X16048753Y-18139984D02*
X16029706Y-18130460D01*
X16029706Y-18130460D02*
X16020182Y-18120936D01*
X16305896Y-18006650D02*
X16305896Y-18139984D01*
X16258277Y-17930460D02*
X16210658Y-18073317D01*
X16210658Y-18073317D02*
X16334467Y-18073317D01*
X16401134Y-17939984D02*
X16401134Y-17978079D01*
X16477325Y-17939984D02*
X16477325Y-17978079D01*
X16772563Y-18216174D02*
X16763039Y-18206650D01*
X16763039Y-18206650D02*
X16743991Y-18178079D01*
X16743991Y-18178079D02*
X16734468Y-18159031D01*
X16734468Y-18159031D02*
X16724944Y-18130460D01*
X16724944Y-18130460D02*
X16715420Y-18082841D01*
X16715420Y-18082841D02*
X16715420Y-18044746D01*
X16715420Y-18044746D02*
X16724944Y-17997127D01*
X16724944Y-17997127D02*
X16734468Y-17968555D01*
X16734468Y-17968555D02*
X16743991Y-17949508D01*
X16743991Y-17949508D02*
X16763039Y-17920936D01*
X16763039Y-17920936D02*
X16772563Y-17911412D01*
X16877325Y-18025698D02*
X16858277Y-18016174D01*
X16858277Y-18016174D02*
X16848753Y-18006650D01*
X16848753Y-18006650D02*
X16839230Y-17987603D01*
X16839230Y-17987603D02*
X16839230Y-17978079D01*
X16839230Y-17978079D02*
X16848753Y-17959031D01*
X16848753Y-17959031D02*
X16858277Y-17949508D01*
X16858277Y-17949508D02*
X16877325Y-17939984D01*
X16877325Y-17939984D02*
X16915420Y-17939984D01*
X16915420Y-17939984D02*
X16934468Y-17949508D01*
X16934468Y-17949508D02*
X16943991Y-17959031D01*
X16943991Y-17959031D02*
X16953515Y-17978079D01*
X16953515Y-17978079D02*
X16953515Y-17987603D01*
X16953515Y-17987603D02*
X16943991Y-18006650D01*
X16943991Y-18006650D02*
X16934468Y-18016174D01*
X16934468Y-18016174D02*
X16915420Y-18025698D01*
X16915420Y-18025698D02*
X16877325Y-18025698D01*
X16877325Y-18025698D02*
X16858277Y-18035222D01*
X16858277Y-18035222D02*
X16848753Y-18044746D01*
X16848753Y-18044746D02*
X16839230Y-18063793D01*
X16839230Y-18063793D02*
X16839230Y-18101889D01*
X16839230Y-18101889D02*
X16848753Y-18120936D01*
X16848753Y-18120936D02*
X16858277Y-18130460D01*
X16858277Y-18130460D02*
X16877325Y-18139984D01*
X16877325Y-18139984D02*
X16915420Y-18139984D01*
X16915420Y-18139984D02*
X16934468Y-18130460D01*
X16934468Y-18130460D02*
X16943991Y-18120936D01*
X16943991Y-18120936D02*
X16953515Y-18101889D01*
X16953515Y-18101889D02*
X16953515Y-18063793D01*
X16953515Y-18063793D02*
X16943991Y-18044746D01*
X16943991Y-18044746D02*
X16934468Y-18035222D01*
X16934468Y-18035222D02*
X16915420Y-18025698D01*
X17191611Y-18139984D02*
X17191611Y-17939984D01*
X17277325Y-18139984D02*
X17277325Y-18035222D01*
X17277325Y-18035222D02*
X17267801Y-18016174D01*
X17267801Y-18016174D02*
X17248753Y-18006650D01*
X17248753Y-18006650D02*
X17220182Y-18006650D01*
X17220182Y-18006650D02*
X17201134Y-18016174D01*
X17201134Y-18016174D02*
X17191611Y-18025698D01*
X17401134Y-18139984D02*
X17382087Y-18130460D01*
X17382087Y-18130460D02*
X17372563Y-18120936D01*
X17372563Y-18120936D02*
X17363039Y-18101889D01*
X17363039Y-18101889D02*
X17363039Y-18044746D01*
X17363039Y-18044746D02*
X17372563Y-18025698D01*
X17372563Y-18025698D02*
X17382087Y-18016174D01*
X17382087Y-18016174D02*
X17401134Y-18006650D01*
X17401134Y-18006650D02*
X17429706Y-18006650D01*
X17429706Y-18006650D02*
X17448753Y-18016174D01*
X17448753Y-18016174D02*
X17458277Y-18025698D01*
X17458277Y-18025698D02*
X17467801Y-18044746D01*
X17467801Y-18044746D02*
X17467801Y-18101889D01*
X17467801Y-18101889D02*
X17458277Y-18120936D01*
X17458277Y-18120936D02*
X17448753Y-18130460D01*
X17448753Y-18130460D02*
X17429706Y-18139984D01*
X17429706Y-18139984D02*
X17401134Y-18139984D01*
X17582087Y-18139984D02*
X17563039Y-18130460D01*
X17563039Y-18130460D02*
X17553515Y-18111412D01*
X17553515Y-18111412D02*
X17553515Y-17939984D01*
X17734468Y-18130460D02*
X17715420Y-18139984D01*
X17715420Y-18139984D02*
X17677325Y-18139984D01*
X17677325Y-18139984D02*
X17658277Y-18130460D01*
X17658277Y-18130460D02*
X17648753Y-18111412D01*
X17648753Y-18111412D02*
X17648753Y-18035222D01*
X17648753Y-18035222D02*
X17658277Y-18016174D01*
X17658277Y-18016174D02*
X17677325Y-18006650D01*
X17677325Y-18006650D02*
X17715420Y-18006650D01*
X17715420Y-18006650D02*
X17734468Y-18016174D01*
X17734468Y-18016174D02*
X17743992Y-18035222D01*
X17743992Y-18035222D02*
X17743992Y-18054270D01*
X17743992Y-18054270D02*
X17648753Y-18073317D01*
X17820182Y-18130460D02*
X17839230Y-18139984D01*
X17839230Y-18139984D02*
X17877325Y-18139984D01*
X17877325Y-18139984D02*
X17896373Y-18130460D01*
X17896373Y-18130460D02*
X17905896Y-18111412D01*
X17905896Y-18111412D02*
X17905896Y-18101889D01*
X17905896Y-18101889D02*
X17896373Y-18082841D01*
X17896373Y-18082841D02*
X17877325Y-18073317D01*
X17877325Y-18073317D02*
X17848753Y-18073317D01*
X17848753Y-18073317D02*
X17829706Y-18063793D01*
X17829706Y-18063793D02*
X17820182Y-18044746D01*
X17820182Y-18044746D02*
X17820182Y-18035222D01*
X17820182Y-18035222D02*
X17829706Y-18016174D01*
X17829706Y-18016174D02*
X17848753Y-18006650D01*
X17848753Y-18006650D02*
X17877325Y-18006650D01*
X17877325Y-18006650D02*
X17896373Y-18016174D01*
X17972563Y-18216174D02*
X17982087Y-18206650D01*
X17982087Y-18206650D02*
X18001134Y-18178079D01*
X18001134Y-18178079D02*
X18010658Y-18159031D01*
X18010658Y-18159031D02*
X18020182Y-18130460D01*
X18020182Y-18130460D02*
X18029706Y-18082841D01*
X18029706Y-18082841D02*
X18029706Y-18044746D01*
X18029706Y-18044746D02*
X18020182Y-17997127D01*
X18020182Y-17997127D02*
X18010658Y-17968555D01*
X18010658Y-17968555D02*
X18001134Y-17949508D01*
X18001134Y-17949508D02*
X17982087Y-17920936D01*
X17982087Y-17920936D02*
X17972563Y-17911412D01*
D12*
X13097500Y-18262500D02*
X13197500Y-18362500D01*
X13197500Y-18262500D02*
X13097500Y-18362500D01*
X13197500Y-18312500D02*
G75*
G02*
X13097500Y-18312500I-50000J0D01*
G01*
X13097500Y-18312500D02*
G75*
G02*
X13197500Y-18312500I50000J0D01*
G01*
D11*
X13563039Y-18403984D02*
X13448753Y-18403984D01*
X13505896Y-18403984D02*
X13505896Y-18203984D01*
X13505896Y-18203984D02*
X13486848Y-18232555D01*
X13486848Y-18232555D02*
X13467801Y-18251603D01*
X13467801Y-18251603D02*
X13448753Y-18261127D01*
X13648753Y-18384936D02*
X13658277Y-18394460D01*
X13658277Y-18394460D02*
X13648753Y-18403984D01*
X13648753Y-18403984D02*
X13639229Y-18394460D01*
X13639229Y-18394460D02*
X13648753Y-18384936D01*
X13648753Y-18384936D02*
X13648753Y-18403984D01*
X13782086Y-18203984D02*
X13801134Y-18203984D01*
X13801134Y-18203984D02*
X13820182Y-18213508D01*
X13820182Y-18213508D02*
X13829705Y-18223031D01*
X13829705Y-18223031D02*
X13839229Y-18242079D01*
X13839229Y-18242079D02*
X13848753Y-18280174D01*
X13848753Y-18280174D02*
X13848753Y-18327793D01*
X13848753Y-18327793D02*
X13839229Y-18365889D01*
X13839229Y-18365889D02*
X13829705Y-18384936D01*
X13829705Y-18384936D02*
X13820182Y-18394460D01*
X13820182Y-18394460D02*
X13801134Y-18403984D01*
X13801134Y-18403984D02*
X13782086Y-18403984D01*
X13782086Y-18403984D02*
X13763039Y-18394460D01*
X13763039Y-18394460D02*
X13753515Y-18384936D01*
X13753515Y-18384936D02*
X13743991Y-18365889D01*
X13743991Y-18365889D02*
X13734467Y-18327793D01*
X13734467Y-18327793D02*
X13734467Y-18280174D01*
X13734467Y-18280174D02*
X13743991Y-18242079D01*
X13743991Y-18242079D02*
X13753515Y-18223031D01*
X13753515Y-18223031D02*
X13763039Y-18213508D01*
X13763039Y-18213508D02*
X13782086Y-18203984D01*
X13972562Y-18203984D02*
X13991610Y-18203984D01*
X13991610Y-18203984D02*
X14010658Y-18213508D01*
X14010658Y-18213508D02*
X14020182Y-18223031D01*
X14020182Y-18223031D02*
X14029705Y-18242079D01*
X14029705Y-18242079D02*
X14039229Y-18280174D01*
X14039229Y-18280174D02*
X14039229Y-18327793D01*
X14039229Y-18327793D02*
X14029705Y-18365889D01*
X14029705Y-18365889D02*
X14020182Y-18384936D01*
X14020182Y-18384936D02*
X14010658Y-18394460D01*
X14010658Y-18394460D02*
X13991610Y-18403984D01*
X13991610Y-18403984D02*
X13972562Y-18403984D01*
X13972562Y-18403984D02*
X13953515Y-18394460D01*
X13953515Y-18394460D02*
X13943991Y-18384936D01*
X13943991Y-18384936D02*
X13934467Y-18365889D01*
X13934467Y-18365889D02*
X13924943Y-18327793D01*
X13924943Y-18327793D02*
X13924943Y-18280174D01*
X13924943Y-18280174D02*
X13934467Y-18242079D01*
X13934467Y-18242079D02*
X13943991Y-18223031D01*
X13943991Y-18223031D02*
X13953515Y-18213508D01*
X13953515Y-18213508D02*
X13972562Y-18203984D01*
X14163039Y-18203984D02*
X14182086Y-18203984D01*
X14182086Y-18203984D02*
X14201134Y-18213508D01*
X14201134Y-18213508D02*
X14210658Y-18223031D01*
X14210658Y-18223031D02*
X14220182Y-18242079D01*
X14220182Y-18242079D02*
X14229705Y-18280174D01*
X14229705Y-18280174D02*
X14229705Y-18327793D01*
X14229705Y-18327793D02*
X14220182Y-18365889D01*
X14220182Y-18365889D02*
X14210658Y-18384936D01*
X14210658Y-18384936D02*
X14201134Y-18394460D01*
X14201134Y-18394460D02*
X14182086Y-18403984D01*
X14182086Y-18403984D02*
X14163039Y-18403984D01*
X14163039Y-18403984D02*
X14143991Y-18394460D01*
X14143991Y-18394460D02*
X14134467Y-18384936D01*
X14134467Y-18384936D02*
X14124943Y-18365889D01*
X14124943Y-18365889D02*
X14115420Y-18327793D01*
X14115420Y-18327793D02*
X14115420Y-18280174D01*
X14115420Y-18280174D02*
X14124943Y-18242079D01*
X14124943Y-18242079D02*
X14134467Y-18223031D01*
X14134467Y-18223031D02*
X14143991Y-18213508D01*
X14143991Y-18213508D02*
X14163039Y-18203984D01*
X14315420Y-18403984D02*
X14315420Y-18270650D01*
X14315420Y-18289698D02*
X14324943Y-18280174D01*
X14324943Y-18280174D02*
X14343991Y-18270650D01*
X14343991Y-18270650D02*
X14372563Y-18270650D01*
X14372563Y-18270650D02*
X14391610Y-18280174D01*
X14391610Y-18280174D02*
X14401134Y-18299222D01*
X14401134Y-18299222D02*
X14401134Y-18403984D01*
X14401134Y-18299222D02*
X14410658Y-18280174D01*
X14410658Y-18280174D02*
X14429705Y-18270650D01*
X14429705Y-18270650D02*
X14458277Y-18270650D01*
X14458277Y-18270650D02*
X14477324Y-18280174D01*
X14477324Y-18280174D02*
X14486848Y-18299222D01*
X14486848Y-18299222D02*
X14486848Y-18403984D01*
X14582086Y-18403984D02*
X14582086Y-18270650D01*
X14582086Y-18289698D02*
X14591610Y-18280174D01*
X14591610Y-18280174D02*
X14610658Y-18270650D01*
X14610658Y-18270650D02*
X14639229Y-18270650D01*
X14639229Y-18270650D02*
X14658277Y-18280174D01*
X14658277Y-18280174D02*
X14667801Y-18299222D01*
X14667801Y-18299222D02*
X14667801Y-18403984D01*
X14667801Y-18299222D02*
X14677324Y-18280174D01*
X14677324Y-18280174D02*
X14696372Y-18270650D01*
X14696372Y-18270650D02*
X14724943Y-18270650D01*
X14724943Y-18270650D02*
X14743991Y-18280174D01*
X14743991Y-18280174D02*
X14753515Y-18299222D01*
X14753515Y-18299222D02*
X14753515Y-18403984D01*
X15143991Y-18194460D02*
X14972563Y-18451603D01*
X15401134Y-18203984D02*
X15420182Y-18203984D01*
X15420182Y-18203984D02*
X15439229Y-18213508D01*
X15439229Y-18213508D02*
X15448753Y-18223031D01*
X15448753Y-18223031D02*
X15458277Y-18242079D01*
X15458277Y-18242079D02*
X15467801Y-18280174D01*
X15467801Y-18280174D02*
X15467801Y-18327793D01*
X15467801Y-18327793D02*
X15458277Y-18365889D01*
X15458277Y-18365889D02*
X15448753Y-18384936D01*
X15448753Y-18384936D02*
X15439229Y-18394460D01*
X15439229Y-18394460D02*
X15420182Y-18403984D01*
X15420182Y-18403984D02*
X15401134Y-18403984D01*
X15401134Y-18403984D02*
X15382086Y-18394460D01*
X15382086Y-18394460D02*
X15372563Y-18384936D01*
X15372563Y-18384936D02*
X15363039Y-18365889D01*
X15363039Y-18365889D02*
X15353515Y-18327793D01*
X15353515Y-18327793D02*
X15353515Y-18280174D01*
X15353515Y-18280174D02*
X15363039Y-18242079D01*
X15363039Y-18242079D02*
X15372563Y-18223031D01*
X15372563Y-18223031D02*
X15382086Y-18213508D01*
X15382086Y-18213508D02*
X15401134Y-18203984D01*
X15553515Y-18384936D02*
X15563039Y-18394460D01*
X15563039Y-18394460D02*
X15553515Y-18403984D01*
X15553515Y-18403984D02*
X15543991Y-18394460D01*
X15543991Y-18394460D02*
X15553515Y-18384936D01*
X15553515Y-18384936D02*
X15553515Y-18403984D01*
X15686848Y-18203984D02*
X15705896Y-18203984D01*
X15705896Y-18203984D02*
X15724944Y-18213508D01*
X15724944Y-18213508D02*
X15734467Y-18223031D01*
X15734467Y-18223031D02*
X15743991Y-18242079D01*
X15743991Y-18242079D02*
X15753515Y-18280174D01*
X15753515Y-18280174D02*
X15753515Y-18327793D01*
X15753515Y-18327793D02*
X15743991Y-18365889D01*
X15743991Y-18365889D02*
X15734467Y-18384936D01*
X15734467Y-18384936D02*
X15724944Y-18394460D01*
X15724944Y-18394460D02*
X15705896Y-18403984D01*
X15705896Y-18403984D02*
X15686848Y-18403984D01*
X15686848Y-18403984D02*
X15667801Y-18394460D01*
X15667801Y-18394460D02*
X15658277Y-18384936D01*
X15658277Y-18384936D02*
X15648753Y-18365889D01*
X15648753Y-18365889D02*
X15639229Y-18327793D01*
X15639229Y-18327793D02*
X15639229Y-18280174D01*
X15639229Y-18280174D02*
X15648753Y-18242079D01*
X15648753Y-18242079D02*
X15658277Y-18223031D01*
X15658277Y-18223031D02*
X15667801Y-18213508D01*
X15667801Y-18213508D02*
X15686848Y-18203984D01*
X15820182Y-18203984D02*
X15943991Y-18203984D01*
X15943991Y-18203984D02*
X15877325Y-18280174D01*
X15877325Y-18280174D02*
X15905896Y-18280174D01*
X15905896Y-18280174D02*
X15924944Y-18289698D01*
X15924944Y-18289698D02*
X15934467Y-18299222D01*
X15934467Y-18299222D02*
X15943991Y-18318270D01*
X15943991Y-18318270D02*
X15943991Y-18365889D01*
X15943991Y-18365889D02*
X15934467Y-18384936D01*
X15934467Y-18384936D02*
X15924944Y-18394460D01*
X15924944Y-18394460D02*
X15905896Y-18403984D01*
X15905896Y-18403984D02*
X15848753Y-18403984D01*
X15848753Y-18403984D02*
X15829706Y-18394460D01*
X15829706Y-18394460D02*
X15820182Y-18384936D01*
X16039229Y-18403984D02*
X16077325Y-18403984D01*
X16077325Y-18403984D02*
X16096372Y-18394460D01*
X16096372Y-18394460D02*
X16105896Y-18384936D01*
X16105896Y-18384936D02*
X16124944Y-18356365D01*
X16124944Y-18356365D02*
X16134467Y-18318270D01*
X16134467Y-18318270D02*
X16134467Y-18242079D01*
X16134467Y-18242079D02*
X16124944Y-18223031D01*
X16124944Y-18223031D02*
X16115420Y-18213508D01*
X16115420Y-18213508D02*
X16096372Y-18203984D01*
X16096372Y-18203984D02*
X16058277Y-18203984D01*
X16058277Y-18203984D02*
X16039229Y-18213508D01*
X16039229Y-18213508D02*
X16029706Y-18223031D01*
X16029706Y-18223031D02*
X16020182Y-18242079D01*
X16020182Y-18242079D02*
X16020182Y-18289698D01*
X16020182Y-18289698D02*
X16029706Y-18308746D01*
X16029706Y-18308746D02*
X16039229Y-18318270D01*
X16039229Y-18318270D02*
X16058277Y-18327793D01*
X16058277Y-18327793D02*
X16096372Y-18327793D01*
X16096372Y-18327793D02*
X16115420Y-18318270D01*
X16115420Y-18318270D02*
X16124944Y-18308746D01*
X16124944Y-18308746D02*
X16134467Y-18289698D01*
X16305896Y-18270650D02*
X16305896Y-18403984D01*
X16258277Y-18194460D02*
X16210658Y-18337317D01*
X16210658Y-18337317D02*
X16334467Y-18337317D01*
X16401134Y-18203984D02*
X16401134Y-18242079D01*
X16477325Y-18203984D02*
X16477325Y-18242079D01*
X16772563Y-18480174D02*
X16763039Y-18470650D01*
X16763039Y-18470650D02*
X16743991Y-18442079D01*
X16743991Y-18442079D02*
X16734468Y-18423031D01*
X16734468Y-18423031D02*
X16724944Y-18394460D01*
X16724944Y-18394460D02*
X16715420Y-18346841D01*
X16715420Y-18346841D02*
X16715420Y-18308746D01*
X16715420Y-18308746D02*
X16724944Y-18261127D01*
X16724944Y-18261127D02*
X16734468Y-18232555D01*
X16734468Y-18232555D02*
X16743991Y-18213508D01*
X16743991Y-18213508D02*
X16763039Y-18184936D01*
X16763039Y-18184936D02*
X16772563Y-18175412D01*
X16829706Y-18203984D02*
X16953515Y-18203984D01*
X16953515Y-18203984D02*
X16886849Y-18280174D01*
X16886849Y-18280174D02*
X16915420Y-18280174D01*
X16915420Y-18280174D02*
X16934468Y-18289698D01*
X16934468Y-18289698D02*
X16943991Y-18299222D01*
X16943991Y-18299222D02*
X16953515Y-18318270D01*
X16953515Y-18318270D02*
X16953515Y-18365889D01*
X16953515Y-18365889D02*
X16943991Y-18384936D01*
X16943991Y-18384936D02*
X16934468Y-18394460D01*
X16934468Y-18394460D02*
X16915420Y-18403984D01*
X16915420Y-18403984D02*
X16858277Y-18403984D01*
X16858277Y-18403984D02*
X16839230Y-18394460D01*
X16839230Y-18394460D02*
X16829706Y-18384936D01*
X17124944Y-18270650D02*
X17124944Y-18403984D01*
X17077325Y-18194460D02*
X17029706Y-18337317D01*
X17029706Y-18337317D02*
X17153515Y-18337317D01*
X17382087Y-18403984D02*
X17382087Y-18203984D01*
X17467801Y-18403984D02*
X17467801Y-18299222D01*
X17467801Y-18299222D02*
X17458277Y-18280174D01*
X17458277Y-18280174D02*
X17439230Y-18270650D01*
X17439230Y-18270650D02*
X17410658Y-18270650D01*
X17410658Y-18270650D02*
X17391611Y-18280174D01*
X17391611Y-18280174D02*
X17382087Y-18289698D01*
X17591611Y-18403984D02*
X17572563Y-18394460D01*
X17572563Y-18394460D02*
X17563039Y-18384936D01*
X17563039Y-18384936D02*
X17553515Y-18365889D01*
X17553515Y-18365889D02*
X17553515Y-18308746D01*
X17553515Y-18308746D02*
X17563039Y-18289698D01*
X17563039Y-18289698D02*
X17572563Y-18280174D01*
X17572563Y-18280174D02*
X17591611Y-18270650D01*
X17591611Y-18270650D02*
X17620182Y-18270650D01*
X17620182Y-18270650D02*
X17639230Y-18280174D01*
X17639230Y-18280174D02*
X17648753Y-18289698D01*
X17648753Y-18289698D02*
X17658277Y-18308746D01*
X17658277Y-18308746D02*
X17658277Y-18365889D01*
X17658277Y-18365889D02*
X17648753Y-18384936D01*
X17648753Y-18384936D02*
X17639230Y-18394460D01*
X17639230Y-18394460D02*
X17620182Y-18403984D01*
X17620182Y-18403984D02*
X17591611Y-18403984D01*
X17772563Y-18403984D02*
X17753515Y-18394460D01*
X17753515Y-18394460D02*
X17743992Y-18375412D01*
X17743992Y-18375412D02*
X17743992Y-18203984D01*
X17924944Y-18394460D02*
X17905896Y-18403984D01*
X17905896Y-18403984D02*
X17867801Y-18403984D01*
X17867801Y-18403984D02*
X17848753Y-18394460D01*
X17848753Y-18394460D02*
X17839230Y-18375412D01*
X17839230Y-18375412D02*
X17839230Y-18299222D01*
X17839230Y-18299222D02*
X17848753Y-18280174D01*
X17848753Y-18280174D02*
X17867801Y-18270650D01*
X17867801Y-18270650D02*
X17905896Y-18270650D01*
X17905896Y-18270650D02*
X17924944Y-18280174D01*
X17924944Y-18280174D02*
X17934468Y-18299222D01*
X17934468Y-18299222D02*
X17934468Y-18318270D01*
X17934468Y-18318270D02*
X17839230Y-18337317D01*
X18010658Y-18394460D02*
X18029706Y-18403984D01*
X18029706Y-18403984D02*
X18067801Y-18403984D01*
X18067801Y-18403984D02*
X18086849Y-18394460D01*
X18086849Y-18394460D02*
X18096373Y-18375412D01*
X18096373Y-18375412D02*
X18096373Y-18365889D01*
X18096373Y-18365889D02*
X18086849Y-18346841D01*
X18086849Y-18346841D02*
X18067801Y-18337317D01*
X18067801Y-18337317D02*
X18039230Y-18337317D01*
X18039230Y-18337317D02*
X18020182Y-18327793D01*
X18020182Y-18327793D02*
X18010658Y-18308746D01*
X18010658Y-18308746D02*
X18010658Y-18299222D01*
X18010658Y-18299222D02*
X18020182Y-18280174D01*
X18020182Y-18280174D02*
X18039230Y-18270650D01*
X18039230Y-18270650D02*
X18067801Y-18270650D01*
X18067801Y-18270650D02*
X18086849Y-18280174D01*
X18163039Y-18480174D02*
X18172563Y-18470650D01*
X18172563Y-18470650D02*
X18191611Y-18442079D01*
X18191611Y-18442079D02*
X18201134Y-18423031D01*
X18201134Y-18423031D02*
X18210658Y-18394460D01*
X18210658Y-18394460D02*
X18220182Y-18346841D01*
X18220182Y-18346841D02*
X18220182Y-18308746D01*
X18220182Y-18308746D02*
X18210658Y-18261127D01*
X18210658Y-18261127D02*
X18201134Y-18232555D01*
X18201134Y-18232555D02*
X18191611Y-18213508D01*
X18191611Y-18213508D02*
X18172563Y-18184936D01*
X18172563Y-18184936D02*
X18163039Y-18175412D01*
D13*
X13095500Y-18525500D02*
X13197500Y-18627500D01*
X13197500Y-18525500D02*
X13095500Y-18627500D01*
X13146500Y-18525500D02*
X13146500Y-18627500D01*
X13095500Y-18576500D02*
X13197500Y-18576500D01*
D11*
X13563039Y-18667984D02*
X13448753Y-18667984D01*
X13505896Y-18667984D02*
X13505896Y-18467984D01*
X13505896Y-18467984D02*
X13486848Y-18496555D01*
X13486848Y-18496555D02*
X13467801Y-18515603D01*
X13467801Y-18515603D02*
X13448753Y-18525127D01*
X13648753Y-18648936D02*
X13658277Y-18658460D01*
X13658277Y-18658460D02*
X13648753Y-18667984D01*
X13648753Y-18667984D02*
X13639229Y-18658460D01*
X13639229Y-18658460D02*
X13648753Y-18648936D01*
X13648753Y-18648936D02*
X13648753Y-18667984D01*
X13782086Y-18467984D02*
X13801134Y-18467984D01*
X13801134Y-18467984D02*
X13820182Y-18477508D01*
X13820182Y-18477508D02*
X13829705Y-18487031D01*
X13829705Y-18487031D02*
X13839229Y-18506079D01*
X13839229Y-18506079D02*
X13848753Y-18544174D01*
X13848753Y-18544174D02*
X13848753Y-18591793D01*
X13848753Y-18591793D02*
X13839229Y-18629889D01*
X13839229Y-18629889D02*
X13829705Y-18648936D01*
X13829705Y-18648936D02*
X13820182Y-18658460D01*
X13820182Y-18658460D02*
X13801134Y-18667984D01*
X13801134Y-18667984D02*
X13782086Y-18667984D01*
X13782086Y-18667984D02*
X13763039Y-18658460D01*
X13763039Y-18658460D02*
X13753515Y-18648936D01*
X13753515Y-18648936D02*
X13743991Y-18629889D01*
X13743991Y-18629889D02*
X13734467Y-18591793D01*
X13734467Y-18591793D02*
X13734467Y-18544174D01*
X13734467Y-18544174D02*
X13743991Y-18506079D01*
X13743991Y-18506079D02*
X13753515Y-18487031D01*
X13753515Y-18487031D02*
X13763039Y-18477508D01*
X13763039Y-18477508D02*
X13782086Y-18467984D01*
X13924943Y-18487031D02*
X13934467Y-18477508D01*
X13934467Y-18477508D02*
X13953515Y-18467984D01*
X13953515Y-18467984D02*
X14001134Y-18467984D01*
X14001134Y-18467984D02*
X14020182Y-18477508D01*
X14020182Y-18477508D02*
X14029705Y-18487031D01*
X14029705Y-18487031D02*
X14039229Y-18506079D01*
X14039229Y-18506079D02*
X14039229Y-18525127D01*
X14039229Y-18525127D02*
X14029705Y-18553698D01*
X14029705Y-18553698D02*
X13915420Y-18667984D01*
X13915420Y-18667984D02*
X14039229Y-18667984D01*
X14163039Y-18467984D02*
X14182086Y-18467984D01*
X14182086Y-18467984D02*
X14201134Y-18477508D01*
X14201134Y-18477508D02*
X14210658Y-18487031D01*
X14210658Y-18487031D02*
X14220182Y-18506079D01*
X14220182Y-18506079D02*
X14229705Y-18544174D01*
X14229705Y-18544174D02*
X14229705Y-18591793D01*
X14229705Y-18591793D02*
X14220182Y-18629889D01*
X14220182Y-18629889D02*
X14210658Y-18648936D01*
X14210658Y-18648936D02*
X14201134Y-18658460D01*
X14201134Y-18658460D02*
X14182086Y-18667984D01*
X14182086Y-18667984D02*
X14163039Y-18667984D01*
X14163039Y-18667984D02*
X14143991Y-18658460D01*
X14143991Y-18658460D02*
X14134467Y-18648936D01*
X14134467Y-18648936D02*
X14124943Y-18629889D01*
X14124943Y-18629889D02*
X14115420Y-18591793D01*
X14115420Y-18591793D02*
X14115420Y-18544174D01*
X14115420Y-18544174D02*
X14124943Y-18506079D01*
X14124943Y-18506079D02*
X14134467Y-18487031D01*
X14134467Y-18487031D02*
X14143991Y-18477508D01*
X14143991Y-18477508D02*
X14163039Y-18467984D01*
X14315420Y-18667984D02*
X14315420Y-18534650D01*
X14315420Y-18553698D02*
X14324943Y-18544174D01*
X14324943Y-18544174D02*
X14343991Y-18534650D01*
X14343991Y-18534650D02*
X14372563Y-18534650D01*
X14372563Y-18534650D02*
X14391610Y-18544174D01*
X14391610Y-18544174D02*
X14401134Y-18563222D01*
X14401134Y-18563222D02*
X14401134Y-18667984D01*
X14401134Y-18563222D02*
X14410658Y-18544174D01*
X14410658Y-18544174D02*
X14429705Y-18534650D01*
X14429705Y-18534650D02*
X14458277Y-18534650D01*
X14458277Y-18534650D02*
X14477324Y-18544174D01*
X14477324Y-18544174D02*
X14486848Y-18563222D01*
X14486848Y-18563222D02*
X14486848Y-18667984D01*
X14582086Y-18667984D02*
X14582086Y-18534650D01*
X14582086Y-18553698D02*
X14591610Y-18544174D01*
X14591610Y-18544174D02*
X14610658Y-18534650D01*
X14610658Y-18534650D02*
X14639229Y-18534650D01*
X14639229Y-18534650D02*
X14658277Y-18544174D01*
X14658277Y-18544174D02*
X14667801Y-18563222D01*
X14667801Y-18563222D02*
X14667801Y-18667984D01*
X14667801Y-18563222D02*
X14677324Y-18544174D01*
X14677324Y-18544174D02*
X14696372Y-18534650D01*
X14696372Y-18534650D02*
X14724943Y-18534650D01*
X14724943Y-18534650D02*
X14743991Y-18544174D01*
X14743991Y-18544174D02*
X14753515Y-18563222D01*
X14753515Y-18563222D02*
X14753515Y-18667984D01*
X15143991Y-18458460D02*
X14972563Y-18715603D01*
X15401134Y-18467984D02*
X15420182Y-18467984D01*
X15420182Y-18467984D02*
X15439229Y-18477508D01*
X15439229Y-18477508D02*
X15448753Y-18487031D01*
X15448753Y-18487031D02*
X15458277Y-18506079D01*
X15458277Y-18506079D02*
X15467801Y-18544174D01*
X15467801Y-18544174D02*
X15467801Y-18591793D01*
X15467801Y-18591793D02*
X15458277Y-18629889D01*
X15458277Y-18629889D02*
X15448753Y-18648936D01*
X15448753Y-18648936D02*
X15439229Y-18658460D01*
X15439229Y-18658460D02*
X15420182Y-18667984D01*
X15420182Y-18667984D02*
X15401134Y-18667984D01*
X15401134Y-18667984D02*
X15382086Y-18658460D01*
X15382086Y-18658460D02*
X15372563Y-18648936D01*
X15372563Y-18648936D02*
X15363039Y-18629889D01*
X15363039Y-18629889D02*
X15353515Y-18591793D01*
X15353515Y-18591793D02*
X15353515Y-18544174D01*
X15353515Y-18544174D02*
X15363039Y-18506079D01*
X15363039Y-18506079D02*
X15372563Y-18487031D01*
X15372563Y-18487031D02*
X15382086Y-18477508D01*
X15382086Y-18477508D02*
X15401134Y-18467984D01*
X15553515Y-18648936D02*
X15563039Y-18658460D01*
X15563039Y-18658460D02*
X15553515Y-18667984D01*
X15553515Y-18667984D02*
X15543991Y-18658460D01*
X15543991Y-18658460D02*
X15553515Y-18648936D01*
X15553515Y-18648936D02*
X15553515Y-18667984D01*
X15686848Y-18467984D02*
X15705896Y-18467984D01*
X15705896Y-18467984D02*
X15724944Y-18477508D01*
X15724944Y-18477508D02*
X15734467Y-18487031D01*
X15734467Y-18487031D02*
X15743991Y-18506079D01*
X15743991Y-18506079D02*
X15753515Y-18544174D01*
X15753515Y-18544174D02*
X15753515Y-18591793D01*
X15753515Y-18591793D02*
X15743991Y-18629889D01*
X15743991Y-18629889D02*
X15734467Y-18648936D01*
X15734467Y-18648936D02*
X15724944Y-18658460D01*
X15724944Y-18658460D02*
X15705896Y-18667984D01*
X15705896Y-18667984D02*
X15686848Y-18667984D01*
X15686848Y-18667984D02*
X15667801Y-18658460D01*
X15667801Y-18658460D02*
X15658277Y-18648936D01*
X15658277Y-18648936D02*
X15648753Y-18629889D01*
X15648753Y-18629889D02*
X15639229Y-18591793D01*
X15639229Y-18591793D02*
X15639229Y-18544174D01*
X15639229Y-18544174D02*
X15648753Y-18506079D01*
X15648753Y-18506079D02*
X15658277Y-18487031D01*
X15658277Y-18487031D02*
X15667801Y-18477508D01*
X15667801Y-18477508D02*
X15686848Y-18467984D01*
X15924944Y-18534650D02*
X15924944Y-18667984D01*
X15877325Y-18458460D02*
X15829706Y-18601317D01*
X15829706Y-18601317D02*
X15953515Y-18601317D01*
X16067801Y-18467984D02*
X16086848Y-18467984D01*
X16086848Y-18467984D02*
X16105896Y-18477508D01*
X16105896Y-18477508D02*
X16115420Y-18487031D01*
X16115420Y-18487031D02*
X16124944Y-18506079D01*
X16124944Y-18506079D02*
X16134467Y-18544174D01*
X16134467Y-18544174D02*
X16134467Y-18591793D01*
X16134467Y-18591793D02*
X16124944Y-18629889D01*
X16124944Y-18629889D02*
X16115420Y-18648936D01*
X16115420Y-18648936D02*
X16105896Y-18658460D01*
X16105896Y-18658460D02*
X16086848Y-18667984D01*
X16086848Y-18667984D02*
X16067801Y-18667984D01*
X16067801Y-18667984D02*
X16048753Y-18658460D01*
X16048753Y-18658460D02*
X16039229Y-18648936D01*
X16039229Y-18648936D02*
X16029706Y-18629889D01*
X16029706Y-18629889D02*
X16020182Y-18591793D01*
X16020182Y-18591793D02*
X16020182Y-18544174D01*
X16020182Y-18544174D02*
X16029706Y-18506079D01*
X16029706Y-18506079D02*
X16039229Y-18487031D01*
X16039229Y-18487031D02*
X16048753Y-18477508D01*
X16048753Y-18477508D02*
X16067801Y-18467984D01*
X16210658Y-18487031D02*
X16220182Y-18477508D01*
X16220182Y-18477508D02*
X16239229Y-18467984D01*
X16239229Y-18467984D02*
X16286848Y-18467984D01*
X16286848Y-18467984D02*
X16305896Y-18477508D01*
X16305896Y-18477508D02*
X16315420Y-18487031D01*
X16315420Y-18487031D02*
X16324944Y-18506079D01*
X16324944Y-18506079D02*
X16324944Y-18525127D01*
X16324944Y-18525127D02*
X16315420Y-18553698D01*
X16315420Y-18553698D02*
X16201134Y-18667984D01*
X16201134Y-18667984D02*
X16324944Y-18667984D01*
X16401134Y-18467984D02*
X16401134Y-18506079D01*
X16477325Y-18467984D02*
X16477325Y-18506079D01*
X16772563Y-18744174D02*
X16763039Y-18734650D01*
X16763039Y-18734650D02*
X16743991Y-18706079D01*
X16743991Y-18706079D02*
X16734468Y-18687031D01*
X16734468Y-18687031D02*
X16724944Y-18658460D01*
X16724944Y-18658460D02*
X16715420Y-18610841D01*
X16715420Y-18610841D02*
X16715420Y-18572746D01*
X16715420Y-18572746D02*
X16724944Y-18525127D01*
X16724944Y-18525127D02*
X16734468Y-18496555D01*
X16734468Y-18496555D02*
X16743991Y-18477508D01*
X16743991Y-18477508D02*
X16763039Y-18448936D01*
X16763039Y-18448936D02*
X16772563Y-18439412D01*
X16829706Y-18467984D02*
X16953515Y-18467984D01*
X16953515Y-18467984D02*
X16886849Y-18544174D01*
X16886849Y-18544174D02*
X16915420Y-18544174D01*
X16915420Y-18544174D02*
X16934468Y-18553698D01*
X16934468Y-18553698D02*
X16943991Y-18563222D01*
X16943991Y-18563222D02*
X16953515Y-18582270D01*
X16953515Y-18582270D02*
X16953515Y-18629889D01*
X16953515Y-18629889D02*
X16943991Y-18648936D01*
X16943991Y-18648936D02*
X16934468Y-18658460D01*
X16934468Y-18658460D02*
X16915420Y-18667984D01*
X16915420Y-18667984D02*
X16858277Y-18667984D01*
X16858277Y-18667984D02*
X16839230Y-18658460D01*
X16839230Y-18658460D02*
X16829706Y-18648936D01*
X17077325Y-18467984D02*
X17096372Y-18467984D01*
X17096372Y-18467984D02*
X17115420Y-18477508D01*
X17115420Y-18477508D02*
X17124944Y-18487031D01*
X17124944Y-18487031D02*
X17134468Y-18506079D01*
X17134468Y-18506079D02*
X17143991Y-18544174D01*
X17143991Y-18544174D02*
X17143991Y-18591793D01*
X17143991Y-18591793D02*
X17134468Y-18629889D01*
X17134468Y-18629889D02*
X17124944Y-18648936D01*
X17124944Y-18648936D02*
X17115420Y-18658460D01*
X17115420Y-18658460D02*
X17096372Y-18667984D01*
X17096372Y-18667984D02*
X17077325Y-18667984D01*
X17077325Y-18667984D02*
X17058277Y-18658460D01*
X17058277Y-18658460D02*
X17048753Y-18648936D01*
X17048753Y-18648936D02*
X17039230Y-18629889D01*
X17039230Y-18629889D02*
X17029706Y-18591793D01*
X17029706Y-18591793D02*
X17029706Y-18544174D01*
X17029706Y-18544174D02*
X17039230Y-18506079D01*
X17039230Y-18506079D02*
X17048753Y-18487031D01*
X17048753Y-18487031D02*
X17058277Y-18477508D01*
X17058277Y-18477508D02*
X17077325Y-18467984D01*
X17382087Y-18667984D02*
X17382087Y-18467984D01*
X17467801Y-18667984D02*
X17467801Y-18563222D01*
X17467801Y-18563222D02*
X17458277Y-18544174D01*
X17458277Y-18544174D02*
X17439230Y-18534650D01*
X17439230Y-18534650D02*
X17410658Y-18534650D01*
X17410658Y-18534650D02*
X17391611Y-18544174D01*
X17391611Y-18544174D02*
X17382087Y-18553698D01*
X17591611Y-18667984D02*
X17572563Y-18658460D01*
X17572563Y-18658460D02*
X17563039Y-18648936D01*
X17563039Y-18648936D02*
X17553515Y-18629889D01*
X17553515Y-18629889D02*
X17553515Y-18572746D01*
X17553515Y-18572746D02*
X17563039Y-18553698D01*
X17563039Y-18553698D02*
X17572563Y-18544174D01*
X17572563Y-18544174D02*
X17591611Y-18534650D01*
X17591611Y-18534650D02*
X17620182Y-18534650D01*
X17620182Y-18534650D02*
X17639230Y-18544174D01*
X17639230Y-18544174D02*
X17648753Y-18553698D01*
X17648753Y-18553698D02*
X17658277Y-18572746D01*
X17658277Y-18572746D02*
X17658277Y-18629889D01*
X17658277Y-18629889D02*
X17648753Y-18648936D01*
X17648753Y-18648936D02*
X17639230Y-18658460D01*
X17639230Y-18658460D02*
X17620182Y-18667984D01*
X17620182Y-18667984D02*
X17591611Y-18667984D01*
X17772563Y-18667984D02*
X17753515Y-18658460D01*
X17753515Y-18658460D02*
X17743992Y-18639412D01*
X17743992Y-18639412D02*
X17743992Y-18467984D01*
X17924944Y-18658460D02*
X17905896Y-18667984D01*
X17905896Y-18667984D02*
X17867801Y-18667984D01*
X17867801Y-18667984D02*
X17848753Y-18658460D01*
X17848753Y-18658460D02*
X17839230Y-18639412D01*
X17839230Y-18639412D02*
X17839230Y-18563222D01*
X17839230Y-18563222D02*
X17848753Y-18544174D01*
X17848753Y-18544174D02*
X17867801Y-18534650D01*
X17867801Y-18534650D02*
X17905896Y-18534650D01*
X17905896Y-18534650D02*
X17924944Y-18544174D01*
X17924944Y-18544174D02*
X17934468Y-18563222D01*
X17934468Y-18563222D02*
X17934468Y-18582270D01*
X17934468Y-18582270D02*
X17839230Y-18601317D01*
X18010658Y-18658460D02*
X18029706Y-18667984D01*
X18029706Y-18667984D02*
X18067801Y-18667984D01*
X18067801Y-18667984D02*
X18086849Y-18658460D01*
X18086849Y-18658460D02*
X18096373Y-18639412D01*
X18096373Y-18639412D02*
X18096373Y-18629889D01*
X18096373Y-18629889D02*
X18086849Y-18610841D01*
X18086849Y-18610841D02*
X18067801Y-18601317D01*
X18067801Y-18601317D02*
X18039230Y-18601317D01*
X18039230Y-18601317D02*
X18020182Y-18591793D01*
X18020182Y-18591793D02*
X18010658Y-18572746D01*
X18010658Y-18572746D02*
X18010658Y-18563222D01*
X18010658Y-18563222D02*
X18020182Y-18544174D01*
X18020182Y-18544174D02*
X18039230Y-18534650D01*
X18039230Y-18534650D02*
X18067801Y-18534650D01*
X18067801Y-18534650D02*
X18086849Y-18544174D01*
X18163039Y-18744174D02*
X18172563Y-18734650D01*
X18172563Y-18734650D02*
X18191611Y-18706079D01*
X18191611Y-18706079D02*
X18201134Y-18687031D01*
X18201134Y-18687031D02*
X18210658Y-18658460D01*
X18210658Y-18658460D02*
X18220182Y-18610841D01*
X18220182Y-18610841D02*
X18220182Y-18572746D01*
X18220182Y-18572746D02*
X18210658Y-18525127D01*
X18210658Y-18525127D02*
X18201134Y-18496555D01*
X18201134Y-18496555D02*
X18191611Y-18477508D01*
X18191611Y-18477508D02*
X18172563Y-18448936D01*
X18172563Y-18448936D02*
X18163039Y-18439412D01*
D14*
X13067500Y-18775500D02*
X13197500Y-18905500D01*
X13197500Y-18775500D02*
X13067500Y-18905500D01*
X13178462Y-18886462D02*
X13178462Y-18794538D01*
X13086538Y-18794538D01*
X13086538Y-18886462D01*
X13178462Y-18886462D01*
D11*
X13563039Y-18931984D02*
X13448753Y-18931984D01*
X13505896Y-18931984D02*
X13505896Y-18731984D01*
X13505896Y-18731984D02*
X13486848Y-18760555D01*
X13486848Y-18760555D02*
X13467801Y-18779603D01*
X13467801Y-18779603D02*
X13448753Y-18789127D01*
X13648753Y-18912936D02*
X13658277Y-18922460D01*
X13658277Y-18922460D02*
X13648753Y-18931984D01*
X13648753Y-18931984D02*
X13639229Y-18922460D01*
X13639229Y-18922460D02*
X13648753Y-18912936D01*
X13648753Y-18912936D02*
X13648753Y-18931984D01*
X13724943Y-18731984D02*
X13848753Y-18731984D01*
X13848753Y-18731984D02*
X13782086Y-18808174D01*
X13782086Y-18808174D02*
X13810658Y-18808174D01*
X13810658Y-18808174D02*
X13829705Y-18817698D01*
X13829705Y-18817698D02*
X13839229Y-18827222D01*
X13839229Y-18827222D02*
X13848753Y-18846270D01*
X13848753Y-18846270D02*
X13848753Y-18893889D01*
X13848753Y-18893889D02*
X13839229Y-18912936D01*
X13839229Y-18912936D02*
X13829705Y-18922460D01*
X13829705Y-18922460D02*
X13810658Y-18931984D01*
X13810658Y-18931984D02*
X13753515Y-18931984D01*
X13753515Y-18931984D02*
X13734467Y-18922460D01*
X13734467Y-18922460D02*
X13724943Y-18912936D01*
X13972562Y-18731984D02*
X13991610Y-18731984D01*
X13991610Y-18731984D02*
X14010658Y-18741508D01*
X14010658Y-18741508D02*
X14020182Y-18751031D01*
X14020182Y-18751031D02*
X14029705Y-18770079D01*
X14029705Y-18770079D02*
X14039229Y-18808174D01*
X14039229Y-18808174D02*
X14039229Y-18855793D01*
X14039229Y-18855793D02*
X14029705Y-18893889D01*
X14029705Y-18893889D02*
X14020182Y-18912936D01*
X14020182Y-18912936D02*
X14010658Y-18922460D01*
X14010658Y-18922460D02*
X13991610Y-18931984D01*
X13991610Y-18931984D02*
X13972562Y-18931984D01*
X13972562Y-18931984D02*
X13953515Y-18922460D01*
X13953515Y-18922460D02*
X13943991Y-18912936D01*
X13943991Y-18912936D02*
X13934467Y-18893889D01*
X13934467Y-18893889D02*
X13924943Y-18855793D01*
X13924943Y-18855793D02*
X13924943Y-18808174D01*
X13924943Y-18808174D02*
X13934467Y-18770079D01*
X13934467Y-18770079D02*
X13943991Y-18751031D01*
X13943991Y-18751031D02*
X13953515Y-18741508D01*
X13953515Y-18741508D02*
X13972562Y-18731984D01*
X14163039Y-18731984D02*
X14182086Y-18731984D01*
X14182086Y-18731984D02*
X14201134Y-18741508D01*
X14201134Y-18741508D02*
X14210658Y-18751031D01*
X14210658Y-18751031D02*
X14220182Y-18770079D01*
X14220182Y-18770079D02*
X14229705Y-18808174D01*
X14229705Y-18808174D02*
X14229705Y-18855793D01*
X14229705Y-18855793D02*
X14220182Y-18893889D01*
X14220182Y-18893889D02*
X14210658Y-18912936D01*
X14210658Y-18912936D02*
X14201134Y-18922460D01*
X14201134Y-18922460D02*
X14182086Y-18931984D01*
X14182086Y-18931984D02*
X14163039Y-18931984D01*
X14163039Y-18931984D02*
X14143991Y-18922460D01*
X14143991Y-18922460D02*
X14134467Y-18912936D01*
X14134467Y-18912936D02*
X14124943Y-18893889D01*
X14124943Y-18893889D02*
X14115420Y-18855793D01*
X14115420Y-18855793D02*
X14115420Y-18808174D01*
X14115420Y-18808174D02*
X14124943Y-18770079D01*
X14124943Y-18770079D02*
X14134467Y-18751031D01*
X14134467Y-18751031D02*
X14143991Y-18741508D01*
X14143991Y-18741508D02*
X14163039Y-18731984D01*
X14315420Y-18931984D02*
X14315420Y-18798650D01*
X14315420Y-18817698D02*
X14324943Y-18808174D01*
X14324943Y-18808174D02*
X14343991Y-18798650D01*
X14343991Y-18798650D02*
X14372563Y-18798650D01*
X14372563Y-18798650D02*
X14391610Y-18808174D01*
X14391610Y-18808174D02*
X14401134Y-18827222D01*
X14401134Y-18827222D02*
X14401134Y-18931984D01*
X14401134Y-18827222D02*
X14410658Y-18808174D01*
X14410658Y-18808174D02*
X14429705Y-18798650D01*
X14429705Y-18798650D02*
X14458277Y-18798650D01*
X14458277Y-18798650D02*
X14477324Y-18808174D01*
X14477324Y-18808174D02*
X14486848Y-18827222D01*
X14486848Y-18827222D02*
X14486848Y-18931984D01*
X14582086Y-18931984D02*
X14582086Y-18798650D01*
X14582086Y-18817698D02*
X14591610Y-18808174D01*
X14591610Y-18808174D02*
X14610658Y-18798650D01*
X14610658Y-18798650D02*
X14639229Y-18798650D01*
X14639229Y-18798650D02*
X14658277Y-18808174D01*
X14658277Y-18808174D02*
X14667801Y-18827222D01*
X14667801Y-18827222D02*
X14667801Y-18931984D01*
X14667801Y-18827222D02*
X14677324Y-18808174D01*
X14677324Y-18808174D02*
X14696372Y-18798650D01*
X14696372Y-18798650D02*
X14724943Y-18798650D01*
X14724943Y-18798650D02*
X14743991Y-18808174D01*
X14743991Y-18808174D02*
X14753515Y-18827222D01*
X14753515Y-18827222D02*
X14753515Y-18931984D01*
X15143991Y-18722460D02*
X14972563Y-18979603D01*
X15401134Y-18731984D02*
X15420182Y-18731984D01*
X15420182Y-18731984D02*
X15439229Y-18741508D01*
X15439229Y-18741508D02*
X15448753Y-18751031D01*
X15448753Y-18751031D02*
X15458277Y-18770079D01*
X15458277Y-18770079D02*
X15467801Y-18808174D01*
X15467801Y-18808174D02*
X15467801Y-18855793D01*
X15467801Y-18855793D02*
X15458277Y-18893889D01*
X15458277Y-18893889D02*
X15448753Y-18912936D01*
X15448753Y-18912936D02*
X15439229Y-18922460D01*
X15439229Y-18922460D02*
X15420182Y-18931984D01*
X15420182Y-18931984D02*
X15401134Y-18931984D01*
X15401134Y-18931984D02*
X15382086Y-18922460D01*
X15382086Y-18922460D02*
X15372563Y-18912936D01*
X15372563Y-18912936D02*
X15363039Y-18893889D01*
X15363039Y-18893889D02*
X15353515Y-18855793D01*
X15353515Y-18855793D02*
X15353515Y-18808174D01*
X15353515Y-18808174D02*
X15363039Y-18770079D01*
X15363039Y-18770079D02*
X15372563Y-18751031D01*
X15372563Y-18751031D02*
X15382086Y-18741508D01*
X15382086Y-18741508D02*
X15401134Y-18731984D01*
X15553515Y-18912936D02*
X15563039Y-18922460D01*
X15563039Y-18922460D02*
X15553515Y-18931984D01*
X15553515Y-18931984D02*
X15543991Y-18922460D01*
X15543991Y-18922460D02*
X15553515Y-18912936D01*
X15553515Y-18912936D02*
X15553515Y-18931984D01*
X15686848Y-18731984D02*
X15705896Y-18731984D01*
X15705896Y-18731984D02*
X15724944Y-18741508D01*
X15724944Y-18741508D02*
X15734467Y-18751031D01*
X15734467Y-18751031D02*
X15743991Y-18770079D01*
X15743991Y-18770079D02*
X15753515Y-18808174D01*
X15753515Y-18808174D02*
X15753515Y-18855793D01*
X15753515Y-18855793D02*
X15743991Y-18893889D01*
X15743991Y-18893889D02*
X15734467Y-18912936D01*
X15734467Y-18912936D02*
X15724944Y-18922460D01*
X15724944Y-18922460D02*
X15705896Y-18931984D01*
X15705896Y-18931984D02*
X15686848Y-18931984D01*
X15686848Y-18931984D02*
X15667801Y-18922460D01*
X15667801Y-18922460D02*
X15658277Y-18912936D01*
X15658277Y-18912936D02*
X15648753Y-18893889D01*
X15648753Y-18893889D02*
X15639229Y-18855793D01*
X15639229Y-18855793D02*
X15639229Y-18808174D01*
X15639229Y-18808174D02*
X15648753Y-18770079D01*
X15648753Y-18770079D02*
X15658277Y-18751031D01*
X15658277Y-18751031D02*
X15667801Y-18741508D01*
X15667801Y-18741508D02*
X15686848Y-18731984D01*
X15934467Y-18731984D02*
X15839229Y-18731984D01*
X15839229Y-18731984D02*
X15829706Y-18827222D01*
X15829706Y-18827222D02*
X15839229Y-18817698D01*
X15839229Y-18817698D02*
X15858277Y-18808174D01*
X15858277Y-18808174D02*
X15905896Y-18808174D01*
X15905896Y-18808174D02*
X15924944Y-18817698D01*
X15924944Y-18817698D02*
X15934467Y-18827222D01*
X15934467Y-18827222D02*
X15943991Y-18846270D01*
X15943991Y-18846270D02*
X15943991Y-18893889D01*
X15943991Y-18893889D02*
X15934467Y-18912936D01*
X15934467Y-18912936D02*
X15924944Y-18922460D01*
X15924944Y-18922460D02*
X15905896Y-18931984D01*
X15905896Y-18931984D02*
X15858277Y-18931984D01*
X15858277Y-18931984D02*
X15839229Y-18922460D01*
X15839229Y-18922460D02*
X15829706Y-18912936D01*
X16134467Y-18931984D02*
X16020182Y-18931984D01*
X16077325Y-18931984D02*
X16077325Y-18731984D01*
X16077325Y-18731984D02*
X16058277Y-18760555D01*
X16058277Y-18760555D02*
X16039229Y-18779603D01*
X16039229Y-18779603D02*
X16020182Y-18789127D01*
X16210658Y-18751031D02*
X16220182Y-18741508D01*
X16220182Y-18741508D02*
X16239229Y-18731984D01*
X16239229Y-18731984D02*
X16286848Y-18731984D01*
X16286848Y-18731984D02*
X16305896Y-18741508D01*
X16305896Y-18741508D02*
X16315420Y-18751031D01*
X16315420Y-18751031D02*
X16324944Y-18770079D01*
X16324944Y-18770079D02*
X16324944Y-18789127D01*
X16324944Y-18789127D02*
X16315420Y-18817698D01*
X16315420Y-18817698D02*
X16201134Y-18931984D01*
X16201134Y-18931984D02*
X16324944Y-18931984D01*
X16401134Y-18731984D02*
X16401134Y-18770079D01*
X16477325Y-18731984D02*
X16477325Y-18770079D01*
X16772563Y-19008174D02*
X16763039Y-18998650D01*
X16763039Y-18998650D02*
X16743991Y-18970079D01*
X16743991Y-18970079D02*
X16734468Y-18951031D01*
X16734468Y-18951031D02*
X16724944Y-18922460D01*
X16724944Y-18922460D02*
X16715420Y-18874841D01*
X16715420Y-18874841D02*
X16715420Y-18836746D01*
X16715420Y-18836746D02*
X16724944Y-18789127D01*
X16724944Y-18789127D02*
X16734468Y-18760555D01*
X16734468Y-18760555D02*
X16743991Y-18741508D01*
X16743991Y-18741508D02*
X16763039Y-18712936D01*
X16763039Y-18712936D02*
X16772563Y-18703412D01*
X16839230Y-18751031D02*
X16848753Y-18741508D01*
X16848753Y-18741508D02*
X16867801Y-18731984D01*
X16867801Y-18731984D02*
X16915420Y-18731984D01*
X16915420Y-18731984D02*
X16934468Y-18741508D01*
X16934468Y-18741508D02*
X16943991Y-18751031D01*
X16943991Y-18751031D02*
X16953515Y-18770079D01*
X16953515Y-18770079D02*
X16953515Y-18789127D01*
X16953515Y-18789127D02*
X16943991Y-18817698D01*
X16943991Y-18817698D02*
X16829706Y-18931984D01*
X16829706Y-18931984D02*
X16953515Y-18931984D01*
X17191611Y-18931984D02*
X17191611Y-18731984D01*
X17277325Y-18931984D02*
X17277325Y-18827222D01*
X17277325Y-18827222D02*
X17267801Y-18808174D01*
X17267801Y-18808174D02*
X17248753Y-18798650D01*
X17248753Y-18798650D02*
X17220182Y-18798650D01*
X17220182Y-18798650D02*
X17201134Y-18808174D01*
X17201134Y-18808174D02*
X17191611Y-18817698D01*
X17401134Y-18931984D02*
X17382087Y-18922460D01*
X17382087Y-18922460D02*
X17372563Y-18912936D01*
X17372563Y-18912936D02*
X17363039Y-18893889D01*
X17363039Y-18893889D02*
X17363039Y-18836746D01*
X17363039Y-18836746D02*
X17372563Y-18817698D01*
X17372563Y-18817698D02*
X17382087Y-18808174D01*
X17382087Y-18808174D02*
X17401134Y-18798650D01*
X17401134Y-18798650D02*
X17429706Y-18798650D01*
X17429706Y-18798650D02*
X17448753Y-18808174D01*
X17448753Y-18808174D02*
X17458277Y-18817698D01*
X17458277Y-18817698D02*
X17467801Y-18836746D01*
X17467801Y-18836746D02*
X17467801Y-18893889D01*
X17467801Y-18893889D02*
X17458277Y-18912936D01*
X17458277Y-18912936D02*
X17448753Y-18922460D01*
X17448753Y-18922460D02*
X17429706Y-18931984D01*
X17429706Y-18931984D02*
X17401134Y-18931984D01*
X17582087Y-18931984D02*
X17563039Y-18922460D01*
X17563039Y-18922460D02*
X17553515Y-18903412D01*
X17553515Y-18903412D02*
X17553515Y-18731984D01*
X17734468Y-18922460D02*
X17715420Y-18931984D01*
X17715420Y-18931984D02*
X17677325Y-18931984D01*
X17677325Y-18931984D02*
X17658277Y-18922460D01*
X17658277Y-18922460D02*
X17648753Y-18903412D01*
X17648753Y-18903412D02*
X17648753Y-18827222D01*
X17648753Y-18827222D02*
X17658277Y-18808174D01*
X17658277Y-18808174D02*
X17677325Y-18798650D01*
X17677325Y-18798650D02*
X17715420Y-18798650D01*
X17715420Y-18798650D02*
X17734468Y-18808174D01*
X17734468Y-18808174D02*
X17743992Y-18827222D01*
X17743992Y-18827222D02*
X17743992Y-18846270D01*
X17743992Y-18846270D02*
X17648753Y-18865317D01*
X17820182Y-18922460D02*
X17839230Y-18931984D01*
X17839230Y-18931984D02*
X17877325Y-18931984D01*
X17877325Y-18931984D02*
X17896373Y-18922460D01*
X17896373Y-18922460D02*
X17905896Y-18903412D01*
X17905896Y-18903412D02*
X17905896Y-18893889D01*
X17905896Y-18893889D02*
X17896373Y-18874841D01*
X17896373Y-18874841D02*
X17877325Y-18865317D01*
X17877325Y-18865317D02*
X17848753Y-18865317D01*
X17848753Y-18865317D02*
X17829706Y-18855793D01*
X17829706Y-18855793D02*
X17820182Y-18836746D01*
X17820182Y-18836746D02*
X17820182Y-18827222D01*
X17820182Y-18827222D02*
X17829706Y-18808174D01*
X17829706Y-18808174D02*
X17848753Y-18798650D01*
X17848753Y-18798650D02*
X17877325Y-18798650D01*
X17877325Y-18798650D02*
X17896373Y-18808174D01*
X17972563Y-19008174D02*
X17982087Y-18998650D01*
X17982087Y-18998650D02*
X18001134Y-18970079D01*
X18001134Y-18970079D02*
X18010658Y-18951031D01*
X18010658Y-18951031D02*
X18020182Y-18922460D01*
X18020182Y-18922460D02*
X18029706Y-18874841D01*
X18029706Y-18874841D02*
X18029706Y-18836746D01*
X18029706Y-18836746D02*
X18020182Y-18789127D01*
X18020182Y-18789127D02*
X18010658Y-18760555D01*
X18010658Y-18760555D02*
X18001134Y-18741508D01*
X18001134Y-18741508D02*
X17982087Y-18712936D01*
X17982087Y-18712936D02*
X17972563Y-18703412D01*
M02*
