%TF.GenerationSoftware,KiCad,Pcbnew,8.0.0*%
%TF.CreationDate,2024-03-14T09:13:49+01:00*%
%TF.ProjectId,Game_Board_v1,47616d65-5f42-46f6-9172-645f76312e6b,rev?*%
%TF.SameCoordinates,Original*%
%TF.FileFunction,Legend,Top*%
%TF.FilePolarity,Positive*%
%FSLAX46Y46*%
G04 Gerber Fmt 4.6, Leading zero omitted, Abs format (unit mm)*
G04 Created by KiCad (PCBNEW 8.0.0) date 2024-03-14 09:13:49*
%MOMM*%
%LPD*%
G01*
G04 APERTURE LIST*
%ADD10C,0.100000*%
%ADD11C,0.150000*%
%ADD12C,0.050000*%
%ADD13C,0.120000*%
%ADD14C,0.304800*%
%ADD15C,0.127000*%
%ADD16C,0.508000*%
%ADD17C,0.200000*%
G04 APERTURE END LIST*
D10*
X244500000Y-110000000D02*
X251000000Y-110000000D01*
X251000000Y-116500000D01*
X244500000Y-116500000D01*
X244500000Y-110000000D01*
X182000000Y-95500000D02*
X232000000Y-95500000D01*
X232000000Y-130500000D01*
X182000000Y-130500000D01*
X182000000Y-95500000D01*
X135900000Y-100150000D02*
X161900000Y-100150000D01*
X161900000Y-134150000D01*
X135900000Y-134150000D01*
X135900000Y-100150000D01*
X224500000Y-144500000D02*
X241000000Y-144500000D01*
X241000000Y-152000000D01*
X224500000Y-152000000D01*
X224500000Y-144500000D01*
D11*
X225336779Y-144869819D02*
X225336779Y-145679342D01*
X225336779Y-145679342D02*
X225384398Y-145774580D01*
X225384398Y-145774580D02*
X225432017Y-145822200D01*
X225432017Y-145822200D02*
X225527255Y-145869819D01*
X225527255Y-145869819D02*
X225717731Y-145869819D01*
X225717731Y-145869819D02*
X225812969Y-145822200D01*
X225812969Y-145822200D02*
X225860588Y-145774580D01*
X225860588Y-145774580D02*
X225908207Y-145679342D01*
X225908207Y-145679342D02*
X225908207Y-144869819D01*
X226336779Y-145822200D02*
X226479636Y-145869819D01*
X226479636Y-145869819D02*
X226717731Y-145869819D01*
X226717731Y-145869819D02*
X226812969Y-145822200D01*
X226812969Y-145822200D02*
X226860588Y-145774580D01*
X226860588Y-145774580D02*
X226908207Y-145679342D01*
X226908207Y-145679342D02*
X226908207Y-145584104D01*
X226908207Y-145584104D02*
X226860588Y-145488866D01*
X226860588Y-145488866D02*
X226812969Y-145441247D01*
X226812969Y-145441247D02*
X226717731Y-145393628D01*
X226717731Y-145393628D02*
X226527255Y-145346009D01*
X226527255Y-145346009D02*
X226432017Y-145298390D01*
X226432017Y-145298390D02*
X226384398Y-145250771D01*
X226384398Y-145250771D02*
X226336779Y-145155533D01*
X226336779Y-145155533D02*
X226336779Y-145060295D01*
X226336779Y-145060295D02*
X226384398Y-144965057D01*
X226384398Y-144965057D02*
X226432017Y-144917438D01*
X226432017Y-144917438D02*
X226527255Y-144869819D01*
X226527255Y-144869819D02*
X226765350Y-144869819D01*
X226765350Y-144869819D02*
X226908207Y-144917438D01*
X227670112Y-145346009D02*
X227812969Y-145393628D01*
X227812969Y-145393628D02*
X227860588Y-145441247D01*
X227860588Y-145441247D02*
X227908207Y-145536485D01*
X227908207Y-145536485D02*
X227908207Y-145679342D01*
X227908207Y-145679342D02*
X227860588Y-145774580D01*
X227860588Y-145774580D02*
X227812969Y-145822200D01*
X227812969Y-145822200D02*
X227717731Y-145869819D01*
X227717731Y-145869819D02*
X227336779Y-145869819D01*
X227336779Y-145869819D02*
X227336779Y-144869819D01*
X227336779Y-144869819D02*
X227670112Y-144869819D01*
X227670112Y-144869819D02*
X227765350Y-144917438D01*
X227765350Y-144917438D02*
X227812969Y-144965057D01*
X227812969Y-144965057D02*
X227860588Y-145060295D01*
X227860588Y-145060295D02*
X227860588Y-145155533D01*
X227860588Y-145155533D02*
X227812969Y-145250771D01*
X227812969Y-145250771D02*
X227765350Y-145298390D01*
X227765350Y-145298390D02*
X227670112Y-145346009D01*
X227670112Y-145346009D02*
X227336779Y-145346009D01*
X215312969Y-98869819D02*
X214836779Y-98869819D01*
X214836779Y-98869819D02*
X214836779Y-97869819D01*
X216217731Y-98774580D02*
X216170112Y-98822200D01*
X216170112Y-98822200D02*
X216027255Y-98869819D01*
X216027255Y-98869819D02*
X215932017Y-98869819D01*
X215932017Y-98869819D02*
X215789160Y-98822200D01*
X215789160Y-98822200D02*
X215693922Y-98726961D01*
X215693922Y-98726961D02*
X215646303Y-98631723D01*
X215646303Y-98631723D02*
X215598684Y-98441247D01*
X215598684Y-98441247D02*
X215598684Y-98298390D01*
X215598684Y-98298390D02*
X215646303Y-98107914D01*
X215646303Y-98107914D02*
X215693922Y-98012676D01*
X215693922Y-98012676D02*
X215789160Y-97917438D01*
X215789160Y-97917438D02*
X215932017Y-97869819D01*
X215932017Y-97869819D02*
X216027255Y-97869819D01*
X216027255Y-97869819D02*
X216170112Y-97917438D01*
X216170112Y-97917438D02*
X216217731Y-97965057D01*
X216646303Y-98869819D02*
X216646303Y-97869819D01*
X216646303Y-97869819D02*
X216884398Y-97869819D01*
X216884398Y-97869819D02*
X217027255Y-97917438D01*
X217027255Y-97917438D02*
X217122493Y-98012676D01*
X217122493Y-98012676D02*
X217170112Y-98107914D01*
X217170112Y-98107914D02*
X217217731Y-98298390D01*
X217217731Y-98298390D02*
X217217731Y-98441247D01*
X217217731Y-98441247D02*
X217170112Y-98631723D01*
X217170112Y-98631723D02*
X217122493Y-98726961D01*
X217122493Y-98726961D02*
X217027255Y-98822200D01*
X217027255Y-98822200D02*
X216884398Y-98869819D01*
X216884398Y-98869819D02*
X216646303Y-98869819D01*
X218408208Y-98488866D02*
X219170113Y-98488866D01*
X220979636Y-98869819D02*
X220646303Y-98393628D01*
X220408208Y-98869819D02*
X220408208Y-97869819D01*
X220408208Y-97869819D02*
X220789160Y-97869819D01*
X220789160Y-97869819D02*
X220884398Y-97917438D01*
X220884398Y-97917438D02*
X220932017Y-97965057D01*
X220932017Y-97965057D02*
X220979636Y-98060295D01*
X220979636Y-98060295D02*
X220979636Y-98203152D01*
X220979636Y-98203152D02*
X220932017Y-98298390D01*
X220932017Y-98298390D02*
X220884398Y-98346009D01*
X220884398Y-98346009D02*
X220789160Y-98393628D01*
X220789160Y-98393628D02*
X220408208Y-98393628D01*
X221741541Y-98346009D02*
X221884398Y-98393628D01*
X221884398Y-98393628D02*
X221932017Y-98441247D01*
X221932017Y-98441247D02*
X221979636Y-98536485D01*
X221979636Y-98536485D02*
X221979636Y-98679342D01*
X221979636Y-98679342D02*
X221932017Y-98774580D01*
X221932017Y-98774580D02*
X221884398Y-98822200D01*
X221884398Y-98822200D02*
X221789160Y-98869819D01*
X221789160Y-98869819D02*
X221408208Y-98869819D01*
X221408208Y-98869819D02*
X221408208Y-97869819D01*
X221408208Y-97869819D02*
X221741541Y-97869819D01*
X221741541Y-97869819D02*
X221836779Y-97917438D01*
X221836779Y-97917438D02*
X221884398Y-97965057D01*
X221884398Y-97965057D02*
X221932017Y-98060295D01*
X221932017Y-98060295D02*
X221932017Y-98155533D01*
X221932017Y-98155533D02*
X221884398Y-98250771D01*
X221884398Y-98250771D02*
X221836779Y-98298390D01*
X221836779Y-98298390D02*
X221741541Y-98346009D01*
X221741541Y-98346009D02*
X221408208Y-98346009D01*
X222408208Y-98488866D02*
X223170113Y-98488866D01*
X223503446Y-97869819D02*
X224074874Y-97869819D01*
X223789160Y-98869819D02*
X223789160Y-97869819D01*
X224741541Y-98346009D02*
X224408208Y-98346009D01*
X224408208Y-98869819D02*
X224408208Y-97869819D01*
X224408208Y-97869819D02*
X224884398Y-97869819D01*
X225122494Y-97869819D02*
X225693922Y-97869819D01*
X225408208Y-98869819D02*
X225408208Y-97869819D01*
X226027256Y-98488866D02*
X226789161Y-98488866D01*
X227789160Y-98869819D02*
X227217732Y-98869819D01*
X227503446Y-98869819D02*
X227503446Y-97869819D01*
X227503446Y-97869819D02*
X227408208Y-98012676D01*
X227408208Y-98012676D02*
X227312970Y-98107914D01*
X227312970Y-98107914D02*
X227217732Y-98155533D01*
X228217732Y-98774580D02*
X228265351Y-98822200D01*
X228265351Y-98822200D02*
X228217732Y-98869819D01*
X228217732Y-98869819D02*
X228170113Y-98822200D01*
X228170113Y-98822200D02*
X228217732Y-98774580D01*
X228217732Y-98774580D02*
X228217732Y-98869819D01*
X228836779Y-98298390D02*
X228741541Y-98250771D01*
X228741541Y-98250771D02*
X228693922Y-98203152D01*
X228693922Y-98203152D02*
X228646303Y-98107914D01*
X228646303Y-98107914D02*
X228646303Y-98060295D01*
X228646303Y-98060295D02*
X228693922Y-97965057D01*
X228693922Y-97965057D02*
X228741541Y-97917438D01*
X228741541Y-97917438D02*
X228836779Y-97869819D01*
X228836779Y-97869819D02*
X229027255Y-97869819D01*
X229027255Y-97869819D02*
X229122493Y-97917438D01*
X229122493Y-97917438D02*
X229170112Y-97965057D01*
X229170112Y-97965057D02*
X229217731Y-98060295D01*
X229217731Y-98060295D02*
X229217731Y-98107914D01*
X229217731Y-98107914D02*
X229170112Y-98203152D01*
X229170112Y-98203152D02*
X229122493Y-98250771D01*
X229122493Y-98250771D02*
X229027255Y-98298390D01*
X229027255Y-98298390D02*
X228836779Y-98298390D01*
X228836779Y-98298390D02*
X228741541Y-98346009D01*
X228741541Y-98346009D02*
X228693922Y-98393628D01*
X228693922Y-98393628D02*
X228646303Y-98488866D01*
X228646303Y-98488866D02*
X228646303Y-98679342D01*
X228646303Y-98679342D02*
X228693922Y-98774580D01*
X228693922Y-98774580D02*
X228741541Y-98822200D01*
X228741541Y-98822200D02*
X228836779Y-98869819D01*
X228836779Y-98869819D02*
X229027255Y-98869819D01*
X229027255Y-98869819D02*
X229122493Y-98822200D01*
X229122493Y-98822200D02*
X229170112Y-98774580D01*
X229170112Y-98774580D02*
X229217731Y-98679342D01*
X229217731Y-98679342D02*
X229217731Y-98488866D01*
X229217731Y-98488866D02*
X229170112Y-98393628D01*
X229170112Y-98393628D02*
X229122493Y-98346009D01*
X229122493Y-98346009D02*
X229027255Y-98298390D01*
X246626667Y-111537200D02*
X246769524Y-111584819D01*
X246769524Y-111584819D02*
X247007619Y-111584819D01*
X247007619Y-111584819D02*
X247102857Y-111537200D01*
X247102857Y-111537200D02*
X247150476Y-111489580D01*
X247150476Y-111489580D02*
X247198095Y-111394342D01*
X247198095Y-111394342D02*
X247198095Y-111299104D01*
X247198095Y-111299104D02*
X247150476Y-111203866D01*
X247150476Y-111203866D02*
X247102857Y-111156247D01*
X247102857Y-111156247D02*
X247007619Y-111108628D01*
X247007619Y-111108628D02*
X246817143Y-111061009D01*
X246817143Y-111061009D02*
X246721905Y-111013390D01*
X246721905Y-111013390D02*
X246674286Y-110965771D01*
X246674286Y-110965771D02*
X246626667Y-110870533D01*
X246626667Y-110870533D02*
X246626667Y-110775295D01*
X246626667Y-110775295D02*
X246674286Y-110680057D01*
X246674286Y-110680057D02*
X246721905Y-110632438D01*
X246721905Y-110632438D02*
X246817143Y-110584819D01*
X246817143Y-110584819D02*
X247055238Y-110584819D01*
X247055238Y-110584819D02*
X247198095Y-110632438D01*
X247531429Y-110584819D02*
X247769524Y-111584819D01*
X247769524Y-111584819D02*
X247960000Y-110870533D01*
X247960000Y-110870533D02*
X248150476Y-111584819D01*
X248150476Y-111584819D02*
X248388572Y-110584819D01*
X248721905Y-110680057D02*
X248769524Y-110632438D01*
X248769524Y-110632438D02*
X248864762Y-110584819D01*
X248864762Y-110584819D02*
X249102857Y-110584819D01*
X249102857Y-110584819D02*
X249198095Y-110632438D01*
X249198095Y-110632438D02*
X249245714Y-110680057D01*
X249245714Y-110680057D02*
X249293333Y-110775295D01*
X249293333Y-110775295D02*
X249293333Y-110870533D01*
X249293333Y-110870533D02*
X249245714Y-111013390D01*
X249245714Y-111013390D02*
X248674286Y-111584819D01*
X248674286Y-111584819D02*
X249293333Y-111584819D01*
X247877142Y-97404819D02*
X247543809Y-96928628D01*
X247305714Y-97404819D02*
X247305714Y-96404819D01*
X247305714Y-96404819D02*
X247686666Y-96404819D01*
X247686666Y-96404819D02*
X247781904Y-96452438D01*
X247781904Y-96452438D02*
X247829523Y-96500057D01*
X247829523Y-96500057D02*
X247877142Y-96595295D01*
X247877142Y-96595295D02*
X247877142Y-96738152D01*
X247877142Y-96738152D02*
X247829523Y-96833390D01*
X247829523Y-96833390D02*
X247781904Y-96881009D01*
X247781904Y-96881009D02*
X247686666Y-96928628D01*
X247686666Y-96928628D02*
X247305714Y-96928628D01*
X248829523Y-97404819D02*
X248258095Y-97404819D01*
X248543809Y-97404819D02*
X248543809Y-96404819D01*
X248543809Y-96404819D02*
X248448571Y-96547676D01*
X248448571Y-96547676D02*
X248353333Y-96642914D01*
X248353333Y-96642914D02*
X248258095Y-96690533D01*
X249400952Y-96833390D02*
X249305714Y-96785771D01*
X249305714Y-96785771D02*
X249258095Y-96738152D01*
X249258095Y-96738152D02*
X249210476Y-96642914D01*
X249210476Y-96642914D02*
X249210476Y-96595295D01*
X249210476Y-96595295D02*
X249258095Y-96500057D01*
X249258095Y-96500057D02*
X249305714Y-96452438D01*
X249305714Y-96452438D02*
X249400952Y-96404819D01*
X249400952Y-96404819D02*
X249591428Y-96404819D01*
X249591428Y-96404819D02*
X249686666Y-96452438D01*
X249686666Y-96452438D02*
X249734285Y-96500057D01*
X249734285Y-96500057D02*
X249781904Y-96595295D01*
X249781904Y-96595295D02*
X249781904Y-96642914D01*
X249781904Y-96642914D02*
X249734285Y-96738152D01*
X249734285Y-96738152D02*
X249686666Y-96785771D01*
X249686666Y-96785771D02*
X249591428Y-96833390D01*
X249591428Y-96833390D02*
X249400952Y-96833390D01*
X249400952Y-96833390D02*
X249305714Y-96881009D01*
X249305714Y-96881009D02*
X249258095Y-96928628D01*
X249258095Y-96928628D02*
X249210476Y-97023866D01*
X249210476Y-97023866D02*
X249210476Y-97214342D01*
X249210476Y-97214342D02*
X249258095Y-97309580D01*
X249258095Y-97309580D02*
X249305714Y-97357200D01*
X249305714Y-97357200D02*
X249400952Y-97404819D01*
X249400952Y-97404819D02*
X249591428Y-97404819D01*
X249591428Y-97404819D02*
X249686666Y-97357200D01*
X249686666Y-97357200D02*
X249734285Y-97309580D01*
X249734285Y-97309580D02*
X249781904Y-97214342D01*
X249781904Y-97214342D02*
X249781904Y-97023866D01*
X249781904Y-97023866D02*
X249734285Y-96928628D01*
X249734285Y-96928628D02*
X249686666Y-96881009D01*
X249686666Y-96881009D02*
X249591428Y-96833390D01*
X256084819Y-154666666D02*
X255608628Y-154999999D01*
X256084819Y-155238094D02*
X255084819Y-155238094D01*
X255084819Y-155238094D02*
X255084819Y-154857142D01*
X255084819Y-154857142D02*
X255132438Y-154761904D01*
X255132438Y-154761904D02*
X255180057Y-154714285D01*
X255180057Y-154714285D02*
X255275295Y-154666666D01*
X255275295Y-154666666D02*
X255418152Y-154666666D01*
X255418152Y-154666666D02*
X255513390Y-154714285D01*
X255513390Y-154714285D02*
X255561009Y-154761904D01*
X255561009Y-154761904D02*
X255608628Y-154857142D01*
X255608628Y-154857142D02*
X255608628Y-155238094D01*
X255084819Y-153809523D02*
X255084819Y-153999999D01*
X255084819Y-153999999D02*
X255132438Y-154095237D01*
X255132438Y-154095237D02*
X255180057Y-154142856D01*
X255180057Y-154142856D02*
X255322914Y-154238094D01*
X255322914Y-154238094D02*
X255513390Y-154285713D01*
X255513390Y-154285713D02*
X255894342Y-154285713D01*
X255894342Y-154285713D02*
X255989580Y-154238094D01*
X255989580Y-154238094D02*
X256037200Y-154190475D01*
X256037200Y-154190475D02*
X256084819Y-154095237D01*
X256084819Y-154095237D02*
X256084819Y-153904761D01*
X256084819Y-153904761D02*
X256037200Y-153809523D01*
X256037200Y-153809523D02*
X255989580Y-153761904D01*
X255989580Y-153761904D02*
X255894342Y-153714285D01*
X255894342Y-153714285D02*
X255656247Y-153714285D01*
X255656247Y-153714285D02*
X255561009Y-153761904D01*
X255561009Y-153761904D02*
X255513390Y-153809523D01*
X255513390Y-153809523D02*
X255465771Y-153904761D01*
X255465771Y-153904761D02*
X255465771Y-154095237D01*
X255465771Y-154095237D02*
X255513390Y-154190475D01*
X255513390Y-154190475D02*
X255561009Y-154238094D01*
X255561009Y-154238094D02*
X255656247Y-154285713D01*
X160419761Y-148439819D02*
X160086428Y-147963628D01*
X159848333Y-148439819D02*
X159848333Y-147439819D01*
X159848333Y-147439819D02*
X160229285Y-147439819D01*
X160229285Y-147439819D02*
X160324523Y-147487438D01*
X160324523Y-147487438D02*
X160372142Y-147535057D01*
X160372142Y-147535057D02*
X160419761Y-147630295D01*
X160419761Y-147630295D02*
X160419761Y-147773152D01*
X160419761Y-147773152D02*
X160372142Y-147868390D01*
X160372142Y-147868390D02*
X160324523Y-147916009D01*
X160324523Y-147916009D02*
X160229285Y-147963628D01*
X160229285Y-147963628D02*
X159848333Y-147963628D01*
X160705476Y-147439819D02*
X161038809Y-148439819D01*
X161038809Y-148439819D02*
X161372142Y-147439819D01*
X162229285Y-148439819D02*
X161657857Y-148439819D01*
X161943571Y-148439819D02*
X161943571Y-147439819D01*
X161943571Y-147439819D02*
X161848333Y-147582676D01*
X161848333Y-147582676D02*
X161753095Y-147677914D01*
X161753095Y-147677914D02*
X161657857Y-147725533D01*
X247877142Y-81204819D02*
X247543809Y-80728628D01*
X247305714Y-81204819D02*
X247305714Y-80204819D01*
X247305714Y-80204819D02*
X247686666Y-80204819D01*
X247686666Y-80204819D02*
X247781904Y-80252438D01*
X247781904Y-80252438D02*
X247829523Y-80300057D01*
X247829523Y-80300057D02*
X247877142Y-80395295D01*
X247877142Y-80395295D02*
X247877142Y-80538152D01*
X247877142Y-80538152D02*
X247829523Y-80633390D01*
X247829523Y-80633390D02*
X247781904Y-80681009D01*
X247781904Y-80681009D02*
X247686666Y-80728628D01*
X247686666Y-80728628D02*
X247305714Y-80728628D01*
X248829523Y-81204819D02*
X248258095Y-81204819D01*
X248543809Y-81204819D02*
X248543809Y-80204819D01*
X248543809Y-80204819D02*
X248448571Y-80347676D01*
X248448571Y-80347676D02*
X248353333Y-80442914D01*
X248353333Y-80442914D02*
X248258095Y-80490533D01*
X249686666Y-80538152D02*
X249686666Y-81204819D01*
X249448571Y-80157200D02*
X249210476Y-80871485D01*
X249210476Y-80871485D02*
X249829523Y-80871485D01*
X258126667Y-120037200D02*
X258269524Y-120084819D01*
X258269524Y-120084819D02*
X258507619Y-120084819D01*
X258507619Y-120084819D02*
X258602857Y-120037200D01*
X258602857Y-120037200D02*
X258650476Y-119989580D01*
X258650476Y-119989580D02*
X258698095Y-119894342D01*
X258698095Y-119894342D02*
X258698095Y-119799104D01*
X258698095Y-119799104D02*
X258650476Y-119703866D01*
X258650476Y-119703866D02*
X258602857Y-119656247D01*
X258602857Y-119656247D02*
X258507619Y-119608628D01*
X258507619Y-119608628D02*
X258317143Y-119561009D01*
X258317143Y-119561009D02*
X258221905Y-119513390D01*
X258221905Y-119513390D02*
X258174286Y-119465771D01*
X258174286Y-119465771D02*
X258126667Y-119370533D01*
X258126667Y-119370533D02*
X258126667Y-119275295D01*
X258126667Y-119275295D02*
X258174286Y-119180057D01*
X258174286Y-119180057D02*
X258221905Y-119132438D01*
X258221905Y-119132438D02*
X258317143Y-119084819D01*
X258317143Y-119084819D02*
X258555238Y-119084819D01*
X258555238Y-119084819D02*
X258698095Y-119132438D01*
X259031429Y-119084819D02*
X259269524Y-120084819D01*
X259269524Y-120084819D02*
X259460000Y-119370533D01*
X259460000Y-119370533D02*
X259650476Y-120084819D01*
X259650476Y-120084819D02*
X259888572Y-119084819D01*
X260698095Y-119418152D02*
X260698095Y-120084819D01*
X260460000Y-119037200D02*
X260221905Y-119751485D01*
X260221905Y-119751485D02*
X260840952Y-119751485D01*
X274333333Y-65159580D02*
X274285714Y-65207200D01*
X274285714Y-65207200D02*
X274142857Y-65254819D01*
X274142857Y-65254819D02*
X274047619Y-65254819D01*
X274047619Y-65254819D02*
X273904762Y-65207200D01*
X273904762Y-65207200D02*
X273809524Y-65111961D01*
X273809524Y-65111961D02*
X273761905Y-65016723D01*
X273761905Y-65016723D02*
X273714286Y-64826247D01*
X273714286Y-64826247D02*
X273714286Y-64683390D01*
X273714286Y-64683390D02*
X273761905Y-64492914D01*
X273761905Y-64492914D02*
X273809524Y-64397676D01*
X273809524Y-64397676D02*
X273904762Y-64302438D01*
X273904762Y-64302438D02*
X274047619Y-64254819D01*
X274047619Y-64254819D02*
X274142857Y-64254819D01*
X274142857Y-64254819D02*
X274285714Y-64302438D01*
X274285714Y-64302438D02*
X274333333Y-64350057D01*
X275285714Y-65254819D02*
X274714286Y-65254819D01*
X275000000Y-65254819D02*
X275000000Y-64254819D01*
X275000000Y-64254819D02*
X274904762Y-64397676D01*
X274904762Y-64397676D02*
X274809524Y-64492914D01*
X274809524Y-64492914D02*
X274714286Y-64540533D01*
X205304819Y-84451904D02*
X206114342Y-84451904D01*
X206114342Y-84451904D02*
X206209580Y-84404285D01*
X206209580Y-84404285D02*
X206257200Y-84356666D01*
X206257200Y-84356666D02*
X206304819Y-84261428D01*
X206304819Y-84261428D02*
X206304819Y-84070952D01*
X206304819Y-84070952D02*
X206257200Y-83975714D01*
X206257200Y-83975714D02*
X206209580Y-83928095D01*
X206209580Y-83928095D02*
X206114342Y-83880476D01*
X206114342Y-83880476D02*
X205304819Y-83880476D01*
X205304819Y-83499523D02*
X205304819Y-82880476D01*
X205304819Y-82880476D02*
X205685771Y-83213809D01*
X205685771Y-83213809D02*
X205685771Y-83070952D01*
X205685771Y-83070952D02*
X205733390Y-82975714D01*
X205733390Y-82975714D02*
X205781009Y-82928095D01*
X205781009Y-82928095D02*
X205876247Y-82880476D01*
X205876247Y-82880476D02*
X206114342Y-82880476D01*
X206114342Y-82880476D02*
X206209580Y-82928095D01*
X206209580Y-82928095D02*
X206257200Y-82975714D01*
X206257200Y-82975714D02*
X206304819Y-83070952D01*
X206304819Y-83070952D02*
X206304819Y-83356666D01*
X206304819Y-83356666D02*
X206257200Y-83451904D01*
X206257200Y-83451904D02*
X206209580Y-83499523D01*
X264184819Y-154666666D02*
X263708628Y-154999999D01*
X264184819Y-155238094D02*
X263184819Y-155238094D01*
X263184819Y-155238094D02*
X263184819Y-154857142D01*
X263184819Y-154857142D02*
X263232438Y-154761904D01*
X263232438Y-154761904D02*
X263280057Y-154714285D01*
X263280057Y-154714285D02*
X263375295Y-154666666D01*
X263375295Y-154666666D02*
X263518152Y-154666666D01*
X263518152Y-154666666D02*
X263613390Y-154714285D01*
X263613390Y-154714285D02*
X263661009Y-154761904D01*
X263661009Y-154761904D02*
X263708628Y-154857142D01*
X263708628Y-154857142D02*
X263708628Y-155238094D01*
X263613390Y-154095237D02*
X263565771Y-154190475D01*
X263565771Y-154190475D02*
X263518152Y-154238094D01*
X263518152Y-154238094D02*
X263422914Y-154285713D01*
X263422914Y-154285713D02*
X263375295Y-154285713D01*
X263375295Y-154285713D02*
X263280057Y-154238094D01*
X263280057Y-154238094D02*
X263232438Y-154190475D01*
X263232438Y-154190475D02*
X263184819Y-154095237D01*
X263184819Y-154095237D02*
X263184819Y-153904761D01*
X263184819Y-153904761D02*
X263232438Y-153809523D01*
X263232438Y-153809523D02*
X263280057Y-153761904D01*
X263280057Y-153761904D02*
X263375295Y-153714285D01*
X263375295Y-153714285D02*
X263422914Y-153714285D01*
X263422914Y-153714285D02*
X263518152Y-153761904D01*
X263518152Y-153761904D02*
X263565771Y-153809523D01*
X263565771Y-153809523D02*
X263613390Y-153904761D01*
X263613390Y-153904761D02*
X263613390Y-154095237D01*
X263613390Y-154095237D02*
X263661009Y-154190475D01*
X263661009Y-154190475D02*
X263708628Y-154238094D01*
X263708628Y-154238094D02*
X263803866Y-154285713D01*
X263803866Y-154285713D02*
X263994342Y-154285713D01*
X263994342Y-154285713D02*
X264089580Y-154238094D01*
X264089580Y-154238094D02*
X264137200Y-154190475D01*
X264137200Y-154190475D02*
X264184819Y-154095237D01*
X264184819Y-154095237D02*
X264184819Y-153904761D01*
X264184819Y-153904761D02*
X264137200Y-153809523D01*
X264137200Y-153809523D02*
X264089580Y-153761904D01*
X264089580Y-153761904D02*
X263994342Y-153714285D01*
X263994342Y-153714285D02*
X263803866Y-153714285D01*
X263803866Y-153714285D02*
X263708628Y-153761904D01*
X263708628Y-153761904D02*
X263661009Y-153809523D01*
X263661009Y-153809523D02*
X263613390Y-153904761D01*
X268234819Y-154666666D02*
X267758628Y-154999999D01*
X268234819Y-155238094D02*
X267234819Y-155238094D01*
X267234819Y-155238094D02*
X267234819Y-154857142D01*
X267234819Y-154857142D02*
X267282438Y-154761904D01*
X267282438Y-154761904D02*
X267330057Y-154714285D01*
X267330057Y-154714285D02*
X267425295Y-154666666D01*
X267425295Y-154666666D02*
X267568152Y-154666666D01*
X267568152Y-154666666D02*
X267663390Y-154714285D01*
X267663390Y-154714285D02*
X267711009Y-154761904D01*
X267711009Y-154761904D02*
X267758628Y-154857142D01*
X267758628Y-154857142D02*
X267758628Y-155238094D01*
X268234819Y-154190475D02*
X268234819Y-153999999D01*
X268234819Y-153999999D02*
X268187200Y-153904761D01*
X268187200Y-153904761D02*
X268139580Y-153857142D01*
X268139580Y-153857142D02*
X267996723Y-153761904D01*
X267996723Y-153761904D02*
X267806247Y-153714285D01*
X267806247Y-153714285D02*
X267425295Y-153714285D01*
X267425295Y-153714285D02*
X267330057Y-153761904D01*
X267330057Y-153761904D02*
X267282438Y-153809523D01*
X267282438Y-153809523D02*
X267234819Y-153904761D01*
X267234819Y-153904761D02*
X267234819Y-154095237D01*
X267234819Y-154095237D02*
X267282438Y-154190475D01*
X267282438Y-154190475D02*
X267330057Y-154238094D01*
X267330057Y-154238094D02*
X267425295Y-154285713D01*
X267425295Y-154285713D02*
X267663390Y-154285713D01*
X267663390Y-154285713D02*
X267758628Y-154238094D01*
X267758628Y-154238094D02*
X267806247Y-154190475D01*
X267806247Y-154190475D02*
X267853866Y-154095237D01*
X267853866Y-154095237D02*
X267853866Y-153904761D01*
X267853866Y-153904761D02*
X267806247Y-153809523D01*
X267806247Y-153809523D02*
X267758628Y-153761904D01*
X267758628Y-153761904D02*
X267663390Y-153714285D01*
X247877142Y-77154819D02*
X247543809Y-76678628D01*
X247305714Y-77154819D02*
X247305714Y-76154819D01*
X247305714Y-76154819D02*
X247686666Y-76154819D01*
X247686666Y-76154819D02*
X247781904Y-76202438D01*
X247781904Y-76202438D02*
X247829523Y-76250057D01*
X247829523Y-76250057D02*
X247877142Y-76345295D01*
X247877142Y-76345295D02*
X247877142Y-76488152D01*
X247877142Y-76488152D02*
X247829523Y-76583390D01*
X247829523Y-76583390D02*
X247781904Y-76631009D01*
X247781904Y-76631009D02*
X247686666Y-76678628D01*
X247686666Y-76678628D02*
X247305714Y-76678628D01*
X248829523Y-77154819D02*
X248258095Y-77154819D01*
X248543809Y-77154819D02*
X248543809Y-76154819D01*
X248543809Y-76154819D02*
X248448571Y-76297676D01*
X248448571Y-76297676D02*
X248353333Y-76392914D01*
X248353333Y-76392914D02*
X248258095Y-76440533D01*
X249162857Y-76154819D02*
X249781904Y-76154819D01*
X249781904Y-76154819D02*
X249448571Y-76535771D01*
X249448571Y-76535771D02*
X249591428Y-76535771D01*
X249591428Y-76535771D02*
X249686666Y-76583390D01*
X249686666Y-76583390D02*
X249734285Y-76631009D01*
X249734285Y-76631009D02*
X249781904Y-76726247D01*
X249781904Y-76726247D02*
X249781904Y-76964342D01*
X249781904Y-76964342D02*
X249734285Y-77059580D01*
X249734285Y-77059580D02*
X249686666Y-77107200D01*
X249686666Y-77107200D02*
X249591428Y-77154819D01*
X249591428Y-77154819D02*
X249305714Y-77154819D01*
X249305714Y-77154819D02*
X249210476Y-77107200D01*
X249210476Y-77107200D02*
X249162857Y-77059580D01*
X217649819Y-71968094D02*
X216649819Y-71968094D01*
X216649819Y-71968094D02*
X216649819Y-71729999D01*
X216649819Y-71729999D02*
X216697438Y-71587142D01*
X216697438Y-71587142D02*
X216792676Y-71491904D01*
X216792676Y-71491904D02*
X216887914Y-71444285D01*
X216887914Y-71444285D02*
X217078390Y-71396666D01*
X217078390Y-71396666D02*
X217221247Y-71396666D01*
X217221247Y-71396666D02*
X217411723Y-71444285D01*
X217411723Y-71444285D02*
X217506961Y-71491904D01*
X217506961Y-71491904D02*
X217602200Y-71587142D01*
X217602200Y-71587142D02*
X217649819Y-71729999D01*
X217649819Y-71729999D02*
X217649819Y-71968094D01*
X216649819Y-70491904D02*
X216649819Y-70968094D01*
X216649819Y-70968094D02*
X217126009Y-71015713D01*
X217126009Y-71015713D02*
X217078390Y-70968094D01*
X217078390Y-70968094D02*
X217030771Y-70872856D01*
X217030771Y-70872856D02*
X217030771Y-70634761D01*
X217030771Y-70634761D02*
X217078390Y-70539523D01*
X217078390Y-70539523D02*
X217126009Y-70491904D01*
X217126009Y-70491904D02*
X217221247Y-70444285D01*
X217221247Y-70444285D02*
X217459342Y-70444285D01*
X217459342Y-70444285D02*
X217554580Y-70491904D01*
X217554580Y-70491904D02*
X217602200Y-70539523D01*
X217602200Y-70539523D02*
X217649819Y-70634761D01*
X217649819Y-70634761D02*
X217649819Y-70872856D01*
X217649819Y-70872856D02*
X217602200Y-70968094D01*
X217602200Y-70968094D02*
X217554580Y-71015713D01*
X175246666Y-127954819D02*
X175246666Y-128669104D01*
X175246666Y-128669104D02*
X175199047Y-128811961D01*
X175199047Y-128811961D02*
X175103809Y-128907200D01*
X175103809Y-128907200D02*
X174960952Y-128954819D01*
X174960952Y-128954819D02*
X174865714Y-128954819D01*
X176246666Y-128954819D02*
X175675238Y-128954819D01*
X175960952Y-128954819D02*
X175960952Y-127954819D01*
X175960952Y-127954819D02*
X175865714Y-128097676D01*
X175865714Y-128097676D02*
X175770476Y-128192914D01*
X175770476Y-128192914D02*
X175675238Y-128240533D01*
X274333333Y-80309580D02*
X274285714Y-80357200D01*
X274285714Y-80357200D02*
X274142857Y-80404819D01*
X274142857Y-80404819D02*
X274047619Y-80404819D01*
X274047619Y-80404819D02*
X273904762Y-80357200D01*
X273904762Y-80357200D02*
X273809524Y-80261961D01*
X273809524Y-80261961D02*
X273761905Y-80166723D01*
X273761905Y-80166723D02*
X273714286Y-79976247D01*
X273714286Y-79976247D02*
X273714286Y-79833390D01*
X273714286Y-79833390D02*
X273761905Y-79642914D01*
X273761905Y-79642914D02*
X273809524Y-79547676D01*
X273809524Y-79547676D02*
X273904762Y-79452438D01*
X273904762Y-79452438D02*
X274047619Y-79404819D01*
X274047619Y-79404819D02*
X274142857Y-79404819D01*
X274142857Y-79404819D02*
X274285714Y-79452438D01*
X274285714Y-79452438D02*
X274333333Y-79500057D01*
X275190476Y-79738152D02*
X275190476Y-80404819D01*
X274952381Y-79357200D02*
X274714286Y-80071485D01*
X274714286Y-80071485D02*
X275333333Y-80071485D01*
X257626667Y-102537200D02*
X257769524Y-102584819D01*
X257769524Y-102584819D02*
X258007619Y-102584819D01*
X258007619Y-102584819D02*
X258102857Y-102537200D01*
X258102857Y-102537200D02*
X258150476Y-102489580D01*
X258150476Y-102489580D02*
X258198095Y-102394342D01*
X258198095Y-102394342D02*
X258198095Y-102299104D01*
X258198095Y-102299104D02*
X258150476Y-102203866D01*
X258150476Y-102203866D02*
X258102857Y-102156247D01*
X258102857Y-102156247D02*
X258007619Y-102108628D01*
X258007619Y-102108628D02*
X257817143Y-102061009D01*
X257817143Y-102061009D02*
X257721905Y-102013390D01*
X257721905Y-102013390D02*
X257674286Y-101965771D01*
X257674286Y-101965771D02*
X257626667Y-101870533D01*
X257626667Y-101870533D02*
X257626667Y-101775295D01*
X257626667Y-101775295D02*
X257674286Y-101680057D01*
X257674286Y-101680057D02*
X257721905Y-101632438D01*
X257721905Y-101632438D02*
X257817143Y-101584819D01*
X257817143Y-101584819D02*
X258055238Y-101584819D01*
X258055238Y-101584819D02*
X258198095Y-101632438D01*
X258531429Y-101584819D02*
X258769524Y-102584819D01*
X258769524Y-102584819D02*
X258960000Y-101870533D01*
X258960000Y-101870533D02*
X259150476Y-102584819D01*
X259150476Y-102584819D02*
X259388572Y-101584819D01*
X260293333Y-102584819D02*
X259721905Y-102584819D01*
X260007619Y-102584819D02*
X260007619Y-101584819D01*
X260007619Y-101584819D02*
X259912381Y-101727676D01*
X259912381Y-101727676D02*
X259817143Y-101822914D01*
X259817143Y-101822914D02*
X259721905Y-101870533D01*
X247877142Y-85254819D02*
X247543809Y-84778628D01*
X247305714Y-85254819D02*
X247305714Y-84254819D01*
X247305714Y-84254819D02*
X247686666Y-84254819D01*
X247686666Y-84254819D02*
X247781904Y-84302438D01*
X247781904Y-84302438D02*
X247829523Y-84350057D01*
X247829523Y-84350057D02*
X247877142Y-84445295D01*
X247877142Y-84445295D02*
X247877142Y-84588152D01*
X247877142Y-84588152D02*
X247829523Y-84683390D01*
X247829523Y-84683390D02*
X247781904Y-84731009D01*
X247781904Y-84731009D02*
X247686666Y-84778628D01*
X247686666Y-84778628D02*
X247305714Y-84778628D01*
X248829523Y-85254819D02*
X248258095Y-85254819D01*
X248543809Y-85254819D02*
X248543809Y-84254819D01*
X248543809Y-84254819D02*
X248448571Y-84397676D01*
X248448571Y-84397676D02*
X248353333Y-84492914D01*
X248353333Y-84492914D02*
X248258095Y-84540533D01*
X249734285Y-84254819D02*
X249258095Y-84254819D01*
X249258095Y-84254819D02*
X249210476Y-84731009D01*
X249210476Y-84731009D02*
X249258095Y-84683390D01*
X249258095Y-84683390D02*
X249353333Y-84635771D01*
X249353333Y-84635771D02*
X249591428Y-84635771D01*
X249591428Y-84635771D02*
X249686666Y-84683390D01*
X249686666Y-84683390D02*
X249734285Y-84731009D01*
X249734285Y-84731009D02*
X249781904Y-84826247D01*
X249781904Y-84826247D02*
X249781904Y-85064342D01*
X249781904Y-85064342D02*
X249734285Y-85159580D01*
X249734285Y-85159580D02*
X249686666Y-85207200D01*
X249686666Y-85207200D02*
X249591428Y-85254819D01*
X249591428Y-85254819D02*
X249353333Y-85254819D01*
X249353333Y-85254819D02*
X249258095Y-85207200D01*
X249258095Y-85207200D02*
X249210476Y-85159580D01*
X235834819Y-154666666D02*
X235358628Y-154999999D01*
X235834819Y-155238094D02*
X234834819Y-155238094D01*
X234834819Y-155238094D02*
X234834819Y-154857142D01*
X234834819Y-154857142D02*
X234882438Y-154761904D01*
X234882438Y-154761904D02*
X234930057Y-154714285D01*
X234930057Y-154714285D02*
X235025295Y-154666666D01*
X235025295Y-154666666D02*
X235168152Y-154666666D01*
X235168152Y-154666666D02*
X235263390Y-154714285D01*
X235263390Y-154714285D02*
X235311009Y-154761904D01*
X235311009Y-154761904D02*
X235358628Y-154857142D01*
X235358628Y-154857142D02*
X235358628Y-155238094D01*
X235834819Y-153714285D02*
X235834819Y-154285713D01*
X235834819Y-153999999D02*
X234834819Y-153999999D01*
X234834819Y-153999999D02*
X234977676Y-154095237D01*
X234977676Y-154095237D02*
X235072914Y-154190475D01*
X235072914Y-154190475D02*
X235120533Y-154285713D01*
X260134819Y-154666666D02*
X259658628Y-154999999D01*
X260134819Y-155238094D02*
X259134819Y-155238094D01*
X259134819Y-155238094D02*
X259134819Y-154857142D01*
X259134819Y-154857142D02*
X259182438Y-154761904D01*
X259182438Y-154761904D02*
X259230057Y-154714285D01*
X259230057Y-154714285D02*
X259325295Y-154666666D01*
X259325295Y-154666666D02*
X259468152Y-154666666D01*
X259468152Y-154666666D02*
X259563390Y-154714285D01*
X259563390Y-154714285D02*
X259611009Y-154761904D01*
X259611009Y-154761904D02*
X259658628Y-154857142D01*
X259658628Y-154857142D02*
X259658628Y-155238094D01*
X259134819Y-154333332D02*
X259134819Y-153666666D01*
X259134819Y-153666666D02*
X260134819Y-154095237D01*
X132984819Y-157113333D02*
X133699104Y-157113333D01*
X133699104Y-157113333D02*
X133841961Y-157160952D01*
X133841961Y-157160952D02*
X133937200Y-157256190D01*
X133937200Y-157256190D02*
X133984819Y-157399047D01*
X133984819Y-157399047D02*
X133984819Y-157494285D01*
X132984819Y-156732380D02*
X132984819Y-156113333D01*
X132984819Y-156113333D02*
X133365771Y-156446666D01*
X133365771Y-156446666D02*
X133365771Y-156303809D01*
X133365771Y-156303809D02*
X133413390Y-156208571D01*
X133413390Y-156208571D02*
X133461009Y-156160952D01*
X133461009Y-156160952D02*
X133556247Y-156113333D01*
X133556247Y-156113333D02*
X133794342Y-156113333D01*
X133794342Y-156113333D02*
X133889580Y-156160952D01*
X133889580Y-156160952D02*
X133937200Y-156208571D01*
X133937200Y-156208571D02*
X133984819Y-156303809D01*
X133984819Y-156303809D02*
X133984819Y-156589523D01*
X133984819Y-156589523D02*
X133937200Y-156684761D01*
X133937200Y-156684761D02*
X133889580Y-156732380D01*
X239884819Y-154666666D02*
X239408628Y-154999999D01*
X239884819Y-155238094D02*
X238884819Y-155238094D01*
X238884819Y-155238094D02*
X238884819Y-154857142D01*
X238884819Y-154857142D02*
X238932438Y-154761904D01*
X238932438Y-154761904D02*
X238980057Y-154714285D01*
X238980057Y-154714285D02*
X239075295Y-154666666D01*
X239075295Y-154666666D02*
X239218152Y-154666666D01*
X239218152Y-154666666D02*
X239313390Y-154714285D01*
X239313390Y-154714285D02*
X239361009Y-154761904D01*
X239361009Y-154761904D02*
X239408628Y-154857142D01*
X239408628Y-154857142D02*
X239408628Y-155238094D01*
X238980057Y-154285713D02*
X238932438Y-154238094D01*
X238932438Y-154238094D02*
X238884819Y-154142856D01*
X238884819Y-154142856D02*
X238884819Y-153904761D01*
X238884819Y-153904761D02*
X238932438Y-153809523D01*
X238932438Y-153809523D02*
X238980057Y-153761904D01*
X238980057Y-153761904D02*
X239075295Y-153714285D01*
X239075295Y-153714285D02*
X239170533Y-153714285D01*
X239170533Y-153714285D02*
X239313390Y-153761904D01*
X239313390Y-153761904D02*
X239884819Y-154333332D01*
X239884819Y-154333332D02*
X239884819Y-153714285D01*
X240937142Y-68084819D02*
X240603809Y-67608628D01*
X240365714Y-68084819D02*
X240365714Y-67084819D01*
X240365714Y-67084819D02*
X240746666Y-67084819D01*
X240746666Y-67084819D02*
X240841904Y-67132438D01*
X240841904Y-67132438D02*
X240889523Y-67180057D01*
X240889523Y-67180057D02*
X240937142Y-67275295D01*
X240937142Y-67275295D02*
X240937142Y-67418152D01*
X240937142Y-67418152D02*
X240889523Y-67513390D01*
X240889523Y-67513390D02*
X240841904Y-67561009D01*
X240841904Y-67561009D02*
X240746666Y-67608628D01*
X240746666Y-67608628D02*
X240365714Y-67608628D01*
X241889523Y-68084819D02*
X241318095Y-68084819D01*
X241603809Y-68084819D02*
X241603809Y-67084819D01*
X241603809Y-67084819D02*
X241508571Y-67227676D01*
X241508571Y-67227676D02*
X241413333Y-67322914D01*
X241413333Y-67322914D02*
X241318095Y-67370533D01*
X242270476Y-67180057D02*
X242318095Y-67132438D01*
X242318095Y-67132438D02*
X242413333Y-67084819D01*
X242413333Y-67084819D02*
X242651428Y-67084819D01*
X242651428Y-67084819D02*
X242746666Y-67132438D01*
X242746666Y-67132438D02*
X242794285Y-67180057D01*
X242794285Y-67180057D02*
X242841904Y-67275295D01*
X242841904Y-67275295D02*
X242841904Y-67370533D01*
X242841904Y-67370533D02*
X242794285Y-67513390D01*
X242794285Y-67513390D02*
X242222857Y-68084819D01*
X242222857Y-68084819D02*
X242841904Y-68084819D01*
X243934819Y-154666666D02*
X243458628Y-154999999D01*
X243934819Y-155238094D02*
X242934819Y-155238094D01*
X242934819Y-155238094D02*
X242934819Y-154857142D01*
X242934819Y-154857142D02*
X242982438Y-154761904D01*
X242982438Y-154761904D02*
X243030057Y-154714285D01*
X243030057Y-154714285D02*
X243125295Y-154666666D01*
X243125295Y-154666666D02*
X243268152Y-154666666D01*
X243268152Y-154666666D02*
X243363390Y-154714285D01*
X243363390Y-154714285D02*
X243411009Y-154761904D01*
X243411009Y-154761904D02*
X243458628Y-154857142D01*
X243458628Y-154857142D02*
X243458628Y-155238094D01*
X242934819Y-154333332D02*
X242934819Y-153714285D01*
X242934819Y-153714285D02*
X243315771Y-154047618D01*
X243315771Y-154047618D02*
X243315771Y-153904761D01*
X243315771Y-153904761D02*
X243363390Y-153809523D01*
X243363390Y-153809523D02*
X243411009Y-153761904D01*
X243411009Y-153761904D02*
X243506247Y-153714285D01*
X243506247Y-153714285D02*
X243744342Y-153714285D01*
X243744342Y-153714285D02*
X243839580Y-153761904D01*
X243839580Y-153761904D02*
X243887200Y-153809523D01*
X243887200Y-153809523D02*
X243934819Y-153904761D01*
X243934819Y-153904761D02*
X243934819Y-154190475D01*
X243934819Y-154190475D02*
X243887200Y-154285713D01*
X243887200Y-154285713D02*
X243839580Y-154333332D01*
X247877142Y-93354819D02*
X247543809Y-92878628D01*
X247305714Y-93354819D02*
X247305714Y-92354819D01*
X247305714Y-92354819D02*
X247686666Y-92354819D01*
X247686666Y-92354819D02*
X247781904Y-92402438D01*
X247781904Y-92402438D02*
X247829523Y-92450057D01*
X247829523Y-92450057D02*
X247877142Y-92545295D01*
X247877142Y-92545295D02*
X247877142Y-92688152D01*
X247877142Y-92688152D02*
X247829523Y-92783390D01*
X247829523Y-92783390D02*
X247781904Y-92831009D01*
X247781904Y-92831009D02*
X247686666Y-92878628D01*
X247686666Y-92878628D02*
X247305714Y-92878628D01*
X248829523Y-93354819D02*
X248258095Y-93354819D01*
X248543809Y-93354819D02*
X248543809Y-92354819D01*
X248543809Y-92354819D02*
X248448571Y-92497676D01*
X248448571Y-92497676D02*
X248353333Y-92592914D01*
X248353333Y-92592914D02*
X248258095Y-92640533D01*
X249162857Y-92354819D02*
X249829523Y-92354819D01*
X249829523Y-92354819D02*
X249400952Y-93354819D01*
X211414819Y-71968094D02*
X210414819Y-71968094D01*
X210414819Y-71968094D02*
X210414819Y-71729999D01*
X210414819Y-71729999D02*
X210462438Y-71587142D01*
X210462438Y-71587142D02*
X210557676Y-71491904D01*
X210557676Y-71491904D02*
X210652914Y-71444285D01*
X210652914Y-71444285D02*
X210843390Y-71396666D01*
X210843390Y-71396666D02*
X210986247Y-71396666D01*
X210986247Y-71396666D02*
X211176723Y-71444285D01*
X211176723Y-71444285D02*
X211271961Y-71491904D01*
X211271961Y-71491904D02*
X211367200Y-71587142D01*
X211367200Y-71587142D02*
X211414819Y-71729999D01*
X211414819Y-71729999D02*
X211414819Y-71968094D01*
X210414819Y-70539523D02*
X210414819Y-70729999D01*
X210414819Y-70729999D02*
X210462438Y-70825237D01*
X210462438Y-70825237D02*
X210510057Y-70872856D01*
X210510057Y-70872856D02*
X210652914Y-70968094D01*
X210652914Y-70968094D02*
X210843390Y-71015713D01*
X210843390Y-71015713D02*
X211224342Y-71015713D01*
X211224342Y-71015713D02*
X211319580Y-70968094D01*
X211319580Y-70968094D02*
X211367200Y-70920475D01*
X211367200Y-70920475D02*
X211414819Y-70825237D01*
X211414819Y-70825237D02*
X211414819Y-70634761D01*
X211414819Y-70634761D02*
X211367200Y-70539523D01*
X211367200Y-70539523D02*
X211319580Y-70491904D01*
X211319580Y-70491904D02*
X211224342Y-70444285D01*
X211224342Y-70444285D02*
X210986247Y-70444285D01*
X210986247Y-70444285D02*
X210891009Y-70491904D01*
X210891009Y-70491904D02*
X210843390Y-70539523D01*
X210843390Y-70539523D02*
X210795771Y-70634761D01*
X210795771Y-70634761D02*
X210795771Y-70825237D01*
X210795771Y-70825237D02*
X210843390Y-70920475D01*
X210843390Y-70920475D02*
X210891009Y-70968094D01*
X210891009Y-70968094D02*
X210986247Y-71015713D01*
X274333333Y-85359580D02*
X274285714Y-85407200D01*
X274285714Y-85407200D02*
X274142857Y-85454819D01*
X274142857Y-85454819D02*
X274047619Y-85454819D01*
X274047619Y-85454819D02*
X273904762Y-85407200D01*
X273904762Y-85407200D02*
X273809524Y-85311961D01*
X273809524Y-85311961D02*
X273761905Y-85216723D01*
X273761905Y-85216723D02*
X273714286Y-85026247D01*
X273714286Y-85026247D02*
X273714286Y-84883390D01*
X273714286Y-84883390D02*
X273761905Y-84692914D01*
X273761905Y-84692914D02*
X273809524Y-84597676D01*
X273809524Y-84597676D02*
X273904762Y-84502438D01*
X273904762Y-84502438D02*
X274047619Y-84454819D01*
X274047619Y-84454819D02*
X274142857Y-84454819D01*
X274142857Y-84454819D02*
X274285714Y-84502438D01*
X274285714Y-84502438D02*
X274333333Y-84550057D01*
X275238095Y-84454819D02*
X274761905Y-84454819D01*
X274761905Y-84454819D02*
X274714286Y-84931009D01*
X274714286Y-84931009D02*
X274761905Y-84883390D01*
X274761905Y-84883390D02*
X274857143Y-84835771D01*
X274857143Y-84835771D02*
X275095238Y-84835771D01*
X275095238Y-84835771D02*
X275190476Y-84883390D01*
X275190476Y-84883390D02*
X275238095Y-84931009D01*
X275238095Y-84931009D02*
X275285714Y-85026247D01*
X275285714Y-85026247D02*
X275285714Y-85264342D01*
X275285714Y-85264342D02*
X275238095Y-85359580D01*
X275238095Y-85359580D02*
X275190476Y-85407200D01*
X275190476Y-85407200D02*
X275095238Y-85454819D01*
X275095238Y-85454819D02*
X274857143Y-85454819D01*
X274857143Y-85454819D02*
X274761905Y-85407200D01*
X274761905Y-85407200D02*
X274714286Y-85359580D01*
X189153095Y-89229819D02*
X189153095Y-90039342D01*
X189153095Y-90039342D02*
X189200714Y-90134580D01*
X189200714Y-90134580D02*
X189248333Y-90182200D01*
X189248333Y-90182200D02*
X189343571Y-90229819D01*
X189343571Y-90229819D02*
X189534047Y-90229819D01*
X189534047Y-90229819D02*
X189629285Y-90182200D01*
X189629285Y-90182200D02*
X189676904Y-90134580D01*
X189676904Y-90134580D02*
X189724523Y-90039342D01*
X189724523Y-90039342D02*
X189724523Y-89229819D01*
X190153095Y-89325057D02*
X190200714Y-89277438D01*
X190200714Y-89277438D02*
X190295952Y-89229819D01*
X190295952Y-89229819D02*
X190534047Y-89229819D01*
X190534047Y-89229819D02*
X190629285Y-89277438D01*
X190629285Y-89277438D02*
X190676904Y-89325057D01*
X190676904Y-89325057D02*
X190724523Y-89420295D01*
X190724523Y-89420295D02*
X190724523Y-89515533D01*
X190724523Y-89515533D02*
X190676904Y-89658390D01*
X190676904Y-89658390D02*
X190105476Y-90229819D01*
X190105476Y-90229819D02*
X190724523Y-90229819D01*
X272284819Y-155142857D02*
X271808628Y-155476190D01*
X272284819Y-155714285D02*
X271284819Y-155714285D01*
X271284819Y-155714285D02*
X271284819Y-155333333D01*
X271284819Y-155333333D02*
X271332438Y-155238095D01*
X271332438Y-155238095D02*
X271380057Y-155190476D01*
X271380057Y-155190476D02*
X271475295Y-155142857D01*
X271475295Y-155142857D02*
X271618152Y-155142857D01*
X271618152Y-155142857D02*
X271713390Y-155190476D01*
X271713390Y-155190476D02*
X271761009Y-155238095D01*
X271761009Y-155238095D02*
X271808628Y-155333333D01*
X271808628Y-155333333D02*
X271808628Y-155714285D01*
X272284819Y-154190476D02*
X272284819Y-154761904D01*
X272284819Y-154476190D02*
X271284819Y-154476190D01*
X271284819Y-154476190D02*
X271427676Y-154571428D01*
X271427676Y-154571428D02*
X271522914Y-154666666D01*
X271522914Y-154666666D02*
X271570533Y-154761904D01*
X271284819Y-153571428D02*
X271284819Y-153476190D01*
X271284819Y-153476190D02*
X271332438Y-153380952D01*
X271332438Y-153380952D02*
X271380057Y-153333333D01*
X271380057Y-153333333D02*
X271475295Y-153285714D01*
X271475295Y-153285714D02*
X271665771Y-153238095D01*
X271665771Y-153238095D02*
X271903866Y-153238095D01*
X271903866Y-153238095D02*
X272094342Y-153285714D01*
X272094342Y-153285714D02*
X272189580Y-153333333D01*
X272189580Y-153333333D02*
X272237200Y-153380952D01*
X272237200Y-153380952D02*
X272284819Y-153476190D01*
X272284819Y-153476190D02*
X272284819Y-153571428D01*
X272284819Y-153571428D02*
X272237200Y-153666666D01*
X272237200Y-153666666D02*
X272189580Y-153714285D01*
X272189580Y-153714285D02*
X272094342Y-153761904D01*
X272094342Y-153761904D02*
X271903866Y-153809523D01*
X271903866Y-153809523D02*
X271665771Y-153809523D01*
X271665771Y-153809523D02*
X271475295Y-153761904D01*
X271475295Y-153761904D02*
X271380057Y-153714285D01*
X271380057Y-153714285D02*
X271332438Y-153666666D01*
X271332438Y-153666666D02*
X271284819Y-153571428D01*
X274333333Y-70209580D02*
X274285714Y-70257200D01*
X274285714Y-70257200D02*
X274142857Y-70304819D01*
X274142857Y-70304819D02*
X274047619Y-70304819D01*
X274047619Y-70304819D02*
X273904762Y-70257200D01*
X273904762Y-70257200D02*
X273809524Y-70161961D01*
X273809524Y-70161961D02*
X273761905Y-70066723D01*
X273761905Y-70066723D02*
X273714286Y-69876247D01*
X273714286Y-69876247D02*
X273714286Y-69733390D01*
X273714286Y-69733390D02*
X273761905Y-69542914D01*
X273761905Y-69542914D02*
X273809524Y-69447676D01*
X273809524Y-69447676D02*
X273904762Y-69352438D01*
X273904762Y-69352438D02*
X274047619Y-69304819D01*
X274047619Y-69304819D02*
X274142857Y-69304819D01*
X274142857Y-69304819D02*
X274285714Y-69352438D01*
X274285714Y-69352438D02*
X274333333Y-69400057D01*
X274714286Y-69400057D02*
X274761905Y-69352438D01*
X274761905Y-69352438D02*
X274857143Y-69304819D01*
X274857143Y-69304819D02*
X275095238Y-69304819D01*
X275095238Y-69304819D02*
X275190476Y-69352438D01*
X275190476Y-69352438D02*
X275238095Y-69400057D01*
X275238095Y-69400057D02*
X275285714Y-69495295D01*
X275285714Y-69495295D02*
X275285714Y-69590533D01*
X275285714Y-69590533D02*
X275238095Y-69733390D01*
X275238095Y-69733390D02*
X274666667Y-70304819D01*
X274666667Y-70304819D02*
X275285714Y-70304819D01*
X271261905Y-98384819D02*
X271261905Y-97384819D01*
X271261905Y-97384819D02*
X271500000Y-97384819D01*
X271500000Y-97384819D02*
X271642857Y-97432438D01*
X271642857Y-97432438D02*
X271738095Y-97527676D01*
X271738095Y-97527676D02*
X271785714Y-97622914D01*
X271785714Y-97622914D02*
X271833333Y-97813390D01*
X271833333Y-97813390D02*
X271833333Y-97956247D01*
X271833333Y-97956247D02*
X271785714Y-98146723D01*
X271785714Y-98146723D02*
X271738095Y-98241961D01*
X271738095Y-98241961D02*
X271642857Y-98337200D01*
X271642857Y-98337200D02*
X271500000Y-98384819D01*
X271500000Y-98384819D02*
X271261905Y-98384819D01*
X272214286Y-97480057D02*
X272261905Y-97432438D01*
X272261905Y-97432438D02*
X272357143Y-97384819D01*
X272357143Y-97384819D02*
X272595238Y-97384819D01*
X272595238Y-97384819D02*
X272690476Y-97432438D01*
X272690476Y-97432438D02*
X272738095Y-97480057D01*
X272738095Y-97480057D02*
X272785714Y-97575295D01*
X272785714Y-97575295D02*
X272785714Y-97670533D01*
X272785714Y-97670533D02*
X272738095Y-97813390D01*
X272738095Y-97813390D02*
X272166667Y-98384819D01*
X272166667Y-98384819D02*
X272785714Y-98384819D01*
X267928095Y-98704819D02*
X267928095Y-97704819D01*
X268499523Y-98704819D02*
X268070952Y-98133390D01*
X268499523Y-97704819D02*
X267928095Y-98276247D01*
X271261905Y-94834819D02*
X271261905Y-93834819D01*
X271261905Y-93834819D02*
X271500000Y-93834819D01*
X271500000Y-93834819D02*
X271642857Y-93882438D01*
X271642857Y-93882438D02*
X271738095Y-93977676D01*
X271738095Y-93977676D02*
X271785714Y-94072914D01*
X271785714Y-94072914D02*
X271833333Y-94263390D01*
X271833333Y-94263390D02*
X271833333Y-94406247D01*
X271833333Y-94406247D02*
X271785714Y-94596723D01*
X271785714Y-94596723D02*
X271738095Y-94691961D01*
X271738095Y-94691961D02*
X271642857Y-94787200D01*
X271642857Y-94787200D02*
X271500000Y-94834819D01*
X271500000Y-94834819D02*
X271261905Y-94834819D01*
X272785714Y-94834819D02*
X272214286Y-94834819D01*
X272500000Y-94834819D02*
X272500000Y-93834819D01*
X272500000Y-93834819D02*
X272404762Y-93977676D01*
X272404762Y-93977676D02*
X272309524Y-94072914D01*
X272309524Y-94072914D02*
X272214286Y-94120533D01*
X267928095Y-95154819D02*
X267928095Y-94154819D01*
X268499523Y-95154819D02*
X268070952Y-94583390D01*
X268499523Y-94154819D02*
X267928095Y-94726247D01*
X247877142Y-89304819D02*
X247543809Y-88828628D01*
X247305714Y-89304819D02*
X247305714Y-88304819D01*
X247305714Y-88304819D02*
X247686666Y-88304819D01*
X247686666Y-88304819D02*
X247781904Y-88352438D01*
X247781904Y-88352438D02*
X247829523Y-88400057D01*
X247829523Y-88400057D02*
X247877142Y-88495295D01*
X247877142Y-88495295D02*
X247877142Y-88638152D01*
X247877142Y-88638152D02*
X247829523Y-88733390D01*
X247829523Y-88733390D02*
X247781904Y-88781009D01*
X247781904Y-88781009D02*
X247686666Y-88828628D01*
X247686666Y-88828628D02*
X247305714Y-88828628D01*
X248829523Y-89304819D02*
X248258095Y-89304819D01*
X248543809Y-89304819D02*
X248543809Y-88304819D01*
X248543809Y-88304819D02*
X248448571Y-88447676D01*
X248448571Y-88447676D02*
X248353333Y-88542914D01*
X248353333Y-88542914D02*
X248258095Y-88590533D01*
X249686666Y-88304819D02*
X249496190Y-88304819D01*
X249496190Y-88304819D02*
X249400952Y-88352438D01*
X249400952Y-88352438D02*
X249353333Y-88400057D01*
X249353333Y-88400057D02*
X249258095Y-88542914D01*
X249258095Y-88542914D02*
X249210476Y-88733390D01*
X249210476Y-88733390D02*
X249210476Y-89114342D01*
X249210476Y-89114342D02*
X249258095Y-89209580D01*
X249258095Y-89209580D02*
X249305714Y-89257200D01*
X249305714Y-89257200D02*
X249400952Y-89304819D01*
X249400952Y-89304819D02*
X249591428Y-89304819D01*
X249591428Y-89304819D02*
X249686666Y-89257200D01*
X249686666Y-89257200D02*
X249734285Y-89209580D01*
X249734285Y-89209580D02*
X249781904Y-89114342D01*
X249781904Y-89114342D02*
X249781904Y-88876247D01*
X249781904Y-88876247D02*
X249734285Y-88781009D01*
X249734285Y-88781009D02*
X249686666Y-88733390D01*
X249686666Y-88733390D02*
X249591428Y-88685771D01*
X249591428Y-88685771D02*
X249400952Y-88685771D01*
X249400952Y-88685771D02*
X249305714Y-88733390D01*
X249305714Y-88733390D02*
X249258095Y-88781009D01*
X249258095Y-88781009D02*
X249210476Y-88876247D01*
X276334819Y-155142857D02*
X275858628Y-155476190D01*
X276334819Y-155714285D02*
X275334819Y-155714285D01*
X275334819Y-155714285D02*
X275334819Y-155333333D01*
X275334819Y-155333333D02*
X275382438Y-155238095D01*
X275382438Y-155238095D02*
X275430057Y-155190476D01*
X275430057Y-155190476D02*
X275525295Y-155142857D01*
X275525295Y-155142857D02*
X275668152Y-155142857D01*
X275668152Y-155142857D02*
X275763390Y-155190476D01*
X275763390Y-155190476D02*
X275811009Y-155238095D01*
X275811009Y-155238095D02*
X275858628Y-155333333D01*
X275858628Y-155333333D02*
X275858628Y-155714285D01*
X276334819Y-154190476D02*
X276334819Y-154761904D01*
X276334819Y-154476190D02*
X275334819Y-154476190D01*
X275334819Y-154476190D02*
X275477676Y-154571428D01*
X275477676Y-154571428D02*
X275572914Y-154666666D01*
X275572914Y-154666666D02*
X275620533Y-154761904D01*
X276334819Y-153238095D02*
X276334819Y-153809523D01*
X276334819Y-153523809D02*
X275334819Y-153523809D01*
X275334819Y-153523809D02*
X275477676Y-153619047D01*
X275477676Y-153619047D02*
X275572914Y-153714285D01*
X275572914Y-153714285D02*
X275620533Y-153809523D01*
X156224819Y-141503333D02*
X156939104Y-141503333D01*
X156939104Y-141503333D02*
X157081961Y-141550952D01*
X157081961Y-141550952D02*
X157177200Y-141646190D01*
X157177200Y-141646190D02*
X157224819Y-141789047D01*
X157224819Y-141789047D02*
X157224819Y-141884285D01*
X156320057Y-141074761D02*
X156272438Y-141027142D01*
X156272438Y-141027142D02*
X156224819Y-140931904D01*
X156224819Y-140931904D02*
X156224819Y-140693809D01*
X156224819Y-140693809D02*
X156272438Y-140598571D01*
X156272438Y-140598571D02*
X156320057Y-140550952D01*
X156320057Y-140550952D02*
X156415295Y-140503333D01*
X156415295Y-140503333D02*
X156510533Y-140503333D01*
X156510533Y-140503333D02*
X156653390Y-140550952D01*
X156653390Y-140550952D02*
X157224819Y-141122380D01*
X157224819Y-141122380D02*
X157224819Y-140503333D01*
X223649819Y-71968094D02*
X222649819Y-71968094D01*
X222649819Y-71968094D02*
X222649819Y-71729999D01*
X222649819Y-71729999D02*
X222697438Y-71587142D01*
X222697438Y-71587142D02*
X222792676Y-71491904D01*
X222792676Y-71491904D02*
X222887914Y-71444285D01*
X222887914Y-71444285D02*
X223078390Y-71396666D01*
X223078390Y-71396666D02*
X223221247Y-71396666D01*
X223221247Y-71396666D02*
X223411723Y-71444285D01*
X223411723Y-71444285D02*
X223506961Y-71491904D01*
X223506961Y-71491904D02*
X223602200Y-71587142D01*
X223602200Y-71587142D02*
X223649819Y-71729999D01*
X223649819Y-71729999D02*
X223649819Y-71968094D01*
X222983152Y-70539523D02*
X223649819Y-70539523D01*
X222602200Y-70777618D02*
X223316485Y-71015713D01*
X223316485Y-71015713D02*
X223316485Y-70396666D01*
X252034819Y-154666666D02*
X251558628Y-154999999D01*
X252034819Y-155238094D02*
X251034819Y-155238094D01*
X251034819Y-155238094D02*
X251034819Y-154857142D01*
X251034819Y-154857142D02*
X251082438Y-154761904D01*
X251082438Y-154761904D02*
X251130057Y-154714285D01*
X251130057Y-154714285D02*
X251225295Y-154666666D01*
X251225295Y-154666666D02*
X251368152Y-154666666D01*
X251368152Y-154666666D02*
X251463390Y-154714285D01*
X251463390Y-154714285D02*
X251511009Y-154761904D01*
X251511009Y-154761904D02*
X251558628Y-154857142D01*
X251558628Y-154857142D02*
X251558628Y-155238094D01*
X251034819Y-153761904D02*
X251034819Y-154238094D01*
X251034819Y-154238094D02*
X251511009Y-154285713D01*
X251511009Y-154285713D02*
X251463390Y-154238094D01*
X251463390Y-154238094D02*
X251415771Y-154142856D01*
X251415771Y-154142856D02*
X251415771Y-153904761D01*
X251415771Y-153904761D02*
X251463390Y-153809523D01*
X251463390Y-153809523D02*
X251511009Y-153761904D01*
X251511009Y-153761904D02*
X251606247Y-153714285D01*
X251606247Y-153714285D02*
X251844342Y-153714285D01*
X251844342Y-153714285D02*
X251939580Y-153761904D01*
X251939580Y-153761904D02*
X251987200Y-153809523D01*
X251987200Y-153809523D02*
X252034819Y-153904761D01*
X252034819Y-153904761D02*
X252034819Y-154142856D01*
X252034819Y-154142856D02*
X251987200Y-154238094D01*
X251987200Y-154238094D02*
X251939580Y-154285713D01*
X229414819Y-71968094D02*
X228414819Y-71968094D01*
X228414819Y-71968094D02*
X228414819Y-71729999D01*
X228414819Y-71729999D02*
X228462438Y-71587142D01*
X228462438Y-71587142D02*
X228557676Y-71491904D01*
X228557676Y-71491904D02*
X228652914Y-71444285D01*
X228652914Y-71444285D02*
X228843390Y-71396666D01*
X228843390Y-71396666D02*
X228986247Y-71396666D01*
X228986247Y-71396666D02*
X229176723Y-71444285D01*
X229176723Y-71444285D02*
X229271961Y-71491904D01*
X229271961Y-71491904D02*
X229367200Y-71587142D01*
X229367200Y-71587142D02*
X229414819Y-71729999D01*
X229414819Y-71729999D02*
X229414819Y-71968094D01*
X228414819Y-71063332D02*
X228414819Y-70444285D01*
X228414819Y-70444285D02*
X228795771Y-70777618D01*
X228795771Y-70777618D02*
X228795771Y-70634761D01*
X228795771Y-70634761D02*
X228843390Y-70539523D01*
X228843390Y-70539523D02*
X228891009Y-70491904D01*
X228891009Y-70491904D02*
X228986247Y-70444285D01*
X228986247Y-70444285D02*
X229224342Y-70444285D01*
X229224342Y-70444285D02*
X229319580Y-70491904D01*
X229319580Y-70491904D02*
X229367200Y-70539523D01*
X229367200Y-70539523D02*
X229414819Y-70634761D01*
X229414819Y-70634761D02*
X229414819Y-70920475D01*
X229414819Y-70920475D02*
X229367200Y-71015713D01*
X229367200Y-71015713D02*
X229319580Y-71063332D01*
X152380952Y-75417438D02*
X152380952Y-73417438D01*
X152380952Y-73417438D02*
X152714285Y-74846009D01*
X152714285Y-74846009D02*
X153047618Y-73417438D01*
X153047618Y-73417438D02*
X153047618Y-75417438D01*
X153523809Y-75417438D02*
X153523809Y-74084104D01*
X153523809Y-73417438D02*
X153476190Y-73512676D01*
X153476190Y-73512676D02*
X153523809Y-73607914D01*
X153523809Y-73607914D02*
X153571428Y-73512676D01*
X153571428Y-73512676D02*
X153523809Y-73417438D01*
X153523809Y-73417438D02*
X153523809Y-73607914D01*
X153999999Y-75417438D02*
X153999999Y-73417438D01*
X154095237Y-74655533D02*
X154380951Y-75417438D01*
X154380951Y-74084104D02*
X153999999Y-74846009D01*
X154809523Y-75417438D02*
X154809523Y-74084104D01*
X154809523Y-74465057D02*
X154857142Y-74274580D01*
X154857142Y-74274580D02*
X154904761Y-74179342D01*
X154904761Y-74179342D02*
X154999999Y-74084104D01*
X154999999Y-74084104D02*
X155095237Y-74084104D01*
X155571428Y-75417438D02*
X155476190Y-75322200D01*
X155476190Y-75322200D02*
X155428571Y-75226961D01*
X155428571Y-75226961D02*
X155380952Y-75036485D01*
X155380952Y-75036485D02*
X155380952Y-74465057D01*
X155380952Y-74465057D02*
X155428571Y-74274580D01*
X155428571Y-74274580D02*
X155476190Y-74179342D01*
X155476190Y-74179342D02*
X155571428Y-74084104D01*
X155571428Y-74084104D02*
X155714285Y-74084104D01*
X155714285Y-74084104D02*
X155809523Y-74179342D01*
X155809523Y-74179342D02*
X155857142Y-74274580D01*
X155857142Y-74274580D02*
X155904761Y-74465057D01*
X155904761Y-74465057D02*
X155904761Y-75036485D01*
X155904761Y-75036485D02*
X155857142Y-75226961D01*
X155857142Y-75226961D02*
X155809523Y-75322200D01*
X155809523Y-75322200D02*
X155714285Y-75417438D01*
X155714285Y-75417438D02*
X155571428Y-75417438D01*
X156333333Y-74369819D02*
X156666666Y-74369819D01*
X156809523Y-75417438D02*
X156333333Y-75417438D01*
X156333333Y-75417438D02*
X156333333Y-73417438D01*
X156333333Y-73417438D02*
X156809523Y-73417438D01*
X157238095Y-74655533D02*
X158000000Y-74655533D01*
X158476190Y-74084104D02*
X158476190Y-75417438D01*
X158476190Y-74274580D02*
X158523809Y-74179342D01*
X158523809Y-74179342D02*
X158619047Y-74084104D01*
X158619047Y-74084104D02*
X158761904Y-74084104D01*
X158761904Y-74084104D02*
X158857142Y-74179342D01*
X158857142Y-74179342D02*
X158904761Y-74369819D01*
X158904761Y-74369819D02*
X158904761Y-75417438D01*
X159952380Y-75417438D02*
X159619047Y-74465057D01*
X159380952Y-75417438D02*
X159380952Y-73417438D01*
X159380952Y-73417438D02*
X159761904Y-73417438D01*
X159761904Y-73417438D02*
X159857142Y-73512676D01*
X159857142Y-73512676D02*
X159904761Y-73607914D01*
X159904761Y-73607914D02*
X159952380Y-73798390D01*
X159952380Y-73798390D02*
X159952380Y-74084104D01*
X159952380Y-74084104D02*
X159904761Y-74274580D01*
X159904761Y-74274580D02*
X159857142Y-74369819D01*
X159857142Y-74369819D02*
X159761904Y-74465057D01*
X159761904Y-74465057D02*
X159380952Y-74465057D01*
X160714285Y-74369819D02*
X160380952Y-74369819D01*
X160380952Y-75417438D02*
X160380952Y-73417438D01*
X160380952Y-73417438D02*
X160857142Y-73417438D01*
X161238095Y-74655533D02*
X162000000Y-74655533D01*
X162428571Y-75322200D02*
X162571428Y-75417438D01*
X162571428Y-75417438D02*
X162809523Y-75417438D01*
X162809523Y-75417438D02*
X162904761Y-75322200D01*
X162904761Y-75322200D02*
X162952380Y-75226961D01*
X162952380Y-75226961D02*
X162999999Y-75036485D01*
X162999999Y-75036485D02*
X162999999Y-74846009D01*
X162999999Y-74846009D02*
X162952380Y-74655533D01*
X162952380Y-74655533D02*
X162904761Y-74560295D01*
X162904761Y-74560295D02*
X162809523Y-74465057D01*
X162809523Y-74465057D02*
X162619047Y-74369819D01*
X162619047Y-74369819D02*
X162523809Y-74274580D01*
X162523809Y-74274580D02*
X162476190Y-74179342D01*
X162476190Y-74179342D02*
X162428571Y-73988866D01*
X162428571Y-73988866D02*
X162428571Y-73798390D01*
X162428571Y-73798390D02*
X162476190Y-73607914D01*
X162476190Y-73607914D02*
X162523809Y-73512676D01*
X162523809Y-73512676D02*
X162619047Y-73417438D01*
X162619047Y-73417438D02*
X162857142Y-73417438D01*
X162857142Y-73417438D02*
X162999999Y-73512676D01*
X163428571Y-74655533D02*
X164190476Y-74655533D01*
X164666666Y-75417438D02*
X164666666Y-74084104D01*
X164666666Y-74274580D02*
X164714285Y-74179342D01*
X164714285Y-74179342D02*
X164809523Y-74084104D01*
X164809523Y-74084104D02*
X164952380Y-74084104D01*
X164952380Y-74084104D02*
X165047618Y-74179342D01*
X165047618Y-74179342D02*
X165095237Y-74369819D01*
X165095237Y-74369819D02*
X165095237Y-75417438D01*
X165095237Y-74369819D02*
X165142856Y-74179342D01*
X165142856Y-74179342D02*
X165238094Y-74084104D01*
X165238094Y-74084104D02*
X165380951Y-74084104D01*
X165380951Y-74084104D02*
X165476190Y-74179342D01*
X165476190Y-74179342D02*
X165523809Y-74369819D01*
X165523809Y-74369819D02*
X165523809Y-75417438D01*
X166142856Y-75417438D02*
X166047618Y-75322200D01*
X166047618Y-75322200D02*
X165999999Y-75226961D01*
X165999999Y-75226961D02*
X165952380Y-75036485D01*
X165952380Y-75036485D02*
X165952380Y-74465057D01*
X165952380Y-74465057D02*
X165999999Y-74274580D01*
X165999999Y-74274580D02*
X166047618Y-74179342D01*
X166047618Y-74179342D02*
X166142856Y-74084104D01*
X166142856Y-74084104D02*
X166285713Y-74084104D01*
X166285713Y-74084104D02*
X166380951Y-74179342D01*
X166380951Y-74179342D02*
X166428570Y-74274580D01*
X166428570Y-74274580D02*
X166476189Y-74465057D01*
X166476189Y-74465057D02*
X166476189Y-75036485D01*
X166476189Y-75036485D02*
X166428570Y-75226961D01*
X166428570Y-75226961D02*
X166380951Y-75322200D01*
X166380951Y-75322200D02*
X166285713Y-75417438D01*
X166285713Y-75417438D02*
X166142856Y-75417438D01*
X167333332Y-75417438D02*
X167333332Y-73417438D01*
X167333332Y-75322200D02*
X167238094Y-75417438D01*
X167238094Y-75417438D02*
X167047618Y-75417438D01*
X167047618Y-75417438D02*
X166952380Y-75322200D01*
X166952380Y-75322200D02*
X166904761Y-75226961D01*
X166904761Y-75226961D02*
X166857142Y-75036485D01*
X166857142Y-75036485D02*
X166857142Y-74465057D01*
X166857142Y-74465057D02*
X166904761Y-74274580D01*
X166904761Y-74274580D02*
X166952380Y-74179342D01*
X166952380Y-74179342D02*
X167047618Y-74084104D01*
X167047618Y-74084104D02*
X167238094Y-74084104D01*
X167238094Y-74084104D02*
X167333332Y-74179342D01*
X168238094Y-74084104D02*
X168238094Y-75417438D01*
X167809523Y-74084104D02*
X167809523Y-75131723D01*
X167809523Y-75131723D02*
X167857142Y-75322200D01*
X167857142Y-75322200D02*
X167952380Y-75417438D01*
X167952380Y-75417438D02*
X168095237Y-75417438D01*
X168095237Y-75417438D02*
X168190475Y-75322200D01*
X168190475Y-75322200D02*
X168238094Y-75226961D01*
X168857142Y-75417438D02*
X168761904Y-75322200D01*
X168761904Y-75322200D02*
X168714285Y-75131723D01*
X168714285Y-75131723D02*
X168714285Y-73417438D01*
X169619047Y-75322200D02*
X169523809Y-75417438D01*
X169523809Y-75417438D02*
X169333333Y-75417438D01*
X169333333Y-75417438D02*
X169238095Y-75322200D01*
X169238095Y-75322200D02*
X169190476Y-75131723D01*
X169190476Y-75131723D02*
X169190476Y-74369819D01*
X169190476Y-74369819D02*
X169238095Y-74179342D01*
X169238095Y-74179342D02*
X169333333Y-74084104D01*
X169333333Y-74084104D02*
X169523809Y-74084104D01*
X169523809Y-74084104D02*
X169619047Y-74179342D01*
X169619047Y-74179342D02*
X169666666Y-74369819D01*
X169666666Y-74369819D02*
X169666666Y-74560295D01*
X169666666Y-74560295D02*
X169190476Y-74750771D01*
D12*
X172911566Y-88644404D02*
X172911566Y-87882500D01*
X173292519Y-88263452D02*
X172530614Y-88263452D01*
X172292519Y-87501547D02*
X172292519Y-86882500D01*
X172292519Y-86882500D02*
X172673471Y-87215833D01*
X172673471Y-87215833D02*
X172673471Y-87072976D01*
X172673471Y-87072976D02*
X172721090Y-86977738D01*
X172721090Y-86977738D02*
X172768709Y-86930119D01*
X172768709Y-86930119D02*
X172863947Y-86882500D01*
X172863947Y-86882500D02*
X173102042Y-86882500D01*
X173102042Y-86882500D02*
X173197280Y-86930119D01*
X173197280Y-86930119D02*
X173244900Y-86977738D01*
X173244900Y-86977738D02*
X173292519Y-87072976D01*
X173292519Y-87072976D02*
X173292519Y-87358690D01*
X173292519Y-87358690D02*
X173244900Y-87453928D01*
X173244900Y-87453928D02*
X173197280Y-87501547D01*
X172292519Y-86596785D02*
X173292519Y-86263452D01*
X173292519Y-86263452D02*
X172292519Y-85930119D01*
X172292519Y-85692023D02*
X172292519Y-85072976D01*
X172292519Y-85072976D02*
X172673471Y-85406309D01*
X172673471Y-85406309D02*
X172673471Y-85263452D01*
X172673471Y-85263452D02*
X172721090Y-85168214D01*
X172721090Y-85168214D02*
X172768709Y-85120595D01*
X172768709Y-85120595D02*
X172863947Y-85072976D01*
X172863947Y-85072976D02*
X173102042Y-85072976D01*
X173102042Y-85072976D02*
X173197280Y-85120595D01*
X173197280Y-85120595D02*
X173244900Y-85168214D01*
X173244900Y-85168214D02*
X173292519Y-85263452D01*
X173292519Y-85263452D02*
X173292519Y-85549166D01*
X173292519Y-85549166D02*
X173244900Y-85644404D01*
X173244900Y-85644404D02*
X173197280Y-85692023D01*
X165624900Y-88692023D02*
X165672519Y-88549166D01*
X165672519Y-88549166D02*
X165672519Y-88311071D01*
X165672519Y-88311071D02*
X165624900Y-88215833D01*
X165624900Y-88215833D02*
X165577280Y-88168214D01*
X165577280Y-88168214D02*
X165482042Y-88120595D01*
X165482042Y-88120595D02*
X165386804Y-88120595D01*
X165386804Y-88120595D02*
X165291566Y-88168214D01*
X165291566Y-88168214D02*
X165243947Y-88215833D01*
X165243947Y-88215833D02*
X165196328Y-88311071D01*
X165196328Y-88311071D02*
X165148709Y-88501547D01*
X165148709Y-88501547D02*
X165101090Y-88596785D01*
X165101090Y-88596785D02*
X165053471Y-88644404D01*
X165053471Y-88644404D02*
X164958233Y-88692023D01*
X164958233Y-88692023D02*
X164862995Y-88692023D01*
X164862995Y-88692023D02*
X164767757Y-88644404D01*
X164767757Y-88644404D02*
X164720138Y-88596785D01*
X164720138Y-88596785D02*
X164672519Y-88501547D01*
X164672519Y-88501547D02*
X164672519Y-88263452D01*
X164672519Y-88263452D02*
X164720138Y-88120595D01*
X165577280Y-87120595D02*
X165624900Y-87168214D01*
X165624900Y-87168214D02*
X165672519Y-87311071D01*
X165672519Y-87311071D02*
X165672519Y-87406309D01*
X165672519Y-87406309D02*
X165624900Y-87549166D01*
X165624900Y-87549166D02*
X165529661Y-87644404D01*
X165529661Y-87644404D02*
X165434423Y-87692023D01*
X165434423Y-87692023D02*
X165243947Y-87739642D01*
X165243947Y-87739642D02*
X165101090Y-87739642D01*
X165101090Y-87739642D02*
X164910614Y-87692023D01*
X164910614Y-87692023D02*
X164815376Y-87644404D01*
X164815376Y-87644404D02*
X164720138Y-87549166D01*
X164720138Y-87549166D02*
X164672519Y-87406309D01*
X164672519Y-87406309D02*
X164672519Y-87311071D01*
X164672519Y-87311071D02*
X164720138Y-87168214D01*
X164720138Y-87168214D02*
X164767757Y-87120595D01*
X165672519Y-86692023D02*
X164672519Y-86692023D01*
X165672519Y-86120595D02*
X165101090Y-86549166D01*
X164672519Y-86120595D02*
X165243947Y-86692023D01*
X157217519Y-82555832D02*
X156550852Y-82555832D01*
X156646090Y-82555832D02*
X156598471Y-82508213D01*
X156598471Y-82508213D02*
X156550852Y-82412975D01*
X156550852Y-82412975D02*
X156550852Y-82270118D01*
X156550852Y-82270118D02*
X156598471Y-82174880D01*
X156598471Y-82174880D02*
X156693709Y-82127261D01*
X156693709Y-82127261D02*
X157217519Y-82127261D01*
X156693709Y-82127261D02*
X156598471Y-82079642D01*
X156598471Y-82079642D02*
X156550852Y-81984404D01*
X156550852Y-81984404D02*
X156550852Y-81841547D01*
X156550852Y-81841547D02*
X156598471Y-81746308D01*
X156598471Y-81746308D02*
X156693709Y-81698689D01*
X156693709Y-81698689D02*
X157217519Y-81698689D01*
X157217519Y-81222499D02*
X156550852Y-81222499D01*
X156217519Y-81222499D02*
X156265138Y-81270118D01*
X156265138Y-81270118D02*
X156312757Y-81222499D01*
X156312757Y-81222499D02*
X156265138Y-81174880D01*
X156265138Y-81174880D02*
X156217519Y-81222499D01*
X156217519Y-81222499D02*
X156312757Y-81222499D01*
X157217519Y-80746309D02*
X156217519Y-80746309D01*
X156836566Y-80651071D02*
X157217519Y-80365357D01*
X156550852Y-80365357D02*
X156931804Y-80746309D01*
X157217519Y-79936785D02*
X156550852Y-79936785D01*
X156741328Y-79936785D02*
X156646090Y-79889166D01*
X156646090Y-79889166D02*
X156598471Y-79841547D01*
X156598471Y-79841547D02*
X156550852Y-79746309D01*
X156550852Y-79746309D02*
X156550852Y-79651071D01*
X157217519Y-79174880D02*
X157169900Y-79270118D01*
X157169900Y-79270118D02*
X157122280Y-79317737D01*
X157122280Y-79317737D02*
X157027042Y-79365356D01*
X157027042Y-79365356D02*
X156741328Y-79365356D01*
X156741328Y-79365356D02*
X156646090Y-79317737D01*
X156646090Y-79317737D02*
X156598471Y-79270118D01*
X156598471Y-79270118D02*
X156550852Y-79174880D01*
X156550852Y-79174880D02*
X156550852Y-79032023D01*
X156550852Y-79032023D02*
X156598471Y-78936785D01*
X156598471Y-78936785D02*
X156646090Y-78889166D01*
X156646090Y-78889166D02*
X156741328Y-78841547D01*
X156741328Y-78841547D02*
X157027042Y-78841547D01*
X157027042Y-78841547D02*
X157122280Y-78889166D01*
X157122280Y-78889166D02*
X157169900Y-78936785D01*
X157169900Y-78936785D02*
X157217519Y-79032023D01*
X157217519Y-79032023D02*
X157217519Y-79174880D01*
X156693709Y-78079642D02*
X156741328Y-77936785D01*
X156741328Y-77936785D02*
X156788947Y-77889166D01*
X156788947Y-77889166D02*
X156884185Y-77841547D01*
X156884185Y-77841547D02*
X157027042Y-77841547D01*
X157027042Y-77841547D02*
X157122280Y-77889166D01*
X157122280Y-77889166D02*
X157169900Y-77936785D01*
X157169900Y-77936785D02*
X157217519Y-78032023D01*
X157217519Y-78032023D02*
X157217519Y-78412975D01*
X157217519Y-78412975D02*
X156217519Y-78412975D01*
X156217519Y-78412975D02*
X156217519Y-78079642D01*
X156217519Y-78079642D02*
X156265138Y-77984404D01*
X156265138Y-77984404D02*
X156312757Y-77936785D01*
X156312757Y-77936785D02*
X156407995Y-77889166D01*
X156407995Y-77889166D02*
X156503233Y-77889166D01*
X156503233Y-77889166D02*
X156598471Y-77936785D01*
X156598471Y-77936785D02*
X156646090Y-77984404D01*
X156646090Y-77984404D02*
X156693709Y-78079642D01*
X156693709Y-78079642D02*
X156693709Y-78412975D01*
X156217519Y-77412975D02*
X157027042Y-77412975D01*
X157027042Y-77412975D02*
X157122280Y-77365356D01*
X157122280Y-77365356D02*
X157169900Y-77317737D01*
X157169900Y-77317737D02*
X157217519Y-77222499D01*
X157217519Y-77222499D02*
X157217519Y-77032023D01*
X157217519Y-77032023D02*
X157169900Y-76936785D01*
X157169900Y-76936785D02*
X157122280Y-76889166D01*
X157122280Y-76889166D02*
X157027042Y-76841547D01*
X157027042Y-76841547D02*
X156217519Y-76841547D01*
X157169900Y-76412975D02*
X157217519Y-76270118D01*
X157217519Y-76270118D02*
X157217519Y-76032023D01*
X157217519Y-76032023D02*
X157169900Y-75936785D01*
X157169900Y-75936785D02*
X157122280Y-75889166D01*
X157122280Y-75889166D02*
X157027042Y-75841547D01*
X157027042Y-75841547D02*
X156931804Y-75841547D01*
X156931804Y-75841547D02*
X156836566Y-75889166D01*
X156836566Y-75889166D02*
X156788947Y-75936785D01*
X156788947Y-75936785D02*
X156741328Y-76032023D01*
X156741328Y-76032023D02*
X156693709Y-76222499D01*
X156693709Y-76222499D02*
X156646090Y-76317737D01*
X156646090Y-76317737D02*
X156598471Y-76365356D01*
X156598471Y-76365356D02*
X156503233Y-76412975D01*
X156503233Y-76412975D02*
X156407995Y-76412975D01*
X156407995Y-76412975D02*
X156312757Y-76365356D01*
X156312757Y-76365356D02*
X156265138Y-76317737D01*
X156265138Y-76317737D02*
X156217519Y-76222499D01*
X156217519Y-76222499D02*
X156217519Y-75984404D01*
X156217519Y-75984404D02*
X156265138Y-75841547D01*
X155939900Y-78551071D02*
X155939900Y-75751071D01*
X157766804Y-88692023D02*
X157766804Y-88215833D01*
X158052519Y-88787261D02*
X157052519Y-88453928D01*
X157052519Y-88453928D02*
X158052519Y-88120595D01*
X158052519Y-87787261D02*
X157052519Y-87787261D01*
X157052519Y-87787261D02*
X158052519Y-87215833D01*
X158052519Y-87215833D02*
X157052519Y-87215833D01*
X168164900Y-71853537D02*
X168212519Y-71710680D01*
X168212519Y-71710680D02*
X168212519Y-71472585D01*
X168212519Y-71472585D02*
X168164900Y-71377347D01*
X168164900Y-71377347D02*
X168117280Y-71329728D01*
X168117280Y-71329728D02*
X168022042Y-71282109D01*
X168022042Y-71282109D02*
X167926804Y-71282109D01*
X167926804Y-71282109D02*
X167831566Y-71329728D01*
X167831566Y-71329728D02*
X167783947Y-71377347D01*
X167783947Y-71377347D02*
X167736328Y-71472585D01*
X167736328Y-71472585D02*
X167688709Y-71663061D01*
X167688709Y-71663061D02*
X167641090Y-71758299D01*
X167641090Y-71758299D02*
X167593471Y-71805918D01*
X167593471Y-71805918D02*
X167498233Y-71853537D01*
X167498233Y-71853537D02*
X167402995Y-71853537D01*
X167402995Y-71853537D02*
X167307757Y-71805918D01*
X167307757Y-71805918D02*
X167260138Y-71758299D01*
X167260138Y-71758299D02*
X167212519Y-71663061D01*
X167212519Y-71663061D02*
X167212519Y-71424966D01*
X167212519Y-71424966D02*
X167260138Y-71282109D01*
X168117280Y-70282109D02*
X168164900Y-70329728D01*
X168164900Y-70329728D02*
X168212519Y-70472585D01*
X168212519Y-70472585D02*
X168212519Y-70567823D01*
X168212519Y-70567823D02*
X168164900Y-70710680D01*
X168164900Y-70710680D02*
X168069661Y-70805918D01*
X168069661Y-70805918D02*
X167974423Y-70853537D01*
X167974423Y-70853537D02*
X167783947Y-70901156D01*
X167783947Y-70901156D02*
X167641090Y-70901156D01*
X167641090Y-70901156D02*
X167450614Y-70853537D01*
X167450614Y-70853537D02*
X167355376Y-70805918D01*
X167355376Y-70805918D02*
X167260138Y-70710680D01*
X167260138Y-70710680D02*
X167212519Y-70567823D01*
X167212519Y-70567823D02*
X167212519Y-70472585D01*
X167212519Y-70472585D02*
X167260138Y-70329728D01*
X167260138Y-70329728D02*
X167307757Y-70282109D01*
X168212519Y-69377347D02*
X168212519Y-69853537D01*
X168212519Y-69853537D02*
X167212519Y-69853537D01*
X172911566Y-72091632D02*
X172911566Y-71329728D01*
X173292519Y-71710680D02*
X172530614Y-71710680D01*
X172292519Y-70377347D02*
X172292519Y-70853537D01*
X172292519Y-70853537D02*
X172768709Y-70901156D01*
X172768709Y-70901156D02*
X172721090Y-70853537D01*
X172721090Y-70853537D02*
X172673471Y-70758299D01*
X172673471Y-70758299D02*
X172673471Y-70520204D01*
X172673471Y-70520204D02*
X172721090Y-70424966D01*
X172721090Y-70424966D02*
X172768709Y-70377347D01*
X172768709Y-70377347D02*
X172863947Y-70329728D01*
X172863947Y-70329728D02*
X173102042Y-70329728D01*
X173102042Y-70329728D02*
X173197280Y-70377347D01*
X173197280Y-70377347D02*
X173244900Y-70424966D01*
X173244900Y-70424966D02*
X173292519Y-70520204D01*
X173292519Y-70520204D02*
X173292519Y-70758299D01*
X173292519Y-70758299D02*
X173244900Y-70853537D01*
X173244900Y-70853537D02*
X173197280Y-70901156D01*
X172292519Y-70044013D02*
X173292519Y-69710680D01*
X173292519Y-69710680D02*
X172292519Y-69377347D01*
X174880138Y-88120595D02*
X174832519Y-88215833D01*
X174832519Y-88215833D02*
X174832519Y-88358690D01*
X174832519Y-88358690D02*
X174880138Y-88501547D01*
X174880138Y-88501547D02*
X174975376Y-88596785D01*
X174975376Y-88596785D02*
X175070614Y-88644404D01*
X175070614Y-88644404D02*
X175261090Y-88692023D01*
X175261090Y-88692023D02*
X175403947Y-88692023D01*
X175403947Y-88692023D02*
X175594423Y-88644404D01*
X175594423Y-88644404D02*
X175689661Y-88596785D01*
X175689661Y-88596785D02*
X175784900Y-88501547D01*
X175784900Y-88501547D02*
X175832519Y-88358690D01*
X175832519Y-88358690D02*
X175832519Y-88263452D01*
X175832519Y-88263452D02*
X175784900Y-88120595D01*
X175784900Y-88120595D02*
X175737280Y-88072976D01*
X175737280Y-88072976D02*
X175403947Y-88072976D01*
X175403947Y-88072976D02*
X175403947Y-88263452D01*
X175832519Y-87644404D02*
X174832519Y-87644404D01*
X174832519Y-87644404D02*
X175832519Y-87072976D01*
X175832519Y-87072976D02*
X174832519Y-87072976D01*
X175832519Y-86596785D02*
X174832519Y-86596785D01*
X174832519Y-86596785D02*
X174832519Y-86358690D01*
X174832519Y-86358690D02*
X174880138Y-86215833D01*
X174880138Y-86215833D02*
X174975376Y-86120595D01*
X174975376Y-86120595D02*
X175070614Y-86072976D01*
X175070614Y-86072976D02*
X175261090Y-86025357D01*
X175261090Y-86025357D02*
X175403947Y-86025357D01*
X175403947Y-86025357D02*
X175594423Y-86072976D01*
X175594423Y-86072976D02*
X175689661Y-86120595D01*
X175689661Y-86120595D02*
X175784900Y-86215833D01*
X175784900Y-86215833D02*
X175832519Y-86358690D01*
X175832519Y-86358690D02*
X175832519Y-86596785D01*
X170752519Y-88644403D02*
X169752519Y-88644403D01*
X169752519Y-88644403D02*
X170466804Y-88311070D01*
X170466804Y-88311070D02*
X169752519Y-87977737D01*
X169752519Y-87977737D02*
X170752519Y-87977737D01*
X169752519Y-87311070D02*
X169752519Y-87120594D01*
X169752519Y-87120594D02*
X169800138Y-87025356D01*
X169800138Y-87025356D02*
X169895376Y-86930118D01*
X169895376Y-86930118D02*
X170085852Y-86882499D01*
X170085852Y-86882499D02*
X170419185Y-86882499D01*
X170419185Y-86882499D02*
X170609661Y-86930118D01*
X170609661Y-86930118D02*
X170704900Y-87025356D01*
X170704900Y-87025356D02*
X170752519Y-87120594D01*
X170752519Y-87120594D02*
X170752519Y-87311070D01*
X170752519Y-87311070D02*
X170704900Y-87406308D01*
X170704900Y-87406308D02*
X170609661Y-87501546D01*
X170609661Y-87501546D02*
X170419185Y-87549165D01*
X170419185Y-87549165D02*
X170085852Y-87549165D01*
X170085852Y-87549165D02*
X169895376Y-87501546D01*
X169895376Y-87501546D02*
X169800138Y-87406308D01*
X169800138Y-87406308D02*
X169752519Y-87311070D01*
X170704900Y-86501546D02*
X170752519Y-86358689D01*
X170752519Y-86358689D02*
X170752519Y-86120594D01*
X170752519Y-86120594D02*
X170704900Y-86025356D01*
X170704900Y-86025356D02*
X170657280Y-85977737D01*
X170657280Y-85977737D02*
X170562042Y-85930118D01*
X170562042Y-85930118D02*
X170466804Y-85930118D01*
X170466804Y-85930118D02*
X170371566Y-85977737D01*
X170371566Y-85977737D02*
X170323947Y-86025356D01*
X170323947Y-86025356D02*
X170276328Y-86120594D01*
X170276328Y-86120594D02*
X170228709Y-86311070D01*
X170228709Y-86311070D02*
X170181090Y-86406308D01*
X170181090Y-86406308D02*
X170133471Y-86453927D01*
X170133471Y-86453927D02*
X170038233Y-86501546D01*
X170038233Y-86501546D02*
X169942995Y-86501546D01*
X169942995Y-86501546D02*
X169847757Y-86453927D01*
X169847757Y-86453927D02*
X169800138Y-86406308D01*
X169800138Y-86406308D02*
X169752519Y-86311070D01*
X169752519Y-86311070D02*
X169752519Y-86072975D01*
X169752519Y-86072975D02*
X169800138Y-85930118D01*
X170752519Y-85501546D02*
X169752519Y-85501546D01*
X160592519Y-88072976D02*
X160116328Y-88406309D01*
X160592519Y-88644404D02*
X159592519Y-88644404D01*
X159592519Y-88644404D02*
X159592519Y-88263452D01*
X159592519Y-88263452D02*
X159640138Y-88168214D01*
X159640138Y-88168214D02*
X159687757Y-88120595D01*
X159687757Y-88120595D02*
X159782995Y-88072976D01*
X159782995Y-88072976D02*
X159925852Y-88072976D01*
X159925852Y-88072976D02*
X160021090Y-88120595D01*
X160021090Y-88120595D02*
X160068709Y-88168214D01*
X160068709Y-88168214D02*
X160116328Y-88263452D01*
X160116328Y-88263452D02*
X160116328Y-88644404D01*
X160544900Y-87692023D02*
X160592519Y-87549166D01*
X160592519Y-87549166D02*
X160592519Y-87311071D01*
X160592519Y-87311071D02*
X160544900Y-87215833D01*
X160544900Y-87215833D02*
X160497280Y-87168214D01*
X160497280Y-87168214D02*
X160402042Y-87120595D01*
X160402042Y-87120595D02*
X160306804Y-87120595D01*
X160306804Y-87120595D02*
X160211566Y-87168214D01*
X160211566Y-87168214D02*
X160163947Y-87215833D01*
X160163947Y-87215833D02*
X160116328Y-87311071D01*
X160116328Y-87311071D02*
X160068709Y-87501547D01*
X160068709Y-87501547D02*
X160021090Y-87596785D01*
X160021090Y-87596785D02*
X159973471Y-87644404D01*
X159973471Y-87644404D02*
X159878233Y-87692023D01*
X159878233Y-87692023D02*
X159782995Y-87692023D01*
X159782995Y-87692023D02*
X159687757Y-87644404D01*
X159687757Y-87644404D02*
X159640138Y-87596785D01*
X159640138Y-87596785D02*
X159592519Y-87501547D01*
X159592519Y-87501547D02*
X159592519Y-87263452D01*
X159592519Y-87263452D02*
X159640138Y-87120595D01*
X159592519Y-86834880D02*
X159592519Y-86263452D01*
X160592519Y-86549166D02*
X159592519Y-86549166D01*
X163037280Y-88072976D02*
X163084900Y-88120595D01*
X163084900Y-88120595D02*
X163132519Y-88263452D01*
X163132519Y-88263452D02*
X163132519Y-88358690D01*
X163132519Y-88358690D02*
X163084900Y-88501547D01*
X163084900Y-88501547D02*
X162989661Y-88596785D01*
X162989661Y-88596785D02*
X162894423Y-88644404D01*
X162894423Y-88644404D02*
X162703947Y-88692023D01*
X162703947Y-88692023D02*
X162561090Y-88692023D01*
X162561090Y-88692023D02*
X162370614Y-88644404D01*
X162370614Y-88644404D02*
X162275376Y-88596785D01*
X162275376Y-88596785D02*
X162180138Y-88501547D01*
X162180138Y-88501547D02*
X162132519Y-88358690D01*
X162132519Y-88358690D02*
X162132519Y-88263452D01*
X162132519Y-88263452D02*
X162180138Y-88120595D01*
X162180138Y-88120595D02*
X162227757Y-88072976D01*
X163084900Y-87692023D02*
X163132519Y-87549166D01*
X163132519Y-87549166D02*
X163132519Y-87311071D01*
X163132519Y-87311071D02*
X163084900Y-87215833D01*
X163084900Y-87215833D02*
X163037280Y-87168214D01*
X163037280Y-87168214D02*
X162942042Y-87120595D01*
X162942042Y-87120595D02*
X162846804Y-87120595D01*
X162846804Y-87120595D02*
X162751566Y-87168214D01*
X162751566Y-87168214D02*
X162703947Y-87215833D01*
X162703947Y-87215833D02*
X162656328Y-87311071D01*
X162656328Y-87311071D02*
X162608709Y-87501547D01*
X162608709Y-87501547D02*
X162561090Y-87596785D01*
X162561090Y-87596785D02*
X162513471Y-87644404D01*
X162513471Y-87644404D02*
X162418233Y-87692023D01*
X162418233Y-87692023D02*
X162322995Y-87692023D01*
X162322995Y-87692023D02*
X162227757Y-87644404D01*
X162227757Y-87644404D02*
X162180138Y-87596785D01*
X162180138Y-87596785D02*
X162132519Y-87501547D01*
X162132519Y-87501547D02*
X162132519Y-87263452D01*
X162132519Y-87263452D02*
X162180138Y-87120595D01*
X160592519Y-71329727D02*
X159592519Y-71329727D01*
X160592519Y-70853537D02*
X159592519Y-70853537D01*
X159592519Y-70853537D02*
X160592519Y-70282109D01*
X160592519Y-70282109D02*
X159592519Y-70282109D01*
X159592519Y-69948775D02*
X159592519Y-69377347D01*
X160592519Y-69663061D02*
X159592519Y-69663061D01*
X163132519Y-70424966D02*
X162656328Y-70758299D01*
X163132519Y-70996394D02*
X162132519Y-70996394D01*
X162132519Y-70996394D02*
X162132519Y-70615442D01*
X162132519Y-70615442D02*
X162180138Y-70520204D01*
X162180138Y-70520204D02*
X162227757Y-70472585D01*
X162227757Y-70472585D02*
X162322995Y-70424966D01*
X162322995Y-70424966D02*
X162465852Y-70424966D01*
X162465852Y-70424966D02*
X162561090Y-70472585D01*
X162561090Y-70472585D02*
X162608709Y-70520204D01*
X162608709Y-70520204D02*
X162656328Y-70615442D01*
X162656328Y-70615442D02*
X162656328Y-70996394D01*
X162132519Y-70091632D02*
X163132519Y-69424966D01*
X162132519Y-69424966D02*
X163132519Y-70091632D01*
X164672519Y-70901156D02*
X164672519Y-70329728D01*
X165672519Y-70615442D02*
X164672519Y-70615442D01*
X164672519Y-70091632D02*
X165672519Y-69424966D01*
X164672519Y-69424966D02*
X165672519Y-70091632D01*
X170704900Y-71901156D02*
X170752519Y-71758299D01*
X170752519Y-71758299D02*
X170752519Y-71520204D01*
X170752519Y-71520204D02*
X170704900Y-71424966D01*
X170704900Y-71424966D02*
X170657280Y-71377347D01*
X170657280Y-71377347D02*
X170562042Y-71329728D01*
X170562042Y-71329728D02*
X170466804Y-71329728D01*
X170466804Y-71329728D02*
X170371566Y-71377347D01*
X170371566Y-71377347D02*
X170323947Y-71424966D01*
X170323947Y-71424966D02*
X170276328Y-71520204D01*
X170276328Y-71520204D02*
X170228709Y-71710680D01*
X170228709Y-71710680D02*
X170181090Y-71805918D01*
X170181090Y-71805918D02*
X170133471Y-71853537D01*
X170133471Y-71853537D02*
X170038233Y-71901156D01*
X170038233Y-71901156D02*
X169942995Y-71901156D01*
X169942995Y-71901156D02*
X169847757Y-71853537D01*
X169847757Y-71853537D02*
X169800138Y-71805918D01*
X169800138Y-71805918D02*
X169752519Y-71710680D01*
X169752519Y-71710680D02*
X169752519Y-71472585D01*
X169752519Y-71472585D02*
X169800138Y-71329728D01*
X170752519Y-70901156D02*
X169752519Y-70901156D01*
X169752519Y-70901156D02*
X169752519Y-70663061D01*
X169752519Y-70663061D02*
X169800138Y-70520204D01*
X169800138Y-70520204D02*
X169895376Y-70424966D01*
X169895376Y-70424966D02*
X169990614Y-70377347D01*
X169990614Y-70377347D02*
X170181090Y-70329728D01*
X170181090Y-70329728D02*
X170323947Y-70329728D01*
X170323947Y-70329728D02*
X170514423Y-70377347D01*
X170514423Y-70377347D02*
X170609661Y-70424966D01*
X170609661Y-70424966D02*
X170704900Y-70520204D01*
X170704900Y-70520204D02*
X170752519Y-70663061D01*
X170752519Y-70663061D02*
X170752519Y-70901156D01*
X170466804Y-69948775D02*
X170466804Y-69472585D01*
X170752519Y-70044013D02*
X169752519Y-69710680D01*
X169752519Y-69710680D02*
X170752519Y-69377347D01*
X168212519Y-88644403D02*
X167212519Y-88644403D01*
X167212519Y-88644403D02*
X167926804Y-88311070D01*
X167926804Y-88311070D02*
X167212519Y-87977737D01*
X167212519Y-87977737D02*
X168212519Y-87977737D01*
X168212519Y-87501546D02*
X167212519Y-87501546D01*
X168164900Y-87072975D02*
X168212519Y-86930118D01*
X168212519Y-86930118D02*
X168212519Y-86692023D01*
X168212519Y-86692023D02*
X168164900Y-86596785D01*
X168164900Y-86596785D02*
X168117280Y-86549166D01*
X168117280Y-86549166D02*
X168022042Y-86501547D01*
X168022042Y-86501547D02*
X167926804Y-86501547D01*
X167926804Y-86501547D02*
X167831566Y-86549166D01*
X167831566Y-86549166D02*
X167783947Y-86596785D01*
X167783947Y-86596785D02*
X167736328Y-86692023D01*
X167736328Y-86692023D02*
X167688709Y-86882499D01*
X167688709Y-86882499D02*
X167641090Y-86977737D01*
X167641090Y-86977737D02*
X167593471Y-87025356D01*
X167593471Y-87025356D02*
X167498233Y-87072975D01*
X167498233Y-87072975D02*
X167402995Y-87072975D01*
X167402995Y-87072975D02*
X167307757Y-87025356D01*
X167307757Y-87025356D02*
X167260138Y-86977737D01*
X167260138Y-86977737D02*
X167212519Y-86882499D01*
X167212519Y-86882499D02*
X167212519Y-86644404D01*
X167212519Y-86644404D02*
X167260138Y-86501547D01*
X167212519Y-85882499D02*
X167212519Y-85692023D01*
X167212519Y-85692023D02*
X167260138Y-85596785D01*
X167260138Y-85596785D02*
X167355376Y-85501547D01*
X167355376Y-85501547D02*
X167545852Y-85453928D01*
X167545852Y-85453928D02*
X167879185Y-85453928D01*
X167879185Y-85453928D02*
X168069661Y-85501547D01*
X168069661Y-85501547D02*
X168164900Y-85596785D01*
X168164900Y-85596785D02*
X168212519Y-85692023D01*
X168212519Y-85692023D02*
X168212519Y-85882499D01*
X168212519Y-85882499D02*
X168164900Y-85977737D01*
X168164900Y-85977737D02*
X168069661Y-86072975D01*
X168069661Y-86072975D02*
X167879185Y-86120594D01*
X167879185Y-86120594D02*
X167545852Y-86120594D01*
X167545852Y-86120594D02*
X167355376Y-86072975D01*
X167355376Y-86072975D02*
X167260138Y-85977737D01*
X167260138Y-85977737D02*
X167212519Y-85882499D01*
X158179519Y-72329727D02*
X157179519Y-72329727D01*
X157179519Y-72329727D02*
X157179519Y-71948775D01*
X157179519Y-71948775D02*
X157227138Y-71853537D01*
X157227138Y-71853537D02*
X157274757Y-71805918D01*
X157274757Y-71805918D02*
X157369995Y-71758299D01*
X157369995Y-71758299D02*
X157512852Y-71758299D01*
X157512852Y-71758299D02*
X157608090Y-71805918D01*
X157608090Y-71805918D02*
X157655709Y-71853537D01*
X157655709Y-71853537D02*
X157703328Y-71948775D01*
X157703328Y-71948775D02*
X157703328Y-72329727D01*
X157179519Y-71424965D02*
X158179519Y-71186870D01*
X158179519Y-71186870D02*
X157465233Y-70996394D01*
X157465233Y-70996394D02*
X158179519Y-70805918D01*
X158179519Y-70805918D02*
X157179519Y-70567823D01*
X158179519Y-70186870D02*
X157179519Y-70186870D01*
X157179519Y-70186870D02*
X157893804Y-69853537D01*
X157893804Y-69853537D02*
X157179519Y-69520204D01*
X157179519Y-69520204D02*
X158179519Y-69520204D01*
X174880138Y-71567823D02*
X174832519Y-71663061D01*
X174832519Y-71663061D02*
X174832519Y-71805918D01*
X174832519Y-71805918D02*
X174880138Y-71948775D01*
X174880138Y-71948775D02*
X174975376Y-72044013D01*
X174975376Y-72044013D02*
X175070614Y-72091632D01*
X175070614Y-72091632D02*
X175261090Y-72139251D01*
X175261090Y-72139251D02*
X175403947Y-72139251D01*
X175403947Y-72139251D02*
X175594423Y-72091632D01*
X175594423Y-72091632D02*
X175689661Y-72044013D01*
X175689661Y-72044013D02*
X175784900Y-71948775D01*
X175784900Y-71948775D02*
X175832519Y-71805918D01*
X175832519Y-71805918D02*
X175832519Y-71710680D01*
X175832519Y-71710680D02*
X175784900Y-71567823D01*
X175784900Y-71567823D02*
X175737280Y-71520204D01*
X175737280Y-71520204D02*
X175403947Y-71520204D01*
X175403947Y-71520204D02*
X175403947Y-71710680D01*
X175832519Y-71091632D02*
X174832519Y-71091632D01*
X174832519Y-71091632D02*
X175832519Y-70520204D01*
X175832519Y-70520204D02*
X174832519Y-70520204D01*
X175832519Y-70044013D02*
X174832519Y-70044013D01*
X174832519Y-70044013D02*
X174832519Y-69805918D01*
X174832519Y-69805918D02*
X174880138Y-69663061D01*
X174880138Y-69663061D02*
X174975376Y-69567823D01*
X174975376Y-69567823D02*
X175070614Y-69520204D01*
X175070614Y-69520204D02*
X175261090Y-69472585D01*
X175261090Y-69472585D02*
X175403947Y-69472585D01*
X175403947Y-69472585D02*
X175594423Y-69520204D01*
X175594423Y-69520204D02*
X175689661Y-69567823D01*
X175689661Y-69567823D02*
X175784900Y-69663061D01*
X175784900Y-69663061D02*
X175832519Y-69805918D01*
X175832519Y-69805918D02*
X175832519Y-70044013D01*
D11*
X152264819Y-157218333D02*
X152979104Y-157218333D01*
X152979104Y-157218333D02*
X153121961Y-157265952D01*
X153121961Y-157265952D02*
X153217200Y-157361190D01*
X153217200Y-157361190D02*
X153264819Y-157504047D01*
X153264819Y-157504047D02*
X153264819Y-157599285D01*
X152598152Y-156313571D02*
X153264819Y-156313571D01*
X152217200Y-156551666D02*
X152931485Y-156789761D01*
X152931485Y-156789761D02*
X152931485Y-156170714D01*
X268626667Y-112537200D02*
X268769524Y-112584819D01*
X268769524Y-112584819D02*
X269007619Y-112584819D01*
X269007619Y-112584819D02*
X269102857Y-112537200D01*
X269102857Y-112537200D02*
X269150476Y-112489580D01*
X269150476Y-112489580D02*
X269198095Y-112394342D01*
X269198095Y-112394342D02*
X269198095Y-112299104D01*
X269198095Y-112299104D02*
X269150476Y-112203866D01*
X269150476Y-112203866D02*
X269102857Y-112156247D01*
X269102857Y-112156247D02*
X269007619Y-112108628D01*
X269007619Y-112108628D02*
X268817143Y-112061009D01*
X268817143Y-112061009D02*
X268721905Y-112013390D01*
X268721905Y-112013390D02*
X268674286Y-111965771D01*
X268674286Y-111965771D02*
X268626667Y-111870533D01*
X268626667Y-111870533D02*
X268626667Y-111775295D01*
X268626667Y-111775295D02*
X268674286Y-111680057D01*
X268674286Y-111680057D02*
X268721905Y-111632438D01*
X268721905Y-111632438D02*
X268817143Y-111584819D01*
X268817143Y-111584819D02*
X269055238Y-111584819D01*
X269055238Y-111584819D02*
X269198095Y-111632438D01*
X269531429Y-111584819D02*
X269769524Y-112584819D01*
X269769524Y-112584819D02*
X269960000Y-111870533D01*
X269960000Y-111870533D02*
X270150476Y-112584819D01*
X270150476Y-112584819D02*
X270388572Y-111584819D01*
X270674286Y-111584819D02*
X271293333Y-111584819D01*
X271293333Y-111584819D02*
X270960000Y-111965771D01*
X270960000Y-111965771D02*
X271102857Y-111965771D01*
X271102857Y-111965771D02*
X271198095Y-112013390D01*
X271198095Y-112013390D02*
X271245714Y-112061009D01*
X271245714Y-112061009D02*
X271293333Y-112156247D01*
X271293333Y-112156247D02*
X271293333Y-112394342D01*
X271293333Y-112394342D02*
X271245714Y-112489580D01*
X271245714Y-112489580D02*
X271198095Y-112537200D01*
X271198095Y-112537200D02*
X271102857Y-112584819D01*
X271102857Y-112584819D02*
X270817143Y-112584819D01*
X270817143Y-112584819D02*
X270721905Y-112537200D01*
X270721905Y-112537200D02*
X270674286Y-112489580D01*
X247984819Y-154666666D02*
X247508628Y-154999999D01*
X247984819Y-155238094D02*
X246984819Y-155238094D01*
X246984819Y-155238094D02*
X246984819Y-154857142D01*
X246984819Y-154857142D02*
X247032438Y-154761904D01*
X247032438Y-154761904D02*
X247080057Y-154714285D01*
X247080057Y-154714285D02*
X247175295Y-154666666D01*
X247175295Y-154666666D02*
X247318152Y-154666666D01*
X247318152Y-154666666D02*
X247413390Y-154714285D01*
X247413390Y-154714285D02*
X247461009Y-154761904D01*
X247461009Y-154761904D02*
X247508628Y-154857142D01*
X247508628Y-154857142D02*
X247508628Y-155238094D01*
X247318152Y-153809523D02*
X247984819Y-153809523D01*
X246937200Y-154047618D02*
X247651485Y-154285713D01*
X247651485Y-154285713D02*
X247651485Y-153666666D01*
X224282319Y-143929404D02*
X225091842Y-143929404D01*
X225091842Y-143929404D02*
X225187080Y-143881785D01*
X225187080Y-143881785D02*
X225234700Y-143834166D01*
X225234700Y-143834166D02*
X225282319Y-143738928D01*
X225282319Y-143738928D02*
X225282319Y-143548452D01*
X225282319Y-143548452D02*
X225234700Y-143453214D01*
X225234700Y-143453214D02*
X225187080Y-143405595D01*
X225187080Y-143405595D02*
X225091842Y-143357976D01*
X225091842Y-143357976D02*
X224282319Y-143357976D01*
X225282319Y-142357976D02*
X225282319Y-142929404D01*
X225282319Y-142643690D02*
X224282319Y-142643690D01*
X224282319Y-142643690D02*
X224425176Y-142738928D01*
X224425176Y-142738928D02*
X224520414Y-142834166D01*
X224520414Y-142834166D02*
X224568033Y-142929404D01*
X274333333Y-75259580D02*
X274285714Y-75307200D01*
X274285714Y-75307200D02*
X274142857Y-75354819D01*
X274142857Y-75354819D02*
X274047619Y-75354819D01*
X274047619Y-75354819D02*
X273904762Y-75307200D01*
X273904762Y-75307200D02*
X273809524Y-75211961D01*
X273809524Y-75211961D02*
X273761905Y-75116723D01*
X273761905Y-75116723D02*
X273714286Y-74926247D01*
X273714286Y-74926247D02*
X273714286Y-74783390D01*
X273714286Y-74783390D02*
X273761905Y-74592914D01*
X273761905Y-74592914D02*
X273809524Y-74497676D01*
X273809524Y-74497676D02*
X273904762Y-74402438D01*
X273904762Y-74402438D02*
X274047619Y-74354819D01*
X274047619Y-74354819D02*
X274142857Y-74354819D01*
X274142857Y-74354819D02*
X274285714Y-74402438D01*
X274285714Y-74402438D02*
X274333333Y-74450057D01*
X274666667Y-74354819D02*
X275285714Y-74354819D01*
X275285714Y-74354819D02*
X274952381Y-74735771D01*
X274952381Y-74735771D02*
X275095238Y-74735771D01*
X275095238Y-74735771D02*
X275190476Y-74783390D01*
X275190476Y-74783390D02*
X275238095Y-74831009D01*
X275238095Y-74831009D02*
X275285714Y-74926247D01*
X275285714Y-74926247D02*
X275285714Y-75164342D01*
X275285714Y-75164342D02*
X275238095Y-75259580D01*
X275238095Y-75259580D02*
X275190476Y-75307200D01*
X275190476Y-75307200D02*
X275095238Y-75354819D01*
X275095238Y-75354819D02*
X274809524Y-75354819D01*
X274809524Y-75354819D02*
X274714286Y-75307200D01*
X274714286Y-75307200D02*
X274666667Y-75259580D01*
D13*
%TO.C,SW2*%
X246790000Y-113500000D02*
X249400000Y-113500000D01*
X246790000Y-113500000D02*
G75*
G02*
X244050000Y-113500000I-1370000J0D01*
G01*
X244050000Y-113500000D02*
G75*
G02*
X246790000Y-113500000I1370000J0D01*
G01*
%TO.C,R18*%
X244480000Y-99320000D02*
X245250000Y-99320000D01*
X245250000Y-97950000D02*
X245250000Y-100690000D01*
X245250000Y-100690000D02*
X251790000Y-100690000D01*
X251790000Y-97950000D02*
X245250000Y-97950000D01*
X251790000Y-100690000D02*
X251790000Y-97950000D01*
X252560000Y-99320000D02*
X251790000Y-99320000D01*
%TO.C,R6*%
X258000000Y-150460000D02*
X258000000Y-151230000D01*
X259370000Y-151230000D02*
X256630000Y-151230000D01*
X256630000Y-151230000D02*
X256630000Y-157770000D01*
X259370000Y-157770000D02*
X259370000Y-151230000D01*
X256630000Y-157770000D02*
X259370000Y-157770000D01*
X258000000Y-158540000D02*
X258000000Y-157770000D01*
%TO.C,RV1*%
X157395000Y-152565000D02*
X157395000Y-159405000D01*
X157395000Y-152565000D02*
X160425000Y-152565000D01*
X157395000Y-159405000D02*
X160425000Y-159405000D01*
X161725000Y-152565000D02*
X164635000Y-152565000D01*
X161725000Y-159405000D02*
X164635000Y-159405000D01*
X164635000Y-152565000D02*
X164635000Y-159405000D01*
%TO.C,R14*%
X244480000Y-83120000D02*
X245250000Y-83120000D01*
X245250000Y-81750000D02*
X245250000Y-84490000D01*
X245250000Y-84490000D02*
X251790000Y-84490000D01*
X251790000Y-81750000D02*
X245250000Y-81750000D01*
X251790000Y-84490000D02*
X251790000Y-81750000D01*
X252560000Y-83120000D02*
X251790000Y-83120000D01*
%TO.C,SW4*%
X258290000Y-122000000D02*
X260900000Y-122000000D01*
X258290000Y-122000000D02*
G75*
G02*
X255550000Y-122000000I-1370000J0D01*
G01*
X255550000Y-122000000D02*
G75*
G02*
X258290000Y-122000000I1370000J0D01*
G01*
%TO.C,C1*%
X270880000Y-65930000D02*
X270880000Y-69670000D01*
X270880000Y-65930000D02*
X278120000Y-65930000D01*
X270880000Y-69670000D02*
X278120000Y-69670000D01*
X278120000Y-65930000D02*
X278120000Y-69670000D01*
%TO.C,U3*%
X206850000Y-81040000D02*
X206850000Y-82690000D01*
X206850000Y-84690000D02*
X206850000Y-86340000D01*
X206850000Y-86340000D02*
X229830000Y-86340000D01*
X229830000Y-81040000D02*
X206850000Y-81040000D01*
X229830000Y-86340000D02*
X229830000Y-81040000D01*
X206850000Y-82690000D02*
G75*
G02*
X206850000Y-84690000I0J-1000000D01*
G01*
%TO.C,R8*%
X266100000Y-150460000D02*
X266100000Y-151230000D01*
X267470000Y-151230000D02*
X264730000Y-151230000D01*
X264730000Y-151230000D02*
X264730000Y-157770000D01*
X267470000Y-157770000D02*
X267470000Y-151230000D01*
X264730000Y-157770000D02*
X267470000Y-157770000D01*
X266100000Y-158540000D02*
X266100000Y-157770000D01*
%TO.C,R9*%
X270150000Y-150460000D02*
X270150000Y-151230000D01*
X271520000Y-151230000D02*
X268780000Y-151230000D01*
X268780000Y-151230000D02*
X268780000Y-157770000D01*
X271520000Y-157770000D02*
X271520000Y-151230000D01*
X268780000Y-157770000D02*
X271520000Y-157770000D01*
X270150000Y-158540000D02*
X270150000Y-157770000D01*
%TO.C,R13*%
X244480000Y-79070000D02*
X245250000Y-79070000D01*
X245250000Y-77700000D02*
X245250000Y-80440000D01*
X245250000Y-80440000D02*
X251790000Y-80440000D01*
X251790000Y-77700000D02*
X245250000Y-77700000D01*
X251790000Y-80440000D02*
X251790000Y-77700000D01*
X252560000Y-79070000D02*
X251790000Y-79070000D01*
%TO.C,D5*%
X213155000Y-69670000D02*
X212999000Y-69670000D01*
X215471000Y-69670000D02*
X215315000Y-69670000D01*
X213155164Y-72271129D02*
G75*
G02*
X213155001Y-70189040I1079836J1041129D01*
G01*
X213156392Y-72902334D02*
G75*
G02*
X212999485Y-69670001I1078608J1672334D01*
G01*
X215314999Y-70189040D02*
G75*
G02*
X215314836Y-72271129I-1079999J-1040960D01*
G01*
X215470515Y-69670001D02*
G75*
G02*
X215313608Y-72902334I-1235515J-1559999D01*
G01*
%TO.C,J1*%
X170090000Y-127060000D02*
X170090000Y-125730000D01*
X171200000Y-127060000D02*
X170090000Y-127060000D01*
X172660000Y-99970000D02*
X172250000Y-99970000D01*
X172660000Y-100690000D02*
X172250000Y-100690000D01*
X172660000Y-102510000D02*
X172250000Y-102510000D01*
X172660000Y-103230000D02*
X172250000Y-103230000D01*
X172660000Y-105050000D02*
X172250000Y-105050000D01*
X172660000Y-105770000D02*
X172250000Y-105770000D01*
X172660000Y-107590000D02*
X172250000Y-107590000D01*
X172660000Y-108310000D02*
X172250000Y-108310000D01*
X172660000Y-110130000D02*
X172250000Y-110130000D01*
X172660000Y-110850000D02*
X172250000Y-110850000D01*
X172660000Y-112670000D02*
X172250000Y-112670000D01*
X172660000Y-113390000D02*
X172250000Y-113390000D01*
X172660000Y-115210000D02*
X172250000Y-115210000D01*
X172660000Y-115930000D02*
X172250000Y-115930000D01*
X172660000Y-117750000D02*
X172250000Y-117750000D01*
X172660000Y-118470000D02*
X172250000Y-118470000D01*
X172660000Y-120290000D02*
X172250000Y-120290000D01*
X172660000Y-121010000D02*
X172250000Y-121010000D01*
X172660000Y-122830000D02*
X172250000Y-122830000D01*
X172660000Y-123550000D02*
X172250000Y-123550000D01*
X172660000Y-125370000D02*
X172310000Y-125370000D01*
X172660000Y-126090000D02*
X172310000Y-126090000D01*
X172660000Y-127060000D02*
X172660000Y-99000000D01*
X181290000Y-99000000D02*
X172660000Y-99000000D01*
X181290000Y-101600000D02*
X172660000Y-101600000D01*
X181290000Y-104140000D02*
X172660000Y-104140000D01*
X181290000Y-106680000D02*
X172660000Y-106680000D01*
X181290000Y-109220000D02*
X172660000Y-109220000D01*
X181290000Y-111760000D02*
X172660000Y-111760000D01*
X181290000Y-114300000D02*
X172660000Y-114300000D01*
X181290000Y-116840000D02*
X172660000Y-116840000D01*
X181290000Y-119380000D02*
X172660000Y-119380000D01*
X181290000Y-121920000D02*
X172660000Y-121920000D01*
X181290000Y-124460000D02*
X172660000Y-124460000D01*
X181290000Y-124578100D02*
X172660000Y-124578100D01*
X181290000Y-124696195D02*
X172660000Y-124696195D01*
X181290000Y-124814290D02*
X172660000Y-124814290D01*
X181290000Y-124932385D02*
X172660000Y-124932385D01*
X181290000Y-125050480D02*
X172660000Y-125050480D01*
X181290000Y-125168575D02*
X172660000Y-125168575D01*
X181290000Y-125286670D02*
X172660000Y-125286670D01*
X181290000Y-125404765D02*
X172660000Y-125404765D01*
X181290000Y-125522860D02*
X172660000Y-125522860D01*
X181290000Y-125640955D02*
X172660000Y-125640955D01*
X181290000Y-125759050D02*
X172660000Y-125759050D01*
X181290000Y-125877145D02*
X172660000Y-125877145D01*
X181290000Y-125995240D02*
X172660000Y-125995240D01*
X181290000Y-126113335D02*
X172660000Y-126113335D01*
X181290000Y-126231430D02*
X172660000Y-126231430D01*
X181290000Y-126349525D02*
X172660000Y-126349525D01*
X181290000Y-126467620D02*
X172660000Y-126467620D01*
X181290000Y-126585715D02*
X172660000Y-126585715D01*
X181290000Y-126703810D02*
X172660000Y-126703810D01*
X181290000Y-126821905D02*
X172660000Y-126821905D01*
X181290000Y-126940000D02*
X172660000Y-126940000D01*
X181290000Y-127060000D02*
X172660000Y-127060000D01*
X181290000Y-127060000D02*
X181290000Y-99000000D01*
%TO.C,C4*%
X270880000Y-81080000D02*
X270880000Y-84820000D01*
X270880000Y-81080000D02*
X278120000Y-81080000D01*
X270880000Y-84820000D02*
X278120000Y-84820000D01*
X278120000Y-81080000D02*
X278120000Y-84820000D01*
%TO.C,SW1*%
X257790000Y-104500000D02*
X260400000Y-104500000D01*
X257790000Y-104500000D02*
G75*
G02*
X255050000Y-104500000I-1370000J0D01*
G01*
X255050000Y-104500000D02*
G75*
G02*
X257790000Y-104500000I1370000J0D01*
G01*
%TO.C,R15*%
X244480000Y-87170000D02*
X245250000Y-87170000D01*
X245250000Y-85800000D02*
X245250000Y-88540000D01*
X245250000Y-88540000D02*
X251790000Y-88540000D01*
X251790000Y-85800000D02*
X245250000Y-85800000D01*
X251790000Y-88540000D02*
X251790000Y-85800000D01*
X252560000Y-87170000D02*
X251790000Y-87170000D01*
%TO.C,R1*%
X237750000Y-150460000D02*
X237750000Y-151230000D01*
X239120000Y-151230000D02*
X236380000Y-151230000D01*
X236380000Y-151230000D02*
X236380000Y-157770000D01*
X239120000Y-157770000D02*
X239120000Y-151230000D01*
X236380000Y-157770000D02*
X239120000Y-157770000D01*
X237750000Y-158540000D02*
X237750000Y-157770000D01*
%TO.C,R7*%
X262050000Y-150460000D02*
X262050000Y-151230000D01*
X263420000Y-151230000D02*
X260680000Y-151230000D01*
X260680000Y-151230000D02*
X260680000Y-157770000D01*
X263420000Y-157770000D02*
X263420000Y-151230000D01*
X260680000Y-157770000D02*
X263420000Y-157770000D01*
X262050000Y-158540000D02*
X262050000Y-157770000D01*
%TO.C,J3*%
X134970000Y-151290000D02*
X136300000Y-151290000D01*
X134970000Y-152400000D02*
X134970000Y-151290000D01*
X134970000Y-153860000D02*
X140170000Y-153860000D01*
X134970000Y-162490000D02*
X134970000Y-153860000D01*
X134970000Y-162490000D02*
X140170000Y-162490000D01*
X135090000Y-162490000D02*
X135090000Y-153860000D01*
X135208095Y-162490000D02*
X135208095Y-153860000D01*
X135326190Y-162490000D02*
X135326190Y-153860000D01*
X135444285Y-162490000D02*
X135444285Y-153860000D01*
X135562380Y-162490000D02*
X135562380Y-153860000D01*
X135680475Y-162490000D02*
X135680475Y-153860000D01*
X135798570Y-162490000D02*
X135798570Y-153860000D01*
X135916665Y-162490000D02*
X135916665Y-153860000D01*
X135940000Y-153860000D02*
X135940000Y-153510000D01*
X136034760Y-162490000D02*
X136034760Y-153860000D01*
X136152855Y-162490000D02*
X136152855Y-153860000D01*
X136270950Y-162490000D02*
X136270950Y-153860000D01*
X136389045Y-162490000D02*
X136389045Y-153860000D01*
X136507140Y-162490000D02*
X136507140Y-153860000D01*
X136625235Y-162490000D02*
X136625235Y-153860000D01*
X136660000Y-153860000D02*
X136660000Y-153510000D01*
X136743330Y-162490000D02*
X136743330Y-153860000D01*
X136861425Y-162490000D02*
X136861425Y-153860000D01*
X136979520Y-162490000D02*
X136979520Y-153860000D01*
X137097615Y-162490000D02*
X137097615Y-153860000D01*
X137215710Y-162490000D02*
X137215710Y-153860000D01*
X137333805Y-162490000D02*
X137333805Y-153860000D01*
X137451900Y-162490000D02*
X137451900Y-153860000D01*
X137570000Y-162490000D02*
X137570000Y-153860000D01*
X138480000Y-153860000D02*
X138480000Y-153450000D01*
X139200000Y-153860000D02*
X139200000Y-153450000D01*
X140170000Y-162490000D02*
X140170000Y-153860000D01*
%TO.C,R2*%
X241800000Y-150460000D02*
X241800000Y-151230000D01*
X243170000Y-151230000D02*
X240430000Y-151230000D01*
X240430000Y-151230000D02*
X240430000Y-157770000D01*
X243170000Y-157770000D02*
X243170000Y-151230000D01*
X240430000Y-157770000D02*
X243170000Y-157770000D01*
X241800000Y-158540000D02*
X241800000Y-157770000D01*
%TO.C,R12*%
X237540000Y-70000000D02*
X238310000Y-70000000D01*
X238310000Y-68630000D02*
X238310000Y-71370000D01*
X238310000Y-71370000D02*
X244850000Y-71370000D01*
X244850000Y-68630000D02*
X238310000Y-68630000D01*
X244850000Y-71370000D02*
X244850000Y-68630000D01*
X245620000Y-70000000D02*
X244850000Y-70000000D01*
%TO.C,R3*%
X245850000Y-150460000D02*
X245850000Y-151230000D01*
X247220000Y-151230000D02*
X244480000Y-151230000D01*
X244480000Y-151230000D02*
X244480000Y-157770000D01*
X247220000Y-157770000D02*
X247220000Y-151230000D01*
X244480000Y-157770000D02*
X247220000Y-157770000D01*
X245850000Y-158540000D02*
X245850000Y-157770000D01*
%TO.C,R17*%
X244480000Y-95270000D02*
X245250000Y-95270000D01*
X245250000Y-93900000D02*
X245250000Y-96640000D01*
X245250000Y-96640000D02*
X251790000Y-96640000D01*
X251790000Y-93900000D02*
X245250000Y-93900000D01*
X251790000Y-96640000D02*
X251790000Y-93900000D01*
X252560000Y-95270000D02*
X251790000Y-95270000D01*
%TO.C,D6*%
X206920000Y-69670000D02*
X206764000Y-69670000D01*
X209236000Y-69670000D02*
X209080000Y-69670000D01*
X206920164Y-72271129D02*
G75*
G02*
X206920001Y-70189040I1079836J1041129D01*
G01*
X206921392Y-72902334D02*
G75*
G02*
X206764485Y-69670001I1078608J1672334D01*
G01*
X209079999Y-70189040D02*
G75*
G02*
X209079836Y-72271129I-1079999J-1040960D01*
G01*
X209235515Y-69670001D02*
G75*
G02*
X209078608Y-72902334I-1235515J-1559999D01*
G01*
%TO.C,C5*%
X270880000Y-86130000D02*
X270880000Y-89870000D01*
X270880000Y-86130000D02*
X278120000Y-86130000D01*
X270880000Y-89870000D02*
X278120000Y-89870000D01*
X278120000Y-86130000D02*
X278120000Y-89870000D01*
%TO.C,U2*%
X184665000Y-70815000D02*
X184665000Y-88835000D01*
X184665000Y-88835000D02*
X195165000Y-88835000D01*
X187665000Y-70875000D02*
X187665000Y-88775000D01*
X187665000Y-88775000D02*
X188915000Y-88775000D01*
X190915000Y-88775000D02*
X192165000Y-88775000D01*
X192165000Y-70875000D02*
X187665000Y-70875000D01*
X192165000Y-88775000D02*
X192165000Y-70875000D01*
X195165000Y-70815000D02*
X184665000Y-70815000D01*
X195165000Y-88835000D02*
X195165000Y-70815000D01*
X188915000Y-88775000D02*
G75*
G02*
X190915000Y-88775000I1000000J0D01*
G01*
%TO.C,R10*%
X274200000Y-150460000D02*
X274200000Y-151230000D01*
X275570000Y-151230000D02*
X272830000Y-151230000D01*
X272830000Y-151230000D02*
X272830000Y-157770000D01*
X275570000Y-157770000D02*
X275570000Y-151230000D01*
X272830000Y-157770000D02*
X275570000Y-157770000D01*
X274200000Y-158540000D02*
X274200000Y-157770000D01*
%TO.C,C2*%
X270880000Y-70980000D02*
X270880000Y-74720000D01*
X270880000Y-70980000D02*
X278120000Y-70980000D01*
X270880000Y-74720000D02*
X278120000Y-74720000D01*
X278120000Y-70980000D02*
X278120000Y-74720000D01*
%TO.C,D2*%
X269230000Y-100050000D02*
X269880000Y-100050000D01*
X269880000Y-98930000D02*
X269880000Y-101170000D01*
X269880000Y-101170000D02*
X274120000Y-101170000D01*
X270480000Y-98930000D02*
X270480000Y-101170000D01*
X270600000Y-98930000D02*
X270600000Y-101170000D01*
X270720000Y-98930000D02*
X270720000Y-101170000D01*
X274120000Y-98930000D02*
X269880000Y-98930000D01*
X274120000Y-101170000D02*
X274120000Y-98930000D01*
X274770000Y-100050000D02*
X274120000Y-100050000D01*
%TO.C,D1*%
X269230000Y-96500000D02*
X269880000Y-96500000D01*
X269880000Y-95380000D02*
X269880000Y-97620000D01*
X269880000Y-97620000D02*
X274120000Y-97620000D01*
X270480000Y-95380000D02*
X270480000Y-97620000D01*
X270600000Y-95380000D02*
X270600000Y-97620000D01*
X270720000Y-95380000D02*
X270720000Y-97620000D01*
X274120000Y-95380000D02*
X269880000Y-95380000D01*
X274120000Y-97620000D02*
X274120000Y-95380000D01*
X274770000Y-96500000D02*
X274120000Y-96500000D01*
%TO.C,R16*%
X244480000Y-91220000D02*
X245250000Y-91220000D01*
X245250000Y-89850000D02*
X245250000Y-92590000D01*
X245250000Y-92590000D02*
X251790000Y-92590000D01*
X251790000Y-89850000D02*
X245250000Y-89850000D01*
X251790000Y-92590000D02*
X251790000Y-89850000D01*
X252560000Y-91220000D02*
X251790000Y-91220000D01*
%TO.C,R11*%
X278250000Y-150460000D02*
X278250000Y-151230000D01*
X279620000Y-151230000D02*
X276880000Y-151230000D01*
X276880000Y-151230000D02*
X276880000Y-157770000D01*
X279620000Y-157770000D02*
X279620000Y-151230000D01*
X276880000Y-157770000D02*
X279620000Y-157770000D01*
X278250000Y-158540000D02*
X278250000Y-157770000D01*
%TO.C,J2*%
X142510000Y-135460000D02*
X142510000Y-144090000D01*
X143480000Y-144090000D02*
X143480000Y-144500000D01*
X144200000Y-144090000D02*
X144200000Y-144500000D01*
X145110000Y-135460000D02*
X145110000Y-144090000D01*
X146020000Y-144090000D02*
X146020000Y-144500000D01*
X146740000Y-144090000D02*
X146740000Y-144500000D01*
X147650000Y-135460000D02*
X147650000Y-144090000D01*
X148560000Y-144090000D02*
X148560000Y-144500000D01*
X149280000Y-144090000D02*
X149280000Y-144500000D01*
X150190000Y-135460000D02*
X150190000Y-144090000D01*
X151100000Y-144090000D02*
X151100000Y-144500000D01*
X151820000Y-144090000D02*
X151820000Y-144500000D01*
X152730000Y-135460000D02*
X152730000Y-144090000D01*
X152848100Y-135460000D02*
X152848100Y-144090000D01*
X152966195Y-135460000D02*
X152966195Y-144090000D01*
X153084290Y-135460000D02*
X153084290Y-144090000D01*
X153202385Y-135460000D02*
X153202385Y-144090000D01*
X153320480Y-135460000D02*
X153320480Y-144090000D01*
X153438575Y-135460000D02*
X153438575Y-144090000D01*
X153556670Y-135460000D02*
X153556670Y-144090000D01*
X153640000Y-144090000D02*
X153640000Y-144440000D01*
X153674765Y-135460000D02*
X153674765Y-144090000D01*
X153792860Y-135460000D02*
X153792860Y-144090000D01*
X153910955Y-135460000D02*
X153910955Y-144090000D01*
X154029050Y-135460000D02*
X154029050Y-144090000D01*
X154147145Y-135460000D02*
X154147145Y-144090000D01*
X154265240Y-135460000D02*
X154265240Y-144090000D01*
X154360000Y-144090000D02*
X154360000Y-144440000D01*
X154383335Y-135460000D02*
X154383335Y-144090000D01*
X154501430Y-135460000D02*
X154501430Y-144090000D01*
X154619525Y-135460000D02*
X154619525Y-144090000D01*
X154737620Y-135460000D02*
X154737620Y-144090000D01*
X154855715Y-135460000D02*
X154855715Y-144090000D01*
X154973810Y-135460000D02*
X154973810Y-144090000D01*
X155091905Y-135460000D02*
X155091905Y-144090000D01*
X155210000Y-135460000D02*
X155210000Y-144090000D01*
X155330000Y-135460000D02*
X142510000Y-135460000D01*
X155330000Y-135460000D02*
X155330000Y-144090000D01*
X155330000Y-144090000D02*
X142510000Y-144090000D01*
X155330000Y-145550000D02*
X155330000Y-146660000D01*
X155330000Y-146660000D02*
X154000000Y-146660000D01*
%TO.C,D4*%
X219155000Y-69670000D02*
X218999000Y-69670000D01*
X221471000Y-69670000D02*
X221315000Y-69670000D01*
X219155164Y-72271129D02*
G75*
G02*
X219155001Y-70189040I1079836J1041129D01*
G01*
X219156392Y-72902334D02*
G75*
G02*
X218999485Y-69670001I1078608J1672334D01*
G01*
X221314999Y-70189040D02*
G75*
G02*
X221314836Y-72271129I-1079999J-1040960D01*
G01*
X221470515Y-69670001D02*
G75*
G02*
X221313608Y-72902334I-1235515J-1559999D01*
G01*
%TO.C,R5*%
X253950000Y-150460000D02*
X253950000Y-151230000D01*
X255320000Y-151230000D02*
X252580000Y-151230000D01*
X252580000Y-151230000D02*
X252580000Y-157770000D01*
X255320000Y-157770000D02*
X255320000Y-151230000D01*
X252580000Y-157770000D02*
X255320000Y-157770000D01*
X253950000Y-158540000D02*
X253950000Y-157770000D01*
%TO.C,D3*%
X224920000Y-69670000D02*
X224764000Y-69670000D01*
X227236000Y-69670000D02*
X227080000Y-69670000D01*
X224920164Y-72271129D02*
G75*
G02*
X224920001Y-70189040I1079836J1041129D01*
G01*
X224921392Y-72902334D02*
G75*
G02*
X224764485Y-69670001I1078608J1672334D01*
G01*
X227079999Y-70189040D02*
G75*
G02*
X227079836Y-72271129I-1079999J-1040960D01*
G01*
X227235515Y-69670001D02*
G75*
G02*
X227078608Y-72902334I-1235515J-1559999D01*
G01*
D14*
%TO.C,CON1*%
X153928500Y-76881500D02*
X155452500Y-76881500D01*
X153928500Y-78024500D02*
X152277500Y-78024500D01*
X153928500Y-78024500D02*
X153928500Y-76881500D01*
X153928500Y-79167500D02*
X153928500Y-78024500D01*
X153928500Y-79167500D02*
X155452500Y-79167500D01*
X153928500Y-80310500D02*
X152277500Y-80310500D01*
X153928500Y-80310500D02*
X153928500Y-79167500D01*
X153928500Y-81326500D02*
X153928500Y-80310500D01*
X153928500Y-81326500D02*
X155452500Y-81326500D01*
D15*
X154182500Y-65022500D02*
X177677500Y-65022500D01*
X154182500Y-92962500D02*
X177677500Y-92962500D01*
X156087500Y-66292500D02*
X176407500Y-66292500D01*
X156087500Y-68832500D02*
X156087500Y-66292500D01*
X156087500Y-68832500D02*
X158627500Y-68832500D01*
X156087500Y-89152500D02*
X156087500Y-91692500D01*
X156087500Y-91692500D02*
X158627500Y-91692500D01*
X158627500Y-68832500D02*
X158627500Y-66292500D01*
X158627500Y-68832500D02*
X176407500Y-68832500D01*
X158627500Y-89152500D02*
X156087500Y-89152500D01*
X158627500Y-91692500D02*
X158627500Y-89152500D01*
X158627500Y-91692500D02*
X176407500Y-91692500D01*
X176407500Y-66292500D02*
X178997500Y-68822500D01*
X176407500Y-68832500D02*
X176407500Y-66292500D01*
X176407500Y-89152500D02*
X158627500Y-89152500D01*
X176407500Y-91692500D02*
X176407500Y-89152500D01*
X180217500Y-90422500D02*
X180217500Y-67562500D01*
X151642500Y-67562500D02*
G75*
G02*
X154182500Y-65022500I2540000J0D01*
G01*
X154182500Y-92962500D02*
G75*
G02*
X151642500Y-90422500I0J2540000D01*
G01*
X177677500Y-65022500D02*
G75*
G02*
X180217500Y-67562500I0J-2540000D01*
G01*
X177677500Y-65022500D02*
G75*
G02*
X180217500Y-67562500I0J-2540000D01*
G01*
X180217500Y-90422500D02*
G75*
G02*
X177677500Y-92962500I-2540000J0D01*
G01*
D16*
X152506100Y-78024500D02*
G75*
G02*
X152048900Y-78024500I-228600J0D01*
G01*
X152048900Y-78024500D02*
G75*
G02*
X152506100Y-78024500I228600J0D01*
G01*
X152506100Y-80310500D02*
G75*
G02*
X152048900Y-80310500I-228600J0D01*
G01*
X152048900Y-80310500D02*
G75*
G02*
X152506100Y-80310500I228600J0D01*
G01*
X155681100Y-76881500D02*
G75*
G02*
X155223900Y-76881500I-228600J0D01*
G01*
X155223900Y-76881500D02*
G75*
G02*
X155681100Y-76881500I228600J0D01*
G01*
X155681100Y-79167500D02*
G75*
G02*
X155223900Y-79167500I-228600J0D01*
G01*
X155223900Y-79167500D02*
G75*
G02*
X155681100Y-79167500I228600J0D01*
G01*
X155681100Y-81326500D02*
G75*
G02*
X155223900Y-81326500I-228600J0D01*
G01*
X155223900Y-81326500D02*
G75*
G02*
X155681100Y-81326500I228600J0D01*
G01*
D13*
%TO.C,J4*%
X144130000Y-153940000D02*
X144130000Y-156600000D01*
X144130000Y-156600000D02*
X151870000Y-156600000D01*
X145080000Y-153542929D02*
X145080000Y-153940000D01*
X145080000Y-162600000D02*
X145080000Y-156600000D01*
X145840000Y-153542929D02*
X145840000Y-153940000D01*
X145840000Y-156600000D02*
X145840000Y-162600000D01*
X145840000Y-162600000D02*
X145080000Y-162600000D01*
X146730000Y-153940000D02*
X146730000Y-156600000D01*
X147620000Y-153542929D02*
X147620000Y-153940000D01*
X147620000Y-162600000D02*
X147620000Y-156600000D01*
X148380000Y-153542929D02*
X148380000Y-153940000D01*
X148380000Y-156600000D02*
X148380000Y-162600000D01*
X148380000Y-162600000D02*
X147620000Y-162600000D01*
X149270000Y-153940000D02*
X149270000Y-156600000D01*
X150160000Y-153610000D02*
X150160000Y-153940000D01*
X150160000Y-162600000D02*
X150160000Y-156600000D01*
X150260000Y-156600000D02*
X150260000Y-162600000D01*
X150380000Y-156600000D02*
X150380000Y-162600000D01*
X150500000Y-156600000D02*
X150500000Y-162600000D01*
X150540000Y-151230000D02*
X151810000Y-151230000D01*
X150620000Y-156600000D02*
X150620000Y-162600000D01*
X150740000Y-156600000D02*
X150740000Y-162600000D01*
X150860000Y-156600000D02*
X150860000Y-162600000D01*
X150920000Y-153610000D02*
X150920000Y-153940000D01*
X150920000Y-156600000D02*
X150920000Y-162600000D01*
X150920000Y-162600000D02*
X150160000Y-162600000D01*
X151810000Y-151230000D02*
X151810000Y-152500000D01*
X151870000Y-153940000D02*
X144130000Y-153940000D01*
X151870000Y-156600000D02*
X151870000Y-153940000D01*
%TO.C,SW3*%
X268790000Y-114500000D02*
X271400000Y-114500000D01*
X268790000Y-114500000D02*
G75*
G02*
X266050000Y-114500000I-1370000J0D01*
G01*
X266050000Y-114500000D02*
G75*
G02*
X268790000Y-114500000I1370000J0D01*
G01*
%TO.C,R4*%
X249900000Y-150460000D02*
X249900000Y-151230000D01*
X251270000Y-151230000D02*
X248530000Y-151230000D01*
X248530000Y-151230000D02*
X248530000Y-157770000D01*
X251270000Y-157770000D02*
X251270000Y-151230000D01*
X248530000Y-157770000D02*
X251270000Y-157770000D01*
X249900000Y-158540000D02*
X249900000Y-157770000D01*
D15*
%TO.C,U1*%
X173647500Y-139612500D02*
X223937500Y-139612500D01*
X173647500Y-158152500D02*
X173647500Y-139612500D01*
X223937500Y-139612500D02*
X223937500Y-158152500D01*
X223937500Y-158152500D02*
X173647500Y-158152500D01*
D17*
X215392500Y-138882500D02*
G75*
G02*
X215192500Y-138882500I-100000J0D01*
G01*
X215192500Y-138882500D02*
G75*
G02*
X215392500Y-138882500I100000J0D01*
G01*
D13*
%TO.C,C3*%
X270880000Y-76030000D02*
X270880000Y-79770000D01*
X270880000Y-76030000D02*
X278120000Y-76030000D01*
X270880000Y-79770000D02*
X278120000Y-79770000D01*
X278120000Y-76030000D02*
X278120000Y-79770000D01*
%TD*%
M02*
