M48
; DRILL file {KiCad 8.0.0} date 2024-03-14T09:13:51+0100
; FORMAT={-:-/ absolute / inch / decimal}
; #@! TF.CreationDate,2024-03-14T09:13:51+01:00
; #@! TF.GenerationSoftware,Kicad,Pcbnew,8.0.0
; #@! TF.FileFunction,Plated,1,2,PTH
FMAT,2
INCH
; #@! TA.AperFunction,Plated,PTH,ComponentDrill
T1C0.0315
; #@! TA.AperFunction,Plated,PTH,ComponentDrill
T2C0.0350
; #@! TA.AperFunction,Plated,PTH,ComponentDrill
T3C0.0354
; #@! TA.AperFunction,Plated,PTH,ComponentDrill
T4C0.0394
; #@! TA.AperFunction,Plated,PTH,ComponentDrill
T5C0.0402
%
G90
G05
T1
X6.3415Y-6.0411
X6.3415Y-6.2411
X6.4415Y-6.1411
X7.327Y-2.8427
X7.327Y-2.9427
X7.327Y-3.0427
X7.327Y-3.1427
X7.327Y-3.2427
X7.327Y-3.3427
X7.327Y-3.4427
X7.627Y-2.8427
X7.627Y-2.9427
X7.627Y-3.0427
X7.627Y-3.1427
X7.627Y-3.2427
X7.627Y-3.3427
X7.627Y-3.4427
X8.1961Y-3.1449
X8.1961Y-3.4449
X8.2961Y-3.1449
X8.2961Y-3.4449
X8.3961Y-3.1449
X8.3961Y-3.4449
X8.4961Y-3.1449
X8.4961Y-3.4449
X8.5961Y-3.1449
X8.5961Y-3.4449
X8.6961Y-3.1449
X8.6961Y-3.4449
X8.7961Y-3.1449
X8.7961Y-3.4449
X8.8961Y-3.1449
X8.8961Y-3.4449
X8.9961Y-3.1449
X8.9961Y-3.4449
X9.311Y-2.7559
X9.3602Y-5.8827
X9.3602Y-6.2827
X9.5197Y-5.8827
X9.5197Y-6.2827
X9.5843Y-3.113
X9.5843Y-3.2724
X9.5843Y-3.4319
X9.5843Y-3.5913
X9.5843Y-3.7508
X9.5843Y-3.9102
X9.6622Y-4.4685
X9.6791Y-5.8827
X9.6791Y-6.2827
X9.711Y-2.7559
X9.8386Y-5.8827
X9.8386Y-6.2827
X9.8622Y-4.4685
X9.9843Y-3.113
X9.9843Y-3.2724
X9.9843Y-3.4319
X9.9843Y-3.5913
X9.9843Y-3.7508
X9.9843Y-3.9102
X9.998Y-5.8827
X9.998Y-6.2827
X10.0953Y-4.1142
X10.115Y-4.8031
X10.1575Y-5.8827
X10.1575Y-6.2827
X10.2953Y-4.1142
X10.315Y-4.8031
X10.3169Y-5.8827
X10.3169Y-6.2827
X10.4764Y-5.8827
X10.4764Y-6.2827
X10.5283Y-4.5079
X10.5587Y-3.7992
X10.5587Y-3.939
X10.6358Y-5.8827
X10.6358Y-6.2827
X10.7087Y-2.6693
X10.7087Y-2.8681
X10.7087Y-3.0669
X10.7087Y-3.2657
X10.7087Y-3.4646
X10.7283Y-4.5079
X10.7953Y-5.8827
X10.7953Y-6.2827
X10.8587Y-3.7992
X10.8587Y-3.939
X10.9055Y-2.6693
X10.9055Y-2.8681
X10.9055Y-3.0669
X10.9055Y-3.2657
X10.9055Y-3.4646
X10.9547Y-5.8827
X10.9547Y-6.2827
T2
X6.1952Y-2.6599
X6.1952Y-3.5599
X6.2952Y-2.6599
X6.2952Y-3.5599
X6.3952Y-2.6599
X6.3952Y-3.5599
X6.4952Y-2.6599
X6.4952Y-3.5599
X6.5952Y-2.6599
X6.5952Y-3.5599
X6.6952Y-2.6599
X6.6952Y-3.5599
X6.7952Y-2.6599
X6.7952Y-3.5599
X6.8952Y-2.6599
X6.8952Y-3.5599
T3
X8.189Y-2.7543
X8.189Y-2.8543
X8.4344Y-2.7543
X8.4344Y-2.8543
X8.6707Y-2.7543
X8.6707Y-2.8543
X8.8976Y-2.7543
X8.8976Y-2.8543
T4
X5.3661Y-6.0
X5.4661Y-6.0
X5.663Y-5.7303
X5.7268Y-6.0039
X5.763Y-5.7303
X5.8268Y-6.0039
X5.863Y-5.7303
X5.9268Y-6.0039
X5.963Y-5.7303
X6.063Y-5.7303
X6.7402Y-3.95
X6.7402Y-4.05
X6.7402Y-4.15
X6.7402Y-4.25
X6.7402Y-4.35
X6.7402Y-4.45
X6.7402Y-4.55
X6.7402Y-4.65
X6.7402Y-4.75
X6.7402Y-4.85
X6.7402Y-4.95
T5
X7.0649Y-5.5615
X7.0649Y-6.1615
X7.1649Y-5.5615
X7.1649Y-6.1615
X7.2649Y-5.5615
X7.2649Y-6.1615
X7.3649Y-5.5615
X7.3649Y-6.1615
X7.4649Y-5.5615
X7.4649Y-6.1615
X7.5649Y-5.5615
X7.5649Y-6.1615
X7.6649Y-5.5615
X7.6649Y-6.1615
X7.7649Y-5.5615
X7.7649Y-6.1615
X7.8649Y-5.5615
X7.8649Y-6.1615
X7.9649Y-5.5615
X7.9649Y-6.1615
X8.0649Y-5.5615
X8.0649Y-6.1615
X8.1649Y-5.5615
X8.1649Y-6.1615
X8.2649Y-5.5615
X8.2649Y-6.1615
X8.3649Y-5.5615
X8.3649Y-6.1615
X8.4649Y-5.5615
X8.4649Y-6.1615
M30
