%TF.GenerationSoftware,KiCad,Pcbnew,8.0.0*%
%TF.CreationDate,2024-03-14T09:13:49+01:00*%
%TF.ProjectId,Game_Board_v1,47616d65-5f42-46f6-9172-645f76312e6b,rev?*%
%TF.SameCoordinates,Original*%
%TF.FileFunction,Legend,Bot*%
%TF.FilePolarity,Positive*%
%FSLAX46Y46*%
G04 Gerber Fmt 4.6, Leading zero omitted, Abs format (unit mm)*
G04 Created by KiCad (PCBNEW 8.0.0) date 2024-03-14 09:13:49*
%MOMM*%
%LPD*%
G01*
G04 APERTURE LIST*
%ADD10C,0.050000*%
%ADD11C,0.150000*%
%ADD12C,0.304800*%
%ADD13C,0.127000*%
%ADD14C,0.508000*%
G04 APERTURE END LIST*
D10*
X163011880Y-87683833D02*
X163059500Y-87636214D01*
X163059500Y-87636214D02*
X163107119Y-87493357D01*
X163107119Y-87493357D02*
X163107119Y-87398119D01*
X163107119Y-87398119D02*
X163059500Y-87255262D01*
X163059500Y-87255262D02*
X162964261Y-87160024D01*
X162964261Y-87160024D02*
X162869023Y-87112405D01*
X162869023Y-87112405D02*
X162678547Y-87064786D01*
X162678547Y-87064786D02*
X162535690Y-87064786D01*
X162535690Y-87064786D02*
X162345214Y-87112405D01*
X162345214Y-87112405D02*
X162249976Y-87160024D01*
X162249976Y-87160024D02*
X162154738Y-87255262D01*
X162154738Y-87255262D02*
X162107119Y-87398119D01*
X162107119Y-87398119D02*
X162107119Y-87493357D01*
X162107119Y-87493357D02*
X162154738Y-87636214D01*
X162154738Y-87636214D02*
X162202357Y-87683833D01*
X163059500Y-88064786D02*
X163107119Y-88207643D01*
X163107119Y-88207643D02*
X163107119Y-88445738D01*
X163107119Y-88445738D02*
X163059500Y-88540976D01*
X163059500Y-88540976D02*
X163011880Y-88588595D01*
X163011880Y-88588595D02*
X162916642Y-88636214D01*
X162916642Y-88636214D02*
X162821404Y-88636214D01*
X162821404Y-88636214D02*
X162726166Y-88588595D01*
X162726166Y-88588595D02*
X162678547Y-88540976D01*
X162678547Y-88540976D02*
X162630928Y-88445738D01*
X162630928Y-88445738D02*
X162583309Y-88255262D01*
X162583309Y-88255262D02*
X162535690Y-88160024D01*
X162535690Y-88160024D02*
X162488071Y-88112405D01*
X162488071Y-88112405D02*
X162392833Y-88064786D01*
X162392833Y-88064786D02*
X162297595Y-88064786D01*
X162297595Y-88064786D02*
X162202357Y-88112405D01*
X162202357Y-88112405D02*
X162154738Y-88160024D01*
X162154738Y-88160024D02*
X162107119Y-88255262D01*
X162107119Y-88255262D02*
X162107119Y-88493357D01*
X162107119Y-88493357D02*
X162154738Y-88636214D01*
X168164900Y-69345320D02*
X168212519Y-69488177D01*
X168212519Y-69488177D02*
X168212519Y-69726272D01*
X168212519Y-69726272D02*
X168164900Y-69821510D01*
X168164900Y-69821510D02*
X168117280Y-69869129D01*
X168117280Y-69869129D02*
X168022042Y-69916748D01*
X168022042Y-69916748D02*
X167926804Y-69916748D01*
X167926804Y-69916748D02*
X167831566Y-69869129D01*
X167831566Y-69869129D02*
X167783947Y-69821510D01*
X167783947Y-69821510D02*
X167736328Y-69726272D01*
X167736328Y-69726272D02*
X167688709Y-69535796D01*
X167688709Y-69535796D02*
X167641090Y-69440558D01*
X167641090Y-69440558D02*
X167593471Y-69392939D01*
X167593471Y-69392939D02*
X167498233Y-69345320D01*
X167498233Y-69345320D02*
X167402995Y-69345320D01*
X167402995Y-69345320D02*
X167307757Y-69392939D01*
X167307757Y-69392939D02*
X167260138Y-69440558D01*
X167260138Y-69440558D02*
X167212519Y-69535796D01*
X167212519Y-69535796D02*
X167212519Y-69773891D01*
X167212519Y-69773891D02*
X167260138Y-69916748D01*
X168117280Y-70916748D02*
X168164900Y-70869129D01*
X168164900Y-70869129D02*
X168212519Y-70726272D01*
X168212519Y-70726272D02*
X168212519Y-70631034D01*
X168212519Y-70631034D02*
X168164900Y-70488177D01*
X168164900Y-70488177D02*
X168069661Y-70392939D01*
X168069661Y-70392939D02*
X167974423Y-70345320D01*
X167974423Y-70345320D02*
X167783947Y-70297701D01*
X167783947Y-70297701D02*
X167641090Y-70297701D01*
X167641090Y-70297701D02*
X167450614Y-70345320D01*
X167450614Y-70345320D02*
X167355376Y-70392939D01*
X167355376Y-70392939D02*
X167260138Y-70488177D01*
X167260138Y-70488177D02*
X167212519Y-70631034D01*
X167212519Y-70631034D02*
X167212519Y-70726272D01*
X167212519Y-70726272D02*
X167260138Y-70869129D01*
X167260138Y-70869129D02*
X167307757Y-70916748D01*
X168212519Y-71821510D02*
X168212519Y-71345320D01*
X168212519Y-71345320D02*
X167212519Y-71345320D01*
X158179519Y-69392938D02*
X157179519Y-69392938D01*
X157179519Y-69392938D02*
X157179519Y-69773890D01*
X157179519Y-69773890D02*
X157227138Y-69869128D01*
X157227138Y-69869128D02*
X157274757Y-69916747D01*
X157274757Y-69916747D02*
X157369995Y-69964366D01*
X157369995Y-69964366D02*
X157512852Y-69964366D01*
X157512852Y-69964366D02*
X157608090Y-69916747D01*
X157608090Y-69916747D02*
X157655709Y-69869128D01*
X157655709Y-69869128D02*
X157703328Y-69773890D01*
X157703328Y-69773890D02*
X157703328Y-69392938D01*
X157179519Y-70297700D02*
X158179519Y-70535795D01*
X158179519Y-70535795D02*
X157465233Y-70726271D01*
X157465233Y-70726271D02*
X158179519Y-70916747D01*
X158179519Y-70916747D02*
X157179519Y-71154843D01*
X158179519Y-71535795D02*
X157179519Y-71535795D01*
X157179519Y-71535795D02*
X157893804Y-71869128D01*
X157893804Y-71869128D02*
X157179519Y-72202461D01*
X157179519Y-72202461D02*
X158179519Y-72202461D01*
X168187119Y-85445738D02*
X167187119Y-85445738D01*
X167187119Y-85445738D02*
X167901404Y-85779071D01*
X167901404Y-85779071D02*
X167187119Y-86112404D01*
X167187119Y-86112404D02*
X168187119Y-86112404D01*
X168187119Y-86588595D02*
X167187119Y-86588595D01*
X168139500Y-87017166D02*
X168187119Y-87160023D01*
X168187119Y-87160023D02*
X168187119Y-87398118D01*
X168187119Y-87398118D02*
X168139500Y-87493356D01*
X168139500Y-87493356D02*
X168091880Y-87540975D01*
X168091880Y-87540975D02*
X167996642Y-87588594D01*
X167996642Y-87588594D02*
X167901404Y-87588594D01*
X167901404Y-87588594D02*
X167806166Y-87540975D01*
X167806166Y-87540975D02*
X167758547Y-87493356D01*
X167758547Y-87493356D02*
X167710928Y-87398118D01*
X167710928Y-87398118D02*
X167663309Y-87207642D01*
X167663309Y-87207642D02*
X167615690Y-87112404D01*
X167615690Y-87112404D02*
X167568071Y-87064785D01*
X167568071Y-87064785D02*
X167472833Y-87017166D01*
X167472833Y-87017166D02*
X167377595Y-87017166D01*
X167377595Y-87017166D02*
X167282357Y-87064785D01*
X167282357Y-87064785D02*
X167234738Y-87112404D01*
X167234738Y-87112404D02*
X167187119Y-87207642D01*
X167187119Y-87207642D02*
X167187119Y-87445737D01*
X167187119Y-87445737D02*
X167234738Y-87588594D01*
X167187119Y-88207642D02*
X167187119Y-88398118D01*
X167187119Y-88398118D02*
X167234738Y-88493356D01*
X167234738Y-88493356D02*
X167329976Y-88588594D01*
X167329976Y-88588594D02*
X167520452Y-88636213D01*
X167520452Y-88636213D02*
X167853785Y-88636213D01*
X167853785Y-88636213D02*
X168044261Y-88588594D01*
X168044261Y-88588594D02*
X168139500Y-88493356D01*
X168139500Y-88493356D02*
X168187119Y-88398118D01*
X168187119Y-88398118D02*
X168187119Y-88207642D01*
X168187119Y-88207642D02*
X168139500Y-88112404D01*
X168139500Y-88112404D02*
X168044261Y-88017166D01*
X168044261Y-88017166D02*
X167853785Y-87969547D01*
X167853785Y-87969547D02*
X167520452Y-87969547D01*
X167520452Y-87969547D02*
X167329976Y-88017166D01*
X167329976Y-88017166D02*
X167234738Y-88112404D01*
X167234738Y-88112404D02*
X167187119Y-88207642D01*
X165624900Y-86064786D02*
X165672519Y-86207643D01*
X165672519Y-86207643D02*
X165672519Y-86445738D01*
X165672519Y-86445738D02*
X165624900Y-86540976D01*
X165624900Y-86540976D02*
X165577280Y-86588595D01*
X165577280Y-86588595D02*
X165482042Y-86636214D01*
X165482042Y-86636214D02*
X165386804Y-86636214D01*
X165386804Y-86636214D02*
X165291566Y-86588595D01*
X165291566Y-86588595D02*
X165243947Y-86540976D01*
X165243947Y-86540976D02*
X165196328Y-86445738D01*
X165196328Y-86445738D02*
X165148709Y-86255262D01*
X165148709Y-86255262D02*
X165101090Y-86160024D01*
X165101090Y-86160024D02*
X165053471Y-86112405D01*
X165053471Y-86112405D02*
X164958233Y-86064786D01*
X164958233Y-86064786D02*
X164862995Y-86064786D01*
X164862995Y-86064786D02*
X164767757Y-86112405D01*
X164767757Y-86112405D02*
X164720138Y-86160024D01*
X164720138Y-86160024D02*
X164672519Y-86255262D01*
X164672519Y-86255262D02*
X164672519Y-86493357D01*
X164672519Y-86493357D02*
X164720138Y-86636214D01*
X165577280Y-87636214D02*
X165624900Y-87588595D01*
X165624900Y-87588595D02*
X165672519Y-87445738D01*
X165672519Y-87445738D02*
X165672519Y-87350500D01*
X165672519Y-87350500D02*
X165624900Y-87207643D01*
X165624900Y-87207643D02*
X165529661Y-87112405D01*
X165529661Y-87112405D02*
X165434423Y-87064786D01*
X165434423Y-87064786D02*
X165243947Y-87017167D01*
X165243947Y-87017167D02*
X165101090Y-87017167D01*
X165101090Y-87017167D02*
X164910614Y-87064786D01*
X164910614Y-87064786D02*
X164815376Y-87112405D01*
X164815376Y-87112405D02*
X164720138Y-87207643D01*
X164720138Y-87207643D02*
X164672519Y-87350500D01*
X164672519Y-87350500D02*
X164672519Y-87445738D01*
X164672519Y-87445738D02*
X164720138Y-87588595D01*
X164720138Y-87588595D02*
X164767757Y-87636214D01*
X165672519Y-88064786D02*
X164672519Y-88064786D01*
X165672519Y-88636214D02*
X165101090Y-88207643D01*
X164672519Y-88636214D02*
X165243947Y-88064786D01*
X157217519Y-75889167D02*
X156550852Y-75889167D01*
X156646090Y-75889167D02*
X156598471Y-75936786D01*
X156598471Y-75936786D02*
X156550852Y-76032024D01*
X156550852Y-76032024D02*
X156550852Y-76174881D01*
X156550852Y-76174881D02*
X156598471Y-76270119D01*
X156598471Y-76270119D02*
X156693709Y-76317738D01*
X156693709Y-76317738D02*
X157217519Y-76317738D01*
X156693709Y-76317738D02*
X156598471Y-76365357D01*
X156598471Y-76365357D02*
X156550852Y-76460595D01*
X156550852Y-76460595D02*
X156550852Y-76603452D01*
X156550852Y-76603452D02*
X156598471Y-76698691D01*
X156598471Y-76698691D02*
X156693709Y-76746310D01*
X156693709Y-76746310D02*
X157217519Y-76746310D01*
X157217519Y-77222500D02*
X156550852Y-77222500D01*
X156217519Y-77222500D02*
X156265138Y-77174881D01*
X156265138Y-77174881D02*
X156312757Y-77222500D01*
X156312757Y-77222500D02*
X156265138Y-77270119D01*
X156265138Y-77270119D02*
X156217519Y-77222500D01*
X156217519Y-77222500D02*
X156312757Y-77222500D01*
X157217519Y-77698690D02*
X156217519Y-77698690D01*
X156836566Y-77793928D02*
X157217519Y-78079642D01*
X156550852Y-78079642D02*
X156931804Y-77698690D01*
X157217519Y-78508214D02*
X156550852Y-78508214D01*
X156741328Y-78508214D02*
X156646090Y-78555833D01*
X156646090Y-78555833D02*
X156598471Y-78603452D01*
X156598471Y-78603452D02*
X156550852Y-78698690D01*
X156550852Y-78698690D02*
X156550852Y-78793928D01*
X157217519Y-79270119D02*
X157169900Y-79174881D01*
X157169900Y-79174881D02*
X157122280Y-79127262D01*
X157122280Y-79127262D02*
X157027042Y-79079643D01*
X157027042Y-79079643D02*
X156741328Y-79079643D01*
X156741328Y-79079643D02*
X156646090Y-79127262D01*
X156646090Y-79127262D02*
X156598471Y-79174881D01*
X156598471Y-79174881D02*
X156550852Y-79270119D01*
X156550852Y-79270119D02*
X156550852Y-79412976D01*
X156550852Y-79412976D02*
X156598471Y-79508214D01*
X156598471Y-79508214D02*
X156646090Y-79555833D01*
X156646090Y-79555833D02*
X156741328Y-79603452D01*
X156741328Y-79603452D02*
X157027042Y-79603452D01*
X157027042Y-79603452D02*
X157122280Y-79555833D01*
X157122280Y-79555833D02*
X157169900Y-79508214D01*
X157169900Y-79508214D02*
X157217519Y-79412976D01*
X157217519Y-79412976D02*
X157217519Y-79270119D01*
X156693709Y-80365357D02*
X156741328Y-80508214D01*
X156741328Y-80508214D02*
X156788947Y-80555833D01*
X156788947Y-80555833D02*
X156884185Y-80603452D01*
X156884185Y-80603452D02*
X157027042Y-80603452D01*
X157027042Y-80603452D02*
X157122280Y-80555833D01*
X157122280Y-80555833D02*
X157169900Y-80508214D01*
X157169900Y-80508214D02*
X157217519Y-80412976D01*
X157217519Y-80412976D02*
X157217519Y-80032024D01*
X157217519Y-80032024D02*
X156217519Y-80032024D01*
X156217519Y-80032024D02*
X156217519Y-80365357D01*
X156217519Y-80365357D02*
X156265138Y-80460595D01*
X156265138Y-80460595D02*
X156312757Y-80508214D01*
X156312757Y-80508214D02*
X156407995Y-80555833D01*
X156407995Y-80555833D02*
X156503233Y-80555833D01*
X156503233Y-80555833D02*
X156598471Y-80508214D01*
X156598471Y-80508214D02*
X156646090Y-80460595D01*
X156646090Y-80460595D02*
X156693709Y-80365357D01*
X156693709Y-80365357D02*
X156693709Y-80032024D01*
X156217519Y-81032024D02*
X157027042Y-81032024D01*
X157027042Y-81032024D02*
X157122280Y-81079643D01*
X157122280Y-81079643D02*
X157169900Y-81127262D01*
X157169900Y-81127262D02*
X157217519Y-81222500D01*
X157217519Y-81222500D02*
X157217519Y-81412976D01*
X157217519Y-81412976D02*
X157169900Y-81508214D01*
X157169900Y-81508214D02*
X157122280Y-81555833D01*
X157122280Y-81555833D02*
X157027042Y-81603452D01*
X157027042Y-81603452D02*
X156217519Y-81603452D01*
X157169900Y-82032024D02*
X157217519Y-82174881D01*
X157217519Y-82174881D02*
X157217519Y-82412976D01*
X157217519Y-82412976D02*
X157169900Y-82508214D01*
X157169900Y-82508214D02*
X157122280Y-82555833D01*
X157122280Y-82555833D02*
X157027042Y-82603452D01*
X157027042Y-82603452D02*
X156931804Y-82603452D01*
X156931804Y-82603452D02*
X156836566Y-82555833D01*
X156836566Y-82555833D02*
X156788947Y-82508214D01*
X156788947Y-82508214D02*
X156741328Y-82412976D01*
X156741328Y-82412976D02*
X156693709Y-82222500D01*
X156693709Y-82222500D02*
X156646090Y-82127262D01*
X156646090Y-82127262D02*
X156598471Y-82079643D01*
X156598471Y-82079643D02*
X156503233Y-82032024D01*
X156503233Y-82032024D02*
X156407995Y-82032024D01*
X156407995Y-82032024D02*
X156312757Y-82079643D01*
X156312757Y-82079643D02*
X156265138Y-82127262D01*
X156265138Y-82127262D02*
X156217519Y-82222500D01*
X156217519Y-82222500D02*
X156217519Y-82460595D01*
X156217519Y-82460595D02*
X156265138Y-82603452D01*
X155939900Y-79893929D02*
X155939900Y-82693929D01*
X172886166Y-85064785D02*
X172886166Y-85826690D01*
X173267119Y-85445737D02*
X172505214Y-85445737D01*
X172267119Y-86207642D02*
X172267119Y-86826689D01*
X172267119Y-86826689D02*
X172648071Y-86493356D01*
X172648071Y-86493356D02*
X172648071Y-86636213D01*
X172648071Y-86636213D02*
X172695690Y-86731451D01*
X172695690Y-86731451D02*
X172743309Y-86779070D01*
X172743309Y-86779070D02*
X172838547Y-86826689D01*
X172838547Y-86826689D02*
X173076642Y-86826689D01*
X173076642Y-86826689D02*
X173171880Y-86779070D01*
X173171880Y-86779070D02*
X173219500Y-86731451D01*
X173219500Y-86731451D02*
X173267119Y-86636213D01*
X173267119Y-86636213D02*
X173267119Y-86350499D01*
X173267119Y-86350499D02*
X173219500Y-86255261D01*
X173219500Y-86255261D02*
X173171880Y-86207642D01*
X172267119Y-87112404D02*
X173267119Y-87445737D01*
X173267119Y-87445737D02*
X172267119Y-87779070D01*
X172267119Y-88017166D02*
X172267119Y-88636213D01*
X172267119Y-88636213D02*
X172648071Y-88302880D01*
X172648071Y-88302880D02*
X172648071Y-88445737D01*
X172648071Y-88445737D02*
X172695690Y-88540975D01*
X172695690Y-88540975D02*
X172743309Y-88588594D01*
X172743309Y-88588594D02*
X172838547Y-88636213D01*
X172838547Y-88636213D02*
X173076642Y-88636213D01*
X173076642Y-88636213D02*
X173171880Y-88588594D01*
X173171880Y-88588594D02*
X173219500Y-88540975D01*
X173219500Y-88540975D02*
X173267119Y-88445737D01*
X173267119Y-88445737D02*
X173267119Y-88160023D01*
X173267119Y-88160023D02*
X173219500Y-88064785D01*
X173219500Y-88064785D02*
X173171880Y-88017166D01*
X163132519Y-69964367D02*
X162656328Y-69631034D01*
X163132519Y-69392939D02*
X162132519Y-69392939D01*
X162132519Y-69392939D02*
X162132519Y-69773891D01*
X162132519Y-69773891D02*
X162180138Y-69869129D01*
X162180138Y-69869129D02*
X162227757Y-69916748D01*
X162227757Y-69916748D02*
X162322995Y-69964367D01*
X162322995Y-69964367D02*
X162465852Y-69964367D01*
X162465852Y-69964367D02*
X162561090Y-69916748D01*
X162561090Y-69916748D02*
X162608709Y-69869129D01*
X162608709Y-69869129D02*
X162656328Y-69773891D01*
X162656328Y-69773891D02*
X162656328Y-69392939D01*
X162132519Y-70297701D02*
X163132519Y-70964367D01*
X162132519Y-70964367D02*
X163132519Y-70297701D01*
X172911566Y-69392939D02*
X172911566Y-70154844D01*
X173292519Y-69773891D02*
X172530614Y-69773891D01*
X172292519Y-71107224D02*
X172292519Y-70631034D01*
X172292519Y-70631034D02*
X172768709Y-70583415D01*
X172768709Y-70583415D02*
X172721090Y-70631034D01*
X172721090Y-70631034D02*
X172673471Y-70726272D01*
X172673471Y-70726272D02*
X172673471Y-70964367D01*
X172673471Y-70964367D02*
X172721090Y-71059605D01*
X172721090Y-71059605D02*
X172768709Y-71107224D01*
X172768709Y-71107224D02*
X172863947Y-71154843D01*
X172863947Y-71154843D02*
X173102042Y-71154843D01*
X173102042Y-71154843D02*
X173197280Y-71107224D01*
X173197280Y-71107224D02*
X173244900Y-71059605D01*
X173244900Y-71059605D02*
X173292519Y-70964367D01*
X173292519Y-70964367D02*
X173292519Y-70726272D01*
X173292519Y-70726272D02*
X173244900Y-70631034D01*
X173244900Y-70631034D02*
X173197280Y-70583415D01*
X172292519Y-71440558D02*
X173292519Y-71773891D01*
X173292519Y-71773891D02*
X172292519Y-72107224D01*
X170704900Y-69345319D02*
X170752519Y-69488176D01*
X170752519Y-69488176D02*
X170752519Y-69726271D01*
X170752519Y-69726271D02*
X170704900Y-69821509D01*
X170704900Y-69821509D02*
X170657280Y-69869128D01*
X170657280Y-69869128D02*
X170562042Y-69916747D01*
X170562042Y-69916747D02*
X170466804Y-69916747D01*
X170466804Y-69916747D02*
X170371566Y-69869128D01*
X170371566Y-69869128D02*
X170323947Y-69821509D01*
X170323947Y-69821509D02*
X170276328Y-69726271D01*
X170276328Y-69726271D02*
X170228709Y-69535795D01*
X170228709Y-69535795D02*
X170181090Y-69440557D01*
X170181090Y-69440557D02*
X170133471Y-69392938D01*
X170133471Y-69392938D02*
X170038233Y-69345319D01*
X170038233Y-69345319D02*
X169942995Y-69345319D01*
X169942995Y-69345319D02*
X169847757Y-69392938D01*
X169847757Y-69392938D02*
X169800138Y-69440557D01*
X169800138Y-69440557D02*
X169752519Y-69535795D01*
X169752519Y-69535795D02*
X169752519Y-69773890D01*
X169752519Y-69773890D02*
X169800138Y-69916747D01*
X170752519Y-70345319D02*
X169752519Y-70345319D01*
X169752519Y-70345319D02*
X169752519Y-70583414D01*
X169752519Y-70583414D02*
X169800138Y-70726271D01*
X169800138Y-70726271D02*
X169895376Y-70821509D01*
X169895376Y-70821509D02*
X169990614Y-70869128D01*
X169990614Y-70869128D02*
X170181090Y-70916747D01*
X170181090Y-70916747D02*
X170323947Y-70916747D01*
X170323947Y-70916747D02*
X170514423Y-70869128D01*
X170514423Y-70869128D02*
X170609661Y-70821509D01*
X170609661Y-70821509D02*
X170704900Y-70726271D01*
X170704900Y-70726271D02*
X170752519Y-70583414D01*
X170752519Y-70583414D02*
X170752519Y-70345319D01*
X170466804Y-71297700D02*
X170466804Y-71773890D01*
X170752519Y-71202462D02*
X169752519Y-71535795D01*
X169752519Y-71535795D02*
X170752519Y-71869128D01*
X160592519Y-69392938D02*
X159592519Y-69392938D01*
X160592519Y-69869128D02*
X159592519Y-69869128D01*
X159592519Y-69869128D02*
X160592519Y-70440556D01*
X160592519Y-70440556D02*
X159592519Y-70440556D01*
X159592519Y-70773890D02*
X159592519Y-71345318D01*
X160592519Y-71059604D02*
X159592519Y-71059604D01*
X160592519Y-86921927D02*
X160116328Y-86588594D01*
X160592519Y-86350499D02*
X159592519Y-86350499D01*
X159592519Y-86350499D02*
X159592519Y-86731451D01*
X159592519Y-86731451D02*
X159640138Y-86826689D01*
X159640138Y-86826689D02*
X159687757Y-86874308D01*
X159687757Y-86874308D02*
X159782995Y-86921927D01*
X159782995Y-86921927D02*
X159925852Y-86921927D01*
X159925852Y-86921927D02*
X160021090Y-86874308D01*
X160021090Y-86874308D02*
X160068709Y-86826689D01*
X160068709Y-86826689D02*
X160116328Y-86731451D01*
X160116328Y-86731451D02*
X160116328Y-86350499D01*
X160544900Y-87302880D02*
X160592519Y-87445737D01*
X160592519Y-87445737D02*
X160592519Y-87683832D01*
X160592519Y-87683832D02*
X160544900Y-87779070D01*
X160544900Y-87779070D02*
X160497280Y-87826689D01*
X160497280Y-87826689D02*
X160402042Y-87874308D01*
X160402042Y-87874308D02*
X160306804Y-87874308D01*
X160306804Y-87874308D02*
X160211566Y-87826689D01*
X160211566Y-87826689D02*
X160163947Y-87779070D01*
X160163947Y-87779070D02*
X160116328Y-87683832D01*
X160116328Y-87683832D02*
X160068709Y-87493356D01*
X160068709Y-87493356D02*
X160021090Y-87398118D01*
X160021090Y-87398118D02*
X159973471Y-87350499D01*
X159973471Y-87350499D02*
X159878233Y-87302880D01*
X159878233Y-87302880D02*
X159782995Y-87302880D01*
X159782995Y-87302880D02*
X159687757Y-87350499D01*
X159687757Y-87350499D02*
X159640138Y-87398118D01*
X159640138Y-87398118D02*
X159592519Y-87493356D01*
X159592519Y-87493356D02*
X159592519Y-87731451D01*
X159592519Y-87731451D02*
X159640138Y-87874308D01*
X159592519Y-88160023D02*
X159592519Y-88731451D01*
X160592519Y-88445737D02*
X159592519Y-88445737D01*
X164672519Y-69250081D02*
X164672519Y-69821509D01*
X165672519Y-69535795D02*
X164672519Y-69535795D01*
X164672519Y-70059605D02*
X165672519Y-70726271D01*
X164672519Y-70726271D02*
X165672519Y-70059605D01*
X170752519Y-85445738D02*
X169752519Y-85445738D01*
X169752519Y-85445738D02*
X170466804Y-85779071D01*
X170466804Y-85779071D02*
X169752519Y-86112404D01*
X169752519Y-86112404D02*
X170752519Y-86112404D01*
X169752519Y-86779071D02*
X169752519Y-86969547D01*
X169752519Y-86969547D02*
X169800138Y-87064785D01*
X169800138Y-87064785D02*
X169895376Y-87160023D01*
X169895376Y-87160023D02*
X170085852Y-87207642D01*
X170085852Y-87207642D02*
X170419185Y-87207642D01*
X170419185Y-87207642D02*
X170609661Y-87160023D01*
X170609661Y-87160023D02*
X170704900Y-87064785D01*
X170704900Y-87064785D02*
X170752519Y-86969547D01*
X170752519Y-86969547D02*
X170752519Y-86779071D01*
X170752519Y-86779071D02*
X170704900Y-86683833D01*
X170704900Y-86683833D02*
X170609661Y-86588595D01*
X170609661Y-86588595D02*
X170419185Y-86540976D01*
X170419185Y-86540976D02*
X170085852Y-86540976D01*
X170085852Y-86540976D02*
X169895376Y-86588595D01*
X169895376Y-86588595D02*
X169800138Y-86683833D01*
X169800138Y-86683833D02*
X169752519Y-86779071D01*
X170704900Y-87588595D02*
X170752519Y-87731452D01*
X170752519Y-87731452D02*
X170752519Y-87969547D01*
X170752519Y-87969547D02*
X170704900Y-88064785D01*
X170704900Y-88064785D02*
X170657280Y-88112404D01*
X170657280Y-88112404D02*
X170562042Y-88160023D01*
X170562042Y-88160023D02*
X170466804Y-88160023D01*
X170466804Y-88160023D02*
X170371566Y-88112404D01*
X170371566Y-88112404D02*
X170323947Y-88064785D01*
X170323947Y-88064785D02*
X170276328Y-87969547D01*
X170276328Y-87969547D02*
X170228709Y-87779071D01*
X170228709Y-87779071D02*
X170181090Y-87683833D01*
X170181090Y-87683833D02*
X170133471Y-87636214D01*
X170133471Y-87636214D02*
X170038233Y-87588595D01*
X170038233Y-87588595D02*
X169942995Y-87588595D01*
X169942995Y-87588595D02*
X169847757Y-87636214D01*
X169847757Y-87636214D02*
X169800138Y-87683833D01*
X169800138Y-87683833D02*
X169752519Y-87779071D01*
X169752519Y-87779071D02*
X169752519Y-88017166D01*
X169752519Y-88017166D02*
X169800138Y-88160023D01*
X170752519Y-88588595D02*
X169752519Y-88588595D01*
D11*
X173200176Y-78622500D02*
X174152557Y-78622500D01*
X173771604Y-77789167D02*
X174152557Y-78622500D01*
X174152557Y-78622500D02*
X173771604Y-79455833D01*
X174914461Y-78122500D02*
X174152557Y-78622500D01*
X174152557Y-78622500D02*
X174914461Y-79122500D01*
D10*
X174880138Y-86540976D02*
X174832519Y-86445738D01*
X174832519Y-86445738D02*
X174832519Y-86302881D01*
X174832519Y-86302881D02*
X174880138Y-86160024D01*
X174880138Y-86160024D02*
X174975376Y-86064786D01*
X174975376Y-86064786D02*
X175070614Y-86017167D01*
X175070614Y-86017167D02*
X175261090Y-85969548D01*
X175261090Y-85969548D02*
X175403947Y-85969548D01*
X175403947Y-85969548D02*
X175594423Y-86017167D01*
X175594423Y-86017167D02*
X175689661Y-86064786D01*
X175689661Y-86064786D02*
X175784900Y-86160024D01*
X175784900Y-86160024D02*
X175832519Y-86302881D01*
X175832519Y-86302881D02*
X175832519Y-86398119D01*
X175832519Y-86398119D02*
X175784900Y-86540976D01*
X175784900Y-86540976D02*
X175737280Y-86588595D01*
X175737280Y-86588595D02*
X175403947Y-86588595D01*
X175403947Y-86588595D02*
X175403947Y-86398119D01*
X175832519Y-87017167D02*
X174832519Y-87017167D01*
X174832519Y-87017167D02*
X175832519Y-87588595D01*
X175832519Y-87588595D02*
X174832519Y-87588595D01*
X175832519Y-88064786D02*
X174832519Y-88064786D01*
X174832519Y-88064786D02*
X174832519Y-88302881D01*
X174832519Y-88302881D02*
X174880138Y-88445738D01*
X174880138Y-88445738D02*
X174975376Y-88540976D01*
X174975376Y-88540976D02*
X175070614Y-88588595D01*
X175070614Y-88588595D02*
X175261090Y-88636214D01*
X175261090Y-88636214D02*
X175403947Y-88636214D01*
X175403947Y-88636214D02*
X175594423Y-88588595D01*
X175594423Y-88588595D02*
X175689661Y-88540976D01*
X175689661Y-88540976D02*
X175784900Y-88445738D01*
X175784900Y-88445738D02*
X175832519Y-88302881D01*
X175832519Y-88302881D02*
X175832519Y-88064786D01*
X174880138Y-69916748D02*
X174832519Y-69821510D01*
X174832519Y-69821510D02*
X174832519Y-69678653D01*
X174832519Y-69678653D02*
X174880138Y-69535796D01*
X174880138Y-69535796D02*
X174975376Y-69440558D01*
X174975376Y-69440558D02*
X175070614Y-69392939D01*
X175070614Y-69392939D02*
X175261090Y-69345320D01*
X175261090Y-69345320D02*
X175403947Y-69345320D01*
X175403947Y-69345320D02*
X175594423Y-69392939D01*
X175594423Y-69392939D02*
X175689661Y-69440558D01*
X175689661Y-69440558D02*
X175784900Y-69535796D01*
X175784900Y-69535796D02*
X175832519Y-69678653D01*
X175832519Y-69678653D02*
X175832519Y-69773891D01*
X175832519Y-69773891D02*
X175784900Y-69916748D01*
X175784900Y-69916748D02*
X175737280Y-69964367D01*
X175737280Y-69964367D02*
X175403947Y-69964367D01*
X175403947Y-69964367D02*
X175403947Y-69773891D01*
X175832519Y-70392939D02*
X174832519Y-70392939D01*
X174832519Y-70392939D02*
X175832519Y-70964367D01*
X175832519Y-70964367D02*
X174832519Y-70964367D01*
X175832519Y-71440558D02*
X174832519Y-71440558D01*
X174832519Y-71440558D02*
X174832519Y-71678653D01*
X174832519Y-71678653D02*
X174880138Y-71821510D01*
X174880138Y-71821510D02*
X174975376Y-71916748D01*
X174975376Y-71916748D02*
X175070614Y-71964367D01*
X175070614Y-71964367D02*
X175261090Y-72011986D01*
X175261090Y-72011986D02*
X175403947Y-72011986D01*
X175403947Y-72011986D02*
X175594423Y-71964367D01*
X175594423Y-71964367D02*
X175689661Y-71916748D01*
X175689661Y-71916748D02*
X175784900Y-71821510D01*
X175784900Y-71821510D02*
X175832519Y-71678653D01*
X175832519Y-71678653D02*
X175832519Y-71440558D01*
X157766804Y-87112404D02*
X157766804Y-87588594D01*
X158052519Y-87017166D02*
X157052519Y-87350499D01*
X157052519Y-87350499D02*
X158052519Y-87683832D01*
X158052519Y-88017166D02*
X157052519Y-88017166D01*
X157052519Y-88017166D02*
X158052519Y-88588594D01*
X158052519Y-88588594D02*
X157052519Y-88588594D01*
D12*
%TO.C,CON1*%
X153877700Y-76928500D02*
X153877700Y-77944500D01*
X153877700Y-76928500D02*
X155401700Y-76928500D01*
X153877700Y-77944500D02*
X152226700Y-77944500D01*
X153877700Y-77944500D02*
X153877700Y-79087500D01*
X153877700Y-79087500D02*
X153877700Y-80230500D01*
X153877700Y-79087500D02*
X155401700Y-79087500D01*
X153877700Y-80230500D02*
X152226700Y-80230500D01*
X153877700Y-80230500D02*
X153877700Y-81373500D01*
X153877700Y-81373500D02*
X155401700Y-81373500D01*
D13*
X156087500Y-66292500D02*
X176407500Y-66292500D01*
X156087500Y-68832500D02*
X156087500Y-66292500D01*
X156087500Y-68832500D02*
X158627500Y-68832500D01*
X156087500Y-89152500D02*
X156087500Y-91692500D01*
X156087500Y-91692500D02*
X158627500Y-91692500D01*
X158627500Y-68832500D02*
X158627500Y-66292500D01*
X158627500Y-68832500D02*
X176407500Y-68832500D01*
X158627500Y-89152500D02*
X156087500Y-89152500D01*
X158627500Y-91692500D02*
X158627500Y-89152500D01*
X158627500Y-91692500D02*
X176407500Y-91692500D01*
X176387500Y-91702500D02*
X179007500Y-91702500D01*
X176407500Y-66292500D02*
X178997500Y-68832500D01*
X176407500Y-68832500D02*
X176407500Y-66292500D01*
X176407500Y-89152500D02*
X158627500Y-89152500D01*
X176407500Y-91692500D02*
X176407500Y-89152500D01*
X179007500Y-91702500D02*
X178987500Y-68832500D01*
D14*
X152455300Y-77944500D02*
G75*
G02*
X151998100Y-77944500I-228600J0D01*
G01*
X151998100Y-77944500D02*
G75*
G02*
X152455300Y-77944500I228600J0D01*
G01*
X152455300Y-80230500D02*
G75*
G02*
X151998100Y-80230500I-228600J0D01*
G01*
X151998100Y-80230500D02*
G75*
G02*
X152455300Y-80230500I228600J0D01*
G01*
X155630300Y-76928500D02*
G75*
G02*
X155173100Y-76928500I-228600J0D01*
G01*
X155173100Y-76928500D02*
G75*
G02*
X155630300Y-76928500I228600J0D01*
G01*
X155630300Y-79087500D02*
G75*
G02*
X155173100Y-79087500I-228600J0D01*
G01*
X155173100Y-79087500D02*
G75*
G02*
X155630300Y-79087500I228600J0D01*
G01*
X155630300Y-81373500D02*
G75*
G02*
X155173100Y-81373500I-228600J0D01*
G01*
X155173100Y-81373500D02*
G75*
G02*
X155630300Y-81373500I228600J0D01*
G01*
%TD*%
M02*
