%TF.GenerationSoftware,KiCad,Pcbnew,8.0.0*%
%TF.CreationDate,2024-03-14T23:06:46+01:00*%
%TF.ProjectId,Game_Board_v1,47616d65-5f42-46f6-9172-645f76312e6b,rev?*%
%TF.SameCoordinates,Original*%
%TF.FileFunction,Legend,Top*%
%TF.FilePolarity,Positive*%
%FSLAX46Y46*%
G04 Gerber Fmt 4.6, Leading zero omitted, Abs format (unit mm)*
G04 Created by KiCad (PCBNEW 8.0.0) date 2024-03-14 23:06:46*
%MOMM*%
%LPD*%
G01*
G04 APERTURE LIST*
%ADD10C,0.300000*%
%ADD11C,0.100000*%
%ADD12C,0.150000*%
%ADD13C,0.050000*%
%ADD14C,0.120000*%
%ADD15C,0.127000*%
%ADD16C,0.200000*%
%ADD17C,0.304800*%
%ADD18C,0.508000*%
G04 APERTURE END LIST*
D10*
X259768796Y-128935912D02*
X259054510Y-128935912D01*
X259054510Y-128935912D02*
X259054510Y-127435912D01*
X260268796Y-128150198D02*
X260768796Y-128150198D01*
X260983082Y-128935912D02*
X260268796Y-128935912D01*
X260268796Y-128935912D02*
X260268796Y-127435912D01*
X260268796Y-127435912D02*
X260983082Y-127435912D01*
X261625939Y-127935912D02*
X261625939Y-128935912D01*
X261625939Y-128078769D02*
X261697368Y-128007341D01*
X261697368Y-128007341D02*
X261840225Y-127935912D01*
X261840225Y-127935912D02*
X262054511Y-127935912D01*
X262054511Y-127935912D02*
X262197368Y-128007341D01*
X262197368Y-128007341D02*
X262268797Y-128150198D01*
X262268797Y-128150198D02*
X262268797Y-128935912D01*
X262911654Y-128864484D02*
X263054511Y-128935912D01*
X263054511Y-128935912D02*
X263340225Y-128935912D01*
X263340225Y-128935912D02*
X263483082Y-128864484D01*
X263483082Y-128864484D02*
X263554511Y-128721626D01*
X263554511Y-128721626D02*
X263554511Y-128650198D01*
X263554511Y-128650198D02*
X263483082Y-128507341D01*
X263483082Y-128507341D02*
X263340225Y-128435912D01*
X263340225Y-128435912D02*
X263125940Y-128435912D01*
X263125940Y-128435912D02*
X262983082Y-128364484D01*
X262983082Y-128364484D02*
X262911654Y-128221626D01*
X262911654Y-128221626D02*
X262911654Y-128150198D01*
X262911654Y-128150198D02*
X262983082Y-128007341D01*
X262983082Y-128007341D02*
X263125940Y-127935912D01*
X263125940Y-127935912D02*
X263340225Y-127935912D01*
X263340225Y-127935912D02*
X263483082Y-128007341D01*
X264197368Y-128150198D02*
X264697368Y-128150198D01*
X264911654Y-128935912D02*
X264197368Y-128935912D01*
X264197368Y-128935912D02*
X264197368Y-127435912D01*
X264197368Y-127435912D02*
X264911654Y-127435912D01*
X266625940Y-127578769D02*
X266697368Y-127507341D01*
X266697368Y-127507341D02*
X266840226Y-127435912D01*
X266840226Y-127435912D02*
X267197368Y-127435912D01*
X267197368Y-127435912D02*
X267340226Y-127507341D01*
X267340226Y-127507341D02*
X267411654Y-127578769D01*
X267411654Y-127578769D02*
X267483083Y-127721626D01*
X267483083Y-127721626D02*
X267483083Y-127864484D01*
X267483083Y-127864484D02*
X267411654Y-128078769D01*
X267411654Y-128078769D02*
X266554511Y-128935912D01*
X266554511Y-128935912D02*
X267483083Y-128935912D01*
X268411654Y-127435912D02*
X268554511Y-127435912D01*
X268554511Y-127435912D02*
X268697368Y-127507341D01*
X268697368Y-127507341D02*
X268768797Y-127578769D01*
X268768797Y-127578769D02*
X268840225Y-127721626D01*
X268840225Y-127721626D02*
X268911654Y-128007341D01*
X268911654Y-128007341D02*
X268911654Y-128364484D01*
X268911654Y-128364484D02*
X268840225Y-128650198D01*
X268840225Y-128650198D02*
X268768797Y-128793055D01*
X268768797Y-128793055D02*
X268697368Y-128864484D01*
X268697368Y-128864484D02*
X268554511Y-128935912D01*
X268554511Y-128935912D02*
X268411654Y-128935912D01*
X268411654Y-128935912D02*
X268268797Y-128864484D01*
X268268797Y-128864484D02*
X268197368Y-128793055D01*
X268197368Y-128793055D02*
X268125939Y-128650198D01*
X268125939Y-128650198D02*
X268054511Y-128364484D01*
X268054511Y-128364484D02*
X268054511Y-128007341D01*
X268054511Y-128007341D02*
X268125939Y-127721626D01*
X268125939Y-127721626D02*
X268197368Y-127578769D01*
X268197368Y-127578769D02*
X268268797Y-127507341D01*
X268268797Y-127507341D02*
X268411654Y-127435912D01*
X269483082Y-127578769D02*
X269554510Y-127507341D01*
X269554510Y-127507341D02*
X269697368Y-127435912D01*
X269697368Y-127435912D02*
X270054510Y-127435912D01*
X270054510Y-127435912D02*
X270197368Y-127507341D01*
X270197368Y-127507341D02*
X270268796Y-127578769D01*
X270268796Y-127578769D02*
X270340225Y-127721626D01*
X270340225Y-127721626D02*
X270340225Y-127864484D01*
X270340225Y-127864484D02*
X270268796Y-128078769D01*
X270268796Y-128078769D02*
X269411653Y-128935912D01*
X269411653Y-128935912D02*
X270340225Y-128935912D01*
X271625939Y-127935912D02*
X271625939Y-128935912D01*
X271268796Y-127364484D02*
X270911653Y-128435912D01*
X270911653Y-128435912D02*
X271840224Y-128435912D01*
X259840225Y-129922257D02*
X259697368Y-129850828D01*
X259697368Y-129850828D02*
X259483082Y-129850828D01*
X259483082Y-129850828D02*
X259268796Y-129922257D01*
X259268796Y-129922257D02*
X259125939Y-130065114D01*
X259125939Y-130065114D02*
X259054510Y-130207971D01*
X259054510Y-130207971D02*
X258983082Y-130493685D01*
X258983082Y-130493685D02*
X258983082Y-130707971D01*
X258983082Y-130707971D02*
X259054510Y-130993685D01*
X259054510Y-130993685D02*
X259125939Y-131136542D01*
X259125939Y-131136542D02*
X259268796Y-131279400D01*
X259268796Y-131279400D02*
X259483082Y-131350828D01*
X259483082Y-131350828D02*
X259625939Y-131350828D01*
X259625939Y-131350828D02*
X259840225Y-131279400D01*
X259840225Y-131279400D02*
X259911653Y-131207971D01*
X259911653Y-131207971D02*
X259911653Y-130707971D01*
X259911653Y-130707971D02*
X259625939Y-130707971D01*
X261197368Y-131350828D02*
X261197368Y-130565114D01*
X261197368Y-130565114D02*
X261125939Y-130422257D01*
X261125939Y-130422257D02*
X260983082Y-130350828D01*
X260983082Y-130350828D02*
X260697368Y-130350828D01*
X260697368Y-130350828D02*
X260554510Y-130422257D01*
X261197368Y-131279400D02*
X261054510Y-131350828D01*
X261054510Y-131350828D02*
X260697368Y-131350828D01*
X260697368Y-131350828D02*
X260554510Y-131279400D01*
X260554510Y-131279400D02*
X260483082Y-131136542D01*
X260483082Y-131136542D02*
X260483082Y-130993685D01*
X260483082Y-130993685D02*
X260554510Y-130850828D01*
X260554510Y-130850828D02*
X260697368Y-130779400D01*
X260697368Y-130779400D02*
X261054510Y-130779400D01*
X261054510Y-130779400D02*
X261197368Y-130707971D01*
X261911653Y-131350828D02*
X261911653Y-130350828D01*
X261911653Y-130493685D02*
X261983082Y-130422257D01*
X261983082Y-130422257D02*
X262125939Y-130350828D01*
X262125939Y-130350828D02*
X262340225Y-130350828D01*
X262340225Y-130350828D02*
X262483082Y-130422257D01*
X262483082Y-130422257D02*
X262554511Y-130565114D01*
X262554511Y-130565114D02*
X262554511Y-131350828D01*
X262554511Y-130565114D02*
X262625939Y-130422257D01*
X262625939Y-130422257D02*
X262768796Y-130350828D01*
X262768796Y-130350828D02*
X262983082Y-130350828D01*
X262983082Y-130350828D02*
X263125939Y-130422257D01*
X263125939Y-130422257D02*
X263197368Y-130565114D01*
X263197368Y-130565114D02*
X263197368Y-131350828D01*
X264483082Y-131279400D02*
X264340225Y-131350828D01*
X264340225Y-131350828D02*
X264054511Y-131350828D01*
X264054511Y-131350828D02*
X263911653Y-131279400D01*
X263911653Y-131279400D02*
X263840225Y-131136542D01*
X263840225Y-131136542D02*
X263840225Y-130565114D01*
X263840225Y-130565114D02*
X263911653Y-130422257D01*
X263911653Y-130422257D02*
X264054511Y-130350828D01*
X264054511Y-130350828D02*
X264340225Y-130350828D01*
X264340225Y-130350828D02*
X264483082Y-130422257D01*
X264483082Y-130422257D02*
X264554511Y-130565114D01*
X264554511Y-130565114D02*
X264554511Y-130707971D01*
X264554511Y-130707971D02*
X263840225Y-130850828D01*
X266840224Y-130565114D02*
X267054510Y-130636542D01*
X267054510Y-130636542D02*
X267125939Y-130707971D01*
X267125939Y-130707971D02*
X267197367Y-130850828D01*
X267197367Y-130850828D02*
X267197367Y-131065114D01*
X267197367Y-131065114D02*
X267125939Y-131207971D01*
X267125939Y-131207971D02*
X267054510Y-131279400D01*
X267054510Y-131279400D02*
X266911653Y-131350828D01*
X266911653Y-131350828D02*
X266340224Y-131350828D01*
X266340224Y-131350828D02*
X266340224Y-129850828D01*
X266340224Y-129850828D02*
X266840224Y-129850828D01*
X266840224Y-129850828D02*
X266983082Y-129922257D01*
X266983082Y-129922257D02*
X267054510Y-129993685D01*
X267054510Y-129993685D02*
X267125939Y-130136542D01*
X267125939Y-130136542D02*
X267125939Y-130279400D01*
X267125939Y-130279400D02*
X267054510Y-130422257D01*
X267054510Y-130422257D02*
X266983082Y-130493685D01*
X266983082Y-130493685D02*
X266840224Y-130565114D01*
X266840224Y-130565114D02*
X266340224Y-130565114D01*
X268054510Y-131350828D02*
X267911653Y-131279400D01*
X267911653Y-131279400D02*
X267840224Y-131207971D01*
X267840224Y-131207971D02*
X267768796Y-131065114D01*
X267768796Y-131065114D02*
X267768796Y-130636542D01*
X267768796Y-130636542D02*
X267840224Y-130493685D01*
X267840224Y-130493685D02*
X267911653Y-130422257D01*
X267911653Y-130422257D02*
X268054510Y-130350828D01*
X268054510Y-130350828D02*
X268268796Y-130350828D01*
X268268796Y-130350828D02*
X268411653Y-130422257D01*
X268411653Y-130422257D02*
X268483082Y-130493685D01*
X268483082Y-130493685D02*
X268554510Y-130636542D01*
X268554510Y-130636542D02*
X268554510Y-131065114D01*
X268554510Y-131065114D02*
X268483082Y-131207971D01*
X268483082Y-131207971D02*
X268411653Y-131279400D01*
X268411653Y-131279400D02*
X268268796Y-131350828D01*
X268268796Y-131350828D02*
X268054510Y-131350828D01*
X269840225Y-131350828D02*
X269840225Y-130565114D01*
X269840225Y-130565114D02*
X269768796Y-130422257D01*
X269768796Y-130422257D02*
X269625939Y-130350828D01*
X269625939Y-130350828D02*
X269340225Y-130350828D01*
X269340225Y-130350828D02*
X269197367Y-130422257D01*
X269840225Y-131279400D02*
X269697367Y-131350828D01*
X269697367Y-131350828D02*
X269340225Y-131350828D01*
X269340225Y-131350828D02*
X269197367Y-131279400D01*
X269197367Y-131279400D02*
X269125939Y-131136542D01*
X269125939Y-131136542D02*
X269125939Y-130993685D01*
X269125939Y-130993685D02*
X269197367Y-130850828D01*
X269197367Y-130850828D02*
X269340225Y-130779400D01*
X269340225Y-130779400D02*
X269697367Y-130779400D01*
X269697367Y-130779400D02*
X269840225Y-130707971D01*
X270554510Y-131350828D02*
X270554510Y-130350828D01*
X270554510Y-130636542D02*
X270625939Y-130493685D01*
X270625939Y-130493685D02*
X270697368Y-130422257D01*
X270697368Y-130422257D02*
X270840225Y-130350828D01*
X270840225Y-130350828D02*
X270983082Y-130350828D01*
X272125939Y-131350828D02*
X272125939Y-129850828D01*
X272125939Y-131279400D02*
X271983081Y-131350828D01*
X271983081Y-131350828D02*
X271697367Y-131350828D01*
X271697367Y-131350828D02*
X271554510Y-131279400D01*
X271554510Y-131279400D02*
X271483081Y-131207971D01*
X271483081Y-131207971D02*
X271411653Y-131065114D01*
X271411653Y-131065114D02*
X271411653Y-130636542D01*
X271411653Y-130636542D02*
X271483081Y-130493685D01*
X271483081Y-130493685D02*
X271554510Y-130422257D01*
X271554510Y-130422257D02*
X271697367Y-130350828D01*
X271697367Y-130350828D02*
X271983081Y-130350828D01*
X271983081Y-130350828D02*
X272125939Y-130422257D01*
D11*
X245500000Y-141500000D02*
X275500000Y-141500000D01*
X275500000Y-151500000D01*
X245500000Y-151500000D01*
X245500000Y-141500000D01*
X252000000Y-100150000D02*
X278000000Y-100150000D01*
X278000000Y-134150000D01*
X252000000Y-134150000D01*
X252000000Y-100150000D01*
X182000000Y-95500000D02*
X232000000Y-95500000D01*
X232000000Y-130500000D01*
X182000000Y-130500000D01*
X182000000Y-95500000D01*
X137500000Y-99000000D02*
X163500000Y-99000000D01*
X163500000Y-133000000D01*
X137500000Y-133000000D01*
X137500000Y-99000000D01*
D12*
X264836779Y-142369819D02*
X264836779Y-143179342D01*
X264836779Y-143179342D02*
X264884398Y-143274580D01*
X264884398Y-143274580D02*
X264932017Y-143322200D01*
X264932017Y-143322200D02*
X265027255Y-143369819D01*
X265027255Y-143369819D02*
X265217731Y-143369819D01*
X265217731Y-143369819D02*
X265312969Y-143322200D01*
X265312969Y-143322200D02*
X265360588Y-143274580D01*
X265360588Y-143274580D02*
X265408207Y-143179342D01*
X265408207Y-143179342D02*
X265408207Y-142369819D01*
X265836779Y-143322200D02*
X265979636Y-143369819D01*
X265979636Y-143369819D02*
X266217731Y-143369819D01*
X266217731Y-143369819D02*
X266312969Y-143322200D01*
X266312969Y-143322200D02*
X266360588Y-143274580D01*
X266360588Y-143274580D02*
X266408207Y-143179342D01*
X266408207Y-143179342D02*
X266408207Y-143084104D01*
X266408207Y-143084104D02*
X266360588Y-142988866D01*
X266360588Y-142988866D02*
X266312969Y-142941247D01*
X266312969Y-142941247D02*
X266217731Y-142893628D01*
X266217731Y-142893628D02*
X266027255Y-142846009D01*
X266027255Y-142846009D02*
X265932017Y-142798390D01*
X265932017Y-142798390D02*
X265884398Y-142750771D01*
X265884398Y-142750771D02*
X265836779Y-142655533D01*
X265836779Y-142655533D02*
X265836779Y-142560295D01*
X265836779Y-142560295D02*
X265884398Y-142465057D01*
X265884398Y-142465057D02*
X265932017Y-142417438D01*
X265932017Y-142417438D02*
X266027255Y-142369819D01*
X266027255Y-142369819D02*
X266265350Y-142369819D01*
X266265350Y-142369819D02*
X266408207Y-142417438D01*
X267170112Y-142846009D02*
X267312969Y-142893628D01*
X267312969Y-142893628D02*
X267360588Y-142941247D01*
X267360588Y-142941247D02*
X267408207Y-143036485D01*
X267408207Y-143036485D02*
X267408207Y-143179342D01*
X267408207Y-143179342D02*
X267360588Y-143274580D01*
X267360588Y-143274580D02*
X267312969Y-143322200D01*
X267312969Y-143322200D02*
X267217731Y-143369819D01*
X267217731Y-143369819D02*
X266836779Y-143369819D01*
X266836779Y-143369819D02*
X266836779Y-142369819D01*
X266836779Y-142369819D02*
X267170112Y-142369819D01*
X267170112Y-142369819D02*
X267265350Y-142417438D01*
X267265350Y-142417438D02*
X267312969Y-142465057D01*
X267312969Y-142465057D02*
X267360588Y-142560295D01*
X267360588Y-142560295D02*
X267360588Y-142655533D01*
X267360588Y-142655533D02*
X267312969Y-142750771D01*
X267312969Y-142750771D02*
X267265350Y-142798390D01*
X267265350Y-142798390D02*
X267170112Y-142846009D01*
X267170112Y-142846009D02*
X266836779Y-142846009D01*
X215312969Y-98869819D02*
X214836779Y-98869819D01*
X214836779Y-98869819D02*
X214836779Y-97869819D01*
X216217731Y-98774580D02*
X216170112Y-98822200D01*
X216170112Y-98822200D02*
X216027255Y-98869819D01*
X216027255Y-98869819D02*
X215932017Y-98869819D01*
X215932017Y-98869819D02*
X215789160Y-98822200D01*
X215789160Y-98822200D02*
X215693922Y-98726961D01*
X215693922Y-98726961D02*
X215646303Y-98631723D01*
X215646303Y-98631723D02*
X215598684Y-98441247D01*
X215598684Y-98441247D02*
X215598684Y-98298390D01*
X215598684Y-98298390D02*
X215646303Y-98107914D01*
X215646303Y-98107914D02*
X215693922Y-98012676D01*
X215693922Y-98012676D02*
X215789160Y-97917438D01*
X215789160Y-97917438D02*
X215932017Y-97869819D01*
X215932017Y-97869819D02*
X216027255Y-97869819D01*
X216027255Y-97869819D02*
X216170112Y-97917438D01*
X216170112Y-97917438D02*
X216217731Y-97965057D01*
X216646303Y-98869819D02*
X216646303Y-97869819D01*
X216646303Y-97869819D02*
X216884398Y-97869819D01*
X216884398Y-97869819D02*
X217027255Y-97917438D01*
X217027255Y-97917438D02*
X217122493Y-98012676D01*
X217122493Y-98012676D02*
X217170112Y-98107914D01*
X217170112Y-98107914D02*
X217217731Y-98298390D01*
X217217731Y-98298390D02*
X217217731Y-98441247D01*
X217217731Y-98441247D02*
X217170112Y-98631723D01*
X217170112Y-98631723D02*
X217122493Y-98726961D01*
X217122493Y-98726961D02*
X217027255Y-98822200D01*
X217027255Y-98822200D02*
X216884398Y-98869819D01*
X216884398Y-98869819D02*
X216646303Y-98869819D01*
X218408208Y-98488866D02*
X219170113Y-98488866D01*
X220979636Y-98869819D02*
X220646303Y-98393628D01*
X220408208Y-98869819D02*
X220408208Y-97869819D01*
X220408208Y-97869819D02*
X220789160Y-97869819D01*
X220789160Y-97869819D02*
X220884398Y-97917438D01*
X220884398Y-97917438D02*
X220932017Y-97965057D01*
X220932017Y-97965057D02*
X220979636Y-98060295D01*
X220979636Y-98060295D02*
X220979636Y-98203152D01*
X220979636Y-98203152D02*
X220932017Y-98298390D01*
X220932017Y-98298390D02*
X220884398Y-98346009D01*
X220884398Y-98346009D02*
X220789160Y-98393628D01*
X220789160Y-98393628D02*
X220408208Y-98393628D01*
X221741541Y-98346009D02*
X221884398Y-98393628D01*
X221884398Y-98393628D02*
X221932017Y-98441247D01*
X221932017Y-98441247D02*
X221979636Y-98536485D01*
X221979636Y-98536485D02*
X221979636Y-98679342D01*
X221979636Y-98679342D02*
X221932017Y-98774580D01*
X221932017Y-98774580D02*
X221884398Y-98822200D01*
X221884398Y-98822200D02*
X221789160Y-98869819D01*
X221789160Y-98869819D02*
X221408208Y-98869819D01*
X221408208Y-98869819D02*
X221408208Y-97869819D01*
X221408208Y-97869819D02*
X221741541Y-97869819D01*
X221741541Y-97869819D02*
X221836779Y-97917438D01*
X221836779Y-97917438D02*
X221884398Y-97965057D01*
X221884398Y-97965057D02*
X221932017Y-98060295D01*
X221932017Y-98060295D02*
X221932017Y-98155533D01*
X221932017Y-98155533D02*
X221884398Y-98250771D01*
X221884398Y-98250771D02*
X221836779Y-98298390D01*
X221836779Y-98298390D02*
X221741541Y-98346009D01*
X221741541Y-98346009D02*
X221408208Y-98346009D01*
X222408208Y-98488866D02*
X223170113Y-98488866D01*
X223503446Y-97869819D02*
X224074874Y-97869819D01*
X223789160Y-98869819D02*
X223789160Y-97869819D01*
X224741541Y-98346009D02*
X224408208Y-98346009D01*
X224408208Y-98869819D02*
X224408208Y-97869819D01*
X224408208Y-97869819D02*
X224884398Y-97869819D01*
X225122494Y-97869819D02*
X225693922Y-97869819D01*
X225408208Y-98869819D02*
X225408208Y-97869819D01*
X226027256Y-98488866D02*
X226789161Y-98488866D01*
X227789160Y-98869819D02*
X227217732Y-98869819D01*
X227503446Y-98869819D02*
X227503446Y-97869819D01*
X227503446Y-97869819D02*
X227408208Y-98012676D01*
X227408208Y-98012676D02*
X227312970Y-98107914D01*
X227312970Y-98107914D02*
X227217732Y-98155533D01*
X228217732Y-98774580D02*
X228265351Y-98822200D01*
X228265351Y-98822200D02*
X228217732Y-98869819D01*
X228217732Y-98869819D02*
X228170113Y-98822200D01*
X228170113Y-98822200D02*
X228217732Y-98774580D01*
X228217732Y-98774580D02*
X228217732Y-98869819D01*
X228836779Y-98298390D02*
X228741541Y-98250771D01*
X228741541Y-98250771D02*
X228693922Y-98203152D01*
X228693922Y-98203152D02*
X228646303Y-98107914D01*
X228646303Y-98107914D02*
X228646303Y-98060295D01*
X228646303Y-98060295D02*
X228693922Y-97965057D01*
X228693922Y-97965057D02*
X228741541Y-97917438D01*
X228741541Y-97917438D02*
X228836779Y-97869819D01*
X228836779Y-97869819D02*
X229027255Y-97869819D01*
X229027255Y-97869819D02*
X229122493Y-97917438D01*
X229122493Y-97917438D02*
X229170112Y-97965057D01*
X229170112Y-97965057D02*
X229217731Y-98060295D01*
X229217731Y-98060295D02*
X229217731Y-98107914D01*
X229217731Y-98107914D02*
X229170112Y-98203152D01*
X229170112Y-98203152D02*
X229122493Y-98250771D01*
X229122493Y-98250771D02*
X229027255Y-98298390D01*
X229027255Y-98298390D02*
X228836779Y-98298390D01*
X228836779Y-98298390D02*
X228741541Y-98346009D01*
X228741541Y-98346009D02*
X228693922Y-98393628D01*
X228693922Y-98393628D02*
X228646303Y-98488866D01*
X228646303Y-98488866D02*
X228646303Y-98679342D01*
X228646303Y-98679342D02*
X228693922Y-98774580D01*
X228693922Y-98774580D02*
X228741541Y-98822200D01*
X228741541Y-98822200D02*
X228836779Y-98869819D01*
X228836779Y-98869819D02*
X229027255Y-98869819D01*
X229027255Y-98869819D02*
X229122493Y-98822200D01*
X229122493Y-98822200D02*
X229170112Y-98774580D01*
X229170112Y-98774580D02*
X229217731Y-98679342D01*
X229217731Y-98679342D02*
X229217731Y-98488866D01*
X229217731Y-98488866D02*
X229170112Y-98393628D01*
X229170112Y-98393628D02*
X229122493Y-98346009D01*
X229122493Y-98346009D02*
X229027255Y-98298390D01*
X137340476Y-68294819D02*
X137340476Y-69009104D01*
X137340476Y-69009104D02*
X137292857Y-69151961D01*
X137292857Y-69151961D02*
X137197619Y-69247200D01*
X137197619Y-69247200D02*
X137054762Y-69294819D01*
X137054762Y-69294819D02*
X136959524Y-69294819D01*
X138340476Y-69294819D02*
X137769048Y-69294819D01*
X138054762Y-69294819D02*
X138054762Y-68294819D01*
X138054762Y-68294819D02*
X137959524Y-68437676D01*
X137959524Y-68437676D02*
X137864286Y-68532914D01*
X137864286Y-68532914D02*
X137769048Y-68580533D01*
X139292857Y-69294819D02*
X138721429Y-69294819D01*
X139007143Y-69294819D02*
X139007143Y-68294819D01*
X139007143Y-68294819D02*
X138911905Y-68437676D01*
X138911905Y-68437676D02*
X138816667Y-68532914D01*
X138816667Y-68532914D02*
X138721429Y-68580533D01*
X243249819Y-134284523D02*
X243964104Y-134284523D01*
X243964104Y-134284523D02*
X244106961Y-134332142D01*
X244106961Y-134332142D02*
X244202200Y-134427380D01*
X244202200Y-134427380D02*
X244249819Y-134570237D01*
X244249819Y-134570237D02*
X244249819Y-134665475D01*
X244249819Y-133284523D02*
X244249819Y-133855951D01*
X244249819Y-133570237D02*
X243249819Y-133570237D01*
X243249819Y-133570237D02*
X243392676Y-133665475D01*
X243392676Y-133665475D02*
X243487914Y-133760713D01*
X243487914Y-133760713D02*
X243535533Y-133855951D01*
X243249819Y-132665475D02*
X243249819Y-132570237D01*
X243249819Y-132570237D02*
X243297438Y-132474999D01*
X243297438Y-132474999D02*
X243345057Y-132427380D01*
X243345057Y-132427380D02*
X243440295Y-132379761D01*
X243440295Y-132379761D02*
X243630771Y-132332142D01*
X243630771Y-132332142D02*
X243868866Y-132332142D01*
X243868866Y-132332142D02*
X244059342Y-132379761D01*
X244059342Y-132379761D02*
X244154580Y-132427380D01*
X244154580Y-132427380D02*
X244202200Y-132474999D01*
X244202200Y-132474999D02*
X244249819Y-132570237D01*
X244249819Y-132570237D02*
X244249819Y-132665475D01*
X244249819Y-132665475D02*
X244202200Y-132760713D01*
X244202200Y-132760713D02*
X244154580Y-132808332D01*
X244154580Y-132808332D02*
X244059342Y-132855951D01*
X244059342Y-132855951D02*
X243868866Y-132903570D01*
X243868866Y-132903570D02*
X243630771Y-132903570D01*
X243630771Y-132903570D02*
X243440295Y-132855951D01*
X243440295Y-132855951D02*
X243345057Y-132808332D01*
X243345057Y-132808332D02*
X243297438Y-132760713D01*
X243297438Y-132760713D02*
X243249819Y-132665475D01*
X222966666Y-131284819D02*
X222966666Y-131999104D01*
X222966666Y-131999104D02*
X222919047Y-132141961D01*
X222919047Y-132141961D02*
X222823809Y-132237200D01*
X222823809Y-132237200D02*
X222680952Y-132284819D01*
X222680952Y-132284819D02*
X222585714Y-132284819D01*
X223490476Y-132284819D02*
X223680952Y-132284819D01*
X223680952Y-132284819D02*
X223776190Y-132237200D01*
X223776190Y-132237200D02*
X223823809Y-132189580D01*
X223823809Y-132189580D02*
X223919047Y-132046723D01*
X223919047Y-132046723D02*
X223966666Y-131856247D01*
X223966666Y-131856247D02*
X223966666Y-131475295D01*
X223966666Y-131475295D02*
X223919047Y-131380057D01*
X223919047Y-131380057D02*
X223871428Y-131332438D01*
X223871428Y-131332438D02*
X223776190Y-131284819D01*
X223776190Y-131284819D02*
X223585714Y-131284819D01*
X223585714Y-131284819D02*
X223490476Y-131332438D01*
X223490476Y-131332438D02*
X223442857Y-131380057D01*
X223442857Y-131380057D02*
X223395238Y-131475295D01*
X223395238Y-131475295D02*
X223395238Y-131713390D01*
X223395238Y-131713390D02*
X223442857Y-131808628D01*
X223442857Y-131808628D02*
X223490476Y-131856247D01*
X223490476Y-131856247D02*
X223585714Y-131903866D01*
X223585714Y-131903866D02*
X223776190Y-131903866D01*
X223776190Y-131903866D02*
X223871428Y-131856247D01*
X223871428Y-131856247D02*
X223919047Y-131808628D01*
X223919047Y-131808628D02*
X223966666Y-131713390D01*
X170666666Y-127234819D02*
X170666666Y-127949104D01*
X170666666Y-127949104D02*
X170619047Y-128091961D01*
X170619047Y-128091961D02*
X170523809Y-128187200D01*
X170523809Y-128187200D02*
X170380952Y-128234819D01*
X170380952Y-128234819D02*
X170285714Y-128234819D01*
X171285714Y-127663390D02*
X171190476Y-127615771D01*
X171190476Y-127615771D02*
X171142857Y-127568152D01*
X171142857Y-127568152D02*
X171095238Y-127472914D01*
X171095238Y-127472914D02*
X171095238Y-127425295D01*
X171095238Y-127425295D02*
X171142857Y-127330057D01*
X171142857Y-127330057D02*
X171190476Y-127282438D01*
X171190476Y-127282438D02*
X171285714Y-127234819D01*
X171285714Y-127234819D02*
X171476190Y-127234819D01*
X171476190Y-127234819D02*
X171571428Y-127282438D01*
X171571428Y-127282438D02*
X171619047Y-127330057D01*
X171619047Y-127330057D02*
X171666666Y-127425295D01*
X171666666Y-127425295D02*
X171666666Y-127472914D01*
X171666666Y-127472914D02*
X171619047Y-127568152D01*
X171619047Y-127568152D02*
X171571428Y-127615771D01*
X171571428Y-127615771D02*
X171476190Y-127663390D01*
X171476190Y-127663390D02*
X171285714Y-127663390D01*
X171285714Y-127663390D02*
X171190476Y-127711009D01*
X171190476Y-127711009D02*
X171142857Y-127758628D01*
X171142857Y-127758628D02*
X171095238Y-127853866D01*
X171095238Y-127853866D02*
X171095238Y-128044342D01*
X171095238Y-128044342D02*
X171142857Y-128139580D01*
X171142857Y-128139580D02*
X171190476Y-128187200D01*
X171190476Y-128187200D02*
X171285714Y-128234819D01*
X171285714Y-128234819D02*
X171476190Y-128234819D01*
X171476190Y-128234819D02*
X171571428Y-128187200D01*
X171571428Y-128187200D02*
X171619047Y-128139580D01*
X171619047Y-128139580D02*
X171666666Y-128044342D01*
X171666666Y-128044342D02*
X171666666Y-127853866D01*
X171666666Y-127853866D02*
X171619047Y-127758628D01*
X171619047Y-127758628D02*
X171571428Y-127711009D01*
X171571428Y-127711009D02*
X171476190Y-127663390D01*
X212799819Y-134758333D02*
X213514104Y-134758333D01*
X213514104Y-134758333D02*
X213656961Y-134805952D01*
X213656961Y-134805952D02*
X213752200Y-134901190D01*
X213752200Y-134901190D02*
X213799819Y-135044047D01*
X213799819Y-135044047D02*
X213799819Y-135139285D01*
X212799819Y-134377380D02*
X212799819Y-133710714D01*
X212799819Y-133710714D02*
X213799819Y-134139285D01*
X202514819Y-81421904D02*
X203324342Y-81421904D01*
X203324342Y-81421904D02*
X203419580Y-81374285D01*
X203419580Y-81374285D02*
X203467200Y-81326666D01*
X203467200Y-81326666D02*
X203514819Y-81231428D01*
X203514819Y-81231428D02*
X203514819Y-81040952D01*
X203514819Y-81040952D02*
X203467200Y-80945714D01*
X203467200Y-80945714D02*
X203419580Y-80898095D01*
X203419580Y-80898095D02*
X203324342Y-80850476D01*
X203324342Y-80850476D02*
X202514819Y-80850476D01*
X202514819Y-80469523D02*
X202514819Y-79850476D01*
X202514819Y-79850476D02*
X202895771Y-80183809D01*
X202895771Y-80183809D02*
X202895771Y-80040952D01*
X202895771Y-80040952D02*
X202943390Y-79945714D01*
X202943390Y-79945714D02*
X202991009Y-79898095D01*
X202991009Y-79898095D02*
X203086247Y-79850476D01*
X203086247Y-79850476D02*
X203324342Y-79850476D01*
X203324342Y-79850476D02*
X203419580Y-79898095D01*
X203419580Y-79898095D02*
X203467200Y-79945714D01*
X203467200Y-79945714D02*
X203514819Y-80040952D01*
X203514819Y-80040952D02*
X203514819Y-80326666D01*
X203514819Y-80326666D02*
X203467200Y-80421904D01*
X203467200Y-80421904D02*
X203419580Y-80469523D01*
X245947319Y-139259404D02*
X246756842Y-139259404D01*
X246756842Y-139259404D02*
X246852080Y-139211785D01*
X246852080Y-139211785D02*
X246899700Y-139164166D01*
X246899700Y-139164166D02*
X246947319Y-139068928D01*
X246947319Y-139068928D02*
X246947319Y-138878452D01*
X246947319Y-138878452D02*
X246899700Y-138783214D01*
X246899700Y-138783214D02*
X246852080Y-138735595D01*
X246852080Y-138735595D02*
X246756842Y-138687976D01*
X246756842Y-138687976D02*
X245947319Y-138687976D01*
X246947319Y-137687976D02*
X246947319Y-138259404D01*
X246947319Y-137973690D02*
X245947319Y-137973690D01*
X245947319Y-137973690D02*
X246090176Y-138068928D01*
X246090176Y-138068928D02*
X246185414Y-138164166D01*
X246185414Y-138164166D02*
X246233033Y-138259404D01*
X266577142Y-68484819D02*
X266243809Y-68008628D01*
X266005714Y-68484819D02*
X266005714Y-67484819D01*
X266005714Y-67484819D02*
X266386666Y-67484819D01*
X266386666Y-67484819D02*
X266481904Y-67532438D01*
X266481904Y-67532438D02*
X266529523Y-67580057D01*
X266529523Y-67580057D02*
X266577142Y-67675295D01*
X266577142Y-67675295D02*
X266577142Y-67818152D01*
X266577142Y-67818152D02*
X266529523Y-67913390D01*
X266529523Y-67913390D02*
X266481904Y-67961009D01*
X266481904Y-67961009D02*
X266386666Y-68008628D01*
X266386666Y-68008628D02*
X266005714Y-68008628D01*
X267529523Y-68484819D02*
X266958095Y-68484819D01*
X267243809Y-68484819D02*
X267243809Y-67484819D01*
X267243809Y-67484819D02*
X267148571Y-67627676D01*
X267148571Y-67627676D02*
X267053333Y-67722914D01*
X267053333Y-67722914D02*
X266958095Y-67770533D01*
X268148571Y-67484819D02*
X268243809Y-67484819D01*
X268243809Y-67484819D02*
X268339047Y-67532438D01*
X268339047Y-67532438D02*
X268386666Y-67580057D01*
X268386666Y-67580057D02*
X268434285Y-67675295D01*
X268434285Y-67675295D02*
X268481904Y-67865771D01*
X268481904Y-67865771D02*
X268481904Y-68103866D01*
X268481904Y-68103866D02*
X268434285Y-68294342D01*
X268434285Y-68294342D02*
X268386666Y-68389580D01*
X268386666Y-68389580D02*
X268339047Y-68437200D01*
X268339047Y-68437200D02*
X268243809Y-68484819D01*
X268243809Y-68484819D02*
X268148571Y-68484819D01*
X268148571Y-68484819D02*
X268053333Y-68437200D01*
X268053333Y-68437200D02*
X268005714Y-68389580D01*
X268005714Y-68389580D02*
X267958095Y-68294342D01*
X267958095Y-68294342D02*
X267910476Y-68103866D01*
X267910476Y-68103866D02*
X267910476Y-67865771D01*
X267910476Y-67865771D02*
X267958095Y-67675295D01*
X267958095Y-67675295D02*
X268005714Y-67580057D01*
X268005714Y-67580057D02*
X268053333Y-67532438D01*
X268053333Y-67532438D02*
X268148571Y-67484819D01*
X260804819Y-155718333D02*
X261519104Y-155718333D01*
X261519104Y-155718333D02*
X261661961Y-155765952D01*
X261661961Y-155765952D02*
X261757200Y-155861190D01*
X261757200Y-155861190D02*
X261804819Y-156004047D01*
X261804819Y-156004047D02*
X261804819Y-156099285D01*
X260804819Y-154813571D02*
X260804819Y-155004047D01*
X260804819Y-155004047D02*
X260852438Y-155099285D01*
X260852438Y-155099285D02*
X260900057Y-155146904D01*
X260900057Y-155146904D02*
X261042914Y-155242142D01*
X261042914Y-155242142D02*
X261233390Y-155289761D01*
X261233390Y-155289761D02*
X261614342Y-155289761D01*
X261614342Y-155289761D02*
X261709580Y-155242142D01*
X261709580Y-155242142D02*
X261757200Y-155194523D01*
X261757200Y-155194523D02*
X261804819Y-155099285D01*
X261804819Y-155099285D02*
X261804819Y-154908809D01*
X261804819Y-154908809D02*
X261757200Y-154813571D01*
X261757200Y-154813571D02*
X261709580Y-154765952D01*
X261709580Y-154765952D02*
X261614342Y-154718333D01*
X261614342Y-154718333D02*
X261376247Y-154718333D01*
X261376247Y-154718333D02*
X261281009Y-154765952D01*
X261281009Y-154765952D02*
X261233390Y-154813571D01*
X261233390Y-154813571D02*
X261185771Y-154908809D01*
X261185771Y-154908809D02*
X261185771Y-155099285D01*
X261185771Y-155099285D02*
X261233390Y-155194523D01*
X261233390Y-155194523D02*
X261281009Y-155242142D01*
X261281009Y-155242142D02*
X261376247Y-155289761D01*
X172044819Y-142135238D02*
X171568628Y-142468571D01*
X172044819Y-142706666D02*
X171044819Y-142706666D01*
X171044819Y-142706666D02*
X171044819Y-142325714D01*
X171044819Y-142325714D02*
X171092438Y-142230476D01*
X171092438Y-142230476D02*
X171140057Y-142182857D01*
X171140057Y-142182857D02*
X171235295Y-142135238D01*
X171235295Y-142135238D02*
X171378152Y-142135238D01*
X171378152Y-142135238D02*
X171473390Y-142182857D01*
X171473390Y-142182857D02*
X171521009Y-142230476D01*
X171521009Y-142230476D02*
X171568628Y-142325714D01*
X171568628Y-142325714D02*
X171568628Y-142706666D01*
X171044819Y-141849523D02*
X172044819Y-141516190D01*
X172044819Y-141516190D02*
X171044819Y-141182857D01*
X172044819Y-140325714D02*
X172044819Y-140897142D01*
X172044819Y-140611428D02*
X171044819Y-140611428D01*
X171044819Y-140611428D02*
X171187676Y-140706666D01*
X171187676Y-140706666D02*
X171282914Y-140801904D01*
X171282914Y-140801904D02*
X171330533Y-140897142D01*
X151071905Y-154334819D02*
X151071905Y-153334819D01*
X151071905Y-153334819D02*
X151310000Y-153334819D01*
X151310000Y-153334819D02*
X151452857Y-153382438D01*
X151452857Y-153382438D02*
X151548095Y-153477676D01*
X151548095Y-153477676D02*
X151595714Y-153572914D01*
X151595714Y-153572914D02*
X151643333Y-153763390D01*
X151643333Y-153763390D02*
X151643333Y-153906247D01*
X151643333Y-153906247D02*
X151595714Y-154096723D01*
X151595714Y-154096723D02*
X151548095Y-154191961D01*
X151548095Y-154191961D02*
X151452857Y-154287200D01*
X151452857Y-154287200D02*
X151310000Y-154334819D01*
X151310000Y-154334819D02*
X151071905Y-154334819D01*
X152024286Y-153430057D02*
X152071905Y-153382438D01*
X152071905Y-153382438D02*
X152167143Y-153334819D01*
X152167143Y-153334819D02*
X152405238Y-153334819D01*
X152405238Y-153334819D02*
X152500476Y-153382438D01*
X152500476Y-153382438D02*
X152548095Y-153430057D01*
X152548095Y-153430057D02*
X152595714Y-153525295D01*
X152595714Y-153525295D02*
X152595714Y-153620533D01*
X152595714Y-153620533D02*
X152548095Y-153763390D01*
X152548095Y-153763390D02*
X151976667Y-154334819D01*
X151976667Y-154334819D02*
X152595714Y-154334819D01*
X147738095Y-154654819D02*
X147738095Y-153654819D01*
X148309523Y-154654819D02*
X147880952Y-154083390D01*
X148309523Y-153654819D02*
X147738095Y-154226247D01*
X151333333Y-151359580D02*
X151285714Y-151407200D01*
X151285714Y-151407200D02*
X151142857Y-151454819D01*
X151142857Y-151454819D02*
X151047619Y-151454819D01*
X151047619Y-151454819D02*
X150904762Y-151407200D01*
X150904762Y-151407200D02*
X150809524Y-151311961D01*
X150809524Y-151311961D02*
X150761905Y-151216723D01*
X150761905Y-151216723D02*
X150714286Y-151026247D01*
X150714286Y-151026247D02*
X150714286Y-150883390D01*
X150714286Y-150883390D02*
X150761905Y-150692914D01*
X150761905Y-150692914D02*
X150809524Y-150597676D01*
X150809524Y-150597676D02*
X150904762Y-150502438D01*
X150904762Y-150502438D02*
X151047619Y-150454819D01*
X151047619Y-150454819D02*
X151142857Y-150454819D01*
X151142857Y-150454819D02*
X151285714Y-150502438D01*
X151285714Y-150502438D02*
X151333333Y-150550057D01*
X152238095Y-150454819D02*
X151761905Y-150454819D01*
X151761905Y-150454819D02*
X151714286Y-150931009D01*
X151714286Y-150931009D02*
X151761905Y-150883390D01*
X151761905Y-150883390D02*
X151857143Y-150835771D01*
X151857143Y-150835771D02*
X152095238Y-150835771D01*
X152095238Y-150835771D02*
X152190476Y-150883390D01*
X152190476Y-150883390D02*
X152238095Y-150931009D01*
X152238095Y-150931009D02*
X152285714Y-151026247D01*
X152285714Y-151026247D02*
X152285714Y-151264342D01*
X152285714Y-151264342D02*
X152238095Y-151359580D01*
X152238095Y-151359580D02*
X152190476Y-151407200D01*
X152190476Y-151407200D02*
X152095238Y-151454819D01*
X152095238Y-151454819D02*
X151857143Y-151454819D01*
X151857143Y-151454819D02*
X151761905Y-151407200D01*
X151761905Y-151407200D02*
X151714286Y-151359580D01*
X247833333Y-92359580D02*
X247785714Y-92407200D01*
X247785714Y-92407200D02*
X247642857Y-92454819D01*
X247642857Y-92454819D02*
X247547619Y-92454819D01*
X247547619Y-92454819D02*
X247404762Y-92407200D01*
X247404762Y-92407200D02*
X247309524Y-92311961D01*
X247309524Y-92311961D02*
X247261905Y-92216723D01*
X247261905Y-92216723D02*
X247214286Y-92026247D01*
X247214286Y-92026247D02*
X247214286Y-91883390D01*
X247214286Y-91883390D02*
X247261905Y-91692914D01*
X247261905Y-91692914D02*
X247309524Y-91597676D01*
X247309524Y-91597676D02*
X247404762Y-91502438D01*
X247404762Y-91502438D02*
X247547619Y-91454819D01*
X247547619Y-91454819D02*
X247642857Y-91454819D01*
X247642857Y-91454819D02*
X247785714Y-91502438D01*
X247785714Y-91502438D02*
X247833333Y-91550057D01*
X248690476Y-91788152D02*
X248690476Y-92454819D01*
X248452381Y-91407200D02*
X248214286Y-92121485D01*
X248214286Y-92121485D02*
X248833333Y-92121485D01*
X251488333Y-68559819D02*
X251155000Y-68083628D01*
X250916905Y-68559819D02*
X250916905Y-67559819D01*
X250916905Y-67559819D02*
X251297857Y-67559819D01*
X251297857Y-67559819D02*
X251393095Y-67607438D01*
X251393095Y-67607438D02*
X251440714Y-67655057D01*
X251440714Y-67655057D02*
X251488333Y-67750295D01*
X251488333Y-67750295D02*
X251488333Y-67893152D01*
X251488333Y-67893152D02*
X251440714Y-67988390D01*
X251440714Y-67988390D02*
X251393095Y-68036009D01*
X251393095Y-68036009D02*
X251297857Y-68083628D01*
X251297857Y-68083628D02*
X250916905Y-68083628D01*
X252059762Y-67988390D02*
X251964524Y-67940771D01*
X251964524Y-67940771D02*
X251916905Y-67893152D01*
X251916905Y-67893152D02*
X251869286Y-67797914D01*
X251869286Y-67797914D02*
X251869286Y-67750295D01*
X251869286Y-67750295D02*
X251916905Y-67655057D01*
X251916905Y-67655057D02*
X251964524Y-67607438D01*
X251964524Y-67607438D02*
X252059762Y-67559819D01*
X252059762Y-67559819D02*
X252250238Y-67559819D01*
X252250238Y-67559819D02*
X252345476Y-67607438D01*
X252345476Y-67607438D02*
X252393095Y-67655057D01*
X252393095Y-67655057D02*
X252440714Y-67750295D01*
X252440714Y-67750295D02*
X252440714Y-67797914D01*
X252440714Y-67797914D02*
X252393095Y-67893152D01*
X252393095Y-67893152D02*
X252345476Y-67940771D01*
X252345476Y-67940771D02*
X252250238Y-67988390D01*
X252250238Y-67988390D02*
X252059762Y-67988390D01*
X252059762Y-67988390D02*
X251964524Y-68036009D01*
X251964524Y-68036009D02*
X251916905Y-68083628D01*
X251916905Y-68083628D02*
X251869286Y-68178866D01*
X251869286Y-68178866D02*
X251869286Y-68369342D01*
X251869286Y-68369342D02*
X251916905Y-68464580D01*
X251916905Y-68464580D02*
X251964524Y-68512200D01*
X251964524Y-68512200D02*
X252059762Y-68559819D01*
X252059762Y-68559819D02*
X252250238Y-68559819D01*
X252250238Y-68559819D02*
X252345476Y-68512200D01*
X252345476Y-68512200D02*
X252393095Y-68464580D01*
X252393095Y-68464580D02*
X252440714Y-68369342D01*
X252440714Y-68369342D02*
X252440714Y-68178866D01*
X252440714Y-68178866D02*
X252393095Y-68083628D01*
X252393095Y-68083628D02*
X252345476Y-68036009D01*
X252345476Y-68036009D02*
X252250238Y-67988390D01*
X150333333Y-150164819D02*
X150000000Y-149688628D01*
X149761905Y-150164819D02*
X149761905Y-149164819D01*
X149761905Y-149164819D02*
X150142857Y-149164819D01*
X150142857Y-149164819D02*
X150238095Y-149212438D01*
X150238095Y-149212438D02*
X150285714Y-149260057D01*
X150285714Y-149260057D02*
X150333333Y-149355295D01*
X150333333Y-149355295D02*
X150333333Y-149498152D01*
X150333333Y-149498152D02*
X150285714Y-149593390D01*
X150285714Y-149593390D02*
X150238095Y-149641009D01*
X150238095Y-149641009D02*
X150142857Y-149688628D01*
X150142857Y-149688628D02*
X149761905Y-149688628D01*
X150666667Y-149164819D02*
X151285714Y-149164819D01*
X151285714Y-149164819D02*
X150952381Y-149545771D01*
X150952381Y-149545771D02*
X151095238Y-149545771D01*
X151095238Y-149545771D02*
X151190476Y-149593390D01*
X151190476Y-149593390D02*
X151238095Y-149641009D01*
X151238095Y-149641009D02*
X151285714Y-149736247D01*
X151285714Y-149736247D02*
X151285714Y-149974342D01*
X151285714Y-149974342D02*
X151238095Y-150069580D01*
X151238095Y-150069580D02*
X151190476Y-150117200D01*
X151190476Y-150117200D02*
X151095238Y-150164819D01*
X151095238Y-150164819D02*
X150809524Y-150164819D01*
X150809524Y-150164819D02*
X150714286Y-150117200D01*
X150714286Y-150117200D02*
X150666667Y-150069580D01*
D11*
X261409800Y-113333332D02*
X261457419Y-113190475D01*
X261457419Y-113190475D02*
X261457419Y-112952380D01*
X261457419Y-112952380D02*
X261409800Y-112857142D01*
X261409800Y-112857142D02*
X261362180Y-112809523D01*
X261362180Y-112809523D02*
X261266942Y-112761904D01*
X261266942Y-112761904D02*
X261171704Y-112761904D01*
X261171704Y-112761904D02*
X261076466Y-112809523D01*
X261076466Y-112809523D02*
X261028847Y-112857142D01*
X261028847Y-112857142D02*
X260981228Y-112952380D01*
X260981228Y-112952380D02*
X260933609Y-113142856D01*
X260933609Y-113142856D02*
X260885990Y-113238094D01*
X260885990Y-113238094D02*
X260838371Y-113285713D01*
X260838371Y-113285713D02*
X260743133Y-113333332D01*
X260743133Y-113333332D02*
X260647895Y-113333332D01*
X260647895Y-113333332D02*
X260552657Y-113285713D01*
X260552657Y-113285713D02*
X260505038Y-113238094D01*
X260505038Y-113238094D02*
X260457419Y-113142856D01*
X260457419Y-113142856D02*
X260457419Y-112904761D01*
X260457419Y-112904761D02*
X260505038Y-112761904D01*
X260457419Y-112428570D02*
X261457419Y-112190475D01*
X261457419Y-112190475D02*
X260743133Y-111999999D01*
X260743133Y-111999999D02*
X261457419Y-111809523D01*
X261457419Y-111809523D02*
X260457419Y-111571428D01*
X260457419Y-111285713D02*
X260457419Y-110666666D01*
X260457419Y-110666666D02*
X260838371Y-110999999D01*
X260838371Y-110999999D02*
X260838371Y-110857142D01*
X260838371Y-110857142D02*
X260885990Y-110761904D01*
X260885990Y-110761904D02*
X260933609Y-110714285D01*
X260933609Y-110714285D02*
X261028847Y-110666666D01*
X261028847Y-110666666D02*
X261266942Y-110666666D01*
X261266942Y-110666666D02*
X261362180Y-110714285D01*
X261362180Y-110714285D02*
X261409800Y-110761904D01*
X261409800Y-110761904D02*
X261457419Y-110857142D01*
X261457419Y-110857142D02*
X261457419Y-111142856D01*
X261457419Y-111142856D02*
X261409800Y-111238094D01*
X261409800Y-111238094D02*
X261362180Y-111285713D01*
D12*
X212927142Y-147534819D02*
X212593809Y-147058628D01*
X212355714Y-147534819D02*
X212355714Y-146534819D01*
X212355714Y-146534819D02*
X212736666Y-146534819D01*
X212736666Y-146534819D02*
X212831904Y-146582438D01*
X212831904Y-146582438D02*
X212879523Y-146630057D01*
X212879523Y-146630057D02*
X212927142Y-146725295D01*
X212927142Y-146725295D02*
X212927142Y-146868152D01*
X212927142Y-146868152D02*
X212879523Y-146963390D01*
X212879523Y-146963390D02*
X212831904Y-147011009D01*
X212831904Y-147011009D02*
X212736666Y-147058628D01*
X212736666Y-147058628D02*
X212355714Y-147058628D01*
X213879523Y-147534819D02*
X213308095Y-147534819D01*
X213593809Y-147534819D02*
X213593809Y-146534819D01*
X213593809Y-146534819D02*
X213498571Y-146677676D01*
X213498571Y-146677676D02*
X213403333Y-146772914D01*
X213403333Y-146772914D02*
X213308095Y-146820533D01*
X214260476Y-146630057D02*
X214308095Y-146582438D01*
X214308095Y-146582438D02*
X214403333Y-146534819D01*
X214403333Y-146534819D02*
X214641428Y-146534819D01*
X214641428Y-146534819D02*
X214736666Y-146582438D01*
X214736666Y-146582438D02*
X214784285Y-146630057D01*
X214784285Y-146630057D02*
X214831904Y-146725295D01*
X214831904Y-146725295D02*
X214831904Y-146820533D01*
X214831904Y-146820533D02*
X214784285Y-146963390D01*
X214784285Y-146963390D02*
X214212857Y-147534819D01*
X214212857Y-147534819D02*
X214831904Y-147534819D01*
D11*
X277409800Y-113333332D02*
X277457419Y-113190475D01*
X277457419Y-113190475D02*
X277457419Y-112952380D01*
X277457419Y-112952380D02*
X277409800Y-112857142D01*
X277409800Y-112857142D02*
X277362180Y-112809523D01*
X277362180Y-112809523D02*
X277266942Y-112761904D01*
X277266942Y-112761904D02*
X277171704Y-112761904D01*
X277171704Y-112761904D02*
X277076466Y-112809523D01*
X277076466Y-112809523D02*
X277028847Y-112857142D01*
X277028847Y-112857142D02*
X276981228Y-112952380D01*
X276981228Y-112952380D02*
X276933609Y-113142856D01*
X276933609Y-113142856D02*
X276885990Y-113238094D01*
X276885990Y-113238094D02*
X276838371Y-113285713D01*
X276838371Y-113285713D02*
X276743133Y-113333332D01*
X276743133Y-113333332D02*
X276647895Y-113333332D01*
X276647895Y-113333332D02*
X276552657Y-113285713D01*
X276552657Y-113285713D02*
X276505038Y-113238094D01*
X276505038Y-113238094D02*
X276457419Y-113142856D01*
X276457419Y-113142856D02*
X276457419Y-112904761D01*
X276457419Y-112904761D02*
X276505038Y-112761904D01*
X276457419Y-112428570D02*
X277457419Y-112190475D01*
X277457419Y-112190475D02*
X276743133Y-111999999D01*
X276743133Y-111999999D02*
X277457419Y-111809523D01*
X277457419Y-111809523D02*
X276457419Y-111571428D01*
X276552657Y-111238094D02*
X276505038Y-111190475D01*
X276505038Y-111190475D02*
X276457419Y-111095237D01*
X276457419Y-111095237D02*
X276457419Y-110857142D01*
X276457419Y-110857142D02*
X276505038Y-110761904D01*
X276505038Y-110761904D02*
X276552657Y-110714285D01*
X276552657Y-110714285D02*
X276647895Y-110666666D01*
X276647895Y-110666666D02*
X276743133Y-110666666D01*
X276743133Y-110666666D02*
X276885990Y-110714285D01*
X276885990Y-110714285D02*
X277457419Y-111285713D01*
X277457419Y-111285713D02*
X277457419Y-110666666D01*
D12*
X251488333Y-71759819D02*
X251155000Y-71283628D01*
X250916905Y-71759819D02*
X250916905Y-70759819D01*
X250916905Y-70759819D02*
X251297857Y-70759819D01*
X251297857Y-70759819D02*
X251393095Y-70807438D01*
X251393095Y-70807438D02*
X251440714Y-70855057D01*
X251440714Y-70855057D02*
X251488333Y-70950295D01*
X251488333Y-70950295D02*
X251488333Y-71093152D01*
X251488333Y-71093152D02*
X251440714Y-71188390D01*
X251440714Y-71188390D02*
X251393095Y-71236009D01*
X251393095Y-71236009D02*
X251297857Y-71283628D01*
X251297857Y-71283628D02*
X250916905Y-71283628D01*
X251821667Y-70759819D02*
X252488333Y-70759819D01*
X252488333Y-70759819D02*
X252059762Y-71759819D01*
X208461905Y-68114819D02*
X208461905Y-67114819D01*
X208461905Y-67114819D02*
X208700000Y-67114819D01*
X208700000Y-67114819D02*
X208842857Y-67162438D01*
X208842857Y-67162438D02*
X208938095Y-67257676D01*
X208938095Y-67257676D02*
X208985714Y-67352914D01*
X208985714Y-67352914D02*
X209033333Y-67543390D01*
X209033333Y-67543390D02*
X209033333Y-67686247D01*
X209033333Y-67686247D02*
X208985714Y-67876723D01*
X208985714Y-67876723D02*
X208938095Y-67971961D01*
X208938095Y-67971961D02*
X208842857Y-68067200D01*
X208842857Y-68067200D02*
X208700000Y-68114819D01*
X208700000Y-68114819D02*
X208461905Y-68114819D01*
X209938095Y-67114819D02*
X209461905Y-67114819D01*
X209461905Y-67114819D02*
X209414286Y-67591009D01*
X209414286Y-67591009D02*
X209461905Y-67543390D01*
X209461905Y-67543390D02*
X209557143Y-67495771D01*
X209557143Y-67495771D02*
X209795238Y-67495771D01*
X209795238Y-67495771D02*
X209890476Y-67543390D01*
X209890476Y-67543390D02*
X209938095Y-67591009D01*
X209938095Y-67591009D02*
X209985714Y-67686247D01*
X209985714Y-67686247D02*
X209985714Y-67924342D01*
X209985714Y-67924342D02*
X209938095Y-68019580D01*
X209938095Y-68019580D02*
X209890476Y-68067200D01*
X209890476Y-68067200D02*
X209795238Y-68114819D01*
X209795238Y-68114819D02*
X209557143Y-68114819D01*
X209557143Y-68114819D02*
X209461905Y-68067200D01*
X209461905Y-68067200D02*
X209414286Y-68019580D01*
X150951905Y-157834819D02*
X150951905Y-156834819D01*
X150951905Y-156834819D02*
X151190000Y-156834819D01*
X151190000Y-156834819D02*
X151332857Y-156882438D01*
X151332857Y-156882438D02*
X151428095Y-156977676D01*
X151428095Y-156977676D02*
X151475714Y-157072914D01*
X151475714Y-157072914D02*
X151523333Y-157263390D01*
X151523333Y-157263390D02*
X151523333Y-157406247D01*
X151523333Y-157406247D02*
X151475714Y-157596723D01*
X151475714Y-157596723D02*
X151428095Y-157691961D01*
X151428095Y-157691961D02*
X151332857Y-157787200D01*
X151332857Y-157787200D02*
X151190000Y-157834819D01*
X151190000Y-157834819D02*
X150951905Y-157834819D01*
X152475714Y-157834819D02*
X151904286Y-157834819D01*
X152190000Y-157834819D02*
X152190000Y-156834819D01*
X152190000Y-156834819D02*
X152094762Y-156977676D01*
X152094762Y-156977676D02*
X151999524Y-157072914D01*
X151999524Y-157072914D02*
X151904286Y-157120533D01*
X147618095Y-158154819D02*
X147618095Y-157154819D01*
X148189523Y-158154819D02*
X147760952Y-157583390D01*
X148189523Y-157154819D02*
X147618095Y-157726247D01*
X175246666Y-127954819D02*
X175246666Y-128669104D01*
X175246666Y-128669104D02*
X175199047Y-128811961D01*
X175199047Y-128811961D02*
X175103809Y-128907200D01*
X175103809Y-128907200D02*
X174960952Y-128954819D01*
X174960952Y-128954819D02*
X174865714Y-128954819D01*
X176246666Y-128954819D02*
X175675238Y-128954819D01*
X175960952Y-128954819D02*
X175960952Y-127954819D01*
X175960952Y-127954819D02*
X175865714Y-128097676D01*
X175865714Y-128097676D02*
X175770476Y-128192914D01*
X175770476Y-128192914D02*
X175675238Y-128240533D01*
X248253333Y-99824819D02*
X247920000Y-99348628D01*
X247681905Y-99824819D02*
X247681905Y-98824819D01*
X247681905Y-98824819D02*
X248062857Y-98824819D01*
X248062857Y-98824819D02*
X248158095Y-98872438D01*
X248158095Y-98872438D02*
X248205714Y-98920057D01*
X248205714Y-98920057D02*
X248253333Y-99015295D01*
X248253333Y-99015295D02*
X248253333Y-99158152D01*
X248253333Y-99158152D02*
X248205714Y-99253390D01*
X248205714Y-99253390D02*
X248158095Y-99301009D01*
X248158095Y-99301009D02*
X248062857Y-99348628D01*
X248062857Y-99348628D02*
X247681905Y-99348628D01*
X249158095Y-98824819D02*
X248681905Y-98824819D01*
X248681905Y-98824819D02*
X248634286Y-99301009D01*
X248634286Y-99301009D02*
X248681905Y-99253390D01*
X248681905Y-99253390D02*
X248777143Y-99205771D01*
X248777143Y-99205771D02*
X249015238Y-99205771D01*
X249015238Y-99205771D02*
X249110476Y-99253390D01*
X249110476Y-99253390D02*
X249158095Y-99301009D01*
X249158095Y-99301009D02*
X249205714Y-99396247D01*
X249205714Y-99396247D02*
X249205714Y-99634342D01*
X249205714Y-99634342D02*
X249158095Y-99729580D01*
X249158095Y-99729580D02*
X249110476Y-99777200D01*
X249110476Y-99777200D02*
X249015238Y-99824819D01*
X249015238Y-99824819D02*
X248777143Y-99824819D01*
X248777143Y-99824819D02*
X248681905Y-99777200D01*
X248681905Y-99777200D02*
X248634286Y-99729580D01*
X267153333Y-71734819D02*
X266820000Y-71258628D01*
X266581905Y-71734819D02*
X266581905Y-70734819D01*
X266581905Y-70734819D02*
X266962857Y-70734819D01*
X266962857Y-70734819D02*
X267058095Y-70782438D01*
X267058095Y-70782438D02*
X267105714Y-70830057D01*
X267105714Y-70830057D02*
X267153333Y-70925295D01*
X267153333Y-70925295D02*
X267153333Y-71068152D01*
X267153333Y-71068152D02*
X267105714Y-71163390D01*
X267105714Y-71163390D02*
X267058095Y-71211009D01*
X267058095Y-71211009D02*
X266962857Y-71258628D01*
X266962857Y-71258628D02*
X266581905Y-71258628D01*
X267629524Y-71734819D02*
X267820000Y-71734819D01*
X267820000Y-71734819D02*
X267915238Y-71687200D01*
X267915238Y-71687200D02*
X267962857Y-71639580D01*
X267962857Y-71639580D02*
X268058095Y-71496723D01*
X268058095Y-71496723D02*
X268105714Y-71306247D01*
X268105714Y-71306247D02*
X268105714Y-70925295D01*
X268105714Y-70925295D02*
X268058095Y-70830057D01*
X268058095Y-70830057D02*
X268010476Y-70782438D01*
X268010476Y-70782438D02*
X267915238Y-70734819D01*
X267915238Y-70734819D02*
X267724762Y-70734819D01*
X267724762Y-70734819D02*
X267629524Y-70782438D01*
X267629524Y-70782438D02*
X267581905Y-70830057D01*
X267581905Y-70830057D02*
X267534286Y-70925295D01*
X267534286Y-70925295D02*
X267534286Y-71163390D01*
X267534286Y-71163390D02*
X267581905Y-71258628D01*
X267581905Y-71258628D02*
X267629524Y-71306247D01*
X267629524Y-71306247D02*
X267724762Y-71353866D01*
X267724762Y-71353866D02*
X267915238Y-71353866D01*
X267915238Y-71353866D02*
X268010476Y-71306247D01*
X268010476Y-71306247D02*
X268058095Y-71258628D01*
X268058095Y-71258628D02*
X268105714Y-71163390D01*
X212927142Y-144184819D02*
X212593809Y-143708628D01*
X212355714Y-144184819D02*
X212355714Y-143184819D01*
X212355714Y-143184819D02*
X212736666Y-143184819D01*
X212736666Y-143184819D02*
X212831904Y-143232438D01*
X212831904Y-143232438D02*
X212879523Y-143280057D01*
X212879523Y-143280057D02*
X212927142Y-143375295D01*
X212927142Y-143375295D02*
X212927142Y-143518152D01*
X212927142Y-143518152D02*
X212879523Y-143613390D01*
X212879523Y-143613390D02*
X212831904Y-143661009D01*
X212831904Y-143661009D02*
X212736666Y-143708628D01*
X212736666Y-143708628D02*
X212355714Y-143708628D01*
X213879523Y-144184819D02*
X213308095Y-144184819D01*
X213593809Y-144184819D02*
X213593809Y-143184819D01*
X213593809Y-143184819D02*
X213498571Y-143327676D01*
X213498571Y-143327676D02*
X213403333Y-143422914D01*
X213403333Y-143422914D02*
X213308095Y-143470533D01*
X214831904Y-144184819D02*
X214260476Y-144184819D01*
X214546190Y-144184819D02*
X214546190Y-143184819D01*
X214546190Y-143184819D02*
X214450952Y-143327676D01*
X214450952Y-143327676D02*
X214355714Y-143422914D01*
X214355714Y-143422914D02*
X214260476Y-143470533D01*
X252753333Y-80859580D02*
X252705714Y-80907200D01*
X252705714Y-80907200D02*
X252562857Y-80954819D01*
X252562857Y-80954819D02*
X252467619Y-80954819D01*
X252467619Y-80954819D02*
X252324762Y-80907200D01*
X252324762Y-80907200D02*
X252229524Y-80811961D01*
X252229524Y-80811961D02*
X252181905Y-80716723D01*
X252181905Y-80716723D02*
X252134286Y-80526247D01*
X252134286Y-80526247D02*
X252134286Y-80383390D01*
X252134286Y-80383390D02*
X252181905Y-80192914D01*
X252181905Y-80192914D02*
X252229524Y-80097676D01*
X252229524Y-80097676D02*
X252324762Y-80002438D01*
X252324762Y-80002438D02*
X252467619Y-79954819D01*
X252467619Y-79954819D02*
X252562857Y-79954819D01*
X252562857Y-79954819D02*
X252705714Y-80002438D01*
X252705714Y-80002438D02*
X252753333Y-80050057D01*
X253134286Y-80050057D02*
X253181905Y-80002438D01*
X253181905Y-80002438D02*
X253277143Y-79954819D01*
X253277143Y-79954819D02*
X253515238Y-79954819D01*
X253515238Y-79954819D02*
X253610476Y-80002438D01*
X253610476Y-80002438D02*
X253658095Y-80050057D01*
X253658095Y-80050057D02*
X253705714Y-80145295D01*
X253705714Y-80145295D02*
X253705714Y-80240533D01*
X253705714Y-80240533D02*
X253658095Y-80383390D01*
X253658095Y-80383390D02*
X253086667Y-80954819D01*
X253086667Y-80954819D02*
X253705714Y-80954819D01*
X134584819Y-156713333D02*
X135299104Y-156713333D01*
X135299104Y-156713333D02*
X135441961Y-156760952D01*
X135441961Y-156760952D02*
X135537200Y-156856190D01*
X135537200Y-156856190D02*
X135584819Y-156999047D01*
X135584819Y-156999047D02*
X135584819Y-157094285D01*
X134584819Y-156332380D02*
X134584819Y-155713333D01*
X134584819Y-155713333D02*
X134965771Y-156046666D01*
X134965771Y-156046666D02*
X134965771Y-155903809D01*
X134965771Y-155903809D02*
X135013390Y-155808571D01*
X135013390Y-155808571D02*
X135061009Y-155760952D01*
X135061009Y-155760952D02*
X135156247Y-155713333D01*
X135156247Y-155713333D02*
X135394342Y-155713333D01*
X135394342Y-155713333D02*
X135489580Y-155760952D01*
X135489580Y-155760952D02*
X135537200Y-155808571D01*
X135537200Y-155808571D02*
X135584819Y-155903809D01*
X135584819Y-155903809D02*
X135584819Y-156189523D01*
X135584819Y-156189523D02*
X135537200Y-156284761D01*
X135537200Y-156284761D02*
X135489580Y-156332380D01*
X137004819Y-141666666D02*
X136528628Y-141999999D01*
X137004819Y-142238094D02*
X136004819Y-142238094D01*
X136004819Y-142238094D02*
X136004819Y-141857142D01*
X136004819Y-141857142D02*
X136052438Y-141761904D01*
X136052438Y-141761904D02*
X136100057Y-141714285D01*
X136100057Y-141714285D02*
X136195295Y-141666666D01*
X136195295Y-141666666D02*
X136338152Y-141666666D01*
X136338152Y-141666666D02*
X136433390Y-141714285D01*
X136433390Y-141714285D02*
X136481009Y-141761904D01*
X136481009Y-141761904D02*
X136528628Y-141857142D01*
X136528628Y-141857142D02*
X136528628Y-142238094D01*
X136004819Y-140809523D02*
X136004819Y-140999999D01*
X136004819Y-140999999D02*
X136052438Y-141095237D01*
X136052438Y-141095237D02*
X136100057Y-141142856D01*
X136100057Y-141142856D02*
X136242914Y-141238094D01*
X136242914Y-141238094D02*
X136433390Y-141285713D01*
X136433390Y-141285713D02*
X136814342Y-141285713D01*
X136814342Y-141285713D02*
X136909580Y-141238094D01*
X136909580Y-141238094D02*
X136957200Y-141190475D01*
X136957200Y-141190475D02*
X137004819Y-141095237D01*
X137004819Y-141095237D02*
X137004819Y-140904761D01*
X137004819Y-140904761D02*
X136957200Y-140809523D01*
X136957200Y-140809523D02*
X136909580Y-140761904D01*
X136909580Y-140761904D02*
X136814342Y-140714285D01*
X136814342Y-140714285D02*
X136576247Y-140714285D01*
X136576247Y-140714285D02*
X136481009Y-140761904D01*
X136481009Y-140761904D02*
X136433390Y-140809523D01*
X136433390Y-140809523D02*
X136385771Y-140904761D01*
X136385771Y-140904761D02*
X136385771Y-141095237D01*
X136385771Y-141095237D02*
X136433390Y-141190475D01*
X136433390Y-141190475D02*
X136481009Y-141238094D01*
X136481009Y-141238094D02*
X136576247Y-141285713D01*
X268753333Y-87084819D02*
X268420000Y-86608628D01*
X268181905Y-87084819D02*
X268181905Y-86084819D01*
X268181905Y-86084819D02*
X268562857Y-86084819D01*
X268562857Y-86084819D02*
X268658095Y-86132438D01*
X268658095Y-86132438D02*
X268705714Y-86180057D01*
X268705714Y-86180057D02*
X268753333Y-86275295D01*
X268753333Y-86275295D02*
X268753333Y-86418152D01*
X268753333Y-86418152D02*
X268705714Y-86513390D01*
X268705714Y-86513390D02*
X268658095Y-86561009D01*
X268658095Y-86561009D02*
X268562857Y-86608628D01*
X268562857Y-86608628D02*
X268181905Y-86608628D01*
X269705714Y-87084819D02*
X269134286Y-87084819D01*
X269420000Y-87084819D02*
X269420000Y-86084819D01*
X269420000Y-86084819D02*
X269324762Y-86227676D01*
X269324762Y-86227676D02*
X269229524Y-86322914D01*
X269229524Y-86322914D02*
X269134286Y-86370533D01*
X248253333Y-96324819D02*
X247920000Y-95848628D01*
X247681905Y-96324819D02*
X247681905Y-95324819D01*
X247681905Y-95324819D02*
X248062857Y-95324819D01*
X248062857Y-95324819D02*
X248158095Y-95372438D01*
X248158095Y-95372438D02*
X248205714Y-95420057D01*
X248205714Y-95420057D02*
X248253333Y-95515295D01*
X248253333Y-95515295D02*
X248253333Y-95658152D01*
X248253333Y-95658152D02*
X248205714Y-95753390D01*
X248205714Y-95753390D02*
X248158095Y-95801009D01*
X248158095Y-95801009D02*
X248062857Y-95848628D01*
X248062857Y-95848628D02*
X247681905Y-95848628D01*
X249110476Y-95658152D02*
X249110476Y-96324819D01*
X248872381Y-95277200D02*
X248634286Y-95991485D01*
X248634286Y-95991485D02*
X249253333Y-95991485D01*
X202834819Y-82572857D02*
X202358628Y-82906190D01*
X202834819Y-83144285D02*
X201834819Y-83144285D01*
X201834819Y-83144285D02*
X201834819Y-82763333D01*
X201834819Y-82763333D02*
X201882438Y-82668095D01*
X201882438Y-82668095D02*
X201930057Y-82620476D01*
X201930057Y-82620476D02*
X202025295Y-82572857D01*
X202025295Y-82572857D02*
X202168152Y-82572857D01*
X202168152Y-82572857D02*
X202263390Y-82620476D01*
X202263390Y-82620476D02*
X202311009Y-82668095D01*
X202311009Y-82668095D02*
X202358628Y-82763333D01*
X202358628Y-82763333D02*
X202358628Y-83144285D01*
X202834819Y-81620476D02*
X202834819Y-82191904D01*
X202834819Y-81906190D02*
X201834819Y-81906190D01*
X201834819Y-81906190D02*
X201977676Y-82001428D01*
X201977676Y-82001428D02*
X202072914Y-82096666D01*
X202072914Y-82096666D02*
X202120533Y-82191904D01*
X201834819Y-81287142D02*
X201834819Y-80668095D01*
X201834819Y-80668095D02*
X202215771Y-81001428D01*
X202215771Y-81001428D02*
X202215771Y-80858571D01*
X202215771Y-80858571D02*
X202263390Y-80763333D01*
X202263390Y-80763333D02*
X202311009Y-80715714D01*
X202311009Y-80715714D02*
X202406247Y-80668095D01*
X202406247Y-80668095D02*
X202644342Y-80668095D01*
X202644342Y-80668095D02*
X202739580Y-80715714D01*
X202739580Y-80715714D02*
X202787200Y-80763333D01*
X202787200Y-80763333D02*
X202834819Y-80858571D01*
X202834819Y-80858571D02*
X202834819Y-81144285D01*
X202834819Y-81144285D02*
X202787200Y-81239523D01*
X202787200Y-81239523D02*
X202739580Y-81287142D01*
D11*
X266333332Y-115590200D02*
X266190475Y-115542580D01*
X266190475Y-115542580D02*
X265952380Y-115542580D01*
X265952380Y-115542580D02*
X265857142Y-115590200D01*
X265857142Y-115590200D02*
X265809523Y-115637819D01*
X265809523Y-115637819D02*
X265761904Y-115733057D01*
X265761904Y-115733057D02*
X265761904Y-115828295D01*
X265761904Y-115828295D02*
X265809523Y-115923533D01*
X265809523Y-115923533D02*
X265857142Y-115971152D01*
X265857142Y-115971152D02*
X265952380Y-116018771D01*
X265952380Y-116018771D02*
X266142856Y-116066390D01*
X266142856Y-116066390D02*
X266238094Y-116114009D01*
X266238094Y-116114009D02*
X266285713Y-116161628D01*
X266285713Y-116161628D02*
X266333332Y-116256866D01*
X266333332Y-116256866D02*
X266333332Y-116352104D01*
X266333332Y-116352104D02*
X266285713Y-116447342D01*
X266285713Y-116447342D02*
X266238094Y-116494961D01*
X266238094Y-116494961D02*
X266142856Y-116542580D01*
X266142856Y-116542580D02*
X265904761Y-116542580D01*
X265904761Y-116542580D02*
X265761904Y-116494961D01*
X265428570Y-116542580D02*
X265190475Y-115542580D01*
X265190475Y-115542580D02*
X264999999Y-116256866D01*
X264999999Y-116256866D02*
X264809523Y-115542580D01*
X264809523Y-115542580D02*
X264571428Y-116542580D01*
X263761904Y-116209247D02*
X263761904Y-115542580D01*
X263999999Y-116590200D02*
X264238094Y-115875914D01*
X264238094Y-115875914D02*
X263619047Y-115875914D01*
D12*
X202861906Y-68114818D02*
X202861906Y-67114818D01*
X202861906Y-67114818D02*
X203100001Y-67114818D01*
X203100001Y-67114818D02*
X203242858Y-67162437D01*
X203242858Y-67162437D02*
X203338096Y-67257675D01*
X203338096Y-67257675D02*
X203385715Y-67352913D01*
X203385715Y-67352913D02*
X203433334Y-67543389D01*
X203433334Y-67543389D02*
X203433334Y-67686246D01*
X203433334Y-67686246D02*
X203385715Y-67876722D01*
X203385715Y-67876722D02*
X203338096Y-67971960D01*
X203338096Y-67971960D02*
X203242858Y-68067199D01*
X203242858Y-68067199D02*
X203100001Y-68114818D01*
X203100001Y-68114818D02*
X202861906Y-68114818D01*
X204290477Y-67114818D02*
X204100001Y-67114818D01*
X204100001Y-67114818D02*
X204004763Y-67162437D01*
X204004763Y-67162437D02*
X203957144Y-67210056D01*
X203957144Y-67210056D02*
X203861906Y-67352913D01*
X203861906Y-67352913D02*
X203814287Y-67543389D01*
X203814287Y-67543389D02*
X203814287Y-67924341D01*
X203814287Y-67924341D02*
X203861906Y-68019579D01*
X203861906Y-68019579D02*
X203909525Y-68067199D01*
X203909525Y-68067199D02*
X204004763Y-68114818D01*
X204004763Y-68114818D02*
X204195239Y-68114818D01*
X204195239Y-68114818D02*
X204290477Y-68067199D01*
X204290477Y-68067199D02*
X204338096Y-68019579D01*
X204338096Y-68019579D02*
X204385715Y-67924341D01*
X204385715Y-67924341D02*
X204385715Y-67686246D01*
X204385715Y-67686246D02*
X204338096Y-67591008D01*
X204338096Y-67591008D02*
X204290477Y-67543389D01*
X204290477Y-67543389D02*
X204195239Y-67495770D01*
X204195239Y-67495770D02*
X204004763Y-67495770D01*
X204004763Y-67495770D02*
X203909525Y-67543389D01*
X203909525Y-67543389D02*
X203861906Y-67591008D01*
X203861906Y-67591008D02*
X203814287Y-67686246D01*
X264253333Y-81584819D02*
X263920000Y-81108628D01*
X263681905Y-81584819D02*
X263681905Y-80584819D01*
X263681905Y-80584819D02*
X264062857Y-80584819D01*
X264062857Y-80584819D02*
X264158095Y-80632438D01*
X264158095Y-80632438D02*
X264205714Y-80680057D01*
X264205714Y-80680057D02*
X264253333Y-80775295D01*
X264253333Y-80775295D02*
X264253333Y-80918152D01*
X264253333Y-80918152D02*
X264205714Y-81013390D01*
X264205714Y-81013390D02*
X264158095Y-81061009D01*
X264158095Y-81061009D02*
X264062857Y-81108628D01*
X264062857Y-81108628D02*
X263681905Y-81108628D01*
X264634286Y-80680057D02*
X264681905Y-80632438D01*
X264681905Y-80632438D02*
X264777143Y-80584819D01*
X264777143Y-80584819D02*
X265015238Y-80584819D01*
X265015238Y-80584819D02*
X265110476Y-80632438D01*
X265110476Y-80632438D02*
X265158095Y-80680057D01*
X265158095Y-80680057D02*
X265205714Y-80775295D01*
X265205714Y-80775295D02*
X265205714Y-80870533D01*
X265205714Y-80870533D02*
X265158095Y-81013390D01*
X265158095Y-81013390D02*
X264586667Y-81584819D01*
X264586667Y-81584819D02*
X265205714Y-81584819D01*
X186828095Y-68964819D02*
X186828095Y-69774342D01*
X186828095Y-69774342D02*
X186875714Y-69869580D01*
X186875714Y-69869580D02*
X186923333Y-69917200D01*
X186923333Y-69917200D02*
X187018571Y-69964819D01*
X187018571Y-69964819D02*
X187209047Y-69964819D01*
X187209047Y-69964819D02*
X187304285Y-69917200D01*
X187304285Y-69917200D02*
X187351904Y-69869580D01*
X187351904Y-69869580D02*
X187399523Y-69774342D01*
X187399523Y-69774342D02*
X187399523Y-68964819D01*
X187828095Y-69060057D02*
X187875714Y-69012438D01*
X187875714Y-69012438D02*
X187970952Y-68964819D01*
X187970952Y-68964819D02*
X188209047Y-68964819D01*
X188209047Y-68964819D02*
X188304285Y-69012438D01*
X188304285Y-69012438D02*
X188351904Y-69060057D01*
X188351904Y-69060057D02*
X188399523Y-69155295D01*
X188399523Y-69155295D02*
X188399523Y-69250533D01*
X188399523Y-69250533D02*
X188351904Y-69393390D01*
X188351904Y-69393390D02*
X187780476Y-69964819D01*
X187780476Y-69964819D02*
X188399523Y-69964819D01*
X157824819Y-139453333D02*
X158539104Y-139453333D01*
X158539104Y-139453333D02*
X158681961Y-139500952D01*
X158681961Y-139500952D02*
X158777200Y-139596190D01*
X158777200Y-139596190D02*
X158824819Y-139739047D01*
X158824819Y-139739047D02*
X158824819Y-139834285D01*
X157920057Y-139024761D02*
X157872438Y-138977142D01*
X157872438Y-138977142D02*
X157824819Y-138881904D01*
X157824819Y-138881904D02*
X157824819Y-138643809D01*
X157824819Y-138643809D02*
X157872438Y-138548571D01*
X157872438Y-138548571D02*
X157920057Y-138500952D01*
X157920057Y-138500952D02*
X158015295Y-138453333D01*
X158015295Y-138453333D02*
X158110533Y-138453333D01*
X158110533Y-138453333D02*
X158253390Y-138500952D01*
X158253390Y-138500952D02*
X158824819Y-139072380D01*
X158824819Y-139072380D02*
X158824819Y-138453333D01*
D11*
X263666667Y-108409800D02*
X263809524Y-108457419D01*
X263809524Y-108457419D02*
X264047619Y-108457419D01*
X264047619Y-108457419D02*
X264142857Y-108409800D01*
X264142857Y-108409800D02*
X264190476Y-108362180D01*
X264190476Y-108362180D02*
X264238095Y-108266942D01*
X264238095Y-108266942D02*
X264238095Y-108171704D01*
X264238095Y-108171704D02*
X264190476Y-108076466D01*
X264190476Y-108076466D02*
X264142857Y-108028847D01*
X264142857Y-108028847D02*
X264047619Y-107981228D01*
X264047619Y-107981228D02*
X263857143Y-107933609D01*
X263857143Y-107933609D02*
X263761905Y-107885990D01*
X263761905Y-107885990D02*
X263714286Y-107838371D01*
X263714286Y-107838371D02*
X263666667Y-107743133D01*
X263666667Y-107743133D02*
X263666667Y-107647895D01*
X263666667Y-107647895D02*
X263714286Y-107552657D01*
X263714286Y-107552657D02*
X263761905Y-107505038D01*
X263761905Y-107505038D02*
X263857143Y-107457419D01*
X263857143Y-107457419D02*
X264095238Y-107457419D01*
X264095238Y-107457419D02*
X264238095Y-107505038D01*
X264571429Y-107457419D02*
X264809524Y-108457419D01*
X264809524Y-108457419D02*
X265000000Y-107743133D01*
X265000000Y-107743133D02*
X265190476Y-108457419D01*
X265190476Y-108457419D02*
X265428572Y-107457419D01*
X266333333Y-108457419D02*
X265761905Y-108457419D01*
X266047619Y-108457419D02*
X266047619Y-107457419D01*
X266047619Y-107457419D02*
X265952381Y-107600276D01*
X265952381Y-107600276D02*
X265857143Y-107695514D01*
X265857143Y-107695514D02*
X265761905Y-107743133D01*
D12*
X213661905Y-68114819D02*
X213661905Y-67114819D01*
X213661905Y-67114819D02*
X213900000Y-67114819D01*
X213900000Y-67114819D02*
X214042857Y-67162438D01*
X214042857Y-67162438D02*
X214138095Y-67257676D01*
X214138095Y-67257676D02*
X214185714Y-67352914D01*
X214185714Y-67352914D02*
X214233333Y-67543390D01*
X214233333Y-67543390D02*
X214233333Y-67686247D01*
X214233333Y-67686247D02*
X214185714Y-67876723D01*
X214185714Y-67876723D02*
X214138095Y-67971961D01*
X214138095Y-67971961D02*
X214042857Y-68067200D01*
X214042857Y-68067200D02*
X213900000Y-68114819D01*
X213900000Y-68114819D02*
X213661905Y-68114819D01*
X215090476Y-67448152D02*
X215090476Y-68114819D01*
X214852381Y-67067200D02*
X214614286Y-67781485D01*
X214614286Y-67781485D02*
X215233333Y-67781485D01*
X181666666Y-148894819D02*
X181666666Y-149609104D01*
X181666666Y-149609104D02*
X181619047Y-149751961D01*
X181619047Y-149751961D02*
X181523809Y-149847200D01*
X181523809Y-149847200D02*
X181380952Y-149894819D01*
X181380952Y-149894819D02*
X181285714Y-149894819D01*
X182619047Y-148894819D02*
X182142857Y-148894819D01*
X182142857Y-148894819D02*
X182095238Y-149371009D01*
X182095238Y-149371009D02*
X182142857Y-149323390D01*
X182142857Y-149323390D02*
X182238095Y-149275771D01*
X182238095Y-149275771D02*
X182476190Y-149275771D01*
X182476190Y-149275771D02*
X182571428Y-149323390D01*
X182571428Y-149323390D02*
X182619047Y-149371009D01*
X182619047Y-149371009D02*
X182666666Y-149466247D01*
X182666666Y-149466247D02*
X182666666Y-149704342D01*
X182666666Y-149704342D02*
X182619047Y-149799580D01*
X182619047Y-149799580D02*
X182571428Y-149847200D01*
X182571428Y-149847200D02*
X182476190Y-149894819D01*
X182476190Y-149894819D02*
X182238095Y-149894819D01*
X182238095Y-149894819D02*
X182142857Y-149847200D01*
X182142857Y-149847200D02*
X182095238Y-149799580D01*
X219261906Y-68254818D02*
X219261906Y-67254818D01*
X219261906Y-67254818D02*
X219500001Y-67254818D01*
X219500001Y-67254818D02*
X219642858Y-67302437D01*
X219642858Y-67302437D02*
X219738096Y-67397675D01*
X219738096Y-67397675D02*
X219785715Y-67492913D01*
X219785715Y-67492913D02*
X219833334Y-67683389D01*
X219833334Y-67683389D02*
X219833334Y-67826246D01*
X219833334Y-67826246D02*
X219785715Y-68016722D01*
X219785715Y-68016722D02*
X219738096Y-68111960D01*
X219738096Y-68111960D02*
X219642858Y-68207199D01*
X219642858Y-68207199D02*
X219500001Y-68254818D01*
X219500001Y-68254818D02*
X219261906Y-68254818D01*
X220166668Y-67254818D02*
X220785715Y-67254818D01*
X220785715Y-67254818D02*
X220452382Y-67635770D01*
X220452382Y-67635770D02*
X220595239Y-67635770D01*
X220595239Y-67635770D02*
X220690477Y-67683389D01*
X220690477Y-67683389D02*
X220738096Y-67731008D01*
X220738096Y-67731008D02*
X220785715Y-67826246D01*
X220785715Y-67826246D02*
X220785715Y-68064341D01*
X220785715Y-68064341D02*
X220738096Y-68159579D01*
X220738096Y-68159579D02*
X220690477Y-68207199D01*
X220690477Y-68207199D02*
X220595239Y-68254818D01*
X220595239Y-68254818D02*
X220309525Y-68254818D01*
X220309525Y-68254818D02*
X220214287Y-68207199D01*
X220214287Y-68207199D02*
X220166668Y-68159579D01*
X257253333Y-86359580D02*
X257205714Y-86407200D01*
X257205714Y-86407200D02*
X257062857Y-86454819D01*
X257062857Y-86454819D02*
X256967619Y-86454819D01*
X256967619Y-86454819D02*
X256824762Y-86407200D01*
X256824762Y-86407200D02*
X256729524Y-86311961D01*
X256729524Y-86311961D02*
X256681905Y-86216723D01*
X256681905Y-86216723D02*
X256634286Y-86026247D01*
X256634286Y-86026247D02*
X256634286Y-85883390D01*
X256634286Y-85883390D02*
X256681905Y-85692914D01*
X256681905Y-85692914D02*
X256729524Y-85597676D01*
X256729524Y-85597676D02*
X256824762Y-85502438D01*
X256824762Y-85502438D02*
X256967619Y-85454819D01*
X256967619Y-85454819D02*
X257062857Y-85454819D01*
X257062857Y-85454819D02*
X257205714Y-85502438D01*
X257205714Y-85502438D02*
X257253333Y-85550057D01*
X258205714Y-86454819D02*
X257634286Y-86454819D01*
X257920000Y-86454819D02*
X257920000Y-85454819D01*
X257920000Y-85454819D02*
X257824762Y-85597676D01*
X257824762Y-85597676D02*
X257729524Y-85692914D01*
X257729524Y-85692914D02*
X257634286Y-85740533D01*
X161079938Y-81361547D02*
X159079938Y-81361547D01*
X159079938Y-81361547D02*
X160508509Y-81028214D01*
X160508509Y-81028214D02*
X159079938Y-80694881D01*
X159079938Y-80694881D02*
X161079938Y-80694881D01*
X161079938Y-80218690D02*
X159746604Y-80218690D01*
X159079938Y-80218690D02*
X159175176Y-80266309D01*
X159175176Y-80266309D02*
X159270414Y-80218690D01*
X159270414Y-80218690D02*
X159175176Y-80171071D01*
X159175176Y-80171071D02*
X159079938Y-80218690D01*
X159079938Y-80218690D02*
X159270414Y-80218690D01*
X161079938Y-79742500D02*
X159079938Y-79742500D01*
X160318033Y-79647262D02*
X161079938Y-79361548D01*
X159746604Y-79361548D02*
X160508509Y-79742500D01*
X161079938Y-78932976D02*
X159746604Y-78932976D01*
X160127557Y-78932976D02*
X159937080Y-78885357D01*
X159937080Y-78885357D02*
X159841842Y-78837738D01*
X159841842Y-78837738D02*
X159746604Y-78742500D01*
X159746604Y-78742500D02*
X159746604Y-78647262D01*
X161079938Y-78171071D02*
X160984700Y-78266309D01*
X160984700Y-78266309D02*
X160889461Y-78313928D01*
X160889461Y-78313928D02*
X160698985Y-78361547D01*
X160698985Y-78361547D02*
X160127557Y-78361547D01*
X160127557Y-78361547D02*
X159937080Y-78313928D01*
X159937080Y-78313928D02*
X159841842Y-78266309D01*
X159841842Y-78266309D02*
X159746604Y-78171071D01*
X159746604Y-78171071D02*
X159746604Y-78028214D01*
X159746604Y-78028214D02*
X159841842Y-77932976D01*
X159841842Y-77932976D02*
X159937080Y-77885357D01*
X159937080Y-77885357D02*
X160127557Y-77837738D01*
X160127557Y-77837738D02*
X160698985Y-77837738D01*
X160698985Y-77837738D02*
X160889461Y-77885357D01*
X160889461Y-77885357D02*
X160984700Y-77932976D01*
X160984700Y-77932976D02*
X161079938Y-78028214D01*
X161079938Y-78028214D02*
X161079938Y-78171071D01*
X160032319Y-77409166D02*
X160032319Y-77075833D01*
X161079938Y-76932976D02*
X161079938Y-77409166D01*
X161079938Y-77409166D02*
X159079938Y-77409166D01*
X159079938Y-77409166D02*
X159079938Y-76932976D01*
X160318033Y-76504404D02*
X160318033Y-75742500D01*
X159746604Y-75266309D02*
X161079938Y-75266309D01*
X159937080Y-75266309D02*
X159841842Y-75218690D01*
X159841842Y-75218690D02*
X159746604Y-75123452D01*
X159746604Y-75123452D02*
X159746604Y-74980595D01*
X159746604Y-74980595D02*
X159841842Y-74885357D01*
X159841842Y-74885357D02*
X160032319Y-74837738D01*
X160032319Y-74837738D02*
X161079938Y-74837738D01*
X161079938Y-73790119D02*
X160127557Y-74123452D01*
X161079938Y-74361547D02*
X159079938Y-74361547D01*
X159079938Y-74361547D02*
X159079938Y-73980595D01*
X159079938Y-73980595D02*
X159175176Y-73885357D01*
X159175176Y-73885357D02*
X159270414Y-73837738D01*
X159270414Y-73837738D02*
X159460890Y-73790119D01*
X159460890Y-73790119D02*
X159746604Y-73790119D01*
X159746604Y-73790119D02*
X159937080Y-73837738D01*
X159937080Y-73837738D02*
X160032319Y-73885357D01*
X160032319Y-73885357D02*
X160127557Y-73980595D01*
X160127557Y-73980595D02*
X160127557Y-74361547D01*
X160032319Y-73028214D02*
X160032319Y-73361547D01*
X161079938Y-73361547D02*
X159079938Y-73361547D01*
X159079938Y-73361547D02*
X159079938Y-72885357D01*
X160318033Y-72504404D02*
X160318033Y-71742500D01*
X160984700Y-71313928D02*
X161079938Y-71171071D01*
X161079938Y-71171071D02*
X161079938Y-70932976D01*
X161079938Y-70932976D02*
X160984700Y-70837738D01*
X160984700Y-70837738D02*
X160889461Y-70790119D01*
X160889461Y-70790119D02*
X160698985Y-70742500D01*
X160698985Y-70742500D02*
X160508509Y-70742500D01*
X160508509Y-70742500D02*
X160318033Y-70790119D01*
X160318033Y-70790119D02*
X160222795Y-70837738D01*
X160222795Y-70837738D02*
X160127557Y-70932976D01*
X160127557Y-70932976D02*
X160032319Y-71123452D01*
X160032319Y-71123452D02*
X159937080Y-71218690D01*
X159937080Y-71218690D02*
X159841842Y-71266309D01*
X159841842Y-71266309D02*
X159651366Y-71313928D01*
X159651366Y-71313928D02*
X159460890Y-71313928D01*
X159460890Y-71313928D02*
X159270414Y-71266309D01*
X159270414Y-71266309D02*
X159175176Y-71218690D01*
X159175176Y-71218690D02*
X159079938Y-71123452D01*
X159079938Y-71123452D02*
X159079938Y-70885357D01*
X159079938Y-70885357D02*
X159175176Y-70742500D01*
X160318033Y-70313928D02*
X160318033Y-69552024D01*
X161079938Y-69075833D02*
X159746604Y-69075833D01*
X159937080Y-69075833D02*
X159841842Y-69028214D01*
X159841842Y-69028214D02*
X159746604Y-68932976D01*
X159746604Y-68932976D02*
X159746604Y-68790119D01*
X159746604Y-68790119D02*
X159841842Y-68694881D01*
X159841842Y-68694881D02*
X160032319Y-68647262D01*
X160032319Y-68647262D02*
X161079938Y-68647262D01*
X160032319Y-68647262D02*
X159841842Y-68599643D01*
X159841842Y-68599643D02*
X159746604Y-68504405D01*
X159746604Y-68504405D02*
X159746604Y-68361548D01*
X159746604Y-68361548D02*
X159841842Y-68266309D01*
X159841842Y-68266309D02*
X160032319Y-68218690D01*
X160032319Y-68218690D02*
X161079938Y-68218690D01*
X161079938Y-67599643D02*
X160984700Y-67694881D01*
X160984700Y-67694881D02*
X160889461Y-67742500D01*
X160889461Y-67742500D02*
X160698985Y-67790119D01*
X160698985Y-67790119D02*
X160127557Y-67790119D01*
X160127557Y-67790119D02*
X159937080Y-67742500D01*
X159937080Y-67742500D02*
X159841842Y-67694881D01*
X159841842Y-67694881D02*
X159746604Y-67599643D01*
X159746604Y-67599643D02*
X159746604Y-67456786D01*
X159746604Y-67456786D02*
X159841842Y-67361548D01*
X159841842Y-67361548D02*
X159937080Y-67313929D01*
X159937080Y-67313929D02*
X160127557Y-67266310D01*
X160127557Y-67266310D02*
X160698985Y-67266310D01*
X160698985Y-67266310D02*
X160889461Y-67313929D01*
X160889461Y-67313929D02*
X160984700Y-67361548D01*
X160984700Y-67361548D02*
X161079938Y-67456786D01*
X161079938Y-67456786D02*
X161079938Y-67599643D01*
X161079938Y-66409167D02*
X159079938Y-66409167D01*
X160984700Y-66409167D02*
X161079938Y-66504405D01*
X161079938Y-66504405D02*
X161079938Y-66694881D01*
X161079938Y-66694881D02*
X160984700Y-66790119D01*
X160984700Y-66790119D02*
X160889461Y-66837738D01*
X160889461Y-66837738D02*
X160698985Y-66885357D01*
X160698985Y-66885357D02*
X160127557Y-66885357D01*
X160127557Y-66885357D02*
X159937080Y-66837738D01*
X159937080Y-66837738D02*
X159841842Y-66790119D01*
X159841842Y-66790119D02*
X159746604Y-66694881D01*
X159746604Y-66694881D02*
X159746604Y-66504405D01*
X159746604Y-66504405D02*
X159841842Y-66409167D01*
X159746604Y-65504405D02*
X161079938Y-65504405D01*
X159746604Y-65932976D02*
X160794223Y-65932976D01*
X160794223Y-65932976D02*
X160984700Y-65885357D01*
X160984700Y-65885357D02*
X161079938Y-65790119D01*
X161079938Y-65790119D02*
X161079938Y-65647262D01*
X161079938Y-65647262D02*
X160984700Y-65552024D01*
X160984700Y-65552024D02*
X160889461Y-65504405D01*
X161079938Y-64885357D02*
X160984700Y-64980595D01*
X160984700Y-64980595D02*
X160794223Y-65028214D01*
X160794223Y-65028214D02*
X159079938Y-65028214D01*
X160984700Y-64123452D02*
X161079938Y-64218690D01*
X161079938Y-64218690D02*
X161079938Y-64409166D01*
X161079938Y-64409166D02*
X160984700Y-64504404D01*
X160984700Y-64504404D02*
X160794223Y-64552023D01*
X160794223Y-64552023D02*
X160032319Y-64552023D01*
X160032319Y-64552023D02*
X159841842Y-64504404D01*
X159841842Y-64504404D02*
X159746604Y-64409166D01*
X159746604Y-64409166D02*
X159746604Y-64218690D01*
X159746604Y-64218690D02*
X159841842Y-64123452D01*
X159841842Y-64123452D02*
X160032319Y-64075833D01*
X160032319Y-64075833D02*
X160222795Y-64075833D01*
X160222795Y-64075833D02*
X160413271Y-64552023D01*
D13*
X146018095Y-84654066D02*
X146780000Y-84654066D01*
X146399047Y-85035019D02*
X146399047Y-84273114D01*
X147160952Y-84035019D02*
X147779999Y-84035019D01*
X147779999Y-84035019D02*
X147446666Y-84415971D01*
X147446666Y-84415971D02*
X147589523Y-84415971D01*
X147589523Y-84415971D02*
X147684761Y-84463590D01*
X147684761Y-84463590D02*
X147732380Y-84511209D01*
X147732380Y-84511209D02*
X147779999Y-84606447D01*
X147779999Y-84606447D02*
X147779999Y-84844542D01*
X147779999Y-84844542D02*
X147732380Y-84939780D01*
X147732380Y-84939780D02*
X147684761Y-84987400D01*
X147684761Y-84987400D02*
X147589523Y-85035019D01*
X147589523Y-85035019D02*
X147303809Y-85035019D01*
X147303809Y-85035019D02*
X147208571Y-84987400D01*
X147208571Y-84987400D02*
X147160952Y-84939780D01*
X148065714Y-84035019D02*
X148399047Y-85035019D01*
X148399047Y-85035019D02*
X148732380Y-84035019D01*
X148970476Y-84035019D02*
X149589523Y-84035019D01*
X149589523Y-84035019D02*
X149256190Y-84415971D01*
X149256190Y-84415971D02*
X149399047Y-84415971D01*
X149399047Y-84415971D02*
X149494285Y-84463590D01*
X149494285Y-84463590D02*
X149541904Y-84511209D01*
X149541904Y-84511209D02*
X149589523Y-84606447D01*
X149589523Y-84606447D02*
X149589523Y-84844542D01*
X149589523Y-84844542D02*
X149541904Y-84939780D01*
X149541904Y-84939780D02*
X149494285Y-84987400D01*
X149494285Y-84987400D02*
X149399047Y-85035019D01*
X149399047Y-85035019D02*
X149113333Y-85035019D01*
X149113333Y-85035019D02*
X149018095Y-84987400D01*
X149018095Y-84987400D02*
X148970476Y-84939780D01*
X145970476Y-77367400D02*
X146113333Y-77415019D01*
X146113333Y-77415019D02*
X146351428Y-77415019D01*
X146351428Y-77415019D02*
X146446666Y-77367400D01*
X146446666Y-77367400D02*
X146494285Y-77319780D01*
X146494285Y-77319780D02*
X146541904Y-77224542D01*
X146541904Y-77224542D02*
X146541904Y-77129304D01*
X146541904Y-77129304D02*
X146494285Y-77034066D01*
X146494285Y-77034066D02*
X146446666Y-76986447D01*
X146446666Y-76986447D02*
X146351428Y-76938828D01*
X146351428Y-76938828D02*
X146160952Y-76891209D01*
X146160952Y-76891209D02*
X146065714Y-76843590D01*
X146065714Y-76843590D02*
X146018095Y-76795971D01*
X146018095Y-76795971D02*
X145970476Y-76700733D01*
X145970476Y-76700733D02*
X145970476Y-76605495D01*
X145970476Y-76605495D02*
X146018095Y-76510257D01*
X146018095Y-76510257D02*
X146065714Y-76462638D01*
X146065714Y-76462638D02*
X146160952Y-76415019D01*
X146160952Y-76415019D02*
X146399047Y-76415019D01*
X146399047Y-76415019D02*
X146541904Y-76462638D01*
X147541904Y-77319780D02*
X147494285Y-77367400D01*
X147494285Y-77367400D02*
X147351428Y-77415019D01*
X147351428Y-77415019D02*
X147256190Y-77415019D01*
X147256190Y-77415019D02*
X147113333Y-77367400D01*
X147113333Y-77367400D02*
X147018095Y-77272161D01*
X147018095Y-77272161D02*
X146970476Y-77176923D01*
X146970476Y-77176923D02*
X146922857Y-76986447D01*
X146922857Y-76986447D02*
X146922857Y-76843590D01*
X146922857Y-76843590D02*
X146970476Y-76653114D01*
X146970476Y-76653114D02*
X147018095Y-76557876D01*
X147018095Y-76557876D02*
X147113333Y-76462638D01*
X147113333Y-76462638D02*
X147256190Y-76415019D01*
X147256190Y-76415019D02*
X147351428Y-76415019D01*
X147351428Y-76415019D02*
X147494285Y-76462638D01*
X147494285Y-76462638D02*
X147541904Y-76510257D01*
X147970476Y-77415019D02*
X147970476Y-76415019D01*
X148541904Y-77415019D02*
X148113333Y-76843590D01*
X148541904Y-76415019D02*
X147970476Y-76986447D01*
X152106667Y-68960019D02*
X152106667Y-68293352D01*
X152106667Y-68388590D02*
X152154286Y-68340971D01*
X152154286Y-68340971D02*
X152249524Y-68293352D01*
X152249524Y-68293352D02*
X152392381Y-68293352D01*
X152392381Y-68293352D02*
X152487619Y-68340971D01*
X152487619Y-68340971D02*
X152535238Y-68436209D01*
X152535238Y-68436209D02*
X152535238Y-68960019D01*
X152535238Y-68436209D02*
X152582857Y-68340971D01*
X152582857Y-68340971D02*
X152678095Y-68293352D01*
X152678095Y-68293352D02*
X152820952Y-68293352D01*
X152820952Y-68293352D02*
X152916191Y-68340971D01*
X152916191Y-68340971D02*
X152963810Y-68436209D01*
X152963810Y-68436209D02*
X152963810Y-68960019D01*
X153440000Y-68960019D02*
X153440000Y-68293352D01*
X153440000Y-67960019D02*
X153392381Y-68007638D01*
X153392381Y-68007638D02*
X153440000Y-68055257D01*
X153440000Y-68055257D02*
X153487619Y-68007638D01*
X153487619Y-68007638D02*
X153440000Y-67960019D01*
X153440000Y-67960019D02*
X153440000Y-68055257D01*
X153916190Y-68960019D02*
X153916190Y-67960019D01*
X154011428Y-68579066D02*
X154297142Y-68960019D01*
X154297142Y-68293352D02*
X153916190Y-68674304D01*
X154725714Y-68960019D02*
X154725714Y-68293352D01*
X154725714Y-68483828D02*
X154773333Y-68388590D01*
X154773333Y-68388590D02*
X154820952Y-68340971D01*
X154820952Y-68340971D02*
X154916190Y-68293352D01*
X154916190Y-68293352D02*
X155011428Y-68293352D01*
X155487619Y-68960019D02*
X155392381Y-68912400D01*
X155392381Y-68912400D02*
X155344762Y-68864780D01*
X155344762Y-68864780D02*
X155297143Y-68769542D01*
X155297143Y-68769542D02*
X155297143Y-68483828D01*
X155297143Y-68483828D02*
X155344762Y-68388590D01*
X155344762Y-68388590D02*
X155392381Y-68340971D01*
X155392381Y-68340971D02*
X155487619Y-68293352D01*
X155487619Y-68293352D02*
X155630476Y-68293352D01*
X155630476Y-68293352D02*
X155725714Y-68340971D01*
X155725714Y-68340971D02*
X155773333Y-68388590D01*
X155773333Y-68388590D02*
X155820952Y-68483828D01*
X155820952Y-68483828D02*
X155820952Y-68769542D01*
X155820952Y-68769542D02*
X155773333Y-68864780D01*
X155773333Y-68864780D02*
X155725714Y-68912400D01*
X155725714Y-68912400D02*
X155630476Y-68960019D01*
X155630476Y-68960019D02*
X155487619Y-68960019D01*
X156582857Y-68436209D02*
X156725714Y-68483828D01*
X156725714Y-68483828D02*
X156773333Y-68531447D01*
X156773333Y-68531447D02*
X156820952Y-68626685D01*
X156820952Y-68626685D02*
X156820952Y-68769542D01*
X156820952Y-68769542D02*
X156773333Y-68864780D01*
X156773333Y-68864780D02*
X156725714Y-68912400D01*
X156725714Y-68912400D02*
X156630476Y-68960019D01*
X156630476Y-68960019D02*
X156249524Y-68960019D01*
X156249524Y-68960019D02*
X156249524Y-67960019D01*
X156249524Y-67960019D02*
X156582857Y-67960019D01*
X156582857Y-67960019D02*
X156678095Y-68007638D01*
X156678095Y-68007638D02*
X156725714Y-68055257D01*
X156725714Y-68055257D02*
X156773333Y-68150495D01*
X156773333Y-68150495D02*
X156773333Y-68245733D01*
X156773333Y-68245733D02*
X156725714Y-68340971D01*
X156725714Y-68340971D02*
X156678095Y-68388590D01*
X156678095Y-68388590D02*
X156582857Y-68436209D01*
X156582857Y-68436209D02*
X156249524Y-68436209D01*
X157249524Y-67960019D02*
X157249524Y-68769542D01*
X157249524Y-68769542D02*
X157297143Y-68864780D01*
X157297143Y-68864780D02*
X157344762Y-68912400D01*
X157344762Y-68912400D02*
X157440000Y-68960019D01*
X157440000Y-68960019D02*
X157630476Y-68960019D01*
X157630476Y-68960019D02*
X157725714Y-68912400D01*
X157725714Y-68912400D02*
X157773333Y-68864780D01*
X157773333Y-68864780D02*
X157820952Y-68769542D01*
X157820952Y-68769542D02*
X157820952Y-67960019D01*
X158249524Y-68912400D02*
X158392381Y-68960019D01*
X158392381Y-68960019D02*
X158630476Y-68960019D01*
X158630476Y-68960019D02*
X158725714Y-68912400D01*
X158725714Y-68912400D02*
X158773333Y-68864780D01*
X158773333Y-68864780D02*
X158820952Y-68769542D01*
X158820952Y-68769542D02*
X158820952Y-68674304D01*
X158820952Y-68674304D02*
X158773333Y-68579066D01*
X158773333Y-68579066D02*
X158725714Y-68531447D01*
X158725714Y-68531447D02*
X158630476Y-68483828D01*
X158630476Y-68483828D02*
X158440000Y-68436209D01*
X158440000Y-68436209D02*
X158344762Y-68388590D01*
X158344762Y-68388590D02*
X158297143Y-68340971D01*
X158297143Y-68340971D02*
X158249524Y-68245733D01*
X158249524Y-68245733D02*
X158249524Y-68150495D01*
X158249524Y-68150495D02*
X158297143Y-68055257D01*
X158297143Y-68055257D02*
X158344762Y-68007638D01*
X158344762Y-68007638D02*
X158440000Y-67960019D01*
X158440000Y-67960019D02*
X158678095Y-67960019D01*
X158678095Y-67960019D02*
X158820952Y-68007638D01*
X156111429Y-67682400D02*
X158911429Y-67682400D01*
X145970476Y-69509304D02*
X146446666Y-69509304D01*
X145875238Y-69795019D02*
X146208571Y-68795019D01*
X146208571Y-68795019D02*
X146541904Y-69795019D01*
X146875238Y-69795019D02*
X146875238Y-68795019D01*
X146875238Y-68795019D02*
X147446666Y-69795019D01*
X147446666Y-69795019D02*
X147446666Y-68795019D01*
X162808962Y-79907400D02*
X162951819Y-79955019D01*
X162951819Y-79955019D02*
X163189914Y-79955019D01*
X163189914Y-79955019D02*
X163285152Y-79907400D01*
X163285152Y-79907400D02*
X163332771Y-79859780D01*
X163332771Y-79859780D02*
X163380390Y-79764542D01*
X163380390Y-79764542D02*
X163380390Y-79669304D01*
X163380390Y-79669304D02*
X163332771Y-79574066D01*
X163332771Y-79574066D02*
X163285152Y-79526447D01*
X163285152Y-79526447D02*
X163189914Y-79478828D01*
X163189914Y-79478828D02*
X162999438Y-79431209D01*
X162999438Y-79431209D02*
X162904200Y-79383590D01*
X162904200Y-79383590D02*
X162856581Y-79335971D01*
X162856581Y-79335971D02*
X162808962Y-79240733D01*
X162808962Y-79240733D02*
X162808962Y-79145495D01*
X162808962Y-79145495D02*
X162856581Y-79050257D01*
X162856581Y-79050257D02*
X162904200Y-79002638D01*
X162904200Y-79002638D02*
X162999438Y-78955019D01*
X162999438Y-78955019D02*
X163237533Y-78955019D01*
X163237533Y-78955019D02*
X163380390Y-79002638D01*
X164380390Y-79859780D02*
X164332771Y-79907400D01*
X164332771Y-79907400D02*
X164189914Y-79955019D01*
X164189914Y-79955019D02*
X164094676Y-79955019D01*
X164094676Y-79955019D02*
X163951819Y-79907400D01*
X163951819Y-79907400D02*
X163856581Y-79812161D01*
X163856581Y-79812161D02*
X163808962Y-79716923D01*
X163808962Y-79716923D02*
X163761343Y-79526447D01*
X163761343Y-79526447D02*
X163761343Y-79383590D01*
X163761343Y-79383590D02*
X163808962Y-79193114D01*
X163808962Y-79193114D02*
X163856581Y-79097876D01*
X163856581Y-79097876D02*
X163951819Y-79002638D01*
X163951819Y-79002638D02*
X164094676Y-78955019D01*
X164094676Y-78955019D02*
X164189914Y-78955019D01*
X164189914Y-78955019D02*
X164332771Y-79002638D01*
X164332771Y-79002638D02*
X164380390Y-79050257D01*
X165285152Y-79955019D02*
X164808962Y-79955019D01*
X164808962Y-79955019D02*
X164808962Y-78955019D01*
X162570867Y-84654066D02*
X163332772Y-84654066D01*
X162951819Y-85035019D02*
X162951819Y-84273114D01*
X164285152Y-84035019D02*
X163808962Y-84035019D01*
X163808962Y-84035019D02*
X163761343Y-84511209D01*
X163761343Y-84511209D02*
X163808962Y-84463590D01*
X163808962Y-84463590D02*
X163904200Y-84415971D01*
X163904200Y-84415971D02*
X164142295Y-84415971D01*
X164142295Y-84415971D02*
X164237533Y-84463590D01*
X164237533Y-84463590D02*
X164285152Y-84511209D01*
X164285152Y-84511209D02*
X164332771Y-84606447D01*
X164332771Y-84606447D02*
X164332771Y-84844542D01*
X164332771Y-84844542D02*
X164285152Y-84939780D01*
X164285152Y-84939780D02*
X164237533Y-84987400D01*
X164237533Y-84987400D02*
X164142295Y-85035019D01*
X164142295Y-85035019D02*
X163904200Y-85035019D01*
X163904200Y-85035019D02*
X163808962Y-84987400D01*
X163808962Y-84987400D02*
X163761343Y-84939780D01*
X164618486Y-84035019D02*
X164951819Y-85035019D01*
X164951819Y-85035019D02*
X165285152Y-84035019D01*
X146541904Y-86622638D02*
X146446666Y-86575019D01*
X146446666Y-86575019D02*
X146303809Y-86575019D01*
X146303809Y-86575019D02*
X146160952Y-86622638D01*
X146160952Y-86622638D02*
X146065714Y-86717876D01*
X146065714Y-86717876D02*
X146018095Y-86813114D01*
X146018095Y-86813114D02*
X145970476Y-87003590D01*
X145970476Y-87003590D02*
X145970476Y-87146447D01*
X145970476Y-87146447D02*
X146018095Y-87336923D01*
X146018095Y-87336923D02*
X146065714Y-87432161D01*
X146065714Y-87432161D02*
X146160952Y-87527400D01*
X146160952Y-87527400D02*
X146303809Y-87575019D01*
X146303809Y-87575019D02*
X146399047Y-87575019D01*
X146399047Y-87575019D02*
X146541904Y-87527400D01*
X146541904Y-87527400D02*
X146589523Y-87479780D01*
X146589523Y-87479780D02*
X146589523Y-87146447D01*
X146589523Y-87146447D02*
X146399047Y-87146447D01*
X147018095Y-87575019D02*
X147018095Y-86575019D01*
X147018095Y-86575019D02*
X147589523Y-87575019D01*
X147589523Y-87575019D02*
X147589523Y-86575019D01*
X148065714Y-87575019D02*
X148065714Y-86575019D01*
X148065714Y-86575019D02*
X148303809Y-86575019D01*
X148303809Y-86575019D02*
X148446666Y-86622638D01*
X148446666Y-86622638D02*
X148541904Y-86717876D01*
X148541904Y-86717876D02*
X148589523Y-86813114D01*
X148589523Y-86813114D02*
X148637142Y-87003590D01*
X148637142Y-87003590D02*
X148637142Y-87146447D01*
X148637142Y-87146447D02*
X148589523Y-87336923D01*
X148589523Y-87336923D02*
X148541904Y-87432161D01*
X148541904Y-87432161D02*
X148446666Y-87527400D01*
X148446666Y-87527400D02*
X148303809Y-87575019D01*
X148303809Y-87575019D02*
X148065714Y-87575019D01*
X146018096Y-82495019D02*
X146018096Y-81495019D01*
X146018096Y-81495019D02*
X146351429Y-82209304D01*
X146351429Y-82209304D02*
X146684762Y-81495019D01*
X146684762Y-81495019D02*
X146684762Y-82495019D01*
X147351429Y-81495019D02*
X147541905Y-81495019D01*
X147541905Y-81495019D02*
X147637143Y-81542638D01*
X147637143Y-81542638D02*
X147732381Y-81637876D01*
X147732381Y-81637876D02*
X147780000Y-81828352D01*
X147780000Y-81828352D02*
X147780000Y-82161685D01*
X147780000Y-82161685D02*
X147732381Y-82352161D01*
X147732381Y-82352161D02*
X147637143Y-82447400D01*
X147637143Y-82447400D02*
X147541905Y-82495019D01*
X147541905Y-82495019D02*
X147351429Y-82495019D01*
X147351429Y-82495019D02*
X147256191Y-82447400D01*
X147256191Y-82447400D02*
X147160953Y-82352161D01*
X147160953Y-82352161D02*
X147113334Y-82161685D01*
X147113334Y-82161685D02*
X147113334Y-81828352D01*
X147113334Y-81828352D02*
X147160953Y-81637876D01*
X147160953Y-81637876D02*
X147256191Y-81542638D01*
X147256191Y-81542638D02*
X147351429Y-81495019D01*
X148160953Y-82447400D02*
X148303810Y-82495019D01*
X148303810Y-82495019D02*
X148541905Y-82495019D01*
X148541905Y-82495019D02*
X148637143Y-82447400D01*
X148637143Y-82447400D02*
X148684762Y-82399780D01*
X148684762Y-82399780D02*
X148732381Y-82304542D01*
X148732381Y-82304542D02*
X148732381Y-82209304D01*
X148732381Y-82209304D02*
X148684762Y-82114066D01*
X148684762Y-82114066D02*
X148637143Y-82066447D01*
X148637143Y-82066447D02*
X148541905Y-82018828D01*
X148541905Y-82018828D02*
X148351429Y-81971209D01*
X148351429Y-81971209D02*
X148256191Y-81923590D01*
X148256191Y-81923590D02*
X148208572Y-81875971D01*
X148208572Y-81875971D02*
X148160953Y-81780733D01*
X148160953Y-81780733D02*
X148160953Y-81685495D01*
X148160953Y-81685495D02*
X148208572Y-81590257D01*
X148208572Y-81590257D02*
X148256191Y-81542638D01*
X148256191Y-81542638D02*
X148351429Y-81495019D01*
X148351429Y-81495019D02*
X148589524Y-81495019D01*
X148589524Y-81495019D02*
X148732381Y-81542638D01*
X149160953Y-82495019D02*
X149160953Y-81495019D01*
X146589523Y-72335019D02*
X146256190Y-71858828D01*
X146018095Y-72335019D02*
X146018095Y-71335019D01*
X146018095Y-71335019D02*
X146399047Y-71335019D01*
X146399047Y-71335019D02*
X146494285Y-71382638D01*
X146494285Y-71382638D02*
X146541904Y-71430257D01*
X146541904Y-71430257D02*
X146589523Y-71525495D01*
X146589523Y-71525495D02*
X146589523Y-71668352D01*
X146589523Y-71668352D02*
X146541904Y-71763590D01*
X146541904Y-71763590D02*
X146494285Y-71811209D01*
X146494285Y-71811209D02*
X146399047Y-71858828D01*
X146399047Y-71858828D02*
X146018095Y-71858828D01*
X146970476Y-72287400D02*
X147113333Y-72335019D01*
X147113333Y-72335019D02*
X147351428Y-72335019D01*
X147351428Y-72335019D02*
X147446666Y-72287400D01*
X147446666Y-72287400D02*
X147494285Y-72239780D01*
X147494285Y-72239780D02*
X147541904Y-72144542D01*
X147541904Y-72144542D02*
X147541904Y-72049304D01*
X147541904Y-72049304D02*
X147494285Y-71954066D01*
X147494285Y-71954066D02*
X147446666Y-71906447D01*
X147446666Y-71906447D02*
X147351428Y-71858828D01*
X147351428Y-71858828D02*
X147160952Y-71811209D01*
X147160952Y-71811209D02*
X147065714Y-71763590D01*
X147065714Y-71763590D02*
X147018095Y-71715971D01*
X147018095Y-71715971D02*
X146970476Y-71620733D01*
X146970476Y-71620733D02*
X146970476Y-71525495D01*
X146970476Y-71525495D02*
X147018095Y-71430257D01*
X147018095Y-71430257D02*
X147065714Y-71382638D01*
X147065714Y-71382638D02*
X147160952Y-71335019D01*
X147160952Y-71335019D02*
X147399047Y-71335019D01*
X147399047Y-71335019D02*
X147541904Y-71382638D01*
X147827619Y-71335019D02*
X148399047Y-71335019D01*
X148113333Y-72335019D02*
X148113333Y-71335019D01*
X146589523Y-74779780D02*
X146541904Y-74827400D01*
X146541904Y-74827400D02*
X146399047Y-74875019D01*
X146399047Y-74875019D02*
X146303809Y-74875019D01*
X146303809Y-74875019D02*
X146160952Y-74827400D01*
X146160952Y-74827400D02*
X146065714Y-74732161D01*
X146065714Y-74732161D02*
X146018095Y-74636923D01*
X146018095Y-74636923D02*
X145970476Y-74446447D01*
X145970476Y-74446447D02*
X145970476Y-74303590D01*
X145970476Y-74303590D02*
X146018095Y-74113114D01*
X146018095Y-74113114D02*
X146065714Y-74017876D01*
X146065714Y-74017876D02*
X146160952Y-73922638D01*
X146160952Y-73922638D02*
X146303809Y-73875019D01*
X146303809Y-73875019D02*
X146399047Y-73875019D01*
X146399047Y-73875019D02*
X146541904Y-73922638D01*
X146541904Y-73922638D02*
X146589523Y-73970257D01*
X146970476Y-74827400D02*
X147113333Y-74875019D01*
X147113333Y-74875019D02*
X147351428Y-74875019D01*
X147351428Y-74875019D02*
X147446666Y-74827400D01*
X147446666Y-74827400D02*
X147494285Y-74779780D01*
X147494285Y-74779780D02*
X147541904Y-74684542D01*
X147541904Y-74684542D02*
X147541904Y-74589304D01*
X147541904Y-74589304D02*
X147494285Y-74494066D01*
X147494285Y-74494066D02*
X147446666Y-74446447D01*
X147446666Y-74446447D02*
X147351428Y-74398828D01*
X147351428Y-74398828D02*
X147160952Y-74351209D01*
X147160952Y-74351209D02*
X147065714Y-74303590D01*
X147065714Y-74303590D02*
X147018095Y-74255971D01*
X147018095Y-74255971D02*
X146970476Y-74160733D01*
X146970476Y-74160733D02*
X146970476Y-74065495D01*
X146970476Y-74065495D02*
X147018095Y-73970257D01*
X147018095Y-73970257D02*
X147065714Y-73922638D01*
X147065714Y-73922638D02*
X147160952Y-73875019D01*
X147160952Y-73875019D02*
X147399047Y-73875019D01*
X147399047Y-73875019D02*
X147541904Y-73922638D01*
X163332772Y-72335019D02*
X163332772Y-71335019D01*
X163808962Y-72335019D02*
X163808962Y-71335019D01*
X163808962Y-71335019D02*
X164380390Y-72335019D01*
X164380390Y-72335019D02*
X164380390Y-71335019D01*
X164713724Y-71335019D02*
X165285152Y-71335019D01*
X164999438Y-72335019D02*
X164999438Y-71335019D01*
X164237533Y-74875019D02*
X163904200Y-74398828D01*
X163666105Y-74875019D02*
X163666105Y-73875019D01*
X163666105Y-73875019D02*
X164047057Y-73875019D01*
X164047057Y-73875019D02*
X164142295Y-73922638D01*
X164142295Y-73922638D02*
X164189914Y-73970257D01*
X164189914Y-73970257D02*
X164237533Y-74065495D01*
X164237533Y-74065495D02*
X164237533Y-74208352D01*
X164237533Y-74208352D02*
X164189914Y-74303590D01*
X164189914Y-74303590D02*
X164142295Y-74351209D01*
X164142295Y-74351209D02*
X164047057Y-74398828D01*
X164047057Y-74398828D02*
X163666105Y-74398828D01*
X164570867Y-73875019D02*
X165237533Y-74875019D01*
X165237533Y-73875019D02*
X164570867Y-74875019D01*
X163761343Y-76415019D02*
X164332771Y-76415019D01*
X164047057Y-77415019D02*
X164047057Y-76415019D01*
X164570867Y-76415019D02*
X165237533Y-77415019D01*
X165237533Y-76415019D02*
X164570867Y-77415019D01*
X162761343Y-82447400D02*
X162904200Y-82495019D01*
X162904200Y-82495019D02*
X163142295Y-82495019D01*
X163142295Y-82495019D02*
X163237533Y-82447400D01*
X163237533Y-82447400D02*
X163285152Y-82399780D01*
X163285152Y-82399780D02*
X163332771Y-82304542D01*
X163332771Y-82304542D02*
X163332771Y-82209304D01*
X163332771Y-82209304D02*
X163285152Y-82114066D01*
X163285152Y-82114066D02*
X163237533Y-82066447D01*
X163237533Y-82066447D02*
X163142295Y-82018828D01*
X163142295Y-82018828D02*
X162951819Y-81971209D01*
X162951819Y-81971209D02*
X162856581Y-81923590D01*
X162856581Y-81923590D02*
X162808962Y-81875971D01*
X162808962Y-81875971D02*
X162761343Y-81780733D01*
X162761343Y-81780733D02*
X162761343Y-81685495D01*
X162761343Y-81685495D02*
X162808962Y-81590257D01*
X162808962Y-81590257D02*
X162856581Y-81542638D01*
X162856581Y-81542638D02*
X162951819Y-81495019D01*
X162951819Y-81495019D02*
X163189914Y-81495019D01*
X163189914Y-81495019D02*
X163332771Y-81542638D01*
X163761343Y-82495019D02*
X163761343Y-81495019D01*
X163761343Y-81495019D02*
X163999438Y-81495019D01*
X163999438Y-81495019D02*
X164142295Y-81542638D01*
X164142295Y-81542638D02*
X164237533Y-81637876D01*
X164237533Y-81637876D02*
X164285152Y-81733114D01*
X164285152Y-81733114D02*
X164332771Y-81923590D01*
X164332771Y-81923590D02*
X164332771Y-82066447D01*
X164332771Y-82066447D02*
X164285152Y-82256923D01*
X164285152Y-82256923D02*
X164237533Y-82352161D01*
X164237533Y-82352161D02*
X164142295Y-82447400D01*
X164142295Y-82447400D02*
X163999438Y-82495019D01*
X163999438Y-82495019D02*
X163761343Y-82495019D01*
X164713724Y-82209304D02*
X165189914Y-82209304D01*
X164618486Y-82495019D02*
X164951819Y-81495019D01*
X164951819Y-81495019D02*
X165285152Y-82495019D01*
X146018096Y-79955019D02*
X146018096Y-78955019D01*
X146018096Y-78955019D02*
X146351429Y-79669304D01*
X146351429Y-79669304D02*
X146684762Y-78955019D01*
X146684762Y-78955019D02*
X146684762Y-79955019D01*
X147160953Y-79955019D02*
X147160953Y-78955019D01*
X147589524Y-79907400D02*
X147732381Y-79955019D01*
X147732381Y-79955019D02*
X147970476Y-79955019D01*
X147970476Y-79955019D02*
X148065714Y-79907400D01*
X148065714Y-79907400D02*
X148113333Y-79859780D01*
X148113333Y-79859780D02*
X148160952Y-79764542D01*
X148160952Y-79764542D02*
X148160952Y-79669304D01*
X148160952Y-79669304D02*
X148113333Y-79574066D01*
X148113333Y-79574066D02*
X148065714Y-79526447D01*
X148065714Y-79526447D02*
X147970476Y-79478828D01*
X147970476Y-79478828D02*
X147780000Y-79431209D01*
X147780000Y-79431209D02*
X147684762Y-79383590D01*
X147684762Y-79383590D02*
X147637143Y-79335971D01*
X147637143Y-79335971D02*
X147589524Y-79240733D01*
X147589524Y-79240733D02*
X147589524Y-79145495D01*
X147589524Y-79145495D02*
X147637143Y-79050257D01*
X147637143Y-79050257D02*
X147684762Y-79002638D01*
X147684762Y-79002638D02*
X147780000Y-78955019D01*
X147780000Y-78955019D02*
X148018095Y-78955019D01*
X148018095Y-78955019D02*
X148160952Y-79002638D01*
X148780000Y-78955019D02*
X148970476Y-78955019D01*
X148970476Y-78955019D02*
X149065714Y-79002638D01*
X149065714Y-79002638D02*
X149160952Y-79097876D01*
X149160952Y-79097876D02*
X149208571Y-79288352D01*
X149208571Y-79288352D02*
X149208571Y-79621685D01*
X149208571Y-79621685D02*
X149160952Y-79812161D01*
X149160952Y-79812161D02*
X149065714Y-79907400D01*
X149065714Y-79907400D02*
X148970476Y-79955019D01*
X148970476Y-79955019D02*
X148780000Y-79955019D01*
X148780000Y-79955019D02*
X148684762Y-79907400D01*
X148684762Y-79907400D02*
X148589524Y-79812161D01*
X148589524Y-79812161D02*
X148541905Y-79621685D01*
X148541905Y-79621685D02*
X148541905Y-79288352D01*
X148541905Y-79288352D02*
X148589524Y-79097876D01*
X148589524Y-79097876D02*
X148684762Y-79002638D01*
X148684762Y-79002638D02*
X148780000Y-78955019D01*
X162332772Y-69922019D02*
X162332772Y-68922019D01*
X162332772Y-68922019D02*
X162713724Y-68922019D01*
X162713724Y-68922019D02*
X162808962Y-68969638D01*
X162808962Y-68969638D02*
X162856581Y-69017257D01*
X162856581Y-69017257D02*
X162904200Y-69112495D01*
X162904200Y-69112495D02*
X162904200Y-69255352D01*
X162904200Y-69255352D02*
X162856581Y-69350590D01*
X162856581Y-69350590D02*
X162808962Y-69398209D01*
X162808962Y-69398209D02*
X162713724Y-69445828D01*
X162713724Y-69445828D02*
X162332772Y-69445828D01*
X163237534Y-68922019D02*
X163475629Y-69922019D01*
X163475629Y-69922019D02*
X163666105Y-69207733D01*
X163666105Y-69207733D02*
X163856581Y-69922019D01*
X163856581Y-69922019D02*
X164094677Y-68922019D01*
X164475629Y-69922019D02*
X164475629Y-68922019D01*
X164475629Y-68922019D02*
X164808962Y-69636304D01*
X164808962Y-69636304D02*
X165142295Y-68922019D01*
X165142295Y-68922019D02*
X165142295Y-69922019D01*
X163094676Y-86622638D02*
X162999438Y-86575019D01*
X162999438Y-86575019D02*
X162856581Y-86575019D01*
X162856581Y-86575019D02*
X162713724Y-86622638D01*
X162713724Y-86622638D02*
X162618486Y-86717876D01*
X162618486Y-86717876D02*
X162570867Y-86813114D01*
X162570867Y-86813114D02*
X162523248Y-87003590D01*
X162523248Y-87003590D02*
X162523248Y-87146447D01*
X162523248Y-87146447D02*
X162570867Y-87336923D01*
X162570867Y-87336923D02*
X162618486Y-87432161D01*
X162618486Y-87432161D02*
X162713724Y-87527400D01*
X162713724Y-87527400D02*
X162856581Y-87575019D01*
X162856581Y-87575019D02*
X162951819Y-87575019D01*
X162951819Y-87575019D02*
X163094676Y-87527400D01*
X163094676Y-87527400D02*
X163142295Y-87479780D01*
X163142295Y-87479780D02*
X163142295Y-87146447D01*
X163142295Y-87146447D02*
X162951819Y-87146447D01*
X163570867Y-87575019D02*
X163570867Y-86575019D01*
X163570867Y-86575019D02*
X164142295Y-87575019D01*
X164142295Y-87575019D02*
X164142295Y-86575019D01*
X164618486Y-87575019D02*
X164618486Y-86575019D01*
X164618486Y-86575019D02*
X164856581Y-86575019D01*
X164856581Y-86575019D02*
X164999438Y-86622638D01*
X164999438Y-86622638D02*
X165094676Y-86717876D01*
X165094676Y-86717876D02*
X165142295Y-86813114D01*
X165142295Y-86813114D02*
X165189914Y-87003590D01*
X165189914Y-87003590D02*
X165189914Y-87146447D01*
X165189914Y-87146447D02*
X165142295Y-87336923D01*
X165142295Y-87336923D02*
X165094676Y-87432161D01*
X165094676Y-87432161D02*
X164999438Y-87527400D01*
X164999438Y-87527400D02*
X164856581Y-87575019D01*
X164856581Y-87575019D02*
X164618486Y-87575019D01*
D12*
X169804819Y-156718333D02*
X170519104Y-156718333D01*
X170519104Y-156718333D02*
X170661961Y-156765952D01*
X170661961Y-156765952D02*
X170757200Y-156861190D01*
X170757200Y-156861190D02*
X170804819Y-157004047D01*
X170804819Y-157004047D02*
X170804819Y-157099285D01*
X170138152Y-155813571D02*
X170804819Y-155813571D01*
X169757200Y-156051666D02*
X170471485Y-156289761D01*
X170471485Y-156289761D02*
X170471485Y-155670714D01*
X241733333Y-86859580D02*
X241685714Y-86907200D01*
X241685714Y-86907200D02*
X241542857Y-86954819D01*
X241542857Y-86954819D02*
X241447619Y-86954819D01*
X241447619Y-86954819D02*
X241304762Y-86907200D01*
X241304762Y-86907200D02*
X241209524Y-86811961D01*
X241209524Y-86811961D02*
X241161905Y-86716723D01*
X241161905Y-86716723D02*
X241114286Y-86526247D01*
X241114286Y-86526247D02*
X241114286Y-86383390D01*
X241114286Y-86383390D02*
X241161905Y-86192914D01*
X241161905Y-86192914D02*
X241209524Y-86097676D01*
X241209524Y-86097676D02*
X241304762Y-86002438D01*
X241304762Y-86002438D02*
X241447619Y-85954819D01*
X241447619Y-85954819D02*
X241542857Y-85954819D01*
X241542857Y-85954819D02*
X241685714Y-86002438D01*
X241685714Y-86002438D02*
X241733333Y-86050057D01*
X242066667Y-85954819D02*
X242685714Y-85954819D01*
X242685714Y-85954819D02*
X242352381Y-86335771D01*
X242352381Y-86335771D02*
X242495238Y-86335771D01*
X242495238Y-86335771D02*
X242590476Y-86383390D01*
X242590476Y-86383390D02*
X242638095Y-86431009D01*
X242638095Y-86431009D02*
X242685714Y-86526247D01*
X242685714Y-86526247D02*
X242685714Y-86764342D01*
X242685714Y-86764342D02*
X242638095Y-86859580D01*
X242638095Y-86859580D02*
X242590476Y-86907200D01*
X242590476Y-86907200D02*
X242495238Y-86954819D01*
X242495238Y-86954819D02*
X242209524Y-86954819D01*
X242209524Y-86954819D02*
X242114286Y-86907200D01*
X242114286Y-86907200D02*
X242066667Y-86859580D01*
D14*
%TO.C,J11*%
X136820000Y-72880000D02*
X136820000Y-75480000D01*
X136820000Y-72880000D02*
X139480000Y-72880000D01*
X136820000Y-75480000D02*
X139480000Y-75480000D01*
X138150000Y-70280000D02*
X139480000Y-70280000D01*
X139480000Y-70280000D02*
X139480000Y-71610000D01*
X139480000Y-72880000D02*
X139480000Y-75480000D01*
%TO.C,J10*%
X239755000Y-132145000D02*
X237155000Y-132145000D01*
X239755000Y-132145000D02*
X239755000Y-134805000D01*
X237155000Y-132145000D02*
X237155000Y-134805000D01*
X242355000Y-133475000D02*
X242355000Y-134805000D01*
X242355000Y-134805000D02*
X241025000Y-134805000D01*
X239755000Y-134805000D02*
X237155000Y-134805000D01*
%TO.C,J9*%
X221970000Y-135810000D02*
X221970000Y-135930000D01*
X221970000Y-135930000D02*
X224630000Y-135930000D01*
X223300000Y-133270000D02*
X224630000Y-133270000D01*
X224630000Y-133270000D02*
X224630000Y-134600000D01*
X224630000Y-135810000D02*
X224630000Y-135930000D01*
%TO.C,J8*%
X169670000Y-131760000D02*
X169670000Y-131880000D01*
X169670000Y-131880000D02*
X172330000Y-131880000D01*
X171000000Y-129220000D02*
X172330000Y-129220000D01*
X172330000Y-129220000D02*
X172330000Y-130550000D01*
X172330000Y-131760000D02*
X172330000Y-131880000D01*
%TO.C,J7*%
X209305000Y-133095000D02*
X204165000Y-133095000D01*
X209305000Y-133095000D02*
X209305000Y-135755000D01*
X204165000Y-133095000D02*
X204165000Y-135755000D01*
X211905000Y-134425000D02*
X211905000Y-135755000D01*
X211905000Y-135755000D02*
X210575000Y-135755000D01*
X209305000Y-135755000D02*
X204165000Y-135755000D01*
%TO.C,U3*%
X204060000Y-79660000D02*
G75*
G02*
X204060000Y-81660000I0J-1000000D01*
G01*
X227040000Y-83310000D02*
X227040000Y-78010000D01*
X227040000Y-78010000D02*
X204060000Y-78010000D01*
X204060000Y-83310000D02*
X227040000Y-83310000D01*
X204060000Y-81660000D02*
X204060000Y-83310000D01*
X204060000Y-78010000D02*
X204060000Y-79660000D01*
D15*
%TO.C,U1*%
X194640000Y-137110000D02*
X244930000Y-137110000D01*
X194640000Y-155650000D02*
X194640000Y-137110000D01*
X244930000Y-137110000D02*
X244930000Y-155650000D01*
X244930000Y-155650000D02*
X194640000Y-155650000D01*
D16*
X236385000Y-136380000D02*
G75*
G02*
X236185000Y-136380000I-100000J0D01*
G01*
X236185000Y-136380000D02*
G75*
G02*
X236385000Y-136380000I100000J0D01*
G01*
D14*
%TO.C,R10*%
X263180000Y-70400000D02*
X263950000Y-70400000D01*
X263950000Y-69030000D02*
X263950000Y-71770000D01*
X263950000Y-71770000D02*
X270490000Y-71770000D01*
X270490000Y-69030000D02*
X263950000Y-69030000D01*
X270490000Y-71770000D02*
X270490000Y-69030000D01*
X271260000Y-70400000D02*
X270490000Y-70400000D01*
%TO.C,J6*%
X250130000Y-152440000D02*
X250130000Y-155100000D01*
X250130000Y-155100000D02*
X260410000Y-155100000D01*
X251080000Y-152042929D02*
X251080000Y-152440000D01*
X251080000Y-161100000D02*
X251080000Y-155100000D01*
X251840000Y-152042929D02*
X251840000Y-152440000D01*
X251840000Y-155100000D02*
X251840000Y-161100000D01*
X251840000Y-161100000D02*
X251080000Y-161100000D01*
X252730000Y-152440000D02*
X252730000Y-155100000D01*
X253620000Y-152042929D02*
X253620000Y-152440000D01*
X253620000Y-161100000D02*
X253620000Y-155100000D01*
X254380000Y-152042929D02*
X254380000Y-152440000D01*
X254380000Y-155100000D02*
X254380000Y-161100000D01*
X254380000Y-161100000D02*
X253620000Y-161100000D01*
X255270000Y-152440000D02*
X255270000Y-155100000D01*
X256160000Y-152042929D02*
X256160000Y-152440000D01*
X256160000Y-161100000D02*
X256160000Y-155100000D01*
X256920000Y-152042929D02*
X256920000Y-152440000D01*
X256920000Y-155100000D02*
X256920000Y-161100000D01*
X256920000Y-161100000D02*
X256160000Y-161100000D01*
X257810000Y-152440000D02*
X257810000Y-155100000D01*
X258700000Y-152110000D02*
X258700000Y-152440000D01*
X258700000Y-161100000D02*
X258700000Y-155100000D01*
X258800000Y-155100000D02*
X258800000Y-161100000D01*
X258920000Y-155100000D02*
X258920000Y-161100000D01*
X259040000Y-155100000D02*
X259040000Y-161100000D01*
X259080000Y-149730000D02*
X260350000Y-149730000D01*
X259160000Y-155100000D02*
X259160000Y-161100000D01*
X259280000Y-155100000D02*
X259280000Y-161100000D01*
X259400000Y-155100000D02*
X259400000Y-161100000D01*
X259460000Y-152110000D02*
X259460000Y-152440000D01*
X259460000Y-155100000D02*
X259460000Y-161100000D01*
X259460000Y-161100000D02*
X258700000Y-161100000D01*
X260350000Y-149730000D02*
X260350000Y-151000000D01*
X260410000Y-152440000D02*
X250130000Y-152440000D01*
X260410000Y-155100000D02*
X260410000Y-152440000D01*
%TO.C,RV1*%
X160170000Y-137920000D02*
X160170000Y-140950000D01*
X160170000Y-142250000D02*
X160170000Y-145160000D01*
X167010000Y-137920000D02*
X160170000Y-137920000D01*
X167010000Y-137920000D02*
X167010000Y-140950000D01*
X167010000Y-142250000D02*
X167010000Y-145160000D01*
X167010000Y-145160000D02*
X160170000Y-145160000D01*
%TO.C,D2*%
X149040000Y-156000000D02*
X149690000Y-156000000D01*
X149690000Y-154880000D02*
X149690000Y-157120000D01*
X149690000Y-157120000D02*
X153930000Y-157120000D01*
X150290000Y-154880000D02*
X150290000Y-157120000D01*
X150410000Y-154880000D02*
X150410000Y-157120000D01*
X150530000Y-154880000D02*
X150530000Y-157120000D01*
X153930000Y-154880000D02*
X149690000Y-154880000D01*
X153930000Y-157120000D02*
X153930000Y-154880000D01*
X154580000Y-156000000D02*
X153930000Y-156000000D01*
%TO.C,C5*%
X147880000Y-149870000D02*
X147880000Y-146130000D01*
X155120000Y-146130000D02*
X147880000Y-146130000D01*
X155120000Y-149870000D02*
X147880000Y-149870000D01*
X155120000Y-149870000D02*
X155120000Y-146130000D01*
%TO.C,C4*%
X251620000Y-87130000D02*
X244380000Y-87130000D01*
X251620000Y-90870000D02*
X251620000Y-87130000D01*
X251620000Y-90870000D02*
X244380000Y-90870000D01*
X244380000Y-90870000D02*
X244380000Y-87130000D01*
%TO.C,R8*%
X247615000Y-70475000D02*
X248385000Y-70475000D01*
X248385000Y-69105000D02*
X248385000Y-71845000D01*
X248385000Y-71845000D02*
X254925000Y-71845000D01*
X254925000Y-69105000D02*
X248385000Y-69105000D01*
X254925000Y-71845000D02*
X254925000Y-69105000D01*
X255695000Y-70475000D02*
X254925000Y-70475000D01*
%TO.C,R3*%
X146460000Y-152080000D02*
X147230000Y-152080000D01*
X147230000Y-150710000D02*
X147230000Y-153450000D01*
X147230000Y-153450000D02*
X153770000Y-153450000D01*
X153770000Y-150710000D02*
X147230000Y-150710000D01*
X153770000Y-153450000D02*
X153770000Y-150710000D01*
X154540000Y-152080000D02*
X153770000Y-152080000D01*
%TO.C,SW3*%
D11*
X254000000Y-115000000D02*
X260000000Y-115000000D01*
X260000000Y-109000000D01*
X254000000Y-109000000D01*
X254000000Y-115000000D01*
D14*
%TO.C,R12*%
X209530000Y-149450000D02*
X210300000Y-149450000D01*
X210300000Y-148080000D02*
X210300000Y-150820000D01*
X210300000Y-150820000D02*
X216840000Y-150820000D01*
X216840000Y-148080000D02*
X210300000Y-148080000D01*
X216840000Y-150820000D02*
X216840000Y-148080000D01*
X217610000Y-149450000D02*
X216840000Y-149450000D01*
%TO.C,SW2*%
D11*
X270000000Y-115000000D02*
X276000000Y-115000000D01*
X276000000Y-109000000D01*
X270000000Y-109000000D01*
X270000000Y-115000000D01*
D14*
%TO.C,R7*%
X247615000Y-73675000D02*
X248385000Y-73675000D01*
X248385000Y-72305000D02*
X248385000Y-75045000D01*
X248385000Y-75045000D02*
X254925000Y-75045000D01*
X254925000Y-72305000D02*
X248385000Y-72305000D01*
X254925000Y-75045000D02*
X254925000Y-72305000D01*
X255695000Y-73675000D02*
X254925000Y-73675000D01*
%TO.C,D5*%
X206555000Y-69630000D02*
X206399000Y-69630000D01*
X208871000Y-69630000D02*
X208715000Y-69630000D01*
X206555164Y-72231129D02*
G75*
G02*
X206555001Y-70149040I1079836J1041129D01*
G01*
X206556392Y-72862334D02*
G75*
G02*
X206399485Y-69630001I1078608J1672334D01*
G01*
X208714999Y-70149040D02*
G75*
G02*
X208714836Y-72231129I-1079999J-1040960D01*
G01*
X208870515Y-69630001D02*
G75*
G02*
X208713608Y-72862334I-1235515J-1559999D01*
G01*
%TO.C,D1*%
X148920000Y-159500000D02*
X149570000Y-159500000D01*
X149570000Y-158380000D02*
X149570000Y-160620000D01*
X149570000Y-160620000D02*
X153810000Y-160620000D01*
X150170000Y-158380000D02*
X150170000Y-160620000D01*
X150290000Y-158380000D02*
X150290000Y-160620000D01*
X150410000Y-158380000D02*
X150410000Y-160620000D01*
X153810000Y-158380000D02*
X149570000Y-158380000D01*
X153810000Y-160620000D02*
X153810000Y-158380000D01*
X154460000Y-159500000D02*
X153810000Y-159500000D01*
%TO.C,J1*%
X170090000Y-127060000D02*
X170090000Y-125730000D01*
X171200000Y-127060000D02*
X170090000Y-127060000D01*
X172660000Y-99970000D02*
X172250000Y-99970000D01*
X172660000Y-100690000D02*
X172250000Y-100690000D01*
X172660000Y-102510000D02*
X172250000Y-102510000D01*
X172660000Y-103230000D02*
X172250000Y-103230000D01*
X172660000Y-105050000D02*
X172250000Y-105050000D01*
X172660000Y-105770000D02*
X172250000Y-105770000D01*
X172660000Y-107590000D02*
X172250000Y-107590000D01*
X172660000Y-108310000D02*
X172250000Y-108310000D01*
X172660000Y-110130000D02*
X172250000Y-110130000D01*
X172660000Y-110850000D02*
X172250000Y-110850000D01*
X172660000Y-112670000D02*
X172250000Y-112670000D01*
X172660000Y-113390000D02*
X172250000Y-113390000D01*
X172660000Y-115210000D02*
X172250000Y-115210000D01*
X172660000Y-115930000D02*
X172250000Y-115930000D01*
X172660000Y-117750000D02*
X172250000Y-117750000D01*
X172660000Y-118470000D02*
X172250000Y-118470000D01*
X172660000Y-120290000D02*
X172250000Y-120290000D01*
X172660000Y-121010000D02*
X172250000Y-121010000D01*
X172660000Y-122830000D02*
X172250000Y-122830000D01*
X172660000Y-123550000D02*
X172250000Y-123550000D01*
X172660000Y-125370000D02*
X172310000Y-125370000D01*
X172660000Y-126090000D02*
X172310000Y-126090000D01*
X172660000Y-127060000D02*
X172660000Y-99000000D01*
X181290000Y-99000000D02*
X172660000Y-99000000D01*
X181290000Y-101600000D02*
X172660000Y-101600000D01*
X181290000Y-104140000D02*
X172660000Y-104140000D01*
X181290000Y-106680000D02*
X172660000Y-106680000D01*
X181290000Y-109220000D02*
X172660000Y-109220000D01*
X181290000Y-111760000D02*
X172660000Y-111760000D01*
X181290000Y-114300000D02*
X172660000Y-114300000D01*
X181290000Y-116840000D02*
X172660000Y-116840000D01*
X181290000Y-119380000D02*
X172660000Y-119380000D01*
X181290000Y-121920000D02*
X172660000Y-121920000D01*
X181290000Y-124460000D02*
X172660000Y-124460000D01*
X181290000Y-124578100D02*
X172660000Y-124578100D01*
X181290000Y-124696195D02*
X172660000Y-124696195D01*
X181290000Y-124814290D02*
X172660000Y-124814290D01*
X181290000Y-124932385D02*
X172660000Y-124932385D01*
X181290000Y-125050480D02*
X172660000Y-125050480D01*
X181290000Y-125168575D02*
X172660000Y-125168575D01*
X181290000Y-125286670D02*
X172660000Y-125286670D01*
X181290000Y-125404765D02*
X172660000Y-125404765D01*
X181290000Y-125522860D02*
X172660000Y-125522860D01*
X181290000Y-125640955D02*
X172660000Y-125640955D01*
X181290000Y-125759050D02*
X172660000Y-125759050D01*
X181290000Y-125877145D02*
X172660000Y-125877145D01*
X181290000Y-125995240D02*
X172660000Y-125995240D01*
X181290000Y-126113335D02*
X172660000Y-126113335D01*
X181290000Y-126231430D02*
X172660000Y-126231430D01*
X181290000Y-126349525D02*
X172660000Y-126349525D01*
X181290000Y-126467620D02*
X172660000Y-126467620D01*
X181290000Y-126585715D02*
X172660000Y-126585715D01*
X181290000Y-126703810D02*
X172660000Y-126703810D01*
X181290000Y-126821905D02*
X172660000Y-126821905D01*
X181290000Y-126940000D02*
X172660000Y-126940000D01*
X181290000Y-127060000D02*
X172660000Y-127060000D01*
X181290000Y-127060000D02*
X181290000Y-99000000D01*
%TO.C,R5*%
X251690000Y-95630000D02*
X245150000Y-95630000D01*
X245150000Y-95630000D02*
X245150000Y-98370000D01*
X252460000Y-97000000D02*
X251690000Y-97000000D01*
X244380000Y-97000000D02*
X245150000Y-97000000D01*
X251690000Y-98370000D02*
X251690000Y-95630000D01*
X245150000Y-98370000D02*
X251690000Y-98370000D01*
%TO.C,R9*%
X263280000Y-73650000D02*
X264050000Y-73650000D01*
X264050000Y-72280000D02*
X264050000Y-75020000D01*
X264050000Y-75020000D02*
X270590000Y-75020000D01*
X270590000Y-72280000D02*
X264050000Y-72280000D01*
X270590000Y-75020000D02*
X270590000Y-72280000D01*
X271360000Y-73650000D02*
X270590000Y-73650000D01*
%TO.C,R11*%
X209530000Y-146100000D02*
X210300000Y-146100000D01*
X210300000Y-144730000D02*
X210300000Y-147470000D01*
X210300000Y-147470000D02*
X216840000Y-147470000D01*
X216840000Y-144730000D02*
X210300000Y-144730000D01*
X216840000Y-147470000D02*
X216840000Y-144730000D01*
X217610000Y-146100000D02*
X216840000Y-146100000D01*
%TO.C,C2*%
X249300000Y-81630000D02*
X249300000Y-85370000D01*
X249300000Y-81630000D02*
X256540000Y-81630000D01*
X249300000Y-85370000D02*
X256540000Y-85370000D01*
X256540000Y-81630000D02*
X256540000Y-85370000D01*
%TO.C,J3*%
X136570000Y-150890000D02*
X137900000Y-150890000D01*
X136570000Y-152000000D02*
X136570000Y-150890000D01*
X136570000Y-153460000D02*
X141770000Y-153460000D01*
X136570000Y-162090000D02*
X136570000Y-153460000D01*
X136570000Y-162090000D02*
X141770000Y-162090000D01*
X136690000Y-162090000D02*
X136690000Y-153460000D01*
X136808095Y-162090000D02*
X136808095Y-153460000D01*
X136926190Y-162090000D02*
X136926190Y-153460000D01*
X137044285Y-162090000D02*
X137044285Y-153460000D01*
X137162380Y-162090000D02*
X137162380Y-153460000D01*
X137280475Y-162090000D02*
X137280475Y-153460000D01*
X137398570Y-162090000D02*
X137398570Y-153460000D01*
X137516665Y-162090000D02*
X137516665Y-153460000D01*
X137540000Y-153460000D02*
X137540000Y-153110000D01*
X137634760Y-162090000D02*
X137634760Y-153460000D01*
X137752855Y-162090000D02*
X137752855Y-153460000D01*
X137870950Y-162090000D02*
X137870950Y-153460000D01*
X137989045Y-162090000D02*
X137989045Y-153460000D01*
X138107140Y-162090000D02*
X138107140Y-153460000D01*
X138225235Y-162090000D02*
X138225235Y-153460000D01*
X138260000Y-153460000D02*
X138260000Y-153110000D01*
X138343330Y-162090000D02*
X138343330Y-153460000D01*
X138461425Y-162090000D02*
X138461425Y-153460000D01*
X138579520Y-162090000D02*
X138579520Y-153460000D01*
X138697615Y-162090000D02*
X138697615Y-153460000D01*
X138815710Y-162090000D02*
X138815710Y-153460000D01*
X138933805Y-162090000D02*
X138933805Y-153460000D01*
X139051900Y-162090000D02*
X139051900Y-153460000D01*
X139170000Y-162090000D02*
X139170000Y-153460000D01*
X140080000Y-153460000D02*
X140080000Y-153050000D01*
X140800000Y-153460000D02*
X140800000Y-153050000D01*
X141770000Y-162090000D02*
X141770000Y-153460000D01*
%TO.C,R6*%
X137550000Y-138230000D02*
X137550000Y-144770000D01*
X137550000Y-144770000D02*
X140290000Y-144770000D01*
X138920000Y-137460000D02*
X138920000Y-138230000D01*
X138920000Y-145540000D02*
X138920000Y-144770000D01*
X140290000Y-138230000D02*
X137550000Y-138230000D01*
X140290000Y-144770000D02*
X140290000Y-138230000D01*
%TO.C,R1*%
X264880000Y-89000000D02*
X265650000Y-89000000D01*
X265650000Y-87630000D02*
X265650000Y-90370000D01*
X265650000Y-90370000D02*
X272190000Y-90370000D01*
X272190000Y-87630000D02*
X265650000Y-87630000D01*
X272190000Y-90370000D02*
X272190000Y-87630000D01*
X272960000Y-89000000D02*
X272190000Y-89000000D01*
%TO.C,R4*%
X251690000Y-92130000D02*
X245150000Y-92130000D01*
X245150000Y-92130000D02*
X245150000Y-94870000D01*
X252460000Y-93500000D02*
X251690000Y-93500000D01*
X244380000Y-93500000D02*
X245150000Y-93500000D01*
X251690000Y-94870000D02*
X251690000Y-92130000D01*
X245150000Y-94870000D02*
X251690000Y-94870000D01*
%TO.C,R13*%
X200010000Y-85970000D02*
X200010000Y-85200000D01*
X198640000Y-85200000D02*
X201380000Y-85200000D01*
X201380000Y-85200000D02*
X201380000Y-78660000D01*
X198640000Y-78660000D02*
X198640000Y-85200000D01*
X201380000Y-78660000D02*
X198640000Y-78660000D01*
X200010000Y-77890000D02*
X200010000Y-78660000D01*
%TO.C,SW4*%
D11*
X268000000Y-123000000D02*
X262000000Y-123000000D01*
X262000000Y-117000000D01*
X268000000Y-117000000D01*
X268000000Y-123000000D01*
D14*
%TO.C,D6*%
X201120000Y-69570000D02*
X200964000Y-69570000D01*
X203436000Y-69570000D02*
X203280000Y-69570000D01*
X201120164Y-72171129D02*
G75*
G02*
X201120001Y-70089040I1079836J1041129D01*
G01*
X201121392Y-72802334D02*
G75*
G02*
X200964485Y-69570001I1078608J1672334D01*
G01*
X203279999Y-70089040D02*
G75*
G02*
X203279836Y-72171129I-1079999J-1040960D01*
G01*
X203435515Y-69570001D02*
G75*
G02*
X203278608Y-72802334I-1235515J-1559999D01*
G01*
%TO.C,R2*%
X260380000Y-83500000D02*
X261150000Y-83500000D01*
X261150000Y-82130000D02*
X261150000Y-84870000D01*
X261150000Y-84870000D02*
X267690000Y-84870000D01*
X267690000Y-82130000D02*
X261150000Y-82130000D01*
X267690000Y-84870000D02*
X267690000Y-82130000D01*
X268460000Y-83500000D02*
X267690000Y-83500000D01*
%TO.C,U2*%
X192840000Y-70450000D02*
X182340000Y-70450000D01*
X182340000Y-70450000D02*
X182340000Y-88470000D01*
X189840000Y-70510000D02*
X188590000Y-70510000D01*
X186590000Y-70510000D02*
X185340000Y-70510000D01*
X185340000Y-70510000D02*
X185340000Y-88410000D01*
X189840000Y-88410000D02*
X189840000Y-70510000D01*
X185340000Y-88410000D02*
X189840000Y-88410000D01*
X192840000Y-88470000D02*
X192840000Y-70450000D01*
X182340000Y-88470000D02*
X192840000Y-88470000D01*
X188590000Y-70510000D02*
G75*
G02*
X186590000Y-70510000I-1000000J0D01*
G01*
%TO.C,J2*%
X144110000Y-133410000D02*
X144110000Y-142040000D01*
X145080000Y-142040000D02*
X145080000Y-142450000D01*
X145800000Y-142040000D02*
X145800000Y-142450000D01*
X146710000Y-133410000D02*
X146710000Y-142040000D01*
X147620000Y-142040000D02*
X147620000Y-142450000D01*
X148340000Y-142040000D02*
X148340000Y-142450000D01*
X149250000Y-133410000D02*
X149250000Y-142040000D01*
X150160000Y-142040000D02*
X150160000Y-142450000D01*
X150880000Y-142040000D02*
X150880000Y-142450000D01*
X151790000Y-133410000D02*
X151790000Y-142040000D01*
X152700000Y-142040000D02*
X152700000Y-142450000D01*
X153420000Y-142040000D02*
X153420000Y-142450000D01*
X154330000Y-133410000D02*
X154330000Y-142040000D01*
X154448100Y-133410000D02*
X154448100Y-142040000D01*
X154566195Y-133410000D02*
X154566195Y-142040000D01*
X154684290Y-133410000D02*
X154684290Y-142040000D01*
X154802385Y-133410000D02*
X154802385Y-142040000D01*
X154920480Y-133410000D02*
X154920480Y-142040000D01*
X155038575Y-133410000D02*
X155038575Y-142040000D01*
X155156670Y-133410000D02*
X155156670Y-142040000D01*
X155240000Y-142040000D02*
X155240000Y-142390000D01*
X155274765Y-133410000D02*
X155274765Y-142040000D01*
X155392860Y-133410000D02*
X155392860Y-142040000D01*
X155510955Y-133410000D02*
X155510955Y-142040000D01*
X155629050Y-133410000D02*
X155629050Y-142040000D01*
X155747145Y-133410000D02*
X155747145Y-142040000D01*
X155865240Y-133410000D02*
X155865240Y-142040000D01*
X155960000Y-142040000D02*
X155960000Y-142390000D01*
X155983335Y-133410000D02*
X155983335Y-142040000D01*
X156101430Y-133410000D02*
X156101430Y-142040000D01*
X156219525Y-133410000D02*
X156219525Y-142040000D01*
X156337620Y-133410000D02*
X156337620Y-142040000D01*
X156455715Y-133410000D02*
X156455715Y-142040000D01*
X156573810Y-133410000D02*
X156573810Y-142040000D01*
X156691905Y-133410000D02*
X156691905Y-142040000D01*
X156810000Y-133410000D02*
X156810000Y-142040000D01*
X156930000Y-133410000D02*
X144110000Y-133410000D01*
X156930000Y-133410000D02*
X156930000Y-142040000D01*
X156930000Y-142040000D02*
X144110000Y-142040000D01*
X156930000Y-143500000D02*
X156930000Y-144610000D01*
X156930000Y-144610000D02*
X155600000Y-144610000D01*
%TO.C,SW1*%
D11*
X262000000Y-101000000D02*
X268000000Y-101000000D01*
X268000000Y-107000000D01*
X262000000Y-107000000D01*
X262000000Y-101000000D01*
D14*
%TO.C,D4*%
X211920000Y-69630000D02*
X211764000Y-69630000D01*
X214236000Y-69630000D02*
X214080000Y-69630000D01*
X211920164Y-72231129D02*
G75*
G02*
X211920001Y-70149040I1079836J1041129D01*
G01*
X211921392Y-72862334D02*
G75*
G02*
X211764485Y-69630001I1078608J1672334D01*
G01*
X214079999Y-70149040D02*
G75*
G02*
X214079836Y-72231129I-1079999J-1040960D01*
G01*
X214235515Y-69630001D02*
G75*
G02*
X214078608Y-72862334I-1235515J-1559999D01*
G01*
%TO.C,J5*%
X176700000Y-159160000D02*
X176700000Y-159800000D01*
X176700000Y-159800000D02*
X177100000Y-159800000D01*
X176940000Y-150440000D02*
X176940000Y-159560000D01*
X176940000Y-150440000D02*
X187060000Y-150440000D01*
X176940000Y-158000000D02*
X187060000Y-158000000D01*
X176940000Y-159100000D02*
X187060000Y-159100000D01*
X176940000Y-159560000D02*
X187060000Y-159560000D01*
X177952000Y-155781000D02*
X177846000Y-155888000D01*
X178218000Y-156047000D02*
X178112000Y-156154000D01*
X180888000Y-152846000D02*
X180781000Y-152953000D01*
X181154000Y-153112000D02*
X181047000Y-153219000D01*
X183242000Y-155492000D02*
X182847000Y-155888000D01*
X183493000Y-155774000D02*
X183113000Y-156154000D01*
X185888000Y-152846000D02*
X185508000Y-153226000D01*
X186154000Y-153112000D02*
X185759000Y-153508000D01*
X187060000Y-150440000D02*
X187060000Y-159560000D01*
X181680000Y-154500000D02*
G75*
G02*
X177320000Y-154500000I-2180000J0D01*
G01*
X177320000Y-154500000D02*
G75*
G02*
X181680000Y-154500000I2180000J0D01*
G01*
X186680000Y-154500000D02*
G75*
G02*
X182320000Y-154500000I-2180000J0D01*
G01*
X182320000Y-154500000D02*
G75*
G02*
X186680000Y-154500000I2180000J0D01*
G01*
%TO.C,D3*%
X217320000Y-69770000D02*
X217164000Y-69770000D01*
X219636000Y-69770000D02*
X219480000Y-69770000D01*
X217320164Y-72371129D02*
G75*
G02*
X217320001Y-70289040I1079836J1041129D01*
G01*
X217321392Y-73002334D02*
G75*
G02*
X217164485Y-69770001I1078608J1672334D01*
G01*
X219479999Y-70289040D02*
G75*
G02*
X219479836Y-72371129I-1079999J-1040960D01*
G01*
X219635515Y-69770001D02*
G75*
G02*
X219478608Y-73002334I-1235515J-1559999D01*
G01*
%TO.C,C1*%
X253800000Y-87130000D02*
X253800000Y-90870000D01*
X253800000Y-87130000D02*
X261040000Y-87130000D01*
X253800000Y-90870000D02*
X261040000Y-90870000D01*
X261040000Y-87130000D02*
X261040000Y-90870000D01*
D15*
%TO.C,CON1*%
X141700000Y-65925000D02*
X141700000Y-89420000D01*
X142970000Y-67830000D02*
X142970000Y-70370000D01*
X142970000Y-70370000D02*
X142970000Y-88150000D01*
X142970000Y-70370000D02*
X145510000Y-70370000D01*
X142970000Y-88150000D02*
X145510000Y-88150000D01*
X144240000Y-91960000D02*
X167100000Y-91960000D01*
X145510000Y-67830000D02*
X142970000Y-67830000D01*
X145510000Y-70370000D02*
X145510000Y-67830000D01*
X145510000Y-88150000D02*
X145510000Y-70370000D01*
D17*
X153336000Y-65671000D02*
X153336000Y-67195000D01*
X153336000Y-65671000D02*
X154352000Y-65671000D01*
X154352000Y-65671000D02*
X154352000Y-64020000D01*
X154352000Y-65671000D02*
X155495000Y-65671000D01*
X155495000Y-65671000D02*
X155495000Y-67195000D01*
X155495000Y-65671000D02*
X156638000Y-65671000D01*
X156638000Y-65671000D02*
X156638000Y-64020000D01*
X156638000Y-65671000D02*
X157781000Y-65671000D01*
X157781000Y-65671000D02*
X157781000Y-67195000D01*
D15*
X165830000Y-67830000D02*
X165830000Y-70370000D01*
X165830000Y-67830000D02*
X168370000Y-67830000D01*
X165830000Y-70370000D02*
X165830000Y-88150000D01*
X165830000Y-70370000D02*
X168370000Y-70370000D01*
X165830000Y-88150000D02*
X168370000Y-88150000D01*
X168370000Y-67830000D02*
X168370000Y-88150000D01*
X168370000Y-88150000D02*
X165840000Y-90740000D01*
X169640000Y-65925000D02*
X169640000Y-89420000D01*
X141700000Y-65925000D02*
G75*
G02*
X144240000Y-63385000I2540000J0D01*
G01*
X144240000Y-91960000D02*
G75*
G02*
X141700000Y-89420000I0J2540000D01*
G01*
X167100000Y-63385000D02*
G75*
G02*
X169640000Y-65925000I0J-2540000D01*
G01*
X169640000Y-89420000D02*
G75*
G02*
X167100000Y-91960000I-2540000J0D01*
G01*
X169640000Y-89420000D02*
G75*
G02*
X167100000Y-91960000I-2540000J0D01*
G01*
D18*
X153564600Y-67195000D02*
G75*
G02*
X153107400Y-67195000I-228600J0D01*
G01*
X153107400Y-67195000D02*
G75*
G02*
X153564600Y-67195000I228600J0D01*
G01*
X154580600Y-64020000D02*
G75*
G02*
X154123400Y-64020000I-228600J0D01*
G01*
X154123400Y-64020000D02*
G75*
G02*
X154580600Y-64020000I228600J0D01*
G01*
X155723600Y-67195000D02*
G75*
G02*
X155266400Y-67195000I-228600J0D01*
G01*
X155266400Y-67195000D02*
G75*
G02*
X155723600Y-67195000I228600J0D01*
G01*
X156866600Y-64020000D02*
G75*
G02*
X156409400Y-64020000I-228600J0D01*
G01*
X156409400Y-64020000D02*
G75*
G02*
X156866600Y-64020000I228600J0D01*
G01*
X158009600Y-67195000D02*
G75*
G02*
X157552400Y-67195000I-228600J0D01*
G01*
X157552400Y-67195000D02*
G75*
G02*
X158009600Y-67195000I228600J0D01*
G01*
D14*
%TO.C,J4*%
X161670000Y-153440000D02*
X161670000Y-156100000D01*
X161670000Y-156100000D02*
X169410000Y-156100000D01*
X162620000Y-153042929D02*
X162620000Y-153440000D01*
X162620000Y-162100000D02*
X162620000Y-156100000D01*
X163380000Y-153042929D02*
X163380000Y-153440000D01*
X163380000Y-156100000D02*
X163380000Y-162100000D01*
X163380000Y-162100000D02*
X162620000Y-162100000D01*
X164270000Y-153440000D02*
X164270000Y-156100000D01*
X165160000Y-153042929D02*
X165160000Y-153440000D01*
X165160000Y-162100000D02*
X165160000Y-156100000D01*
X165920000Y-153042929D02*
X165920000Y-153440000D01*
X165920000Y-156100000D02*
X165920000Y-162100000D01*
X165920000Y-162100000D02*
X165160000Y-162100000D01*
X166810000Y-153440000D02*
X166810000Y-156100000D01*
X167700000Y-153110000D02*
X167700000Y-153440000D01*
X167700000Y-162100000D02*
X167700000Y-156100000D01*
X167800000Y-156100000D02*
X167800000Y-162100000D01*
X167920000Y-156100000D02*
X167920000Y-162100000D01*
X168040000Y-156100000D02*
X168040000Y-162100000D01*
X168080000Y-150730000D02*
X169350000Y-150730000D01*
X168160000Y-156100000D02*
X168160000Y-162100000D01*
X168280000Y-156100000D02*
X168280000Y-162100000D01*
X168400000Y-156100000D02*
X168400000Y-162100000D01*
X168460000Y-153110000D02*
X168460000Y-153440000D01*
X168460000Y-156100000D02*
X168460000Y-162100000D01*
X168460000Y-162100000D02*
X167700000Y-162100000D01*
X169350000Y-150730000D02*
X169350000Y-152000000D01*
X169410000Y-153440000D02*
X161670000Y-153440000D01*
X169410000Y-156100000D02*
X169410000Y-153440000D01*
%TO.C,C3*%
X245520000Y-81630000D02*
X238280000Y-81630000D01*
X245520000Y-85370000D02*
X245520000Y-81630000D01*
X245520000Y-85370000D02*
X238280000Y-85370000D01*
X238280000Y-85370000D02*
X238280000Y-81630000D01*
%TD*%
M02*
