%TF.GenerationSoftware,KiCad,Pcbnew,8.0.0*%
%TF.CreationDate,2024-03-15T07:42:52+01:00*%
%TF.ProjectId,Game_Board_v1,47616d65-5f42-46f6-9172-645f76312e6b,rev?*%
%TF.SameCoordinates,Original*%
%TF.FileFunction,Legend,Bot*%
%TF.FilePolarity,Positive*%
%FSLAX46Y46*%
G04 Gerber Fmt 4.6, Leading zero omitted, Abs format (unit mm)*
G04 Created by KiCad (PCBNEW 8.0.0) date 2024-03-15 07:42:52*
%MOMM*%
%LPD*%
G01*
G04 APERTURE LIST*
%ADD10C,0.050000*%
%ADD11C,0.150000*%
%ADD12C,0.127000*%
%ADD13C,0.304800*%
%ADD14C,0.508000*%
G04 APERTURE END LIST*
D10*
X146978666Y-74754380D02*
X147026285Y-74802000D01*
X147026285Y-74802000D02*
X147169142Y-74849619D01*
X147169142Y-74849619D02*
X147264380Y-74849619D01*
X147264380Y-74849619D02*
X147407237Y-74802000D01*
X147407237Y-74802000D02*
X147502475Y-74706761D01*
X147502475Y-74706761D02*
X147550094Y-74611523D01*
X147550094Y-74611523D02*
X147597713Y-74421047D01*
X147597713Y-74421047D02*
X147597713Y-74278190D01*
X147597713Y-74278190D02*
X147550094Y-74087714D01*
X147550094Y-74087714D02*
X147502475Y-73992476D01*
X147502475Y-73992476D02*
X147407237Y-73897238D01*
X147407237Y-73897238D02*
X147264380Y-73849619D01*
X147264380Y-73849619D02*
X147169142Y-73849619D01*
X147169142Y-73849619D02*
X147026285Y-73897238D01*
X147026285Y-73897238D02*
X146978666Y-73944857D01*
X146597713Y-74802000D02*
X146454856Y-74849619D01*
X146454856Y-74849619D02*
X146216761Y-74849619D01*
X146216761Y-74849619D02*
X146121523Y-74802000D01*
X146121523Y-74802000D02*
X146073904Y-74754380D01*
X146073904Y-74754380D02*
X146026285Y-74659142D01*
X146026285Y-74659142D02*
X146026285Y-74563904D01*
X146026285Y-74563904D02*
X146073904Y-74468666D01*
X146073904Y-74468666D02*
X146121523Y-74421047D01*
X146121523Y-74421047D02*
X146216761Y-74373428D01*
X146216761Y-74373428D02*
X146407237Y-74325809D01*
X146407237Y-74325809D02*
X146502475Y-74278190D01*
X146502475Y-74278190D02*
X146550094Y-74230571D01*
X146550094Y-74230571D02*
X146597713Y-74135333D01*
X146597713Y-74135333D02*
X146597713Y-74040095D01*
X146597713Y-74040095D02*
X146550094Y-73944857D01*
X146550094Y-73944857D02*
X146502475Y-73897238D01*
X146502475Y-73897238D02*
X146407237Y-73849619D01*
X146407237Y-73849619D02*
X146169142Y-73849619D01*
X146169142Y-73849619D02*
X146026285Y-73897238D01*
X165317179Y-79907400D02*
X165174322Y-79955019D01*
X165174322Y-79955019D02*
X164936227Y-79955019D01*
X164936227Y-79955019D02*
X164840989Y-79907400D01*
X164840989Y-79907400D02*
X164793370Y-79859780D01*
X164793370Y-79859780D02*
X164745751Y-79764542D01*
X164745751Y-79764542D02*
X164745751Y-79669304D01*
X164745751Y-79669304D02*
X164793370Y-79574066D01*
X164793370Y-79574066D02*
X164840989Y-79526447D01*
X164840989Y-79526447D02*
X164936227Y-79478828D01*
X164936227Y-79478828D02*
X165126703Y-79431209D01*
X165126703Y-79431209D02*
X165221941Y-79383590D01*
X165221941Y-79383590D02*
X165269560Y-79335971D01*
X165269560Y-79335971D02*
X165317179Y-79240733D01*
X165317179Y-79240733D02*
X165317179Y-79145495D01*
X165317179Y-79145495D02*
X165269560Y-79050257D01*
X165269560Y-79050257D02*
X165221941Y-79002638D01*
X165221941Y-79002638D02*
X165126703Y-78955019D01*
X165126703Y-78955019D02*
X164888608Y-78955019D01*
X164888608Y-78955019D02*
X164745751Y-79002638D01*
X163745751Y-79859780D02*
X163793370Y-79907400D01*
X163793370Y-79907400D02*
X163936227Y-79955019D01*
X163936227Y-79955019D02*
X164031465Y-79955019D01*
X164031465Y-79955019D02*
X164174322Y-79907400D01*
X164174322Y-79907400D02*
X164269560Y-79812161D01*
X164269560Y-79812161D02*
X164317179Y-79716923D01*
X164317179Y-79716923D02*
X164364798Y-79526447D01*
X164364798Y-79526447D02*
X164364798Y-79383590D01*
X164364798Y-79383590D02*
X164317179Y-79193114D01*
X164317179Y-79193114D02*
X164269560Y-79097876D01*
X164269560Y-79097876D02*
X164174322Y-79002638D01*
X164174322Y-79002638D02*
X164031465Y-78955019D01*
X164031465Y-78955019D02*
X163936227Y-78955019D01*
X163936227Y-78955019D02*
X163793370Y-79002638D01*
X163793370Y-79002638D02*
X163745751Y-79050257D01*
X162840989Y-79955019D02*
X163317179Y-79955019D01*
X163317179Y-79955019D02*
X163317179Y-78955019D01*
X165269561Y-69922019D02*
X165269561Y-68922019D01*
X165269561Y-68922019D02*
X164888609Y-68922019D01*
X164888609Y-68922019D02*
X164793371Y-68969638D01*
X164793371Y-68969638D02*
X164745752Y-69017257D01*
X164745752Y-69017257D02*
X164698133Y-69112495D01*
X164698133Y-69112495D02*
X164698133Y-69255352D01*
X164698133Y-69255352D02*
X164745752Y-69350590D01*
X164745752Y-69350590D02*
X164793371Y-69398209D01*
X164793371Y-69398209D02*
X164888609Y-69445828D01*
X164888609Y-69445828D02*
X165269561Y-69445828D01*
X164364799Y-68922019D02*
X164126704Y-69922019D01*
X164126704Y-69922019D02*
X163936228Y-69207733D01*
X163936228Y-69207733D02*
X163745752Y-69922019D01*
X163745752Y-69922019D02*
X163507657Y-68922019D01*
X163126704Y-69922019D02*
X163126704Y-68922019D01*
X163126704Y-68922019D02*
X162793371Y-69636304D01*
X162793371Y-69636304D02*
X162460038Y-68922019D01*
X162460038Y-68922019D02*
X162460038Y-69922019D01*
X149216761Y-79929619D02*
X149216761Y-78929619D01*
X149216761Y-78929619D02*
X148883428Y-79643904D01*
X148883428Y-79643904D02*
X148550095Y-78929619D01*
X148550095Y-78929619D02*
X148550095Y-79929619D01*
X148073904Y-79929619D02*
X148073904Y-78929619D01*
X147645333Y-79882000D02*
X147502476Y-79929619D01*
X147502476Y-79929619D02*
X147264381Y-79929619D01*
X147264381Y-79929619D02*
X147169143Y-79882000D01*
X147169143Y-79882000D02*
X147121524Y-79834380D01*
X147121524Y-79834380D02*
X147073905Y-79739142D01*
X147073905Y-79739142D02*
X147073905Y-79643904D01*
X147073905Y-79643904D02*
X147121524Y-79548666D01*
X147121524Y-79548666D02*
X147169143Y-79501047D01*
X147169143Y-79501047D02*
X147264381Y-79453428D01*
X147264381Y-79453428D02*
X147454857Y-79405809D01*
X147454857Y-79405809D02*
X147550095Y-79358190D01*
X147550095Y-79358190D02*
X147597714Y-79310571D01*
X147597714Y-79310571D02*
X147645333Y-79215333D01*
X147645333Y-79215333D02*
X147645333Y-79120095D01*
X147645333Y-79120095D02*
X147597714Y-79024857D01*
X147597714Y-79024857D02*
X147550095Y-78977238D01*
X147550095Y-78977238D02*
X147454857Y-78929619D01*
X147454857Y-78929619D02*
X147216762Y-78929619D01*
X147216762Y-78929619D02*
X147073905Y-78977238D01*
X146454857Y-78929619D02*
X146264381Y-78929619D01*
X146264381Y-78929619D02*
X146169143Y-78977238D01*
X146169143Y-78977238D02*
X146073905Y-79072476D01*
X146073905Y-79072476D02*
X146026286Y-79262952D01*
X146026286Y-79262952D02*
X146026286Y-79596285D01*
X146026286Y-79596285D02*
X146073905Y-79786761D01*
X146073905Y-79786761D02*
X146169143Y-79882000D01*
X146169143Y-79882000D02*
X146264381Y-79929619D01*
X146264381Y-79929619D02*
X146454857Y-79929619D01*
X146454857Y-79929619D02*
X146550095Y-79882000D01*
X146550095Y-79882000D02*
X146645333Y-79786761D01*
X146645333Y-79786761D02*
X146692952Y-79596285D01*
X146692952Y-79596285D02*
X146692952Y-79262952D01*
X146692952Y-79262952D02*
X146645333Y-79072476D01*
X146645333Y-79072476D02*
X146550095Y-78977238D01*
X146550095Y-78977238D02*
X146454857Y-78929619D01*
X148597713Y-77367400D02*
X148454856Y-77415019D01*
X148454856Y-77415019D02*
X148216761Y-77415019D01*
X148216761Y-77415019D02*
X148121523Y-77367400D01*
X148121523Y-77367400D02*
X148073904Y-77319780D01*
X148073904Y-77319780D02*
X148026285Y-77224542D01*
X148026285Y-77224542D02*
X148026285Y-77129304D01*
X148026285Y-77129304D02*
X148073904Y-77034066D01*
X148073904Y-77034066D02*
X148121523Y-76986447D01*
X148121523Y-76986447D02*
X148216761Y-76938828D01*
X148216761Y-76938828D02*
X148407237Y-76891209D01*
X148407237Y-76891209D02*
X148502475Y-76843590D01*
X148502475Y-76843590D02*
X148550094Y-76795971D01*
X148550094Y-76795971D02*
X148597713Y-76700733D01*
X148597713Y-76700733D02*
X148597713Y-76605495D01*
X148597713Y-76605495D02*
X148550094Y-76510257D01*
X148550094Y-76510257D02*
X148502475Y-76462638D01*
X148502475Y-76462638D02*
X148407237Y-76415019D01*
X148407237Y-76415019D02*
X148169142Y-76415019D01*
X148169142Y-76415019D02*
X148026285Y-76462638D01*
X147026285Y-77319780D02*
X147073904Y-77367400D01*
X147073904Y-77367400D02*
X147216761Y-77415019D01*
X147216761Y-77415019D02*
X147311999Y-77415019D01*
X147311999Y-77415019D02*
X147454856Y-77367400D01*
X147454856Y-77367400D02*
X147550094Y-77272161D01*
X147550094Y-77272161D02*
X147597713Y-77176923D01*
X147597713Y-77176923D02*
X147645332Y-76986447D01*
X147645332Y-76986447D02*
X147645332Y-76843590D01*
X147645332Y-76843590D02*
X147597713Y-76653114D01*
X147597713Y-76653114D02*
X147550094Y-76557876D01*
X147550094Y-76557876D02*
X147454856Y-76462638D01*
X147454856Y-76462638D02*
X147311999Y-76415019D01*
X147311999Y-76415019D02*
X147216761Y-76415019D01*
X147216761Y-76415019D02*
X147073904Y-76462638D01*
X147073904Y-76462638D02*
X147026285Y-76510257D01*
X146597713Y-77415019D02*
X146597713Y-76415019D01*
X146026285Y-77415019D02*
X146454856Y-76843590D01*
X146026285Y-76415019D02*
X146597713Y-76986447D01*
X158773332Y-68960019D02*
X158773332Y-68293352D01*
X158773332Y-68388590D02*
X158725713Y-68340971D01*
X158725713Y-68340971D02*
X158630475Y-68293352D01*
X158630475Y-68293352D02*
X158487618Y-68293352D01*
X158487618Y-68293352D02*
X158392380Y-68340971D01*
X158392380Y-68340971D02*
X158344761Y-68436209D01*
X158344761Y-68436209D02*
X158344761Y-68960019D01*
X158344761Y-68436209D02*
X158297142Y-68340971D01*
X158297142Y-68340971D02*
X158201904Y-68293352D01*
X158201904Y-68293352D02*
X158059047Y-68293352D01*
X158059047Y-68293352D02*
X157963808Y-68340971D01*
X157963808Y-68340971D02*
X157916189Y-68436209D01*
X157916189Y-68436209D02*
X157916189Y-68960019D01*
X157439999Y-68960019D02*
X157439999Y-68293352D01*
X157439999Y-67960019D02*
X157487618Y-68007638D01*
X157487618Y-68007638D02*
X157439999Y-68055257D01*
X157439999Y-68055257D02*
X157392380Y-68007638D01*
X157392380Y-68007638D02*
X157439999Y-67960019D01*
X157439999Y-67960019D02*
X157439999Y-68055257D01*
X156963809Y-68960019D02*
X156963809Y-67960019D01*
X156868571Y-68579066D02*
X156582857Y-68960019D01*
X156582857Y-68293352D02*
X156963809Y-68674304D01*
X156154285Y-68960019D02*
X156154285Y-68293352D01*
X156154285Y-68483828D02*
X156106666Y-68388590D01*
X156106666Y-68388590D02*
X156059047Y-68340971D01*
X156059047Y-68340971D02*
X155963809Y-68293352D01*
X155963809Y-68293352D02*
X155868571Y-68293352D01*
X155392380Y-68960019D02*
X155487618Y-68912400D01*
X155487618Y-68912400D02*
X155535237Y-68864780D01*
X155535237Y-68864780D02*
X155582856Y-68769542D01*
X155582856Y-68769542D02*
X155582856Y-68483828D01*
X155582856Y-68483828D02*
X155535237Y-68388590D01*
X155535237Y-68388590D02*
X155487618Y-68340971D01*
X155487618Y-68340971D02*
X155392380Y-68293352D01*
X155392380Y-68293352D02*
X155249523Y-68293352D01*
X155249523Y-68293352D02*
X155154285Y-68340971D01*
X155154285Y-68340971D02*
X155106666Y-68388590D01*
X155106666Y-68388590D02*
X155059047Y-68483828D01*
X155059047Y-68483828D02*
X155059047Y-68769542D01*
X155059047Y-68769542D02*
X155106666Y-68864780D01*
X155106666Y-68864780D02*
X155154285Y-68912400D01*
X155154285Y-68912400D02*
X155249523Y-68960019D01*
X155249523Y-68960019D02*
X155392380Y-68960019D01*
X154297142Y-68436209D02*
X154154285Y-68483828D01*
X154154285Y-68483828D02*
X154106666Y-68531447D01*
X154106666Y-68531447D02*
X154059047Y-68626685D01*
X154059047Y-68626685D02*
X154059047Y-68769542D01*
X154059047Y-68769542D02*
X154106666Y-68864780D01*
X154106666Y-68864780D02*
X154154285Y-68912400D01*
X154154285Y-68912400D02*
X154249523Y-68960019D01*
X154249523Y-68960019D02*
X154630475Y-68960019D01*
X154630475Y-68960019D02*
X154630475Y-67960019D01*
X154630475Y-67960019D02*
X154297142Y-67960019D01*
X154297142Y-67960019D02*
X154201904Y-68007638D01*
X154201904Y-68007638D02*
X154154285Y-68055257D01*
X154154285Y-68055257D02*
X154106666Y-68150495D01*
X154106666Y-68150495D02*
X154106666Y-68245733D01*
X154106666Y-68245733D02*
X154154285Y-68340971D01*
X154154285Y-68340971D02*
X154201904Y-68388590D01*
X154201904Y-68388590D02*
X154297142Y-68436209D01*
X154297142Y-68436209D02*
X154630475Y-68436209D01*
X153630475Y-67960019D02*
X153630475Y-68769542D01*
X153630475Y-68769542D02*
X153582856Y-68864780D01*
X153582856Y-68864780D02*
X153535237Y-68912400D01*
X153535237Y-68912400D02*
X153439999Y-68960019D01*
X153439999Y-68960019D02*
X153249523Y-68960019D01*
X153249523Y-68960019D02*
X153154285Y-68912400D01*
X153154285Y-68912400D02*
X153106666Y-68864780D01*
X153106666Y-68864780D02*
X153059047Y-68769542D01*
X153059047Y-68769542D02*
X153059047Y-67960019D01*
X152630475Y-68912400D02*
X152487618Y-68960019D01*
X152487618Y-68960019D02*
X152249523Y-68960019D01*
X152249523Y-68960019D02*
X152154285Y-68912400D01*
X152154285Y-68912400D02*
X152106666Y-68864780D01*
X152106666Y-68864780D02*
X152059047Y-68769542D01*
X152059047Y-68769542D02*
X152059047Y-68674304D01*
X152059047Y-68674304D02*
X152106666Y-68579066D01*
X152106666Y-68579066D02*
X152154285Y-68531447D01*
X152154285Y-68531447D02*
X152249523Y-68483828D01*
X152249523Y-68483828D02*
X152439999Y-68436209D01*
X152439999Y-68436209D02*
X152535237Y-68388590D01*
X152535237Y-68388590D02*
X152582856Y-68340971D01*
X152582856Y-68340971D02*
X152630475Y-68245733D01*
X152630475Y-68245733D02*
X152630475Y-68150495D01*
X152630475Y-68150495D02*
X152582856Y-68055257D01*
X152582856Y-68055257D02*
X152535237Y-68007638D01*
X152535237Y-68007638D02*
X152439999Y-67960019D01*
X152439999Y-67960019D02*
X152201904Y-67960019D01*
X152201904Y-67960019D02*
X152059047Y-68007638D01*
X154768571Y-67682400D02*
X151968571Y-67682400D01*
X149597714Y-84628666D02*
X148835810Y-84628666D01*
X149216762Y-85009619D02*
X149216762Y-84247714D01*
X148454857Y-84009619D02*
X147835810Y-84009619D01*
X147835810Y-84009619D02*
X148169143Y-84390571D01*
X148169143Y-84390571D02*
X148026286Y-84390571D01*
X148026286Y-84390571D02*
X147931048Y-84438190D01*
X147931048Y-84438190D02*
X147883429Y-84485809D01*
X147883429Y-84485809D02*
X147835810Y-84581047D01*
X147835810Y-84581047D02*
X147835810Y-84819142D01*
X147835810Y-84819142D02*
X147883429Y-84914380D01*
X147883429Y-84914380D02*
X147931048Y-84962000D01*
X147931048Y-84962000D02*
X148026286Y-85009619D01*
X148026286Y-85009619D02*
X148312000Y-85009619D01*
X148312000Y-85009619D02*
X148407238Y-84962000D01*
X148407238Y-84962000D02*
X148454857Y-84914380D01*
X147550095Y-84009619D02*
X147216762Y-85009619D01*
X147216762Y-85009619D02*
X146883429Y-84009619D01*
X146645333Y-84009619D02*
X146026286Y-84009619D01*
X146026286Y-84009619D02*
X146359619Y-84390571D01*
X146359619Y-84390571D02*
X146216762Y-84390571D01*
X146216762Y-84390571D02*
X146121524Y-84438190D01*
X146121524Y-84438190D02*
X146073905Y-84485809D01*
X146073905Y-84485809D02*
X146026286Y-84581047D01*
X146026286Y-84581047D02*
X146026286Y-84819142D01*
X146026286Y-84819142D02*
X146073905Y-84914380D01*
X146073905Y-84914380D02*
X146121524Y-84962000D01*
X146121524Y-84962000D02*
X146216762Y-85009619D01*
X146216762Y-85009619D02*
X146502476Y-85009619D01*
X146502476Y-85009619D02*
X146597714Y-84962000D01*
X146597714Y-84962000D02*
X146645333Y-84914380D01*
X164698132Y-74875019D02*
X165031465Y-74398828D01*
X165269560Y-74875019D02*
X165269560Y-73875019D01*
X165269560Y-73875019D02*
X164888608Y-73875019D01*
X164888608Y-73875019D02*
X164793370Y-73922638D01*
X164793370Y-73922638D02*
X164745751Y-73970257D01*
X164745751Y-73970257D02*
X164698132Y-74065495D01*
X164698132Y-74065495D02*
X164698132Y-74208352D01*
X164698132Y-74208352D02*
X164745751Y-74303590D01*
X164745751Y-74303590D02*
X164793370Y-74351209D01*
X164793370Y-74351209D02*
X164888608Y-74398828D01*
X164888608Y-74398828D02*
X165269560Y-74398828D01*
X164364798Y-73875019D02*
X163698132Y-74875019D01*
X163698132Y-73875019D02*
X164364798Y-74875019D01*
X165269560Y-84654066D02*
X164507656Y-84654066D01*
X164888608Y-85035019D02*
X164888608Y-84273114D01*
X163555275Y-84035019D02*
X164031465Y-84035019D01*
X164031465Y-84035019D02*
X164079084Y-84511209D01*
X164079084Y-84511209D02*
X164031465Y-84463590D01*
X164031465Y-84463590D02*
X163936227Y-84415971D01*
X163936227Y-84415971D02*
X163698132Y-84415971D01*
X163698132Y-84415971D02*
X163602894Y-84463590D01*
X163602894Y-84463590D02*
X163555275Y-84511209D01*
X163555275Y-84511209D02*
X163507656Y-84606447D01*
X163507656Y-84606447D02*
X163507656Y-84844542D01*
X163507656Y-84844542D02*
X163555275Y-84939780D01*
X163555275Y-84939780D02*
X163602894Y-84987400D01*
X163602894Y-84987400D02*
X163698132Y-85035019D01*
X163698132Y-85035019D02*
X163936227Y-85035019D01*
X163936227Y-85035019D02*
X164031465Y-84987400D01*
X164031465Y-84987400D02*
X164079084Y-84939780D01*
X163221941Y-84035019D02*
X162888608Y-85035019D01*
X162888608Y-85035019D02*
X162555275Y-84035019D01*
X165317180Y-82447400D02*
X165174323Y-82495019D01*
X165174323Y-82495019D02*
X164936228Y-82495019D01*
X164936228Y-82495019D02*
X164840990Y-82447400D01*
X164840990Y-82447400D02*
X164793371Y-82399780D01*
X164793371Y-82399780D02*
X164745752Y-82304542D01*
X164745752Y-82304542D02*
X164745752Y-82209304D01*
X164745752Y-82209304D02*
X164793371Y-82114066D01*
X164793371Y-82114066D02*
X164840990Y-82066447D01*
X164840990Y-82066447D02*
X164936228Y-82018828D01*
X164936228Y-82018828D02*
X165126704Y-81971209D01*
X165126704Y-81971209D02*
X165221942Y-81923590D01*
X165221942Y-81923590D02*
X165269561Y-81875971D01*
X165269561Y-81875971D02*
X165317180Y-81780733D01*
X165317180Y-81780733D02*
X165317180Y-81685495D01*
X165317180Y-81685495D02*
X165269561Y-81590257D01*
X165269561Y-81590257D02*
X165221942Y-81542638D01*
X165221942Y-81542638D02*
X165126704Y-81495019D01*
X165126704Y-81495019D02*
X164888609Y-81495019D01*
X164888609Y-81495019D02*
X164745752Y-81542638D01*
X164317180Y-82495019D02*
X164317180Y-81495019D01*
X164317180Y-81495019D02*
X164079085Y-81495019D01*
X164079085Y-81495019D02*
X163936228Y-81542638D01*
X163936228Y-81542638D02*
X163840990Y-81637876D01*
X163840990Y-81637876D02*
X163793371Y-81733114D01*
X163793371Y-81733114D02*
X163745752Y-81923590D01*
X163745752Y-81923590D02*
X163745752Y-82066447D01*
X163745752Y-82066447D02*
X163793371Y-82256923D01*
X163793371Y-82256923D02*
X163840990Y-82352161D01*
X163840990Y-82352161D02*
X163936228Y-82447400D01*
X163936228Y-82447400D02*
X164079085Y-82495019D01*
X164079085Y-82495019D02*
X164317180Y-82495019D01*
X163364799Y-82209304D02*
X162888609Y-82209304D01*
X163460037Y-82495019D02*
X163126704Y-81495019D01*
X163126704Y-81495019D02*
X162793371Y-82495019D01*
X165269561Y-72335019D02*
X165269561Y-71335019D01*
X164793371Y-72335019D02*
X164793371Y-71335019D01*
X164793371Y-71335019D02*
X164221943Y-72335019D01*
X164221943Y-72335019D02*
X164221943Y-71335019D01*
X163888609Y-71335019D02*
X163317181Y-71335019D01*
X163602895Y-72335019D02*
X163602895Y-71335019D01*
X147740572Y-72335019D02*
X148073905Y-71858828D01*
X148312000Y-72335019D02*
X148312000Y-71335019D01*
X148312000Y-71335019D02*
X147931048Y-71335019D01*
X147931048Y-71335019D02*
X147835810Y-71382638D01*
X147835810Y-71382638D02*
X147788191Y-71430257D01*
X147788191Y-71430257D02*
X147740572Y-71525495D01*
X147740572Y-71525495D02*
X147740572Y-71668352D01*
X147740572Y-71668352D02*
X147788191Y-71763590D01*
X147788191Y-71763590D02*
X147835810Y-71811209D01*
X147835810Y-71811209D02*
X147931048Y-71858828D01*
X147931048Y-71858828D02*
X148312000Y-71858828D01*
X147359619Y-72287400D02*
X147216762Y-72335019D01*
X147216762Y-72335019D02*
X146978667Y-72335019D01*
X146978667Y-72335019D02*
X146883429Y-72287400D01*
X146883429Y-72287400D02*
X146835810Y-72239780D01*
X146835810Y-72239780D02*
X146788191Y-72144542D01*
X146788191Y-72144542D02*
X146788191Y-72049304D01*
X146788191Y-72049304D02*
X146835810Y-71954066D01*
X146835810Y-71954066D02*
X146883429Y-71906447D01*
X146883429Y-71906447D02*
X146978667Y-71858828D01*
X146978667Y-71858828D02*
X147169143Y-71811209D01*
X147169143Y-71811209D02*
X147264381Y-71763590D01*
X147264381Y-71763590D02*
X147312000Y-71715971D01*
X147312000Y-71715971D02*
X147359619Y-71620733D01*
X147359619Y-71620733D02*
X147359619Y-71525495D01*
X147359619Y-71525495D02*
X147312000Y-71430257D01*
X147312000Y-71430257D02*
X147264381Y-71382638D01*
X147264381Y-71382638D02*
X147169143Y-71335019D01*
X147169143Y-71335019D02*
X146931048Y-71335019D01*
X146931048Y-71335019D02*
X146788191Y-71382638D01*
X146502476Y-71335019D02*
X145931048Y-71335019D01*
X146216762Y-72335019D02*
X146216762Y-71335019D01*
X165412418Y-76415019D02*
X164840990Y-76415019D01*
X165126704Y-77415019D02*
X165126704Y-76415019D01*
X164602894Y-76415019D02*
X163936228Y-77415019D01*
X163936228Y-76415019D02*
X164602894Y-77415019D01*
X149216761Y-82495019D02*
X149216761Y-81495019D01*
X149216761Y-81495019D02*
X148883428Y-82209304D01*
X148883428Y-82209304D02*
X148550095Y-81495019D01*
X148550095Y-81495019D02*
X148550095Y-82495019D01*
X147883428Y-81495019D02*
X147692952Y-81495019D01*
X147692952Y-81495019D02*
X147597714Y-81542638D01*
X147597714Y-81542638D02*
X147502476Y-81637876D01*
X147502476Y-81637876D02*
X147454857Y-81828352D01*
X147454857Y-81828352D02*
X147454857Y-82161685D01*
X147454857Y-82161685D02*
X147502476Y-82352161D01*
X147502476Y-82352161D02*
X147597714Y-82447400D01*
X147597714Y-82447400D02*
X147692952Y-82495019D01*
X147692952Y-82495019D02*
X147883428Y-82495019D01*
X147883428Y-82495019D02*
X147978666Y-82447400D01*
X147978666Y-82447400D02*
X148073904Y-82352161D01*
X148073904Y-82352161D02*
X148121523Y-82161685D01*
X148121523Y-82161685D02*
X148121523Y-81828352D01*
X148121523Y-81828352D02*
X148073904Y-81637876D01*
X148073904Y-81637876D02*
X147978666Y-81542638D01*
X147978666Y-81542638D02*
X147883428Y-81495019D01*
X147073904Y-82447400D02*
X146931047Y-82495019D01*
X146931047Y-82495019D02*
X146692952Y-82495019D01*
X146692952Y-82495019D02*
X146597714Y-82447400D01*
X146597714Y-82447400D02*
X146550095Y-82399780D01*
X146550095Y-82399780D02*
X146502476Y-82304542D01*
X146502476Y-82304542D02*
X146502476Y-82209304D01*
X146502476Y-82209304D02*
X146550095Y-82114066D01*
X146550095Y-82114066D02*
X146597714Y-82066447D01*
X146597714Y-82066447D02*
X146692952Y-82018828D01*
X146692952Y-82018828D02*
X146883428Y-81971209D01*
X146883428Y-81971209D02*
X146978666Y-81923590D01*
X146978666Y-81923590D02*
X147026285Y-81875971D01*
X147026285Y-81875971D02*
X147073904Y-81780733D01*
X147073904Y-81780733D02*
X147073904Y-81685495D01*
X147073904Y-81685495D02*
X147026285Y-81590257D01*
X147026285Y-81590257D02*
X146978666Y-81542638D01*
X146978666Y-81542638D02*
X146883428Y-81495019D01*
X146883428Y-81495019D02*
X146645333Y-81495019D01*
X146645333Y-81495019D02*
X146502476Y-81542638D01*
X146073904Y-82495019D02*
X146073904Y-81495019D01*
D11*
X156039999Y-84942676D02*
X156039999Y-85895057D01*
X156873333Y-85514104D02*
X156039999Y-85895057D01*
X156039999Y-85895057D02*
X155206666Y-85514104D01*
X156539999Y-86656961D02*
X156039999Y-85895057D01*
X156039999Y-85895057D02*
X155539999Y-86656961D01*
D10*
X148121523Y-86622638D02*
X148216761Y-86575019D01*
X148216761Y-86575019D02*
X148359618Y-86575019D01*
X148359618Y-86575019D02*
X148502475Y-86622638D01*
X148502475Y-86622638D02*
X148597713Y-86717876D01*
X148597713Y-86717876D02*
X148645332Y-86813114D01*
X148645332Y-86813114D02*
X148692951Y-87003590D01*
X148692951Y-87003590D02*
X148692951Y-87146447D01*
X148692951Y-87146447D02*
X148645332Y-87336923D01*
X148645332Y-87336923D02*
X148597713Y-87432161D01*
X148597713Y-87432161D02*
X148502475Y-87527400D01*
X148502475Y-87527400D02*
X148359618Y-87575019D01*
X148359618Y-87575019D02*
X148264380Y-87575019D01*
X148264380Y-87575019D02*
X148121523Y-87527400D01*
X148121523Y-87527400D02*
X148073904Y-87479780D01*
X148073904Y-87479780D02*
X148073904Y-87146447D01*
X148073904Y-87146447D02*
X148264380Y-87146447D01*
X147645332Y-87575019D02*
X147645332Y-86575019D01*
X147645332Y-86575019D02*
X147073904Y-87575019D01*
X147073904Y-87575019D02*
X147073904Y-86575019D01*
X146597713Y-87575019D02*
X146597713Y-86575019D01*
X146597713Y-86575019D02*
X146359618Y-86575019D01*
X146359618Y-86575019D02*
X146216761Y-86622638D01*
X146216761Y-86622638D02*
X146121523Y-86717876D01*
X146121523Y-86717876D02*
X146073904Y-86813114D01*
X146073904Y-86813114D02*
X146026285Y-87003590D01*
X146026285Y-87003590D02*
X146026285Y-87146447D01*
X146026285Y-87146447D02*
X146073904Y-87336923D01*
X146073904Y-87336923D02*
X146121523Y-87432161D01*
X146121523Y-87432161D02*
X146216761Y-87527400D01*
X146216761Y-87527400D02*
X146359618Y-87575019D01*
X146359618Y-87575019D02*
X146597713Y-87575019D01*
X164745751Y-86622638D02*
X164840989Y-86575019D01*
X164840989Y-86575019D02*
X164983846Y-86575019D01*
X164983846Y-86575019D02*
X165126703Y-86622638D01*
X165126703Y-86622638D02*
X165221941Y-86717876D01*
X165221941Y-86717876D02*
X165269560Y-86813114D01*
X165269560Y-86813114D02*
X165317179Y-87003590D01*
X165317179Y-87003590D02*
X165317179Y-87146447D01*
X165317179Y-87146447D02*
X165269560Y-87336923D01*
X165269560Y-87336923D02*
X165221941Y-87432161D01*
X165221941Y-87432161D02*
X165126703Y-87527400D01*
X165126703Y-87527400D02*
X164983846Y-87575019D01*
X164983846Y-87575019D02*
X164888608Y-87575019D01*
X164888608Y-87575019D02*
X164745751Y-87527400D01*
X164745751Y-87527400D02*
X164698132Y-87479780D01*
X164698132Y-87479780D02*
X164698132Y-87146447D01*
X164698132Y-87146447D02*
X164888608Y-87146447D01*
X164269560Y-87575019D02*
X164269560Y-86575019D01*
X164269560Y-86575019D02*
X163698132Y-87575019D01*
X163698132Y-87575019D02*
X163698132Y-86575019D01*
X163221941Y-87575019D02*
X163221941Y-86575019D01*
X163221941Y-86575019D02*
X162983846Y-86575019D01*
X162983846Y-86575019D02*
X162840989Y-86622638D01*
X162840989Y-86622638D02*
X162745751Y-86717876D01*
X162745751Y-86717876D02*
X162698132Y-86813114D01*
X162698132Y-86813114D02*
X162650513Y-87003590D01*
X162650513Y-87003590D02*
X162650513Y-87146447D01*
X162650513Y-87146447D02*
X162698132Y-87336923D01*
X162698132Y-87336923D02*
X162745751Y-87432161D01*
X162745751Y-87432161D02*
X162840989Y-87527400D01*
X162840989Y-87527400D02*
X162983846Y-87575019D01*
X162983846Y-87575019D02*
X163221941Y-87575019D01*
X147550095Y-69509304D02*
X147073905Y-69509304D01*
X147645333Y-69795019D02*
X147312000Y-68795019D01*
X147312000Y-68795019D02*
X146978667Y-69795019D01*
X146645333Y-69795019D02*
X146645333Y-68795019D01*
X146645333Y-68795019D02*
X146073905Y-69795019D01*
X146073905Y-69795019D02*
X146073905Y-68795019D01*
D12*
%TO.C,CON1*%
X142960000Y-88130000D02*
X142960000Y-90750000D01*
X142960000Y-90750000D02*
X165830000Y-90730000D01*
X142970000Y-67830000D02*
X142970000Y-70370000D01*
X142970000Y-70370000D02*
X142970000Y-88150000D01*
X142970000Y-70370000D02*
X145510000Y-70370000D01*
X142970000Y-88150000D02*
X145510000Y-88150000D01*
X145510000Y-67830000D02*
X142970000Y-67830000D01*
X145510000Y-70370000D02*
X145510000Y-67830000D01*
X145510000Y-88150000D02*
X145510000Y-70370000D01*
D13*
X153289000Y-65620200D02*
X153289000Y-67144200D01*
X154432000Y-65620200D02*
X153289000Y-65620200D01*
X154432000Y-65620200D02*
X154432000Y-63969200D01*
X155575000Y-65620200D02*
X154432000Y-65620200D01*
X155575000Y-65620200D02*
X155575000Y-67144200D01*
X156718000Y-65620200D02*
X155575000Y-65620200D01*
X156718000Y-65620200D02*
X156718000Y-63969200D01*
X157734000Y-65620200D02*
X156718000Y-65620200D01*
X157734000Y-65620200D02*
X157734000Y-67144200D01*
D12*
X165830000Y-67830000D02*
X165830000Y-70370000D01*
X165830000Y-67830000D02*
X168370000Y-67830000D01*
X165830000Y-70370000D02*
X165830000Y-88150000D01*
X165830000Y-70370000D02*
X168370000Y-70370000D01*
X165830000Y-88150000D02*
X168370000Y-88150000D01*
X168370000Y-67830000D02*
X168370000Y-88150000D01*
X168370000Y-88150000D02*
X165830000Y-90740000D01*
D14*
X153517600Y-67144200D02*
G75*
G02*
X153060400Y-67144200I-228600J0D01*
G01*
X153060400Y-67144200D02*
G75*
G02*
X153517600Y-67144200I228600J0D01*
G01*
X154660600Y-63969200D02*
G75*
G02*
X154203400Y-63969200I-228600J0D01*
G01*
X154203400Y-63969200D02*
G75*
G02*
X154660600Y-63969200I228600J0D01*
G01*
X155803600Y-67144200D02*
G75*
G02*
X155346400Y-67144200I-228600J0D01*
G01*
X155346400Y-67144200D02*
G75*
G02*
X155803600Y-67144200I228600J0D01*
G01*
X156946600Y-63969200D02*
G75*
G02*
X156489400Y-63969200I-228600J0D01*
G01*
X156489400Y-63969200D02*
G75*
G02*
X156946600Y-63969200I228600J0D01*
G01*
X157962600Y-67144200D02*
G75*
G02*
X157505400Y-67144200I-228600J0D01*
G01*
X157505400Y-67144200D02*
G75*
G02*
X157962600Y-67144200I228600J0D01*
G01*
%TD*%
M02*
