G04 #@! TF.GenerationSoftware,KiCad,Pcbnew,(5.0.1)-4*
G04 #@! TF.CreationDate,2023-11-21T15:21:17+01:00*
G04 #@! TF.ProjectId,AetS_Spectrum_1way,416574535F537065637472756D5F3177,rev?*
G04 #@! TF.SameCoordinates,Original*
G04 #@! TF.FileFunction,Soldermask,Bot*
G04 #@! TF.FilePolarity,Negative*
%FSLAX46Y46*%
G04 Gerber Fmt 4.6, Leading zero omitted, Abs format (unit mm)*
G04 Created by KiCad (PCBNEW (5.0.1)-4) date 21/11/2023 15:21:17*
%MOMM*%
%LPD*%
G01*
G04 APERTURE LIST*
%ADD10R,1.700000X1.700000*%
%ADD11O,1.700000X1.700000*%
%ADD12C,1.400000*%
%ADD13C,1.600000*%
%ADD14R,1.600000X1.600000*%
%ADD15O,1.600000X1.600000*%
%ADD16C,1.440000*%
%ADD17R,1.600000X2.400000*%
%ADD18O,1.600000X2.400000*%
G04 APERTURE END LIST*
D10*
G04 #@! TO.C,J1*
X165100000Y-73660000D03*
D11*
X167640000Y-73660000D03*
X170180000Y-73660000D03*
G04 #@! TD*
D12*
G04 #@! TO.C,C1*
X181610000Y-76835000D03*
X179110000Y-76835000D03*
G04 #@! TD*
D13*
G04 #@! TO.C,C2*
X184150000Y-76835000D03*
X179150000Y-76835000D03*
G04 #@! TD*
G04 #@! TO.C,C3*
X173355000Y-59055000D03*
D14*
X173355000Y-64055000D03*
G04 #@! TD*
D12*
G04 #@! TO.C,C4*
X201255000Y-72390000D03*
X198755000Y-72390000D03*
G04 #@! TD*
D13*
G04 #@! TO.C,C5*
X198835000Y-72390000D03*
X203835000Y-72390000D03*
G04 #@! TD*
D14*
G04 #@! TO.C,C6*
X173355000Y-54610000D03*
D13*
X173355000Y-49610000D03*
G04 #@! TD*
D12*
G04 #@! TO.C,C7*
X195580000Y-36830000D03*
X193080000Y-36830000D03*
G04 #@! TD*
D13*
G04 #@! TO.C,C8*
X198120000Y-36830000D03*
X193120000Y-36830000D03*
G04 #@! TD*
D12*
G04 #@! TO.C,C9*
X193635000Y-42545000D03*
X191135000Y-42545000D03*
G04 #@! TD*
D13*
G04 #@! TO.C,C10*
X191135000Y-42545000D03*
X196135000Y-42545000D03*
G04 #@! TD*
G04 #@! TO.C,C11*
X180340000Y-41990000D03*
X185340000Y-41990000D03*
G04 #@! TD*
G04 #@! TO.C,C12*
X179150000Y-76835000D03*
X186650000Y-76835000D03*
G04 #@! TD*
G04 #@! TO.C,C13*
X206375000Y-72390000D03*
X198875000Y-72390000D03*
G04 #@! TD*
G04 #@! TO.C,C14*
X193080000Y-36830000D03*
X200580000Y-36830000D03*
G04 #@! TD*
G04 #@! TO.C,C15*
X198635000Y-42545000D03*
X191135000Y-42545000D03*
G04 #@! TD*
D10*
G04 #@! TO.C,J2*
X161925000Y-51435000D03*
D11*
X161925000Y-53975000D03*
X161925000Y-56515000D03*
X161925000Y-59055000D03*
X161925000Y-61595000D03*
X161925000Y-64135000D03*
G04 #@! TD*
D13*
G04 #@! TO.C,R1*
X191770000Y-76835000D03*
D15*
X207010000Y-76835000D03*
G04 #@! TD*
D13*
G04 #@! TO.C,R2*
X229235000Y-74295000D03*
D15*
X213995000Y-74295000D03*
G04 #@! TD*
D13*
G04 #@! TO.C,R3*
X207645000Y-67310000D03*
D15*
X192405000Y-67310000D03*
G04 #@! TD*
G04 #@! TO.C,R4*
X179070000Y-72390000D03*
D13*
X194310000Y-72390000D03*
G04 #@! TD*
D15*
G04 #@! TO.C,R5*
X213995000Y-66675000D03*
D13*
X229235000Y-66675000D03*
G04 #@! TD*
D15*
G04 #@! TO.C,R6*
X187325000Y-65405000D03*
D13*
X187325000Y-50165000D03*
G04 #@! TD*
D15*
G04 #@! TO.C,R7*
X206375000Y-36830000D03*
D13*
X221615000Y-36830000D03*
G04 #@! TD*
G04 #@! TO.C,R8*
X205105000Y-42545000D03*
D15*
X220345000Y-42545000D03*
G04 #@! TD*
D13*
G04 #@! TO.C,R9*
X207010000Y-47625000D03*
D15*
X191770000Y-47625000D03*
G04 #@! TD*
G04 #@! TO.C,R10*
X222885000Y-49530000D03*
D13*
X238125000Y-49530000D03*
G04 #@! TD*
D15*
G04 #@! TO.C,R11*
X161925000Y-45720000D03*
D13*
X177165000Y-45720000D03*
G04 #@! TD*
G04 #@! TO.C,R12*
X161925000Y-41910000D03*
D15*
X177165000Y-41910000D03*
G04 #@! TD*
D16*
G04 #@! TO.C,RV1*
X219710000Y-60960000D03*
X217170000Y-60960000D03*
X214630000Y-60960000D03*
G04 #@! TD*
G04 #@! TO.C,RV2*
X220980000Y-55245000D03*
X223520000Y-55245000D03*
X226060000Y-55245000D03*
G04 #@! TD*
D17*
G04 #@! TO.C,U1*
X191770000Y-60960000D03*
D18*
X207010000Y-53340000D03*
X194310000Y-60960000D03*
X204470000Y-53340000D03*
X196850000Y-60960000D03*
X201930000Y-53340000D03*
X199390000Y-60960000D03*
X199390000Y-53340000D03*
X201930000Y-60960000D03*
X196850000Y-53340000D03*
X204470000Y-60960000D03*
X194310000Y-53340000D03*
X207010000Y-60960000D03*
X191770000Y-53340000D03*
G04 #@! TD*
M02*
