M48
; DRILL file {KiCad 8.0.0} date 2024-05-22T13:11:46+0200
; FORMAT={-:-/ absolute / inch / decimal}
; #@! TF.CreationDate,2024-05-22T13:11:46+02:00
; #@! TF.GenerationSoftware,Kicad,Pcbnew,8.0.0
; #@! TF.FileFunction,Plated,1,2,PTH
FMAT,2
INCH
; #@! TA.AperFunction,Plated,PTH,ComponentDrill
T1C0.0300
; #@! TA.AperFunction,Plated,PTH,ComponentDrill
T2C0.0315
; #@! TA.AperFunction,Plated,PTH,ComponentDrill
T3C0.0350
; #@! TA.AperFunction,Plated,PTH,ComponentDrill
T4C0.0354
; #@! TA.AperFunction,Plated,PTH,ComponentDrill
T5C0.0394
; #@! TA.AperFunction,Plated,PTH,ComponentDrill
T6C0.0512
%
G90
G05
T1
X9.7372Y-1.4783
X9.8159Y-4.7067
X9.9341Y-1.4783
X10.0128Y-4.7067
X10.1309Y-4.3524
X10.1309Y-5.0217
X10.3278Y-4.3524
X10.3278Y-5.0217
X10.4459Y-4.7067
X10.6427Y-4.7067
T2
X5.2663Y-3.0689
X5.6663Y-3.0689
X6.676Y-3.7431
X6.776Y-3.6431
X6.876Y-3.7431
X6.997Y-1.9028
X6.997Y-2.2028
X7.1545Y-1.8028
X7.1545Y-2.2028
X7.312Y-1.9028
X7.312Y-2.2028
X8.0207Y-3.0945
X8.0207Y-3.2933
X8.0207Y-3.4921
X8.0207Y-3.6909
X8.2175Y-3.0945
X8.2175Y-3.2933
X8.2175Y-3.4921
X8.2175Y-3.6909
X9.3482Y-2.0264
X9.3482Y-2.4264
X9.386Y-2.8295
X9.386Y-3.2295
X9.4852Y-2.1886
X9.4852Y-2.5886
X9.5372Y-2.9319
X9.5372Y-3.3319
X9.6222Y-2.302
X9.6222Y-2.702
X9.7372Y-1.8878
X9.764Y-2.4201
X9.764Y-2.8201
X9.849Y-1.2421
X9.9026Y-2.5382
X9.9026Y-2.9382
X9.9341Y-1.8878
X10.0474Y-3.1445
X10.0474Y-3.5445
X10.0632Y-2.6358
X10.0632Y-2.9358
X10.1632Y-2.6358
X10.1632Y-2.9358
X10.249Y-1.2421
X10.2632Y-2.6358
X10.2632Y-2.9358
X10.2915Y-3.1524
X10.2915Y-3.5524
X10.3632Y-2.6358
X10.3632Y-2.9358
X10.4632Y-2.6358
X10.4632Y-2.9358
X10.5356Y-3.1445
X10.5356Y-3.5445
X10.5632Y-2.6358
X10.5632Y-2.9358
X10.6632Y-2.6358
X10.6632Y-2.9358
X10.7632Y-2.6358
X10.7632Y-2.9358
X10.764Y-3.1445
X10.764Y-3.5445
X10.8632Y-2.6358
X10.8632Y-2.9358
T3
X5.249Y-1.4783
X5.249Y-1.5783
X5.249Y-1.6783
X5.249Y-1.7783
X5.249Y-1.8783
X5.249Y-1.9783
X5.249Y-2.0783
X5.249Y-2.1783
X6.149Y-1.4783
X6.149Y-1.5783
X6.149Y-1.6783
X6.149Y-1.7783
X6.149Y-1.8783
X6.149Y-1.9783
X6.149Y-2.0783
X6.149Y-2.1783
T4
X10.0443Y-3.6722
X10.0443Y-3.7722
X10.2386Y-1.3888
X10.2386Y-1.4888
X10.2884Y-3.6693
X10.2884Y-3.7693
X10.5246Y-3.6722
X10.5246Y-3.7722
X10.7608Y-3.6722
X10.7608Y-3.7722
T5
X5.3632Y-3.4705
X5.4632Y-3.4705
X5.5632Y-3.4705
X5.6632Y-3.4705
X5.7632Y-3.4705
X6.6348Y-4.3004
X6.6348Y-4.4004
X6.6348Y-4.5004
X6.6348Y-4.6004
X6.6348Y-4.7004
X6.6348Y-4.8004
X6.6348Y-4.9004
X6.6348Y-5.0004
X6.6348Y-5.1004
X6.6348Y-5.2004
X6.6348Y-5.3004
X6.6829Y-1.4287
X6.6829Y-1.5287
X6.6829Y-1.6287
X6.6829Y-1.7287
X6.6829Y-1.8287
X6.6829Y-1.9287
X6.6829Y-2.0287
X6.6829Y-2.1287
X6.6829Y-2.2287
X6.6829Y-2.3287
X6.6829Y-2.4287
X6.6829Y-2.5287
X6.6829Y-2.6287
X6.6829Y-2.7287
X6.6829Y-2.8287
X6.6829Y-2.9287
X6.6829Y-3.0287
X6.6829Y-3.1287
X6.6829Y-3.2287
X6.6829Y-3.3287
X6.7829Y-1.4287
X6.7829Y-1.5287
X6.7829Y-1.6287
X6.7829Y-1.7287
X6.7829Y-1.8287
X6.7829Y-1.9287
X6.7829Y-2.0287
X6.7829Y-2.1287
X6.7829Y-2.2287
X6.7829Y-2.3287
X6.7829Y-2.4287
X6.7829Y-2.5287
X6.7829Y-2.6287
X6.7829Y-2.7287
X6.7829Y-2.8287
X6.7829Y-2.9287
X6.7829Y-3.0287
X6.7829Y-3.1287
X6.7829Y-3.2287
X6.7829Y-3.3287
X7.153Y-1.6083
X7.253Y-1.6083
X9.086Y-1.4287
X9.086Y-1.5287
X9.086Y-1.6287
X9.086Y-1.7287
X9.086Y-1.8287
X9.086Y-1.9287
X9.086Y-2.0287
X9.086Y-2.1287
X9.086Y-2.2287
X9.086Y-2.3287
X9.086Y-2.4287
X9.086Y-2.5287
X9.086Y-2.6287
X9.086Y-2.7287
X9.086Y-2.8287
X9.086Y-2.9287
X9.086Y-3.0287
X9.086Y-3.1287
X9.086Y-3.2287
X9.086Y-3.3287
X9.186Y-1.4287
X9.186Y-1.5287
X9.186Y-1.6287
X9.186Y-1.7287
X9.186Y-1.8287
X9.186Y-1.9287
X9.186Y-2.0287
X9.186Y-2.1287
X9.186Y-2.2287
X9.186Y-2.3287
X9.186Y-2.4287
X9.186Y-2.5287
X9.186Y-2.6287
X9.186Y-2.7287
X9.186Y-2.8287
X9.186Y-2.9287
X9.186Y-3.0287
X9.186Y-3.1287
X9.186Y-3.2287
X9.186Y-3.3287
X10.6427Y-1.3996
X10.6427Y-1.4996
X10.6427Y-1.5996
X10.6506Y-2.0138
X10.6506Y-2.1138
X10.6506Y-2.2138
X10.6506Y-2.3138
X10.8396Y-1.3996
X10.8396Y-1.4996
X10.8396Y-1.5996
T6
X5.161Y-2.6266
X5.161Y-2.8266
M30
