%TF.GenerationSoftware,KiCad,Pcbnew,8.0.0*%
%TF.CreationDate,2024-05-22T13:11:44+02:00*%
%TF.ProjectId,Remote_Board_L476RG,52656d6f-7465-45f4-926f-6172645f4c34,rev?*%
%TF.SameCoordinates,Original*%
%TF.FileFunction,Legend,Top*%
%TF.FilePolarity,Positive*%
%FSLAX46Y46*%
G04 Gerber Fmt 4.6, Leading zero omitted, Abs format (unit mm)*
G04 Created by KiCad (PCBNEW 8.0.0) date 2024-05-22 13:11:44*
%MOMM*%
%LPD*%
G01*
G04 APERTURE LIST*
%ADD10C,0.050000*%
%ADD11C,0.300000*%
%ADD12C,0.150000*%
%ADD13C,0.100000*%
%ADD14C,0.120000*%
%ADD15C,0.127000*%
G04 APERTURE END LIST*
D10*
X244075000Y-100300000D02*
X272325000Y-100300000D01*
X272325000Y-137550000D01*
X244075000Y-137550000D01*
X244075000Y-100300000D01*
D11*
X184667857Y-40668328D02*
X184167857Y-39954042D01*
X183810714Y-40668328D02*
X183810714Y-39168328D01*
X183810714Y-39168328D02*
X184382143Y-39168328D01*
X184382143Y-39168328D02*
X184525000Y-39239757D01*
X184525000Y-39239757D02*
X184596429Y-39311185D01*
X184596429Y-39311185D02*
X184667857Y-39454042D01*
X184667857Y-39454042D02*
X184667857Y-39668328D01*
X184667857Y-39668328D02*
X184596429Y-39811185D01*
X184596429Y-39811185D02*
X184525000Y-39882614D01*
X184525000Y-39882614D02*
X184382143Y-39954042D01*
X184382143Y-39954042D02*
X183810714Y-39954042D01*
X185882143Y-40596900D02*
X185739286Y-40668328D01*
X185739286Y-40668328D02*
X185453572Y-40668328D01*
X185453572Y-40668328D02*
X185310714Y-40596900D01*
X185310714Y-40596900D02*
X185239286Y-40454042D01*
X185239286Y-40454042D02*
X185239286Y-39882614D01*
X185239286Y-39882614D02*
X185310714Y-39739757D01*
X185310714Y-39739757D02*
X185453572Y-39668328D01*
X185453572Y-39668328D02*
X185739286Y-39668328D01*
X185739286Y-39668328D02*
X185882143Y-39739757D01*
X185882143Y-39739757D02*
X185953572Y-39882614D01*
X185953572Y-39882614D02*
X185953572Y-40025471D01*
X185953572Y-40025471D02*
X185239286Y-40168328D01*
X186596428Y-40668328D02*
X186596428Y-39668328D01*
X186596428Y-39811185D02*
X186667857Y-39739757D01*
X186667857Y-39739757D02*
X186810714Y-39668328D01*
X186810714Y-39668328D02*
X187025000Y-39668328D01*
X187025000Y-39668328D02*
X187167857Y-39739757D01*
X187167857Y-39739757D02*
X187239286Y-39882614D01*
X187239286Y-39882614D02*
X187239286Y-40668328D01*
X187239286Y-39882614D02*
X187310714Y-39739757D01*
X187310714Y-39739757D02*
X187453571Y-39668328D01*
X187453571Y-39668328D02*
X187667857Y-39668328D01*
X187667857Y-39668328D02*
X187810714Y-39739757D01*
X187810714Y-39739757D02*
X187882143Y-39882614D01*
X187882143Y-39882614D02*
X187882143Y-40668328D01*
X188810714Y-40668328D02*
X188667857Y-40596900D01*
X188667857Y-40596900D02*
X188596428Y-40525471D01*
X188596428Y-40525471D02*
X188525000Y-40382614D01*
X188525000Y-40382614D02*
X188525000Y-39954042D01*
X188525000Y-39954042D02*
X188596428Y-39811185D01*
X188596428Y-39811185D02*
X188667857Y-39739757D01*
X188667857Y-39739757D02*
X188810714Y-39668328D01*
X188810714Y-39668328D02*
X189025000Y-39668328D01*
X189025000Y-39668328D02*
X189167857Y-39739757D01*
X189167857Y-39739757D02*
X189239286Y-39811185D01*
X189239286Y-39811185D02*
X189310714Y-39954042D01*
X189310714Y-39954042D02*
X189310714Y-40382614D01*
X189310714Y-40382614D02*
X189239286Y-40525471D01*
X189239286Y-40525471D02*
X189167857Y-40596900D01*
X189167857Y-40596900D02*
X189025000Y-40668328D01*
X189025000Y-40668328D02*
X188810714Y-40668328D01*
X189739286Y-39668328D02*
X190310714Y-39668328D01*
X189953571Y-39168328D02*
X189953571Y-40454042D01*
X189953571Y-40454042D02*
X190025000Y-40596900D01*
X190025000Y-40596900D02*
X190167857Y-40668328D01*
X190167857Y-40668328D02*
X190310714Y-40668328D01*
X191382143Y-40596900D02*
X191239286Y-40668328D01*
X191239286Y-40668328D02*
X190953572Y-40668328D01*
X190953572Y-40668328D02*
X190810714Y-40596900D01*
X190810714Y-40596900D02*
X190739286Y-40454042D01*
X190739286Y-40454042D02*
X190739286Y-39882614D01*
X190739286Y-39882614D02*
X190810714Y-39739757D01*
X190810714Y-39739757D02*
X190953572Y-39668328D01*
X190953572Y-39668328D02*
X191239286Y-39668328D01*
X191239286Y-39668328D02*
X191382143Y-39739757D01*
X191382143Y-39739757D02*
X191453572Y-39882614D01*
X191453572Y-39882614D02*
X191453572Y-40025471D01*
X191453572Y-40025471D02*
X190739286Y-40168328D01*
X193739285Y-39882614D02*
X193953571Y-39954042D01*
X193953571Y-39954042D02*
X194025000Y-40025471D01*
X194025000Y-40025471D02*
X194096428Y-40168328D01*
X194096428Y-40168328D02*
X194096428Y-40382614D01*
X194096428Y-40382614D02*
X194025000Y-40525471D01*
X194025000Y-40525471D02*
X193953571Y-40596900D01*
X193953571Y-40596900D02*
X193810714Y-40668328D01*
X193810714Y-40668328D02*
X193239285Y-40668328D01*
X193239285Y-40668328D02*
X193239285Y-39168328D01*
X193239285Y-39168328D02*
X193739285Y-39168328D01*
X193739285Y-39168328D02*
X193882143Y-39239757D01*
X193882143Y-39239757D02*
X193953571Y-39311185D01*
X193953571Y-39311185D02*
X194025000Y-39454042D01*
X194025000Y-39454042D02*
X194025000Y-39596900D01*
X194025000Y-39596900D02*
X193953571Y-39739757D01*
X193953571Y-39739757D02*
X193882143Y-39811185D01*
X193882143Y-39811185D02*
X193739285Y-39882614D01*
X193739285Y-39882614D02*
X193239285Y-39882614D01*
X194953571Y-40668328D02*
X194810714Y-40596900D01*
X194810714Y-40596900D02*
X194739285Y-40525471D01*
X194739285Y-40525471D02*
X194667857Y-40382614D01*
X194667857Y-40382614D02*
X194667857Y-39954042D01*
X194667857Y-39954042D02*
X194739285Y-39811185D01*
X194739285Y-39811185D02*
X194810714Y-39739757D01*
X194810714Y-39739757D02*
X194953571Y-39668328D01*
X194953571Y-39668328D02*
X195167857Y-39668328D01*
X195167857Y-39668328D02*
X195310714Y-39739757D01*
X195310714Y-39739757D02*
X195382143Y-39811185D01*
X195382143Y-39811185D02*
X195453571Y-39954042D01*
X195453571Y-39954042D02*
X195453571Y-40382614D01*
X195453571Y-40382614D02*
X195382143Y-40525471D01*
X195382143Y-40525471D02*
X195310714Y-40596900D01*
X195310714Y-40596900D02*
X195167857Y-40668328D01*
X195167857Y-40668328D02*
X194953571Y-40668328D01*
X196739286Y-40668328D02*
X196739286Y-39882614D01*
X196739286Y-39882614D02*
X196667857Y-39739757D01*
X196667857Y-39739757D02*
X196525000Y-39668328D01*
X196525000Y-39668328D02*
X196239286Y-39668328D01*
X196239286Y-39668328D02*
X196096428Y-39739757D01*
X196739286Y-40596900D02*
X196596428Y-40668328D01*
X196596428Y-40668328D02*
X196239286Y-40668328D01*
X196239286Y-40668328D02*
X196096428Y-40596900D01*
X196096428Y-40596900D02*
X196025000Y-40454042D01*
X196025000Y-40454042D02*
X196025000Y-40311185D01*
X196025000Y-40311185D02*
X196096428Y-40168328D01*
X196096428Y-40168328D02*
X196239286Y-40096900D01*
X196239286Y-40096900D02*
X196596428Y-40096900D01*
X196596428Y-40096900D02*
X196739286Y-40025471D01*
X197453571Y-40668328D02*
X197453571Y-39668328D01*
X197453571Y-39954042D02*
X197525000Y-39811185D01*
X197525000Y-39811185D02*
X197596429Y-39739757D01*
X197596429Y-39739757D02*
X197739286Y-39668328D01*
X197739286Y-39668328D02*
X197882143Y-39668328D01*
X199025000Y-40668328D02*
X199025000Y-39168328D01*
X199025000Y-40596900D02*
X198882142Y-40668328D01*
X198882142Y-40668328D02*
X198596428Y-40668328D01*
X198596428Y-40668328D02*
X198453571Y-40596900D01*
X198453571Y-40596900D02*
X198382142Y-40525471D01*
X198382142Y-40525471D02*
X198310714Y-40382614D01*
X198310714Y-40382614D02*
X198310714Y-39954042D01*
X198310714Y-39954042D02*
X198382142Y-39811185D01*
X198382142Y-39811185D02*
X198453571Y-39739757D01*
X198453571Y-39739757D02*
X198596428Y-39668328D01*
X198596428Y-39668328D02*
X198882142Y-39668328D01*
X198882142Y-39668328D02*
X199025000Y-39739757D01*
X201953571Y-39096900D02*
X200667857Y-41025471D01*
X204310714Y-40668328D02*
X203596428Y-40668328D01*
X203596428Y-40668328D02*
X203596428Y-39168328D01*
X204810714Y-39882614D02*
X205310714Y-39882614D01*
X205525000Y-40668328D02*
X204810714Y-40668328D01*
X204810714Y-40668328D02*
X204810714Y-39168328D01*
X204810714Y-39168328D02*
X205525000Y-39168328D01*
X206167857Y-39668328D02*
X206167857Y-40668328D01*
X206167857Y-39811185D02*
X206239286Y-39739757D01*
X206239286Y-39739757D02*
X206382143Y-39668328D01*
X206382143Y-39668328D02*
X206596429Y-39668328D01*
X206596429Y-39668328D02*
X206739286Y-39739757D01*
X206739286Y-39739757D02*
X206810715Y-39882614D01*
X206810715Y-39882614D02*
X206810715Y-40668328D01*
X207453572Y-40596900D02*
X207596429Y-40668328D01*
X207596429Y-40668328D02*
X207882143Y-40668328D01*
X207882143Y-40668328D02*
X208025000Y-40596900D01*
X208025000Y-40596900D02*
X208096429Y-40454042D01*
X208096429Y-40454042D02*
X208096429Y-40382614D01*
X208096429Y-40382614D02*
X208025000Y-40239757D01*
X208025000Y-40239757D02*
X207882143Y-40168328D01*
X207882143Y-40168328D02*
X207667858Y-40168328D01*
X207667858Y-40168328D02*
X207525000Y-40096900D01*
X207525000Y-40096900D02*
X207453572Y-39954042D01*
X207453572Y-39954042D02*
X207453572Y-39882614D01*
X207453572Y-39882614D02*
X207525000Y-39739757D01*
X207525000Y-39739757D02*
X207667858Y-39668328D01*
X207667858Y-39668328D02*
X207882143Y-39668328D01*
X207882143Y-39668328D02*
X208025000Y-39739757D01*
X208739286Y-39882614D02*
X209239286Y-39882614D01*
X209453572Y-40668328D02*
X208739286Y-40668328D01*
X208739286Y-40668328D02*
X208739286Y-39168328D01*
X208739286Y-39168328D02*
X209453572Y-39168328D01*
X211167858Y-39311185D02*
X211239286Y-39239757D01*
X211239286Y-39239757D02*
X211382144Y-39168328D01*
X211382144Y-39168328D02*
X211739286Y-39168328D01*
X211739286Y-39168328D02*
X211882144Y-39239757D01*
X211882144Y-39239757D02*
X211953572Y-39311185D01*
X211953572Y-39311185D02*
X212025001Y-39454042D01*
X212025001Y-39454042D02*
X212025001Y-39596900D01*
X212025001Y-39596900D02*
X211953572Y-39811185D01*
X211953572Y-39811185D02*
X211096429Y-40668328D01*
X211096429Y-40668328D02*
X212025001Y-40668328D01*
X212953572Y-39168328D02*
X213096429Y-39168328D01*
X213096429Y-39168328D02*
X213239286Y-39239757D01*
X213239286Y-39239757D02*
X213310715Y-39311185D01*
X213310715Y-39311185D02*
X213382143Y-39454042D01*
X213382143Y-39454042D02*
X213453572Y-39739757D01*
X213453572Y-39739757D02*
X213453572Y-40096900D01*
X213453572Y-40096900D02*
X213382143Y-40382614D01*
X213382143Y-40382614D02*
X213310715Y-40525471D01*
X213310715Y-40525471D02*
X213239286Y-40596900D01*
X213239286Y-40596900D02*
X213096429Y-40668328D01*
X213096429Y-40668328D02*
X212953572Y-40668328D01*
X212953572Y-40668328D02*
X212810715Y-40596900D01*
X212810715Y-40596900D02*
X212739286Y-40525471D01*
X212739286Y-40525471D02*
X212667857Y-40382614D01*
X212667857Y-40382614D02*
X212596429Y-40096900D01*
X212596429Y-40096900D02*
X212596429Y-39739757D01*
X212596429Y-39739757D02*
X212667857Y-39454042D01*
X212667857Y-39454042D02*
X212739286Y-39311185D01*
X212739286Y-39311185D02*
X212810715Y-39239757D01*
X212810715Y-39239757D02*
X212953572Y-39168328D01*
X214025000Y-39311185D02*
X214096428Y-39239757D01*
X214096428Y-39239757D02*
X214239286Y-39168328D01*
X214239286Y-39168328D02*
X214596428Y-39168328D01*
X214596428Y-39168328D02*
X214739286Y-39239757D01*
X214739286Y-39239757D02*
X214810714Y-39311185D01*
X214810714Y-39311185D02*
X214882143Y-39454042D01*
X214882143Y-39454042D02*
X214882143Y-39596900D01*
X214882143Y-39596900D02*
X214810714Y-39811185D01*
X214810714Y-39811185D02*
X213953571Y-40668328D01*
X213953571Y-40668328D02*
X214882143Y-40668328D01*
X216167857Y-39668328D02*
X216167857Y-40668328D01*
X215810714Y-39096900D02*
X215453571Y-40168328D01*
X215453571Y-40168328D02*
X216382142Y-40168328D01*
D12*
X249609819Y-69716666D02*
X249133628Y-70049999D01*
X249609819Y-70288094D02*
X248609819Y-70288094D01*
X248609819Y-70288094D02*
X248609819Y-69907142D01*
X248609819Y-69907142D02*
X248657438Y-69811904D01*
X248657438Y-69811904D02*
X248705057Y-69764285D01*
X248705057Y-69764285D02*
X248800295Y-69716666D01*
X248800295Y-69716666D02*
X248943152Y-69716666D01*
X248943152Y-69716666D02*
X249038390Y-69764285D01*
X249038390Y-69764285D02*
X249086009Y-69811904D01*
X249086009Y-69811904D02*
X249133628Y-69907142D01*
X249133628Y-69907142D02*
X249133628Y-70288094D01*
X248705057Y-69335713D02*
X248657438Y-69288094D01*
X248657438Y-69288094D02*
X248609819Y-69192856D01*
X248609819Y-69192856D02*
X248609819Y-68954761D01*
X248609819Y-68954761D02*
X248657438Y-68859523D01*
X248657438Y-68859523D02*
X248705057Y-68811904D01*
X248705057Y-68811904D02*
X248800295Y-68764285D01*
X248800295Y-68764285D02*
X248895533Y-68764285D01*
X248895533Y-68764285D02*
X249038390Y-68811904D01*
X249038390Y-68811904D02*
X249609819Y-69383332D01*
X249609819Y-69383332D02*
X249609819Y-68764285D01*
D10*
X143742143Y-58144780D02*
X143699286Y-58192400D01*
X143699286Y-58192400D02*
X143570714Y-58240019D01*
X143570714Y-58240019D02*
X143485000Y-58240019D01*
X143485000Y-58240019D02*
X143356429Y-58192400D01*
X143356429Y-58192400D02*
X143270714Y-58097161D01*
X143270714Y-58097161D02*
X143227857Y-58001923D01*
X143227857Y-58001923D02*
X143185000Y-57811447D01*
X143185000Y-57811447D02*
X143185000Y-57668590D01*
X143185000Y-57668590D02*
X143227857Y-57478114D01*
X143227857Y-57478114D02*
X143270714Y-57382876D01*
X143270714Y-57382876D02*
X143356429Y-57287638D01*
X143356429Y-57287638D02*
X143485000Y-57240019D01*
X143485000Y-57240019D02*
X143570714Y-57240019D01*
X143570714Y-57240019D02*
X143699286Y-57287638D01*
X143699286Y-57287638D02*
X143742143Y-57335257D01*
X144299286Y-57240019D02*
X144470714Y-57240019D01*
X144470714Y-57240019D02*
X144556429Y-57287638D01*
X144556429Y-57287638D02*
X144642143Y-57382876D01*
X144642143Y-57382876D02*
X144685000Y-57573352D01*
X144685000Y-57573352D02*
X144685000Y-57906685D01*
X144685000Y-57906685D02*
X144642143Y-58097161D01*
X144642143Y-58097161D02*
X144556429Y-58192400D01*
X144556429Y-58192400D02*
X144470714Y-58240019D01*
X144470714Y-58240019D02*
X144299286Y-58240019D01*
X144299286Y-58240019D02*
X144213572Y-58192400D01*
X144213572Y-58192400D02*
X144127857Y-58097161D01*
X144127857Y-58097161D02*
X144085000Y-57906685D01*
X144085000Y-57906685D02*
X144085000Y-57573352D01*
X144085000Y-57573352D02*
X144127857Y-57382876D01*
X144127857Y-57382876D02*
X144213572Y-57287638D01*
X144213572Y-57287638D02*
X144299286Y-57240019D01*
X145070714Y-58240019D02*
X145070714Y-57240019D01*
X145070714Y-57240019D02*
X145585000Y-58240019D01*
X145585000Y-58240019D02*
X145585000Y-57240019D01*
X146485000Y-58240019D02*
X145970714Y-58240019D01*
X146227857Y-58240019D02*
X146227857Y-57240019D01*
X146227857Y-57240019D02*
X146142143Y-57382876D01*
X146142143Y-57382876D02*
X146056428Y-57478114D01*
X146056428Y-57478114D02*
X145970714Y-57525733D01*
X155151243Y-40602380D02*
X154651243Y-40602380D01*
X155151243Y-40364285D02*
X154651243Y-40364285D01*
X154651243Y-40364285D02*
X155151243Y-40078571D01*
X155151243Y-40078571D02*
X154651243Y-40078571D01*
X154651243Y-39911903D02*
X154651243Y-39626189D01*
X155151243Y-39769046D02*
X154651243Y-39769046D01*
X155127434Y-48245237D02*
X155151243Y-48173809D01*
X155151243Y-48173809D02*
X155151243Y-48054761D01*
X155151243Y-48054761D02*
X155127434Y-48007142D01*
X155127434Y-48007142D02*
X155103624Y-47983333D01*
X155103624Y-47983333D02*
X155056005Y-47959523D01*
X155056005Y-47959523D02*
X155008386Y-47959523D01*
X155008386Y-47959523D02*
X154960767Y-47983333D01*
X154960767Y-47983333D02*
X154936957Y-48007142D01*
X154936957Y-48007142D02*
X154913148Y-48054761D01*
X154913148Y-48054761D02*
X154889338Y-48149999D01*
X154889338Y-48149999D02*
X154865529Y-48197618D01*
X154865529Y-48197618D02*
X154841719Y-48221428D01*
X154841719Y-48221428D02*
X154794100Y-48245237D01*
X154794100Y-48245237D02*
X154746481Y-48245237D01*
X154746481Y-48245237D02*
X154698862Y-48221428D01*
X154698862Y-48221428D02*
X154675053Y-48197618D01*
X154675053Y-48197618D02*
X154651243Y-48149999D01*
X154651243Y-48149999D02*
X154651243Y-48030952D01*
X154651243Y-48030952D02*
X154675053Y-47959523D01*
X155103624Y-47459524D02*
X155127434Y-47483333D01*
X155127434Y-47483333D02*
X155151243Y-47554762D01*
X155151243Y-47554762D02*
X155151243Y-47602381D01*
X155151243Y-47602381D02*
X155127434Y-47673809D01*
X155127434Y-47673809D02*
X155079814Y-47721428D01*
X155079814Y-47721428D02*
X155032195Y-47745238D01*
X155032195Y-47745238D02*
X154936957Y-47769047D01*
X154936957Y-47769047D02*
X154865529Y-47769047D01*
X154865529Y-47769047D02*
X154770291Y-47745238D01*
X154770291Y-47745238D02*
X154722672Y-47721428D01*
X154722672Y-47721428D02*
X154675053Y-47673809D01*
X154675053Y-47673809D02*
X154651243Y-47602381D01*
X154651243Y-47602381D02*
X154651243Y-47554762D01*
X154651243Y-47554762D02*
X154675053Y-47483333D01*
X154675053Y-47483333D02*
X154698862Y-47459524D01*
X155151243Y-47007143D02*
X155151243Y-47245238D01*
X155151243Y-47245238D02*
X154651243Y-47245238D01*
X134853709Y-40447448D02*
X134615614Y-40614114D01*
X134853709Y-40733162D02*
X134353709Y-40733162D01*
X134353709Y-40733162D02*
X134353709Y-40542686D01*
X134353709Y-40542686D02*
X134377519Y-40495067D01*
X134377519Y-40495067D02*
X134401328Y-40471257D01*
X134401328Y-40471257D02*
X134448947Y-40447448D01*
X134448947Y-40447448D02*
X134520376Y-40447448D01*
X134520376Y-40447448D02*
X134567995Y-40471257D01*
X134567995Y-40471257D02*
X134591804Y-40495067D01*
X134591804Y-40495067D02*
X134615614Y-40542686D01*
X134615614Y-40542686D02*
X134615614Y-40733162D01*
X134829900Y-40256971D02*
X134853709Y-40185543D01*
X134853709Y-40185543D02*
X134853709Y-40066495D01*
X134853709Y-40066495D02*
X134829900Y-40018876D01*
X134829900Y-40018876D02*
X134806090Y-39995067D01*
X134806090Y-39995067D02*
X134758471Y-39971257D01*
X134758471Y-39971257D02*
X134710852Y-39971257D01*
X134710852Y-39971257D02*
X134663233Y-39995067D01*
X134663233Y-39995067D02*
X134639423Y-40018876D01*
X134639423Y-40018876D02*
X134615614Y-40066495D01*
X134615614Y-40066495D02*
X134591804Y-40161733D01*
X134591804Y-40161733D02*
X134567995Y-40209352D01*
X134567995Y-40209352D02*
X134544185Y-40233162D01*
X134544185Y-40233162D02*
X134496566Y-40256971D01*
X134496566Y-40256971D02*
X134448947Y-40256971D01*
X134448947Y-40256971D02*
X134401328Y-40233162D01*
X134401328Y-40233162D02*
X134377519Y-40209352D01*
X134377519Y-40209352D02*
X134353709Y-40161733D01*
X134353709Y-40161733D02*
X134353709Y-40042686D01*
X134353709Y-40042686D02*
X134377519Y-39971257D01*
X134353709Y-39828400D02*
X134353709Y-39542686D01*
X134853709Y-39685543D02*
X134353709Y-39685543D01*
X134829900Y-50859144D02*
X134853709Y-50787716D01*
X134853709Y-50787716D02*
X134853709Y-50668668D01*
X134853709Y-50668668D02*
X134829900Y-50621049D01*
X134829900Y-50621049D02*
X134806090Y-50597240D01*
X134806090Y-50597240D02*
X134758471Y-50573430D01*
X134758471Y-50573430D02*
X134710852Y-50573430D01*
X134710852Y-50573430D02*
X134663233Y-50597240D01*
X134663233Y-50597240D02*
X134639423Y-50621049D01*
X134639423Y-50621049D02*
X134615614Y-50668668D01*
X134615614Y-50668668D02*
X134591804Y-50763906D01*
X134591804Y-50763906D02*
X134567995Y-50811525D01*
X134567995Y-50811525D02*
X134544185Y-50835335D01*
X134544185Y-50835335D02*
X134496566Y-50859144D01*
X134496566Y-50859144D02*
X134448947Y-50859144D01*
X134448947Y-50859144D02*
X134401328Y-50835335D01*
X134401328Y-50835335D02*
X134377519Y-50811525D01*
X134377519Y-50811525D02*
X134353709Y-50763906D01*
X134353709Y-50763906D02*
X134353709Y-50644859D01*
X134353709Y-50644859D02*
X134377519Y-50573430D01*
X134853709Y-50359145D02*
X134353709Y-50359145D01*
X134353709Y-50359145D02*
X134353709Y-50240097D01*
X134353709Y-50240097D02*
X134377519Y-50168669D01*
X134377519Y-50168669D02*
X134425138Y-50121050D01*
X134425138Y-50121050D02*
X134472757Y-50097240D01*
X134472757Y-50097240D02*
X134567995Y-50073431D01*
X134567995Y-50073431D02*
X134639423Y-50073431D01*
X134639423Y-50073431D02*
X134734661Y-50097240D01*
X134734661Y-50097240D02*
X134782280Y-50121050D01*
X134782280Y-50121050D02*
X134829900Y-50168669D01*
X134829900Y-50168669D02*
X134853709Y-50240097D01*
X134853709Y-50240097D02*
X134853709Y-50359145D01*
X134853709Y-49859145D02*
X134353709Y-49859145D01*
X154651243Y-43072378D02*
X154651243Y-42786664D01*
X155151243Y-42929521D02*
X154651243Y-42929521D01*
X154651243Y-42667617D02*
X155151243Y-42334284D01*
X154651243Y-42334284D02*
X155151243Y-42667617D01*
X134377519Y-55830952D02*
X134353709Y-55878571D01*
X134353709Y-55878571D02*
X134353709Y-55950000D01*
X134353709Y-55950000D02*
X134377519Y-56021428D01*
X134377519Y-56021428D02*
X134425138Y-56069047D01*
X134425138Y-56069047D02*
X134472757Y-56092857D01*
X134472757Y-56092857D02*
X134567995Y-56116666D01*
X134567995Y-56116666D02*
X134639423Y-56116666D01*
X134639423Y-56116666D02*
X134734661Y-56092857D01*
X134734661Y-56092857D02*
X134782280Y-56069047D01*
X134782280Y-56069047D02*
X134829900Y-56021428D01*
X134829900Y-56021428D02*
X134853709Y-55950000D01*
X134853709Y-55950000D02*
X134853709Y-55902381D01*
X134853709Y-55902381D02*
X134829900Y-55830952D01*
X134829900Y-55830952D02*
X134806090Y-55807143D01*
X134806090Y-55807143D02*
X134639423Y-55807143D01*
X134639423Y-55807143D02*
X134639423Y-55902381D01*
X134853709Y-55592857D02*
X134353709Y-55592857D01*
X134353709Y-55592857D02*
X134853709Y-55307143D01*
X134853709Y-55307143D02*
X134353709Y-55307143D01*
X134853709Y-55069047D02*
X134353709Y-55069047D01*
X134353709Y-55069047D02*
X134353709Y-54949999D01*
X134353709Y-54949999D02*
X134377519Y-54878571D01*
X134377519Y-54878571D02*
X134425138Y-54830952D01*
X134425138Y-54830952D02*
X134472757Y-54807142D01*
X134472757Y-54807142D02*
X134567995Y-54783333D01*
X134567995Y-54783333D02*
X134639423Y-54783333D01*
X134639423Y-54783333D02*
X134734661Y-54807142D01*
X134734661Y-54807142D02*
X134782280Y-54830952D01*
X134782280Y-54830952D02*
X134829900Y-54878571D01*
X134829900Y-54878571D02*
X134853709Y-54949999D01*
X134853709Y-54949999D02*
X134853709Y-55069047D01*
X154675053Y-55645952D02*
X154651243Y-55693571D01*
X154651243Y-55693571D02*
X154651243Y-55765000D01*
X154651243Y-55765000D02*
X154675053Y-55836428D01*
X154675053Y-55836428D02*
X154722672Y-55884047D01*
X154722672Y-55884047D02*
X154770291Y-55907857D01*
X154770291Y-55907857D02*
X154865529Y-55931666D01*
X154865529Y-55931666D02*
X154936957Y-55931666D01*
X154936957Y-55931666D02*
X155032195Y-55907857D01*
X155032195Y-55907857D02*
X155079814Y-55884047D01*
X155079814Y-55884047D02*
X155127434Y-55836428D01*
X155127434Y-55836428D02*
X155151243Y-55765000D01*
X155151243Y-55765000D02*
X155151243Y-55717381D01*
X155151243Y-55717381D02*
X155127434Y-55645952D01*
X155127434Y-55645952D02*
X155103624Y-55622143D01*
X155103624Y-55622143D02*
X154936957Y-55622143D01*
X154936957Y-55622143D02*
X154936957Y-55717381D01*
X155151243Y-55407857D02*
X154651243Y-55407857D01*
X154651243Y-55407857D02*
X155151243Y-55122143D01*
X155151243Y-55122143D02*
X154651243Y-55122143D01*
X155151243Y-54884047D02*
X154651243Y-54884047D01*
X154651243Y-54884047D02*
X154651243Y-54764999D01*
X154651243Y-54764999D02*
X154675053Y-54693571D01*
X154675053Y-54693571D02*
X154722672Y-54645952D01*
X154722672Y-54645952D02*
X154770291Y-54622142D01*
X154770291Y-54622142D02*
X154865529Y-54598333D01*
X154865529Y-54598333D02*
X154936957Y-54598333D01*
X154936957Y-54598333D02*
X155032195Y-54622142D01*
X155032195Y-54622142D02*
X155079814Y-54645952D01*
X155079814Y-54645952D02*
X155127434Y-54693571D01*
X155127434Y-54693571D02*
X155151243Y-54764999D01*
X155151243Y-54764999D02*
X155151243Y-54884047D01*
X134710852Y-38165951D02*
X134710852Y-37927856D01*
X134853709Y-38213570D02*
X134353709Y-38046904D01*
X134353709Y-38046904D02*
X134853709Y-37880237D01*
X134853709Y-37713571D02*
X134353709Y-37713571D01*
X134353709Y-37713571D02*
X134853709Y-37427857D01*
X134853709Y-37427857D02*
X134353709Y-37427857D01*
X155151243Y-38314381D02*
X154651243Y-38314381D01*
X154651243Y-38314381D02*
X154651243Y-38123905D01*
X154651243Y-38123905D02*
X154675053Y-38076286D01*
X154675053Y-38076286D02*
X154698862Y-38052476D01*
X154698862Y-38052476D02*
X154746481Y-38028667D01*
X154746481Y-38028667D02*
X154817910Y-38028667D01*
X154817910Y-38028667D02*
X154865529Y-38052476D01*
X154865529Y-38052476D02*
X154889338Y-38076286D01*
X154889338Y-38076286D02*
X154913148Y-38123905D01*
X154913148Y-38123905D02*
X154913148Y-38314381D01*
X154651243Y-37862000D02*
X155151243Y-37742952D01*
X155151243Y-37742952D02*
X154794100Y-37647714D01*
X154794100Y-37647714D02*
X155151243Y-37552476D01*
X155151243Y-37552476D02*
X154651243Y-37433429D01*
X155151243Y-37242952D02*
X154651243Y-37242952D01*
X154651243Y-37242952D02*
X155008386Y-37076285D01*
X155008386Y-37076285D02*
X154651243Y-36909619D01*
X154651243Y-36909619D02*
X155151243Y-36909619D01*
X155127434Y-50957141D02*
X155151243Y-50885713D01*
X155151243Y-50885713D02*
X155151243Y-50766665D01*
X155151243Y-50766665D02*
X155127434Y-50719046D01*
X155127434Y-50719046D02*
X155103624Y-50695237D01*
X155103624Y-50695237D02*
X155056005Y-50671427D01*
X155056005Y-50671427D02*
X155008386Y-50671427D01*
X155008386Y-50671427D02*
X154960767Y-50695237D01*
X154960767Y-50695237D02*
X154936957Y-50719046D01*
X154936957Y-50719046D02*
X154913148Y-50766665D01*
X154913148Y-50766665D02*
X154889338Y-50861903D01*
X154889338Y-50861903D02*
X154865529Y-50909522D01*
X154865529Y-50909522D02*
X154841719Y-50933332D01*
X154841719Y-50933332D02*
X154794100Y-50957141D01*
X154794100Y-50957141D02*
X154746481Y-50957141D01*
X154746481Y-50957141D02*
X154698862Y-50933332D01*
X154698862Y-50933332D02*
X154675053Y-50909522D01*
X154675053Y-50909522D02*
X154651243Y-50861903D01*
X154651243Y-50861903D02*
X154651243Y-50742856D01*
X154651243Y-50742856D02*
X154675053Y-50671427D01*
X155151243Y-50457142D02*
X154651243Y-50457142D01*
X154651243Y-50457142D02*
X154651243Y-50338094D01*
X154651243Y-50338094D02*
X154675053Y-50266666D01*
X154675053Y-50266666D02*
X154722672Y-50219047D01*
X154722672Y-50219047D02*
X154770291Y-50195237D01*
X154770291Y-50195237D02*
X154865529Y-50171428D01*
X154865529Y-50171428D02*
X154936957Y-50171428D01*
X154936957Y-50171428D02*
X155032195Y-50195237D01*
X155032195Y-50195237D02*
X155079814Y-50219047D01*
X155079814Y-50219047D02*
X155127434Y-50266666D01*
X155127434Y-50266666D02*
X155151243Y-50338094D01*
X155151243Y-50338094D02*
X155151243Y-50457142D01*
X155008386Y-49980951D02*
X155008386Y-49742856D01*
X155151243Y-50028570D02*
X154651243Y-49861904D01*
X154651243Y-49861904D02*
X155151243Y-49695237D01*
X134829900Y-45792856D02*
X134853709Y-45721428D01*
X134853709Y-45721428D02*
X134853709Y-45602380D01*
X134853709Y-45602380D02*
X134829900Y-45554761D01*
X134829900Y-45554761D02*
X134806090Y-45530952D01*
X134806090Y-45530952D02*
X134758471Y-45507142D01*
X134758471Y-45507142D02*
X134710852Y-45507142D01*
X134710852Y-45507142D02*
X134663233Y-45530952D01*
X134663233Y-45530952D02*
X134639423Y-45554761D01*
X134639423Y-45554761D02*
X134615614Y-45602380D01*
X134615614Y-45602380D02*
X134591804Y-45697618D01*
X134591804Y-45697618D02*
X134567995Y-45745237D01*
X134567995Y-45745237D02*
X134544185Y-45769047D01*
X134544185Y-45769047D02*
X134496566Y-45792856D01*
X134496566Y-45792856D02*
X134448947Y-45792856D01*
X134448947Y-45792856D02*
X134401328Y-45769047D01*
X134401328Y-45769047D02*
X134377519Y-45745237D01*
X134377519Y-45745237D02*
X134353709Y-45697618D01*
X134353709Y-45697618D02*
X134353709Y-45578571D01*
X134353709Y-45578571D02*
X134377519Y-45507142D01*
X134806090Y-45007143D02*
X134829900Y-45030952D01*
X134829900Y-45030952D02*
X134853709Y-45102381D01*
X134853709Y-45102381D02*
X134853709Y-45150000D01*
X134853709Y-45150000D02*
X134829900Y-45221428D01*
X134829900Y-45221428D02*
X134782280Y-45269047D01*
X134782280Y-45269047D02*
X134734661Y-45292857D01*
X134734661Y-45292857D02*
X134639423Y-45316666D01*
X134639423Y-45316666D02*
X134567995Y-45316666D01*
X134567995Y-45316666D02*
X134472757Y-45292857D01*
X134472757Y-45292857D02*
X134425138Y-45269047D01*
X134425138Y-45269047D02*
X134377519Y-45221428D01*
X134377519Y-45221428D02*
X134353709Y-45150000D01*
X134353709Y-45150000D02*
X134353709Y-45102381D01*
X134353709Y-45102381D02*
X134377519Y-45030952D01*
X134377519Y-45030952D02*
X134401328Y-45007143D01*
X134853709Y-44792857D02*
X134353709Y-44792857D01*
X134853709Y-44507143D02*
X134567995Y-44721428D01*
X134353709Y-44507143D02*
X134639423Y-44792857D01*
X134806090Y-42733333D02*
X134829900Y-42757142D01*
X134829900Y-42757142D02*
X134853709Y-42828571D01*
X134853709Y-42828571D02*
X134853709Y-42876190D01*
X134853709Y-42876190D02*
X134829900Y-42947618D01*
X134829900Y-42947618D02*
X134782280Y-42995237D01*
X134782280Y-42995237D02*
X134734661Y-43019047D01*
X134734661Y-43019047D02*
X134639423Y-43042856D01*
X134639423Y-43042856D02*
X134567995Y-43042856D01*
X134567995Y-43042856D02*
X134472757Y-43019047D01*
X134472757Y-43019047D02*
X134425138Y-42995237D01*
X134425138Y-42995237D02*
X134377519Y-42947618D01*
X134377519Y-42947618D02*
X134353709Y-42876190D01*
X134353709Y-42876190D02*
X134353709Y-42828571D01*
X134353709Y-42828571D02*
X134377519Y-42757142D01*
X134377519Y-42757142D02*
X134401328Y-42733333D01*
X134829900Y-42542856D02*
X134853709Y-42471428D01*
X134853709Y-42471428D02*
X134853709Y-42352380D01*
X134853709Y-42352380D02*
X134829900Y-42304761D01*
X134829900Y-42304761D02*
X134806090Y-42280952D01*
X134806090Y-42280952D02*
X134758471Y-42257142D01*
X134758471Y-42257142D02*
X134710852Y-42257142D01*
X134710852Y-42257142D02*
X134663233Y-42280952D01*
X134663233Y-42280952D02*
X134639423Y-42304761D01*
X134639423Y-42304761D02*
X134615614Y-42352380D01*
X134615614Y-42352380D02*
X134591804Y-42447618D01*
X134591804Y-42447618D02*
X134567995Y-42495237D01*
X134567995Y-42495237D02*
X134544185Y-42519047D01*
X134544185Y-42519047D02*
X134496566Y-42542856D01*
X134496566Y-42542856D02*
X134448947Y-42542856D01*
X134448947Y-42542856D02*
X134401328Y-42519047D01*
X134401328Y-42519047D02*
X134377519Y-42495237D01*
X134377519Y-42495237D02*
X134353709Y-42447618D01*
X134353709Y-42447618D02*
X134353709Y-42328571D01*
X134353709Y-42328571D02*
X134377519Y-42257142D01*
X134353709Y-53497783D02*
X134353709Y-53188259D01*
X134353709Y-53188259D02*
X134544185Y-53354926D01*
X134544185Y-53354926D02*
X134544185Y-53283497D01*
X134544185Y-53283497D02*
X134567995Y-53235878D01*
X134567995Y-53235878D02*
X134591804Y-53212069D01*
X134591804Y-53212069D02*
X134639423Y-53188259D01*
X134639423Y-53188259D02*
X134758471Y-53188259D01*
X134758471Y-53188259D02*
X134806090Y-53212069D01*
X134806090Y-53212069D02*
X134829900Y-53235878D01*
X134829900Y-53235878D02*
X134853709Y-53283497D01*
X134853709Y-53283497D02*
X134853709Y-53426354D01*
X134853709Y-53426354D02*
X134829900Y-53473973D01*
X134829900Y-53473973D02*
X134806090Y-53497783D01*
X134353709Y-53045402D02*
X134853709Y-52878736D01*
X134853709Y-52878736D02*
X134353709Y-52712069D01*
X134353709Y-52593022D02*
X134353709Y-52283498D01*
X134353709Y-52283498D02*
X134544185Y-52450165D01*
X134544185Y-52450165D02*
X134544185Y-52378736D01*
X134544185Y-52378736D02*
X134567995Y-52331117D01*
X134567995Y-52331117D02*
X134591804Y-52307308D01*
X134591804Y-52307308D02*
X134639423Y-52283498D01*
X134639423Y-52283498D02*
X134758471Y-52283498D01*
X134758471Y-52283498D02*
X134806090Y-52307308D01*
X134806090Y-52307308D02*
X134829900Y-52331117D01*
X134829900Y-52331117D02*
X134853709Y-52378736D01*
X134853709Y-52378736D02*
X134853709Y-52521593D01*
X134853709Y-52521593D02*
X134829900Y-52569212D01*
X134829900Y-52569212D02*
X134806090Y-52593022D01*
X155151243Y-45233333D02*
X154913148Y-45399999D01*
X155151243Y-45519047D02*
X154651243Y-45519047D01*
X154651243Y-45519047D02*
X154651243Y-45328571D01*
X154651243Y-45328571D02*
X154675053Y-45280952D01*
X154675053Y-45280952D02*
X154698862Y-45257142D01*
X154698862Y-45257142D02*
X154746481Y-45233333D01*
X154746481Y-45233333D02*
X154817910Y-45233333D01*
X154817910Y-45233333D02*
X154865529Y-45257142D01*
X154865529Y-45257142D02*
X154889338Y-45280952D01*
X154889338Y-45280952D02*
X154913148Y-45328571D01*
X154913148Y-45328571D02*
X154913148Y-45519047D01*
X154651243Y-45066666D02*
X155151243Y-44733333D01*
X154651243Y-44733333D02*
X155151243Y-45066666D01*
X134829900Y-48410982D02*
X134853709Y-48339554D01*
X134853709Y-48339554D02*
X134853709Y-48220506D01*
X134853709Y-48220506D02*
X134829900Y-48172887D01*
X134829900Y-48172887D02*
X134806090Y-48149078D01*
X134806090Y-48149078D02*
X134758471Y-48125268D01*
X134758471Y-48125268D02*
X134710852Y-48125268D01*
X134710852Y-48125268D02*
X134663233Y-48149078D01*
X134663233Y-48149078D02*
X134639423Y-48172887D01*
X134639423Y-48172887D02*
X134615614Y-48220506D01*
X134615614Y-48220506D02*
X134591804Y-48315744D01*
X134591804Y-48315744D02*
X134567995Y-48363363D01*
X134567995Y-48363363D02*
X134544185Y-48387173D01*
X134544185Y-48387173D02*
X134496566Y-48410982D01*
X134496566Y-48410982D02*
X134448947Y-48410982D01*
X134448947Y-48410982D02*
X134401328Y-48387173D01*
X134401328Y-48387173D02*
X134377519Y-48363363D01*
X134377519Y-48363363D02*
X134353709Y-48315744D01*
X134353709Y-48315744D02*
X134353709Y-48196697D01*
X134353709Y-48196697D02*
X134377519Y-48125268D01*
X134853709Y-47910983D02*
X134353709Y-47910983D01*
X134353709Y-47910983D02*
X134353709Y-47791935D01*
X134353709Y-47791935D02*
X134377519Y-47720507D01*
X134377519Y-47720507D02*
X134425138Y-47672888D01*
X134425138Y-47672888D02*
X134472757Y-47649078D01*
X134472757Y-47649078D02*
X134567995Y-47625269D01*
X134567995Y-47625269D02*
X134639423Y-47625269D01*
X134639423Y-47625269D02*
X134734661Y-47649078D01*
X134734661Y-47649078D02*
X134782280Y-47672888D01*
X134782280Y-47672888D02*
X134829900Y-47720507D01*
X134829900Y-47720507D02*
X134853709Y-47791935D01*
X134853709Y-47791935D02*
X134853709Y-47910983D01*
X134353709Y-47315745D02*
X134353709Y-47220507D01*
X134353709Y-47220507D02*
X134377519Y-47172888D01*
X134377519Y-47172888D02*
X134425138Y-47125269D01*
X134425138Y-47125269D02*
X134520376Y-47101459D01*
X134520376Y-47101459D02*
X134687042Y-47101459D01*
X134687042Y-47101459D02*
X134782280Y-47125269D01*
X134782280Y-47125269D02*
X134829900Y-47172888D01*
X134829900Y-47172888D02*
X134853709Y-47220507D01*
X134853709Y-47220507D02*
X134853709Y-47315745D01*
X134853709Y-47315745D02*
X134829900Y-47363364D01*
X134829900Y-47363364D02*
X134782280Y-47410983D01*
X134782280Y-47410983D02*
X134687042Y-47434792D01*
X134687042Y-47434792D02*
X134520376Y-47434792D01*
X134520376Y-47434792D02*
X134425138Y-47410983D01*
X134425138Y-47410983D02*
X134377519Y-47363364D01*
X134377519Y-47363364D02*
X134353709Y-47315745D01*
X154651243Y-52945237D02*
X154651243Y-53183332D01*
X154651243Y-53183332D02*
X154889338Y-53207141D01*
X154889338Y-53207141D02*
X154865529Y-53183332D01*
X154865529Y-53183332D02*
X154841719Y-53135713D01*
X154841719Y-53135713D02*
X154841719Y-53016665D01*
X154841719Y-53016665D02*
X154865529Y-52969046D01*
X154865529Y-52969046D02*
X154889338Y-52945237D01*
X154889338Y-52945237D02*
X154936957Y-52921427D01*
X154936957Y-52921427D02*
X155056005Y-52921427D01*
X155056005Y-52921427D02*
X155103624Y-52945237D01*
X155103624Y-52945237D02*
X155127434Y-52969046D01*
X155127434Y-52969046D02*
X155151243Y-53016665D01*
X155151243Y-53016665D02*
X155151243Y-53135713D01*
X155151243Y-53135713D02*
X155127434Y-53183332D01*
X155127434Y-53183332D02*
X155103624Y-53207141D01*
X154651243Y-52778570D02*
X155151243Y-52611904D01*
X155151243Y-52611904D02*
X154651243Y-52445237D01*
D12*
X264739819Y-95208094D02*
X263739819Y-95208094D01*
X263739819Y-95208094D02*
X263739819Y-94969999D01*
X263739819Y-94969999D02*
X263787438Y-94827142D01*
X263787438Y-94827142D02*
X263882676Y-94731904D01*
X263882676Y-94731904D02*
X263977914Y-94684285D01*
X263977914Y-94684285D02*
X264168390Y-94636666D01*
X264168390Y-94636666D02*
X264311247Y-94636666D01*
X264311247Y-94636666D02*
X264501723Y-94684285D01*
X264501723Y-94684285D02*
X264596961Y-94731904D01*
X264596961Y-94731904D02*
X264692200Y-94827142D01*
X264692200Y-94827142D02*
X264739819Y-94969999D01*
X264739819Y-94969999D02*
X264739819Y-95208094D01*
X263739819Y-93731904D02*
X263739819Y-94208094D01*
X263739819Y-94208094D02*
X264216009Y-94255713D01*
X264216009Y-94255713D02*
X264168390Y-94208094D01*
X264168390Y-94208094D02*
X264120771Y-94112856D01*
X264120771Y-94112856D02*
X264120771Y-93874761D01*
X264120771Y-93874761D02*
X264168390Y-93779523D01*
X264168390Y-93779523D02*
X264216009Y-93731904D01*
X264216009Y-93731904D02*
X264311247Y-93684285D01*
X264311247Y-93684285D02*
X264549342Y-93684285D01*
X264549342Y-93684285D02*
X264644580Y-93731904D01*
X264644580Y-93731904D02*
X264692200Y-93779523D01*
X264692200Y-93779523D02*
X264739819Y-93874761D01*
X264739819Y-93874761D02*
X264739819Y-94112856D01*
X264739819Y-94112856D02*
X264692200Y-94208094D01*
X264692200Y-94208094D02*
X264644580Y-94255713D01*
X184059819Y-52878094D02*
X183059819Y-52878094D01*
X183059819Y-52878094D02*
X183059819Y-52639999D01*
X183059819Y-52639999D02*
X183107438Y-52497142D01*
X183107438Y-52497142D02*
X183202676Y-52401904D01*
X183202676Y-52401904D02*
X183297914Y-52354285D01*
X183297914Y-52354285D02*
X183488390Y-52306666D01*
X183488390Y-52306666D02*
X183631247Y-52306666D01*
X183631247Y-52306666D02*
X183821723Y-52354285D01*
X183821723Y-52354285D02*
X183916961Y-52401904D01*
X183916961Y-52401904D02*
X184012200Y-52497142D01*
X184012200Y-52497142D02*
X184059819Y-52639999D01*
X184059819Y-52639999D02*
X184059819Y-52878094D01*
X183155057Y-51925713D02*
X183107438Y-51878094D01*
X183107438Y-51878094D02*
X183059819Y-51782856D01*
X183059819Y-51782856D02*
X183059819Y-51544761D01*
X183059819Y-51544761D02*
X183107438Y-51449523D01*
X183107438Y-51449523D02*
X183155057Y-51401904D01*
X183155057Y-51401904D02*
X183250295Y-51354285D01*
X183250295Y-51354285D02*
X183345533Y-51354285D01*
X183345533Y-51354285D02*
X183488390Y-51401904D01*
X183488390Y-51401904D02*
X184059819Y-51973332D01*
X184059819Y-51973332D02*
X184059819Y-51354285D01*
X184379819Y-56211904D02*
X183379819Y-56211904D01*
X184379819Y-55640476D02*
X183808390Y-56069047D01*
X183379819Y-55640476D02*
X183951247Y-56211904D01*
X180299819Y-52878094D02*
X179299819Y-52878094D01*
X179299819Y-52878094D02*
X179299819Y-52639999D01*
X179299819Y-52639999D02*
X179347438Y-52497142D01*
X179347438Y-52497142D02*
X179442676Y-52401904D01*
X179442676Y-52401904D02*
X179537914Y-52354285D01*
X179537914Y-52354285D02*
X179728390Y-52306666D01*
X179728390Y-52306666D02*
X179871247Y-52306666D01*
X179871247Y-52306666D02*
X180061723Y-52354285D01*
X180061723Y-52354285D02*
X180156961Y-52401904D01*
X180156961Y-52401904D02*
X180252200Y-52497142D01*
X180252200Y-52497142D02*
X180299819Y-52639999D01*
X180299819Y-52639999D02*
X180299819Y-52878094D01*
X180299819Y-51354285D02*
X180299819Y-51925713D01*
X180299819Y-51639999D02*
X179299819Y-51639999D01*
X179299819Y-51639999D02*
X179442676Y-51735237D01*
X179442676Y-51735237D02*
X179537914Y-51830475D01*
X179537914Y-51830475D02*
X179585533Y-51925713D01*
X179979819Y-48591904D02*
X178979819Y-48591904D01*
X179979819Y-48020476D02*
X179408390Y-48449047D01*
X178979819Y-48020476D02*
X179551247Y-48591904D01*
X240329819Y-79716666D02*
X239853628Y-80049999D01*
X240329819Y-80288094D02*
X239329819Y-80288094D01*
X239329819Y-80288094D02*
X239329819Y-79907142D01*
X239329819Y-79907142D02*
X239377438Y-79811904D01*
X239377438Y-79811904D02*
X239425057Y-79764285D01*
X239425057Y-79764285D02*
X239520295Y-79716666D01*
X239520295Y-79716666D02*
X239663152Y-79716666D01*
X239663152Y-79716666D02*
X239758390Y-79764285D01*
X239758390Y-79764285D02*
X239806009Y-79811904D01*
X239806009Y-79811904D02*
X239853628Y-79907142D01*
X239853628Y-79907142D02*
X239853628Y-80288094D01*
X239758390Y-79145237D02*
X239710771Y-79240475D01*
X239710771Y-79240475D02*
X239663152Y-79288094D01*
X239663152Y-79288094D02*
X239567914Y-79335713D01*
X239567914Y-79335713D02*
X239520295Y-79335713D01*
X239520295Y-79335713D02*
X239425057Y-79288094D01*
X239425057Y-79288094D02*
X239377438Y-79240475D01*
X239377438Y-79240475D02*
X239329819Y-79145237D01*
X239329819Y-79145237D02*
X239329819Y-78954761D01*
X239329819Y-78954761D02*
X239377438Y-78859523D01*
X239377438Y-78859523D02*
X239425057Y-78811904D01*
X239425057Y-78811904D02*
X239520295Y-78764285D01*
X239520295Y-78764285D02*
X239567914Y-78764285D01*
X239567914Y-78764285D02*
X239663152Y-78811904D01*
X239663152Y-78811904D02*
X239710771Y-78859523D01*
X239710771Y-78859523D02*
X239758390Y-78954761D01*
X239758390Y-78954761D02*
X239758390Y-79145237D01*
X239758390Y-79145237D02*
X239806009Y-79240475D01*
X239806009Y-79240475D02*
X239853628Y-79288094D01*
X239853628Y-79288094D02*
X239948866Y-79335713D01*
X239948866Y-79335713D02*
X240139342Y-79335713D01*
X240139342Y-79335713D02*
X240234580Y-79288094D01*
X240234580Y-79288094D02*
X240282200Y-79240475D01*
X240282200Y-79240475D02*
X240329819Y-79145237D01*
X240329819Y-79145237D02*
X240329819Y-78954761D01*
X240329819Y-78954761D02*
X240282200Y-78859523D01*
X240282200Y-78859523D02*
X240234580Y-78811904D01*
X240234580Y-78811904D02*
X240139342Y-78764285D01*
X240139342Y-78764285D02*
X239948866Y-78764285D01*
X239948866Y-78764285D02*
X239853628Y-78811904D01*
X239853628Y-78811904D02*
X239806009Y-78859523D01*
X239806009Y-78859523D02*
X239758390Y-78954761D01*
X246089819Y-66716666D02*
X245613628Y-67049999D01*
X246089819Y-67288094D02*
X245089819Y-67288094D01*
X245089819Y-67288094D02*
X245089819Y-66907142D01*
X245089819Y-66907142D02*
X245137438Y-66811904D01*
X245137438Y-66811904D02*
X245185057Y-66764285D01*
X245185057Y-66764285D02*
X245280295Y-66716666D01*
X245280295Y-66716666D02*
X245423152Y-66716666D01*
X245423152Y-66716666D02*
X245518390Y-66764285D01*
X245518390Y-66764285D02*
X245566009Y-66811904D01*
X245566009Y-66811904D02*
X245613628Y-66907142D01*
X245613628Y-66907142D02*
X245613628Y-67288094D01*
X245089819Y-65811904D02*
X245089819Y-66288094D01*
X245089819Y-66288094D02*
X245566009Y-66335713D01*
X245566009Y-66335713D02*
X245518390Y-66288094D01*
X245518390Y-66288094D02*
X245470771Y-66192856D01*
X245470771Y-66192856D02*
X245470771Y-65954761D01*
X245470771Y-65954761D02*
X245518390Y-65859523D01*
X245518390Y-65859523D02*
X245566009Y-65811904D01*
X245566009Y-65811904D02*
X245661247Y-65764285D01*
X245661247Y-65764285D02*
X245899342Y-65764285D01*
X245899342Y-65764285D02*
X245994580Y-65811904D01*
X245994580Y-65811904D02*
X246042200Y-65859523D01*
X246042200Y-65859523D02*
X246089819Y-65954761D01*
X246089819Y-65954761D02*
X246089819Y-66192856D01*
X246089819Y-66192856D02*
X246042200Y-66288094D01*
X246042200Y-66288094D02*
X245994580Y-66335713D01*
X206058333Y-86059580D02*
X206010714Y-86107200D01*
X206010714Y-86107200D02*
X205867857Y-86154819D01*
X205867857Y-86154819D02*
X205772619Y-86154819D01*
X205772619Y-86154819D02*
X205629762Y-86107200D01*
X205629762Y-86107200D02*
X205534524Y-86011961D01*
X205534524Y-86011961D02*
X205486905Y-85916723D01*
X205486905Y-85916723D02*
X205439286Y-85726247D01*
X205439286Y-85726247D02*
X205439286Y-85583390D01*
X205439286Y-85583390D02*
X205486905Y-85392914D01*
X205486905Y-85392914D02*
X205534524Y-85297676D01*
X205534524Y-85297676D02*
X205629762Y-85202438D01*
X205629762Y-85202438D02*
X205772619Y-85154819D01*
X205772619Y-85154819D02*
X205867857Y-85154819D01*
X205867857Y-85154819D02*
X206010714Y-85202438D01*
X206010714Y-85202438D02*
X206058333Y-85250057D01*
X206915476Y-85488152D02*
X206915476Y-86154819D01*
X206677381Y-85107200D02*
X206439286Y-85821485D01*
X206439286Y-85821485D02*
X207058333Y-85821485D01*
X123584819Y-69588333D02*
X124299104Y-69588333D01*
X124299104Y-69588333D02*
X124441961Y-69635952D01*
X124441961Y-69635952D02*
X124537200Y-69731190D01*
X124537200Y-69731190D02*
X124584819Y-69874047D01*
X124584819Y-69874047D02*
X124584819Y-69969285D01*
X123918152Y-68683571D02*
X124584819Y-68683571D01*
X123537200Y-68921666D02*
X124251485Y-69159761D01*
X124251485Y-69159761D02*
X124251485Y-68540714D01*
X259489819Y-85792857D02*
X259013628Y-86126190D01*
X259489819Y-86364285D02*
X258489819Y-86364285D01*
X258489819Y-86364285D02*
X258489819Y-85983333D01*
X258489819Y-85983333D02*
X258537438Y-85888095D01*
X258537438Y-85888095D02*
X258585057Y-85840476D01*
X258585057Y-85840476D02*
X258680295Y-85792857D01*
X258680295Y-85792857D02*
X258823152Y-85792857D01*
X258823152Y-85792857D02*
X258918390Y-85840476D01*
X258918390Y-85840476D02*
X258966009Y-85888095D01*
X258966009Y-85888095D02*
X259013628Y-85983333D01*
X259013628Y-85983333D02*
X259013628Y-86364285D01*
X259489819Y-84840476D02*
X259489819Y-85411904D01*
X259489819Y-85126190D02*
X258489819Y-85126190D01*
X258489819Y-85126190D02*
X258632676Y-85221428D01*
X258632676Y-85221428D02*
X258727914Y-85316666D01*
X258727914Y-85316666D02*
X258775533Y-85411904D01*
X258489819Y-84507142D02*
X258489819Y-83888095D01*
X258489819Y-83888095D02*
X258870771Y-84221428D01*
X258870771Y-84221428D02*
X258870771Y-84078571D01*
X258870771Y-84078571D02*
X258918390Y-83983333D01*
X258918390Y-83983333D02*
X258966009Y-83935714D01*
X258966009Y-83935714D02*
X259061247Y-83888095D01*
X259061247Y-83888095D02*
X259299342Y-83888095D01*
X259299342Y-83888095D02*
X259394580Y-83935714D01*
X259394580Y-83935714D02*
X259442200Y-83983333D01*
X259442200Y-83983333D02*
X259489819Y-84078571D01*
X259489819Y-84078571D02*
X259489819Y-84364285D01*
X259489819Y-84364285D02*
X259442200Y-84459523D01*
X259442200Y-84459523D02*
X259394580Y-84507142D01*
X138678333Y-80774819D02*
X138345000Y-80298628D01*
X138106905Y-80774819D02*
X138106905Y-79774819D01*
X138106905Y-79774819D02*
X138487857Y-79774819D01*
X138487857Y-79774819D02*
X138583095Y-79822438D01*
X138583095Y-79822438D02*
X138630714Y-79870057D01*
X138630714Y-79870057D02*
X138678333Y-79965295D01*
X138678333Y-79965295D02*
X138678333Y-80108152D01*
X138678333Y-80108152D02*
X138630714Y-80203390D01*
X138630714Y-80203390D02*
X138583095Y-80251009D01*
X138583095Y-80251009D02*
X138487857Y-80298628D01*
X138487857Y-80298628D02*
X138106905Y-80298628D01*
X139011667Y-79774819D02*
X139630714Y-79774819D01*
X139630714Y-79774819D02*
X139297381Y-80155771D01*
X139297381Y-80155771D02*
X139440238Y-80155771D01*
X139440238Y-80155771D02*
X139535476Y-80203390D01*
X139535476Y-80203390D02*
X139583095Y-80251009D01*
X139583095Y-80251009D02*
X139630714Y-80346247D01*
X139630714Y-80346247D02*
X139630714Y-80584342D01*
X139630714Y-80584342D02*
X139583095Y-80679580D01*
X139583095Y-80679580D02*
X139535476Y-80727200D01*
X139535476Y-80727200D02*
X139440238Y-80774819D01*
X139440238Y-80774819D02*
X139154524Y-80774819D01*
X139154524Y-80774819D02*
X139059286Y-80727200D01*
X139059286Y-80727200D02*
X139011667Y-80679580D01*
X172571666Y-136854819D02*
X172571666Y-137569104D01*
X172571666Y-137569104D02*
X172524047Y-137711961D01*
X172524047Y-137711961D02*
X172428809Y-137807200D01*
X172428809Y-137807200D02*
X172285952Y-137854819D01*
X172285952Y-137854819D02*
X172190714Y-137854819D01*
X173571666Y-137854819D02*
X173000238Y-137854819D01*
X173285952Y-137854819D02*
X173285952Y-136854819D01*
X173285952Y-136854819D02*
X173190714Y-136997676D01*
X173190714Y-136997676D02*
X173095476Y-137092914D01*
X173095476Y-137092914D02*
X173000238Y-137140533D01*
X253289819Y-85592857D02*
X252813628Y-85926190D01*
X253289819Y-86164285D02*
X252289819Y-86164285D01*
X252289819Y-86164285D02*
X252289819Y-85783333D01*
X252289819Y-85783333D02*
X252337438Y-85688095D01*
X252337438Y-85688095D02*
X252385057Y-85640476D01*
X252385057Y-85640476D02*
X252480295Y-85592857D01*
X252480295Y-85592857D02*
X252623152Y-85592857D01*
X252623152Y-85592857D02*
X252718390Y-85640476D01*
X252718390Y-85640476D02*
X252766009Y-85688095D01*
X252766009Y-85688095D02*
X252813628Y-85783333D01*
X252813628Y-85783333D02*
X252813628Y-86164285D01*
X253289819Y-84640476D02*
X253289819Y-85211904D01*
X253289819Y-84926190D02*
X252289819Y-84926190D01*
X252289819Y-84926190D02*
X252432676Y-85021428D01*
X252432676Y-85021428D02*
X252527914Y-85116666D01*
X252527914Y-85116666D02*
X252575533Y-85211904D01*
X252385057Y-84259523D02*
X252337438Y-84211904D01*
X252337438Y-84211904D02*
X252289819Y-84116666D01*
X252289819Y-84116666D02*
X252289819Y-83878571D01*
X252289819Y-83878571D02*
X252337438Y-83783333D01*
X252337438Y-83783333D02*
X252385057Y-83735714D01*
X252385057Y-83735714D02*
X252480295Y-83688095D01*
X252480295Y-83688095D02*
X252575533Y-83688095D01*
X252575533Y-83688095D02*
X252718390Y-83735714D01*
X252718390Y-83735714D02*
X253289819Y-84307142D01*
X253289819Y-84307142D02*
X253289819Y-83688095D01*
D13*
X251158332Y-33140200D02*
X251015475Y-33092580D01*
X251015475Y-33092580D02*
X250777380Y-33092580D01*
X250777380Y-33092580D02*
X250682142Y-33140200D01*
X250682142Y-33140200D02*
X250634523Y-33187819D01*
X250634523Y-33187819D02*
X250586904Y-33283057D01*
X250586904Y-33283057D02*
X250586904Y-33378295D01*
X250586904Y-33378295D02*
X250634523Y-33473533D01*
X250634523Y-33473533D02*
X250682142Y-33521152D01*
X250682142Y-33521152D02*
X250777380Y-33568771D01*
X250777380Y-33568771D02*
X250967856Y-33616390D01*
X250967856Y-33616390D02*
X251063094Y-33664009D01*
X251063094Y-33664009D02*
X251110713Y-33711628D01*
X251110713Y-33711628D02*
X251158332Y-33806866D01*
X251158332Y-33806866D02*
X251158332Y-33902104D01*
X251158332Y-33902104D02*
X251110713Y-33997342D01*
X251110713Y-33997342D02*
X251063094Y-34044961D01*
X251063094Y-34044961D02*
X250967856Y-34092580D01*
X250967856Y-34092580D02*
X250729761Y-34092580D01*
X250729761Y-34092580D02*
X250586904Y-34044961D01*
X250253570Y-34092580D02*
X250015475Y-33092580D01*
X250015475Y-33092580D02*
X249824999Y-33806866D01*
X249824999Y-33806866D02*
X249634523Y-33092580D01*
X249634523Y-33092580D02*
X249396428Y-34092580D01*
X248539285Y-34092580D02*
X249015475Y-34092580D01*
X249015475Y-34092580D02*
X249063094Y-33616390D01*
X249063094Y-33616390D02*
X249015475Y-33664009D01*
X249015475Y-33664009D02*
X248920237Y-33711628D01*
X248920237Y-33711628D02*
X248682142Y-33711628D01*
X248682142Y-33711628D02*
X248586904Y-33664009D01*
X248586904Y-33664009D02*
X248539285Y-33616390D01*
X248539285Y-33616390D02*
X248491666Y-33521152D01*
X248491666Y-33521152D02*
X248491666Y-33283057D01*
X248491666Y-33283057D02*
X248539285Y-33187819D01*
X248539285Y-33187819D02*
X248586904Y-33140200D01*
X248586904Y-33140200D02*
X248682142Y-33092580D01*
X248682142Y-33092580D02*
X248920237Y-33092580D01*
X248920237Y-33092580D02*
X249015475Y-33140200D01*
X249015475Y-33140200D02*
X249063094Y-33187819D01*
D12*
X274571666Y-60994819D02*
X274571666Y-61709104D01*
X274571666Y-61709104D02*
X274524047Y-61851961D01*
X274524047Y-61851961D02*
X274428809Y-61947200D01*
X274428809Y-61947200D02*
X274285952Y-61994819D01*
X274285952Y-61994819D02*
X274190714Y-61994819D01*
X275190714Y-61423390D02*
X275095476Y-61375771D01*
X275095476Y-61375771D02*
X275047857Y-61328152D01*
X275047857Y-61328152D02*
X275000238Y-61232914D01*
X275000238Y-61232914D02*
X275000238Y-61185295D01*
X275000238Y-61185295D02*
X275047857Y-61090057D01*
X275047857Y-61090057D02*
X275095476Y-61042438D01*
X275095476Y-61042438D02*
X275190714Y-60994819D01*
X275190714Y-60994819D02*
X275381190Y-60994819D01*
X275381190Y-60994819D02*
X275476428Y-61042438D01*
X275476428Y-61042438D02*
X275524047Y-61090057D01*
X275524047Y-61090057D02*
X275571666Y-61185295D01*
X275571666Y-61185295D02*
X275571666Y-61232914D01*
X275571666Y-61232914D02*
X275524047Y-61328152D01*
X275524047Y-61328152D02*
X275476428Y-61375771D01*
X275476428Y-61375771D02*
X275381190Y-61423390D01*
X275381190Y-61423390D02*
X275190714Y-61423390D01*
X275190714Y-61423390D02*
X275095476Y-61471009D01*
X275095476Y-61471009D02*
X275047857Y-61518628D01*
X275047857Y-61518628D02*
X275000238Y-61613866D01*
X275000238Y-61613866D02*
X275000238Y-61804342D01*
X275000238Y-61804342D02*
X275047857Y-61899580D01*
X275047857Y-61899580D02*
X275095476Y-61947200D01*
X275095476Y-61947200D02*
X275190714Y-61994819D01*
X275190714Y-61994819D02*
X275381190Y-61994819D01*
X275381190Y-61994819D02*
X275476428Y-61947200D01*
X275476428Y-61947200D02*
X275524047Y-61899580D01*
X275524047Y-61899580D02*
X275571666Y-61804342D01*
X275571666Y-61804342D02*
X275571666Y-61613866D01*
X275571666Y-61613866D02*
X275524047Y-61518628D01*
X275524047Y-61518628D02*
X275476428Y-61471009D01*
X275476428Y-61471009D02*
X275381190Y-61423390D01*
X239009819Y-60836666D02*
X238533628Y-61169999D01*
X239009819Y-61408094D02*
X238009819Y-61408094D01*
X238009819Y-61408094D02*
X238009819Y-61027142D01*
X238009819Y-61027142D02*
X238057438Y-60931904D01*
X238057438Y-60931904D02*
X238105057Y-60884285D01*
X238105057Y-60884285D02*
X238200295Y-60836666D01*
X238200295Y-60836666D02*
X238343152Y-60836666D01*
X238343152Y-60836666D02*
X238438390Y-60884285D01*
X238438390Y-60884285D02*
X238486009Y-60931904D01*
X238486009Y-60931904D02*
X238533628Y-61027142D01*
X238533628Y-61027142D02*
X238533628Y-61408094D01*
X238009819Y-60503332D02*
X238009819Y-59836666D01*
X238009819Y-59836666D02*
X239009819Y-60265237D01*
X265689819Y-85592857D02*
X265213628Y-85926190D01*
X265689819Y-86164285D02*
X264689819Y-86164285D01*
X264689819Y-86164285D02*
X264689819Y-85783333D01*
X264689819Y-85783333D02*
X264737438Y-85688095D01*
X264737438Y-85688095D02*
X264785057Y-85640476D01*
X264785057Y-85640476D02*
X264880295Y-85592857D01*
X264880295Y-85592857D02*
X265023152Y-85592857D01*
X265023152Y-85592857D02*
X265118390Y-85640476D01*
X265118390Y-85640476D02*
X265166009Y-85688095D01*
X265166009Y-85688095D02*
X265213628Y-85783333D01*
X265213628Y-85783333D02*
X265213628Y-86164285D01*
X265689819Y-84640476D02*
X265689819Y-85211904D01*
X265689819Y-84926190D02*
X264689819Y-84926190D01*
X264689819Y-84926190D02*
X264832676Y-85021428D01*
X264832676Y-85021428D02*
X264927914Y-85116666D01*
X264927914Y-85116666D02*
X264975533Y-85211904D01*
X265023152Y-83783333D02*
X265689819Y-83783333D01*
X264642200Y-84021428D02*
X265356485Y-84259523D01*
X265356485Y-84259523D02*
X265356485Y-83640476D01*
X274991666Y-32674819D02*
X274991666Y-33389104D01*
X274991666Y-33389104D02*
X274944047Y-33531961D01*
X274944047Y-33531961D02*
X274848809Y-33627200D01*
X274848809Y-33627200D02*
X274705952Y-33674819D01*
X274705952Y-33674819D02*
X274610714Y-33674819D01*
X275515476Y-33674819D02*
X275705952Y-33674819D01*
X275705952Y-33674819D02*
X275801190Y-33627200D01*
X275801190Y-33627200D02*
X275848809Y-33579580D01*
X275848809Y-33579580D02*
X275944047Y-33436723D01*
X275944047Y-33436723D02*
X275991666Y-33246247D01*
X275991666Y-33246247D02*
X275991666Y-32865295D01*
X275991666Y-32865295D02*
X275944047Y-32770057D01*
X275944047Y-32770057D02*
X275896428Y-32722438D01*
X275896428Y-32722438D02*
X275801190Y-32674819D01*
X275801190Y-32674819D02*
X275610714Y-32674819D01*
X275610714Y-32674819D02*
X275515476Y-32722438D01*
X275515476Y-32722438D02*
X275467857Y-32770057D01*
X275467857Y-32770057D02*
X275420238Y-32865295D01*
X275420238Y-32865295D02*
X275420238Y-33103390D01*
X275420238Y-33103390D02*
X275467857Y-33198628D01*
X275467857Y-33198628D02*
X275515476Y-33246247D01*
X275515476Y-33246247D02*
X275610714Y-33293866D01*
X275610714Y-33293866D02*
X275801190Y-33293866D01*
X275801190Y-33293866D02*
X275896428Y-33246247D01*
X275896428Y-33246247D02*
X275944047Y-33198628D01*
X275944047Y-33198628D02*
X275991666Y-33103390D01*
X132909819Y-92863333D02*
X133624104Y-92863333D01*
X133624104Y-92863333D02*
X133766961Y-92910952D01*
X133766961Y-92910952D02*
X133862200Y-93006190D01*
X133862200Y-93006190D02*
X133909819Y-93149047D01*
X133909819Y-93149047D02*
X133909819Y-93244285D01*
X133005057Y-92434761D02*
X132957438Y-92387142D01*
X132957438Y-92387142D02*
X132909819Y-92291904D01*
X132909819Y-92291904D02*
X132909819Y-92053809D01*
X132909819Y-92053809D02*
X132957438Y-91958571D01*
X132957438Y-91958571D02*
X133005057Y-91910952D01*
X133005057Y-91910952D02*
X133100295Y-91863333D01*
X133100295Y-91863333D02*
X133195533Y-91863333D01*
X133195533Y-91863333D02*
X133338390Y-91910952D01*
X133338390Y-91910952D02*
X133909819Y-92482380D01*
X133909819Y-92482380D02*
X133909819Y-91863333D01*
D13*
X266491667Y-123959800D02*
X266634524Y-124007419D01*
X266634524Y-124007419D02*
X266872619Y-124007419D01*
X266872619Y-124007419D02*
X266967857Y-123959800D01*
X266967857Y-123959800D02*
X267015476Y-123912180D01*
X267015476Y-123912180D02*
X267063095Y-123816942D01*
X267063095Y-123816942D02*
X267063095Y-123721704D01*
X267063095Y-123721704D02*
X267015476Y-123626466D01*
X267015476Y-123626466D02*
X266967857Y-123578847D01*
X266967857Y-123578847D02*
X266872619Y-123531228D01*
X266872619Y-123531228D02*
X266682143Y-123483609D01*
X266682143Y-123483609D02*
X266586905Y-123435990D01*
X266586905Y-123435990D02*
X266539286Y-123388371D01*
X266539286Y-123388371D02*
X266491667Y-123293133D01*
X266491667Y-123293133D02*
X266491667Y-123197895D01*
X266491667Y-123197895D02*
X266539286Y-123102657D01*
X266539286Y-123102657D02*
X266586905Y-123055038D01*
X266586905Y-123055038D02*
X266682143Y-123007419D01*
X266682143Y-123007419D02*
X266920238Y-123007419D01*
X266920238Y-123007419D02*
X267063095Y-123055038D01*
X267396429Y-123007419D02*
X267634524Y-124007419D01*
X267634524Y-124007419D02*
X267825000Y-123293133D01*
X267825000Y-123293133D02*
X268015476Y-124007419D01*
X268015476Y-124007419D02*
X268253572Y-123007419D01*
X269158333Y-124007419D02*
X268586905Y-124007419D01*
X268872619Y-124007419D02*
X268872619Y-123007419D01*
X268872619Y-123007419D02*
X268777381Y-123150276D01*
X268777381Y-123150276D02*
X268682143Y-123245514D01*
X268682143Y-123245514D02*
X268586905Y-123293133D01*
D12*
X276739819Y-95283094D02*
X275739819Y-95283094D01*
X275739819Y-95283094D02*
X275739819Y-95044999D01*
X275739819Y-95044999D02*
X275787438Y-94902142D01*
X275787438Y-94902142D02*
X275882676Y-94806904D01*
X275882676Y-94806904D02*
X275977914Y-94759285D01*
X275977914Y-94759285D02*
X276168390Y-94711666D01*
X276168390Y-94711666D02*
X276311247Y-94711666D01*
X276311247Y-94711666D02*
X276501723Y-94759285D01*
X276501723Y-94759285D02*
X276596961Y-94806904D01*
X276596961Y-94806904D02*
X276692200Y-94902142D01*
X276692200Y-94902142D02*
X276739819Y-95044999D01*
X276739819Y-95044999D02*
X276739819Y-95283094D01*
X275739819Y-94378332D02*
X275739819Y-93711666D01*
X275739819Y-93711666D02*
X276739819Y-94140237D01*
X240269819Y-57192857D02*
X239793628Y-57526190D01*
X240269819Y-57764285D02*
X239269819Y-57764285D01*
X239269819Y-57764285D02*
X239269819Y-57383333D01*
X239269819Y-57383333D02*
X239317438Y-57288095D01*
X239317438Y-57288095D02*
X239365057Y-57240476D01*
X239365057Y-57240476D02*
X239460295Y-57192857D01*
X239460295Y-57192857D02*
X239603152Y-57192857D01*
X239603152Y-57192857D02*
X239698390Y-57240476D01*
X239698390Y-57240476D02*
X239746009Y-57288095D01*
X239746009Y-57288095D02*
X239793628Y-57383333D01*
X239793628Y-57383333D02*
X239793628Y-57764285D01*
X240269819Y-56240476D02*
X240269819Y-56811904D01*
X240269819Y-56526190D02*
X239269819Y-56526190D01*
X239269819Y-56526190D02*
X239412676Y-56621428D01*
X239412676Y-56621428D02*
X239507914Y-56716666D01*
X239507914Y-56716666D02*
X239555533Y-56811904D01*
X239269819Y-55383333D02*
X239269819Y-55573809D01*
X239269819Y-55573809D02*
X239317438Y-55669047D01*
X239317438Y-55669047D02*
X239365057Y-55716666D01*
X239365057Y-55716666D02*
X239507914Y-55811904D01*
X239507914Y-55811904D02*
X239698390Y-55859523D01*
X239698390Y-55859523D02*
X240079342Y-55859523D01*
X240079342Y-55859523D02*
X240174580Y-55811904D01*
X240174580Y-55811904D02*
X240222200Y-55764285D01*
X240222200Y-55764285D02*
X240269819Y-55669047D01*
X240269819Y-55669047D02*
X240269819Y-55478571D01*
X240269819Y-55478571D02*
X240222200Y-55383333D01*
X240222200Y-55383333D02*
X240174580Y-55335714D01*
X240174580Y-55335714D02*
X240079342Y-55288095D01*
X240079342Y-55288095D02*
X239841247Y-55288095D01*
X239841247Y-55288095D02*
X239746009Y-55335714D01*
X239746009Y-55335714D02*
X239698390Y-55383333D01*
X239698390Y-55383333D02*
X239650771Y-55478571D01*
X239650771Y-55478571D02*
X239650771Y-55669047D01*
X239650771Y-55669047D02*
X239698390Y-55764285D01*
X239698390Y-55764285D02*
X239746009Y-55811904D01*
X239746009Y-55811904D02*
X239841247Y-55859523D01*
X254602142Y-34374819D02*
X254268809Y-33898628D01*
X254030714Y-34374819D02*
X254030714Y-33374819D01*
X254030714Y-33374819D02*
X254411666Y-33374819D01*
X254411666Y-33374819D02*
X254506904Y-33422438D01*
X254506904Y-33422438D02*
X254554523Y-33470057D01*
X254554523Y-33470057D02*
X254602142Y-33565295D01*
X254602142Y-33565295D02*
X254602142Y-33708152D01*
X254602142Y-33708152D02*
X254554523Y-33803390D01*
X254554523Y-33803390D02*
X254506904Y-33851009D01*
X254506904Y-33851009D02*
X254411666Y-33898628D01*
X254411666Y-33898628D02*
X254030714Y-33898628D01*
X255554523Y-34374819D02*
X254983095Y-34374819D01*
X255268809Y-34374819D02*
X255268809Y-33374819D01*
X255268809Y-33374819D02*
X255173571Y-33517676D01*
X255173571Y-33517676D02*
X255078333Y-33612914D01*
X255078333Y-33612914D02*
X254983095Y-33660533D01*
X256506904Y-34374819D02*
X255935476Y-34374819D01*
X256221190Y-34374819D02*
X256221190Y-33374819D01*
X256221190Y-33374819D02*
X256125952Y-33517676D01*
X256125952Y-33517676D02*
X256030714Y-33612914D01*
X256030714Y-33612914D02*
X255935476Y-33660533D01*
X236489819Y-77116666D02*
X236013628Y-77449999D01*
X236489819Y-77688094D02*
X235489819Y-77688094D01*
X235489819Y-77688094D02*
X235489819Y-77307142D01*
X235489819Y-77307142D02*
X235537438Y-77211904D01*
X235537438Y-77211904D02*
X235585057Y-77164285D01*
X235585057Y-77164285D02*
X235680295Y-77116666D01*
X235680295Y-77116666D02*
X235823152Y-77116666D01*
X235823152Y-77116666D02*
X235918390Y-77164285D01*
X235918390Y-77164285D02*
X235966009Y-77211904D01*
X235966009Y-77211904D02*
X236013628Y-77307142D01*
X236013628Y-77307142D02*
X236013628Y-77688094D01*
X236489819Y-76640475D02*
X236489819Y-76449999D01*
X236489819Y-76449999D02*
X236442200Y-76354761D01*
X236442200Y-76354761D02*
X236394580Y-76307142D01*
X236394580Y-76307142D02*
X236251723Y-76211904D01*
X236251723Y-76211904D02*
X236061247Y-76164285D01*
X236061247Y-76164285D02*
X235680295Y-76164285D01*
X235680295Y-76164285D02*
X235585057Y-76211904D01*
X235585057Y-76211904D02*
X235537438Y-76259523D01*
X235537438Y-76259523D02*
X235489819Y-76354761D01*
X235489819Y-76354761D02*
X235489819Y-76545237D01*
X235489819Y-76545237D02*
X235537438Y-76640475D01*
X235537438Y-76640475D02*
X235585057Y-76688094D01*
X235585057Y-76688094D02*
X235680295Y-76735713D01*
X235680295Y-76735713D02*
X235918390Y-76735713D01*
X235918390Y-76735713D02*
X236013628Y-76688094D01*
X236013628Y-76688094D02*
X236061247Y-76640475D01*
X236061247Y-76640475D02*
X236108866Y-76545237D01*
X236108866Y-76545237D02*
X236108866Y-76354761D01*
X236108866Y-76354761D02*
X236061247Y-76259523D01*
X236061247Y-76259523D02*
X236013628Y-76211904D01*
X236013628Y-76211904D02*
X235918390Y-76164285D01*
X258539819Y-95283094D02*
X257539819Y-95283094D01*
X257539819Y-95283094D02*
X257539819Y-95044999D01*
X257539819Y-95044999D02*
X257587438Y-94902142D01*
X257587438Y-94902142D02*
X257682676Y-94806904D01*
X257682676Y-94806904D02*
X257777914Y-94759285D01*
X257777914Y-94759285D02*
X257968390Y-94711666D01*
X257968390Y-94711666D02*
X258111247Y-94711666D01*
X258111247Y-94711666D02*
X258301723Y-94759285D01*
X258301723Y-94759285D02*
X258396961Y-94806904D01*
X258396961Y-94806904D02*
X258492200Y-94902142D01*
X258492200Y-94902142D02*
X258539819Y-95044999D01*
X258539819Y-95044999D02*
X258539819Y-95283094D01*
X257873152Y-93854523D02*
X258539819Y-93854523D01*
X257492200Y-94092618D02*
X258206485Y-94330713D01*
X258206485Y-94330713D02*
X258206485Y-93711666D01*
X206058333Y-81009580D02*
X206010714Y-81057200D01*
X206010714Y-81057200D02*
X205867857Y-81104819D01*
X205867857Y-81104819D02*
X205772619Y-81104819D01*
X205772619Y-81104819D02*
X205629762Y-81057200D01*
X205629762Y-81057200D02*
X205534524Y-80961961D01*
X205534524Y-80961961D02*
X205486905Y-80866723D01*
X205486905Y-80866723D02*
X205439286Y-80676247D01*
X205439286Y-80676247D02*
X205439286Y-80533390D01*
X205439286Y-80533390D02*
X205486905Y-80342914D01*
X205486905Y-80342914D02*
X205534524Y-80247676D01*
X205534524Y-80247676D02*
X205629762Y-80152438D01*
X205629762Y-80152438D02*
X205772619Y-80104819D01*
X205772619Y-80104819D02*
X205867857Y-80104819D01*
X205867857Y-80104819D02*
X206010714Y-80152438D01*
X206010714Y-80152438D02*
X206058333Y-80200057D01*
X206391667Y-80104819D02*
X207010714Y-80104819D01*
X207010714Y-80104819D02*
X206677381Y-80485771D01*
X206677381Y-80485771D02*
X206820238Y-80485771D01*
X206820238Y-80485771D02*
X206915476Y-80533390D01*
X206915476Y-80533390D02*
X206963095Y-80581009D01*
X206963095Y-80581009D02*
X207010714Y-80676247D01*
X207010714Y-80676247D02*
X207010714Y-80914342D01*
X207010714Y-80914342D02*
X206963095Y-81009580D01*
X206963095Y-81009580D02*
X206915476Y-81057200D01*
X206915476Y-81057200D02*
X206820238Y-81104819D01*
X206820238Y-81104819D02*
X206534524Y-81104819D01*
X206534524Y-81104819D02*
X206439286Y-81057200D01*
X206439286Y-81057200D02*
X206391667Y-81009580D01*
X242489819Y-63716666D02*
X242013628Y-64049999D01*
X242489819Y-64288094D02*
X241489819Y-64288094D01*
X241489819Y-64288094D02*
X241489819Y-63907142D01*
X241489819Y-63907142D02*
X241537438Y-63811904D01*
X241537438Y-63811904D02*
X241585057Y-63764285D01*
X241585057Y-63764285D02*
X241680295Y-63716666D01*
X241680295Y-63716666D02*
X241823152Y-63716666D01*
X241823152Y-63716666D02*
X241918390Y-63764285D01*
X241918390Y-63764285D02*
X241966009Y-63811904D01*
X241966009Y-63811904D02*
X242013628Y-63907142D01*
X242013628Y-63907142D02*
X242013628Y-64288094D01*
X241489819Y-62859523D02*
X241489819Y-63049999D01*
X241489819Y-63049999D02*
X241537438Y-63145237D01*
X241537438Y-63145237D02*
X241585057Y-63192856D01*
X241585057Y-63192856D02*
X241727914Y-63288094D01*
X241727914Y-63288094D02*
X241918390Y-63335713D01*
X241918390Y-63335713D02*
X242299342Y-63335713D01*
X242299342Y-63335713D02*
X242394580Y-63288094D01*
X242394580Y-63288094D02*
X242442200Y-63240475D01*
X242442200Y-63240475D02*
X242489819Y-63145237D01*
X242489819Y-63145237D02*
X242489819Y-62954761D01*
X242489819Y-62954761D02*
X242442200Y-62859523D01*
X242442200Y-62859523D02*
X242394580Y-62811904D01*
X242394580Y-62811904D02*
X242299342Y-62764285D01*
X242299342Y-62764285D02*
X242061247Y-62764285D01*
X242061247Y-62764285D02*
X241966009Y-62811904D01*
X241966009Y-62811904D02*
X241918390Y-62859523D01*
X241918390Y-62859523D02*
X241870771Y-62954761D01*
X241870771Y-62954761D02*
X241870771Y-63145237D01*
X241870771Y-63145237D02*
X241918390Y-63240475D01*
X241918390Y-63240475D02*
X241966009Y-63288094D01*
X241966009Y-63288094D02*
X242061247Y-63335713D01*
X270739819Y-95283094D02*
X269739819Y-95283094D01*
X269739819Y-95283094D02*
X269739819Y-95044999D01*
X269739819Y-95044999D02*
X269787438Y-94902142D01*
X269787438Y-94902142D02*
X269882676Y-94806904D01*
X269882676Y-94806904D02*
X269977914Y-94759285D01*
X269977914Y-94759285D02*
X270168390Y-94711666D01*
X270168390Y-94711666D02*
X270311247Y-94711666D01*
X270311247Y-94711666D02*
X270501723Y-94759285D01*
X270501723Y-94759285D02*
X270596961Y-94806904D01*
X270596961Y-94806904D02*
X270692200Y-94902142D01*
X270692200Y-94902142D02*
X270739819Y-95044999D01*
X270739819Y-95044999D02*
X270739819Y-95283094D01*
X269739819Y-93854523D02*
X269739819Y-94044999D01*
X269739819Y-94044999D02*
X269787438Y-94140237D01*
X269787438Y-94140237D02*
X269835057Y-94187856D01*
X269835057Y-94187856D02*
X269977914Y-94283094D01*
X269977914Y-94283094D02*
X270168390Y-94330713D01*
X270168390Y-94330713D02*
X270549342Y-94330713D01*
X270549342Y-94330713D02*
X270644580Y-94283094D01*
X270644580Y-94283094D02*
X270692200Y-94235475D01*
X270692200Y-94235475D02*
X270739819Y-94140237D01*
X270739819Y-94140237D02*
X270739819Y-93949761D01*
X270739819Y-93949761D02*
X270692200Y-93854523D01*
X270692200Y-93854523D02*
X270644580Y-93806904D01*
X270644580Y-93806904D02*
X270549342Y-93759285D01*
X270549342Y-93759285D02*
X270311247Y-93759285D01*
X270311247Y-93759285D02*
X270216009Y-93806904D01*
X270216009Y-93806904D02*
X270168390Y-93854523D01*
X270168390Y-93854523D02*
X270120771Y-93949761D01*
X270120771Y-93949761D02*
X270120771Y-94140237D01*
X270120771Y-94140237D02*
X270168390Y-94235475D01*
X270168390Y-94235475D02*
X270216009Y-94283094D01*
X270216009Y-94283094D02*
X270311247Y-94330713D01*
X206058333Y-75959580D02*
X206010714Y-76007200D01*
X206010714Y-76007200D02*
X205867857Y-76054819D01*
X205867857Y-76054819D02*
X205772619Y-76054819D01*
X205772619Y-76054819D02*
X205629762Y-76007200D01*
X205629762Y-76007200D02*
X205534524Y-75911961D01*
X205534524Y-75911961D02*
X205486905Y-75816723D01*
X205486905Y-75816723D02*
X205439286Y-75626247D01*
X205439286Y-75626247D02*
X205439286Y-75483390D01*
X205439286Y-75483390D02*
X205486905Y-75292914D01*
X205486905Y-75292914D02*
X205534524Y-75197676D01*
X205534524Y-75197676D02*
X205629762Y-75102438D01*
X205629762Y-75102438D02*
X205772619Y-75054819D01*
X205772619Y-75054819D02*
X205867857Y-75054819D01*
X205867857Y-75054819D02*
X206010714Y-75102438D01*
X206010714Y-75102438D02*
X206058333Y-75150057D01*
X206439286Y-75150057D02*
X206486905Y-75102438D01*
X206486905Y-75102438D02*
X206582143Y-75054819D01*
X206582143Y-75054819D02*
X206820238Y-75054819D01*
X206820238Y-75054819D02*
X206915476Y-75102438D01*
X206915476Y-75102438D02*
X206963095Y-75150057D01*
X206963095Y-75150057D02*
X207010714Y-75245295D01*
X207010714Y-75245295D02*
X207010714Y-75340533D01*
X207010714Y-75340533D02*
X206963095Y-75483390D01*
X206963095Y-75483390D02*
X206391667Y-76054819D01*
X206391667Y-76054819D02*
X207010714Y-76054819D01*
X168014819Y-95730238D02*
X167538628Y-96063571D01*
X168014819Y-96301666D02*
X167014819Y-96301666D01*
X167014819Y-96301666D02*
X167014819Y-95920714D01*
X167014819Y-95920714D02*
X167062438Y-95825476D01*
X167062438Y-95825476D02*
X167110057Y-95777857D01*
X167110057Y-95777857D02*
X167205295Y-95730238D01*
X167205295Y-95730238D02*
X167348152Y-95730238D01*
X167348152Y-95730238D02*
X167443390Y-95777857D01*
X167443390Y-95777857D02*
X167491009Y-95825476D01*
X167491009Y-95825476D02*
X167538628Y-95920714D01*
X167538628Y-95920714D02*
X167538628Y-96301666D01*
X167014819Y-95444523D02*
X168014819Y-95111190D01*
X168014819Y-95111190D02*
X167014819Y-94777857D01*
X168014819Y-93920714D02*
X168014819Y-94492142D01*
X168014819Y-94206428D02*
X167014819Y-94206428D01*
X167014819Y-94206428D02*
X167157676Y-94301666D01*
X167157676Y-94301666D02*
X167252914Y-94396904D01*
X167252914Y-94396904D02*
X167300533Y-94492142D01*
D13*
X250491667Y-123959800D02*
X250634524Y-124007419D01*
X250634524Y-124007419D02*
X250872619Y-124007419D01*
X250872619Y-124007419D02*
X250967857Y-123959800D01*
X250967857Y-123959800D02*
X251015476Y-123912180D01*
X251015476Y-123912180D02*
X251063095Y-123816942D01*
X251063095Y-123816942D02*
X251063095Y-123721704D01*
X251063095Y-123721704D02*
X251015476Y-123626466D01*
X251015476Y-123626466D02*
X250967857Y-123578847D01*
X250967857Y-123578847D02*
X250872619Y-123531228D01*
X250872619Y-123531228D02*
X250682143Y-123483609D01*
X250682143Y-123483609D02*
X250586905Y-123435990D01*
X250586905Y-123435990D02*
X250539286Y-123388371D01*
X250539286Y-123388371D02*
X250491667Y-123293133D01*
X250491667Y-123293133D02*
X250491667Y-123197895D01*
X250491667Y-123197895D02*
X250539286Y-123102657D01*
X250539286Y-123102657D02*
X250586905Y-123055038D01*
X250586905Y-123055038D02*
X250682143Y-123007419D01*
X250682143Y-123007419D02*
X250920238Y-123007419D01*
X250920238Y-123007419D02*
X251063095Y-123055038D01*
X251396429Y-123007419D02*
X251634524Y-124007419D01*
X251634524Y-124007419D02*
X251825000Y-123293133D01*
X251825000Y-123293133D02*
X252015476Y-124007419D01*
X252015476Y-124007419D02*
X252253572Y-123007419D01*
X252539286Y-123007419D02*
X253158333Y-123007419D01*
X253158333Y-123007419D02*
X252825000Y-123388371D01*
X252825000Y-123388371D02*
X252967857Y-123388371D01*
X252967857Y-123388371D02*
X253063095Y-123435990D01*
X253063095Y-123435990D02*
X253110714Y-123483609D01*
X253110714Y-123483609D02*
X253158333Y-123578847D01*
X253158333Y-123578847D02*
X253158333Y-123816942D01*
X253158333Y-123816942D02*
X253110714Y-123912180D01*
X253110714Y-123912180D02*
X253063095Y-123959800D01*
X253063095Y-123959800D02*
X252967857Y-124007419D01*
X252967857Y-124007419D02*
X252682143Y-124007419D01*
X252682143Y-124007419D02*
X252586905Y-123959800D01*
X252586905Y-123959800D02*
X252539286Y-123912180D01*
X258491667Y-131959800D02*
X258634524Y-132007419D01*
X258634524Y-132007419D02*
X258872619Y-132007419D01*
X258872619Y-132007419D02*
X258967857Y-131959800D01*
X258967857Y-131959800D02*
X259015476Y-131912180D01*
X259015476Y-131912180D02*
X259063095Y-131816942D01*
X259063095Y-131816942D02*
X259063095Y-131721704D01*
X259063095Y-131721704D02*
X259015476Y-131626466D01*
X259015476Y-131626466D02*
X258967857Y-131578847D01*
X258967857Y-131578847D02*
X258872619Y-131531228D01*
X258872619Y-131531228D02*
X258682143Y-131483609D01*
X258682143Y-131483609D02*
X258586905Y-131435990D01*
X258586905Y-131435990D02*
X258539286Y-131388371D01*
X258539286Y-131388371D02*
X258491667Y-131293133D01*
X258491667Y-131293133D02*
X258491667Y-131197895D01*
X258491667Y-131197895D02*
X258539286Y-131102657D01*
X258539286Y-131102657D02*
X258586905Y-131055038D01*
X258586905Y-131055038D02*
X258682143Y-131007419D01*
X258682143Y-131007419D02*
X258920238Y-131007419D01*
X258920238Y-131007419D02*
X259063095Y-131055038D01*
X259396429Y-131007419D02*
X259634524Y-132007419D01*
X259634524Y-132007419D02*
X259825000Y-131293133D01*
X259825000Y-131293133D02*
X260015476Y-132007419D01*
X260015476Y-132007419D02*
X260253572Y-131007419D01*
X261063095Y-131340752D02*
X261063095Y-132007419D01*
X260825000Y-130959800D02*
X260586905Y-131674085D01*
X260586905Y-131674085D02*
X261205952Y-131674085D01*
D12*
X186449819Y-36803333D02*
X187164104Y-36803333D01*
X187164104Y-36803333D02*
X187306961Y-36850952D01*
X187306961Y-36850952D02*
X187402200Y-36946190D01*
X187402200Y-36946190D02*
X187449819Y-37089047D01*
X187449819Y-37089047D02*
X187449819Y-37184285D01*
X186449819Y-36422380D02*
X186449819Y-35803333D01*
X186449819Y-35803333D02*
X186830771Y-36136666D01*
X186830771Y-36136666D02*
X186830771Y-35993809D01*
X186830771Y-35993809D02*
X186878390Y-35898571D01*
X186878390Y-35898571D02*
X186926009Y-35850952D01*
X186926009Y-35850952D02*
X187021247Y-35803333D01*
X187021247Y-35803333D02*
X187259342Y-35803333D01*
X187259342Y-35803333D02*
X187354580Y-35850952D01*
X187354580Y-35850952D02*
X187402200Y-35898571D01*
X187402200Y-35898571D02*
X187449819Y-35993809D01*
X187449819Y-35993809D02*
X187449819Y-36279523D01*
X187449819Y-36279523D02*
X187402200Y-36374761D01*
X187402200Y-36374761D02*
X187354580Y-36422380D01*
D13*
X258491667Y-114959800D02*
X258634524Y-115007419D01*
X258634524Y-115007419D02*
X258872619Y-115007419D01*
X258872619Y-115007419D02*
X258967857Y-114959800D01*
X258967857Y-114959800D02*
X259015476Y-114912180D01*
X259015476Y-114912180D02*
X259063095Y-114816942D01*
X259063095Y-114816942D02*
X259063095Y-114721704D01*
X259063095Y-114721704D02*
X259015476Y-114626466D01*
X259015476Y-114626466D02*
X258967857Y-114578847D01*
X258967857Y-114578847D02*
X258872619Y-114531228D01*
X258872619Y-114531228D02*
X258682143Y-114483609D01*
X258682143Y-114483609D02*
X258586905Y-114435990D01*
X258586905Y-114435990D02*
X258539286Y-114388371D01*
X258539286Y-114388371D02*
X258491667Y-114293133D01*
X258491667Y-114293133D02*
X258491667Y-114197895D01*
X258491667Y-114197895D02*
X258539286Y-114102657D01*
X258539286Y-114102657D02*
X258586905Y-114055038D01*
X258586905Y-114055038D02*
X258682143Y-114007419D01*
X258682143Y-114007419D02*
X258920238Y-114007419D01*
X258920238Y-114007419D02*
X259063095Y-114055038D01*
X259396429Y-114007419D02*
X259634524Y-115007419D01*
X259634524Y-115007419D02*
X259825000Y-114293133D01*
X259825000Y-114293133D02*
X260015476Y-115007419D01*
X260015476Y-115007419D02*
X260253572Y-114007419D01*
X260586905Y-114102657D02*
X260634524Y-114055038D01*
X260634524Y-114055038D02*
X260729762Y-114007419D01*
X260729762Y-114007419D02*
X260967857Y-114007419D01*
X260967857Y-114007419D02*
X261063095Y-114055038D01*
X261063095Y-114055038D02*
X261110714Y-114102657D01*
X261110714Y-114102657D02*
X261158333Y-114197895D01*
X261158333Y-114197895D02*
X261158333Y-114293133D01*
X261158333Y-114293133D02*
X261110714Y-114435990D01*
X261110714Y-114435990D02*
X260539286Y-115007419D01*
X260539286Y-115007419D02*
X261158333Y-115007419D01*
D12*
X271489819Y-85592857D02*
X271013628Y-85926190D01*
X271489819Y-86164285D02*
X270489819Y-86164285D01*
X270489819Y-86164285D02*
X270489819Y-85783333D01*
X270489819Y-85783333D02*
X270537438Y-85688095D01*
X270537438Y-85688095D02*
X270585057Y-85640476D01*
X270585057Y-85640476D02*
X270680295Y-85592857D01*
X270680295Y-85592857D02*
X270823152Y-85592857D01*
X270823152Y-85592857D02*
X270918390Y-85640476D01*
X270918390Y-85640476D02*
X270966009Y-85688095D01*
X270966009Y-85688095D02*
X271013628Y-85783333D01*
X271013628Y-85783333D02*
X271013628Y-86164285D01*
X271489819Y-84640476D02*
X271489819Y-85211904D01*
X271489819Y-84926190D02*
X270489819Y-84926190D01*
X270489819Y-84926190D02*
X270632676Y-85021428D01*
X270632676Y-85021428D02*
X270727914Y-85116666D01*
X270727914Y-85116666D02*
X270775533Y-85211904D01*
X270489819Y-83735714D02*
X270489819Y-84211904D01*
X270489819Y-84211904D02*
X270966009Y-84259523D01*
X270966009Y-84259523D02*
X270918390Y-84211904D01*
X270918390Y-84211904D02*
X270870771Y-84116666D01*
X270870771Y-84116666D02*
X270870771Y-83878571D01*
X270870771Y-83878571D02*
X270918390Y-83783333D01*
X270918390Y-83783333D02*
X270966009Y-83735714D01*
X270966009Y-83735714D02*
X271061247Y-83688095D01*
X271061247Y-83688095D02*
X271299342Y-83688095D01*
X271299342Y-83688095D02*
X271394580Y-83735714D01*
X271394580Y-83735714D02*
X271442200Y-83783333D01*
X271442200Y-83783333D02*
X271489819Y-83878571D01*
X271489819Y-83878571D02*
X271489819Y-84116666D01*
X271489819Y-84116666D02*
X271442200Y-84211904D01*
X271442200Y-84211904D02*
X271394580Y-84259523D01*
X269515476Y-32674819D02*
X269515476Y-33389104D01*
X269515476Y-33389104D02*
X269467857Y-33531961D01*
X269467857Y-33531961D02*
X269372619Y-33627200D01*
X269372619Y-33627200D02*
X269229762Y-33674819D01*
X269229762Y-33674819D02*
X269134524Y-33674819D01*
X270515476Y-33674819D02*
X269944048Y-33674819D01*
X270229762Y-33674819D02*
X270229762Y-32674819D01*
X270229762Y-32674819D02*
X270134524Y-32817676D01*
X270134524Y-32817676D02*
X270039286Y-32912914D01*
X270039286Y-32912914D02*
X269944048Y-32960533D01*
X271134524Y-32674819D02*
X271229762Y-32674819D01*
X271229762Y-32674819D02*
X271325000Y-32722438D01*
X271325000Y-32722438D02*
X271372619Y-32770057D01*
X271372619Y-32770057D02*
X271420238Y-32865295D01*
X271420238Y-32865295D02*
X271467857Y-33055771D01*
X271467857Y-33055771D02*
X271467857Y-33293866D01*
X271467857Y-33293866D02*
X271420238Y-33484342D01*
X271420238Y-33484342D02*
X271372619Y-33579580D01*
X271372619Y-33579580D02*
X271325000Y-33627200D01*
X271325000Y-33627200D02*
X271229762Y-33674819D01*
X271229762Y-33674819D02*
X271134524Y-33674819D01*
X271134524Y-33674819D02*
X271039286Y-33627200D01*
X271039286Y-33627200D02*
X270991667Y-33579580D01*
X270991667Y-33579580D02*
X270944048Y-33484342D01*
X270944048Y-33484342D02*
X270896429Y-33293866D01*
X270896429Y-33293866D02*
X270896429Y-33055771D01*
X270896429Y-33055771D02*
X270944048Y-32865295D01*
X270944048Y-32865295D02*
X270991667Y-32770057D01*
X270991667Y-32770057D02*
X271039286Y-32722438D01*
X271039286Y-32722438D02*
X271134524Y-32674819D01*
X277709819Y-71521904D02*
X278519342Y-71521904D01*
X278519342Y-71521904D02*
X278614580Y-71474285D01*
X278614580Y-71474285D02*
X278662200Y-71426666D01*
X278662200Y-71426666D02*
X278709819Y-71331428D01*
X278709819Y-71331428D02*
X278709819Y-71140952D01*
X278709819Y-71140952D02*
X278662200Y-71045714D01*
X278662200Y-71045714D02*
X278614580Y-70998095D01*
X278614580Y-70998095D02*
X278519342Y-70950476D01*
X278519342Y-70950476D02*
X277709819Y-70950476D01*
X278709819Y-69950476D02*
X278709819Y-70521904D01*
X278709819Y-70236190D02*
X277709819Y-70236190D01*
X277709819Y-70236190D02*
X277852676Y-70331428D01*
X277852676Y-70331428D02*
X277947914Y-70426666D01*
X277947914Y-70426666D02*
X277995533Y-70521904D01*
X206058333Y-91109580D02*
X206010714Y-91157200D01*
X206010714Y-91157200D02*
X205867857Y-91204819D01*
X205867857Y-91204819D02*
X205772619Y-91204819D01*
X205772619Y-91204819D02*
X205629762Y-91157200D01*
X205629762Y-91157200D02*
X205534524Y-91061961D01*
X205534524Y-91061961D02*
X205486905Y-90966723D01*
X205486905Y-90966723D02*
X205439286Y-90776247D01*
X205439286Y-90776247D02*
X205439286Y-90633390D01*
X205439286Y-90633390D02*
X205486905Y-90442914D01*
X205486905Y-90442914D02*
X205534524Y-90347676D01*
X205534524Y-90347676D02*
X205629762Y-90252438D01*
X205629762Y-90252438D02*
X205772619Y-90204819D01*
X205772619Y-90204819D02*
X205867857Y-90204819D01*
X205867857Y-90204819D02*
X206010714Y-90252438D01*
X206010714Y-90252438D02*
X206058333Y-90300057D01*
X206963095Y-90204819D02*
X206486905Y-90204819D01*
X206486905Y-90204819D02*
X206439286Y-90681009D01*
X206439286Y-90681009D02*
X206486905Y-90633390D01*
X206486905Y-90633390D02*
X206582143Y-90585771D01*
X206582143Y-90585771D02*
X206820238Y-90585771D01*
X206820238Y-90585771D02*
X206915476Y-90633390D01*
X206915476Y-90633390D02*
X206963095Y-90681009D01*
X206963095Y-90681009D02*
X207010714Y-90776247D01*
X207010714Y-90776247D02*
X207010714Y-91014342D01*
X207010714Y-91014342D02*
X206963095Y-91109580D01*
X206963095Y-91109580D02*
X206915476Y-91157200D01*
X206915476Y-91157200D02*
X206820238Y-91204819D01*
X206820238Y-91204819D02*
X206582143Y-91204819D01*
X206582143Y-91204819D02*
X206486905Y-91157200D01*
X206486905Y-91157200D02*
X206439286Y-91109580D01*
X184549819Y-51036666D02*
X184073628Y-51369999D01*
X184549819Y-51608094D02*
X183549819Y-51608094D01*
X183549819Y-51608094D02*
X183549819Y-51227142D01*
X183549819Y-51227142D02*
X183597438Y-51131904D01*
X183597438Y-51131904D02*
X183645057Y-51084285D01*
X183645057Y-51084285D02*
X183740295Y-51036666D01*
X183740295Y-51036666D02*
X183883152Y-51036666D01*
X183883152Y-51036666D02*
X183978390Y-51084285D01*
X183978390Y-51084285D02*
X184026009Y-51131904D01*
X184026009Y-51131904D02*
X184073628Y-51227142D01*
X184073628Y-51227142D02*
X184073628Y-51608094D01*
X183883152Y-50179523D02*
X184549819Y-50179523D01*
X183502200Y-50417618D02*
X184216485Y-50655713D01*
X184216485Y-50655713D02*
X184216485Y-50036666D01*
X263474819Y-37283094D02*
X262474819Y-37283094D01*
X262474819Y-37283094D02*
X262474819Y-37044999D01*
X262474819Y-37044999D02*
X262522438Y-36902142D01*
X262522438Y-36902142D02*
X262617676Y-36806904D01*
X262617676Y-36806904D02*
X262712914Y-36759285D01*
X262712914Y-36759285D02*
X262903390Y-36711666D01*
X262903390Y-36711666D02*
X263046247Y-36711666D01*
X263046247Y-36711666D02*
X263236723Y-36759285D01*
X263236723Y-36759285D02*
X263331961Y-36806904D01*
X263331961Y-36806904D02*
X263427200Y-36902142D01*
X263427200Y-36902142D02*
X263474819Y-37044999D01*
X263474819Y-37044999D02*
X263474819Y-37283094D01*
X262474819Y-36378332D02*
X262474819Y-35759285D01*
X262474819Y-35759285D02*
X262855771Y-36092618D01*
X262855771Y-36092618D02*
X262855771Y-35949761D01*
X262855771Y-35949761D02*
X262903390Y-35854523D01*
X262903390Y-35854523D02*
X262951009Y-35806904D01*
X262951009Y-35806904D02*
X263046247Y-35759285D01*
X263046247Y-35759285D02*
X263284342Y-35759285D01*
X263284342Y-35759285D02*
X263379580Y-35806904D01*
X263379580Y-35806904D02*
X263427200Y-35854523D01*
X263427200Y-35854523D02*
X263474819Y-35949761D01*
X263474819Y-35949761D02*
X263474819Y-36235475D01*
X263474819Y-36235475D02*
X263427200Y-36330713D01*
X263427200Y-36330713D02*
X263379580Y-36378332D01*
X249658333Y-51309580D02*
X249610714Y-51357200D01*
X249610714Y-51357200D02*
X249467857Y-51404819D01*
X249467857Y-51404819D02*
X249372619Y-51404819D01*
X249372619Y-51404819D02*
X249229762Y-51357200D01*
X249229762Y-51357200D02*
X249134524Y-51261961D01*
X249134524Y-51261961D02*
X249086905Y-51166723D01*
X249086905Y-51166723D02*
X249039286Y-50976247D01*
X249039286Y-50976247D02*
X249039286Y-50833390D01*
X249039286Y-50833390D02*
X249086905Y-50642914D01*
X249086905Y-50642914D02*
X249134524Y-50547676D01*
X249134524Y-50547676D02*
X249229762Y-50452438D01*
X249229762Y-50452438D02*
X249372619Y-50404819D01*
X249372619Y-50404819D02*
X249467857Y-50404819D01*
X249467857Y-50404819D02*
X249610714Y-50452438D01*
X249610714Y-50452438D02*
X249658333Y-50500057D01*
X250515476Y-50404819D02*
X250325000Y-50404819D01*
X250325000Y-50404819D02*
X250229762Y-50452438D01*
X250229762Y-50452438D02*
X250182143Y-50500057D01*
X250182143Y-50500057D02*
X250086905Y-50642914D01*
X250086905Y-50642914D02*
X250039286Y-50833390D01*
X250039286Y-50833390D02*
X250039286Y-51214342D01*
X250039286Y-51214342D02*
X250086905Y-51309580D01*
X250086905Y-51309580D02*
X250134524Y-51357200D01*
X250134524Y-51357200D02*
X250229762Y-51404819D01*
X250229762Y-51404819D02*
X250420238Y-51404819D01*
X250420238Y-51404819D02*
X250515476Y-51357200D01*
X250515476Y-51357200D02*
X250563095Y-51309580D01*
X250563095Y-51309580D02*
X250610714Y-51214342D01*
X250610714Y-51214342D02*
X250610714Y-50976247D01*
X250610714Y-50976247D02*
X250563095Y-50881009D01*
X250563095Y-50881009D02*
X250515476Y-50833390D01*
X250515476Y-50833390D02*
X250420238Y-50785771D01*
X250420238Y-50785771D02*
X250229762Y-50785771D01*
X250229762Y-50785771D02*
X250134524Y-50833390D01*
X250134524Y-50833390D02*
X250086905Y-50881009D01*
X250086905Y-50881009D02*
X250039286Y-50976247D01*
D14*
%TO.C,J5*%
X168415001Y-34960000D02*
X169745001Y-34960000D01*
X168415001Y-36290000D02*
X168415001Y-34960000D01*
X168415001Y-37560000D02*
X168415001Y-85880000D01*
X168415001Y-37560000D02*
X171015001Y-37560000D01*
X168415001Y-85880000D02*
X173615001Y-85880000D01*
X171015001Y-34960000D02*
X173615001Y-34960000D01*
X171015001Y-37560000D02*
X171015001Y-34960000D01*
X173615001Y-34960000D02*
X173615001Y-85880000D01*
%TO.C,J6*%
X229455000Y-34960000D02*
X230785000Y-34960000D01*
X229455000Y-36290000D02*
X229455000Y-34960000D01*
X229455000Y-37560000D02*
X229455000Y-85880000D01*
X229455000Y-37560000D02*
X232055000Y-37560000D01*
X229455000Y-85880000D02*
X234655000Y-85880000D01*
X232055000Y-34960000D02*
X234655000Y-34960000D01*
X232055000Y-37560000D02*
X232055000Y-34960000D01*
X234655000Y-34960000D02*
X234655000Y-85880000D01*
%TO.C,R2*%
X250155000Y-66280000D02*
X250155000Y-72820000D01*
X250155000Y-72820000D02*
X252895000Y-72820000D01*
X251525000Y-65510000D02*
X251525000Y-66280000D01*
X251525000Y-73590000D02*
X251525000Y-72820000D01*
X252895000Y-66280000D02*
X250155000Y-66280000D01*
X252895000Y-72820000D02*
X252895000Y-66280000D01*
D15*
%TO.C,CON1*%
X132025000Y-54050000D02*
X134565000Y-54050000D01*
X132055000Y-38820000D02*
X134595000Y-38820000D01*
X132055000Y-41360000D02*
X134595000Y-41360000D01*
X132055000Y-43900000D02*
X134595000Y-43900000D01*
X132055000Y-46440000D02*
X134595000Y-46440000D01*
X132055000Y-48980000D02*
X134595000Y-48980000D01*
X132055000Y-51520000D02*
X134595000Y-51520000D01*
X154915000Y-38820000D02*
X157455000Y-38820000D01*
X154915000Y-41360000D02*
X157455000Y-41360000D01*
X154915000Y-43900000D02*
X157455000Y-43900000D01*
X154915000Y-46440000D02*
X157455000Y-46440000D01*
X154915000Y-48980000D02*
X157455000Y-48980000D01*
X154915000Y-51520000D02*
X157455000Y-51520000D01*
X154915000Y-54060000D02*
X157455000Y-54060000D01*
D14*
%TO.C,D5*%
X260245000Y-92910000D02*
X260089000Y-92910000D01*
X262561000Y-92910000D02*
X262405000Y-92910000D01*
X260245164Y-95511129D02*
G75*
G02*
X260245001Y-93429040I1079836J1041129D01*
G01*
X260246392Y-96142334D02*
G75*
G02*
X260089485Y-92910001I1078608J1672334D01*
G01*
X262404999Y-93429040D02*
G75*
G02*
X262404836Y-95511129I-1079999J-1040960D01*
G01*
X262560515Y-92910001D02*
G75*
G02*
X262403608Y-96142334I-1235515J-1559999D01*
G01*
%TO.C,D2*%
X184605000Y-50020000D02*
X184605000Y-54260000D01*
X184605000Y-53420000D02*
X186845000Y-53420000D01*
X184605000Y-53540000D02*
X186845000Y-53540000D01*
X184605000Y-53660000D02*
X186845000Y-53660000D01*
X184605000Y-54260000D02*
X186845000Y-54260000D01*
X185725000Y-49370000D02*
X185725000Y-50020000D01*
X185725000Y-54910000D02*
X185725000Y-54260000D01*
X186845000Y-50020000D02*
X184605000Y-50020000D01*
X186845000Y-54260000D02*
X186845000Y-50020000D01*
%TO.C,D1*%
X176605000Y-50020000D02*
X176605000Y-54260000D01*
X176605000Y-54260000D02*
X178845000Y-54260000D01*
X177725000Y-49370000D02*
X177725000Y-50020000D01*
X177725000Y-54910000D02*
X177725000Y-54260000D01*
X178845000Y-50020000D02*
X176605000Y-50020000D01*
X178845000Y-50620000D02*
X176605000Y-50620000D01*
X178845000Y-50740000D02*
X176605000Y-50740000D01*
X178845000Y-50860000D02*
X176605000Y-50860000D01*
X178845000Y-54260000D02*
X178845000Y-50020000D01*
%TO.C,R8*%
X240875000Y-76280000D02*
X240875000Y-82820000D01*
X240875000Y-82820000D02*
X243615000Y-82820000D01*
X242245000Y-75510000D02*
X242245000Y-76280000D01*
X242245000Y-83590000D02*
X242245000Y-82820000D01*
X243615000Y-76280000D02*
X240875000Y-76280000D01*
X243615000Y-82820000D02*
X243615000Y-76280000D01*
%TO.C,R5*%
X246635000Y-63280000D02*
X246635000Y-69820000D01*
X246635000Y-69820000D02*
X249375000Y-69820000D01*
X248005000Y-62510000D02*
X248005000Y-63280000D01*
X248005000Y-70590000D02*
X248005000Y-69820000D01*
X249375000Y-63280000D02*
X246635000Y-63280000D01*
X249375000Y-69820000D02*
X249375000Y-63280000D01*
%TO.C,C4*%
X202605000Y-86830000D02*
X202605000Y-90570000D01*
X202605000Y-86830000D02*
X209845000Y-86830000D01*
X202605000Y-90570000D02*
X209845000Y-90570000D01*
X209845000Y-86830000D02*
X209845000Y-90570000D01*
%TO.C,J4*%
X125130000Y-64115000D02*
X136450000Y-64115000D01*
X125130000Y-74395000D02*
X125130000Y-64115000D01*
X125130000Y-74395000D02*
X136450000Y-74395000D01*
X127190000Y-74395000D02*
X127190000Y-64115000D01*
X129436000Y-65327000D02*
X129816000Y-65707000D01*
X129436000Y-70407000D02*
X129543000Y-70514000D01*
X129702000Y-65061000D02*
X130098000Y-65456000D01*
X129702000Y-70141000D02*
X129809000Y-70248000D01*
X132082000Y-67973000D02*
X132478000Y-68368000D01*
X132364000Y-67722000D02*
X132744000Y-68102000D01*
X132371000Y-73343000D02*
X132478000Y-73449000D01*
X132637000Y-73077000D02*
X132744000Y-73183000D01*
X133390000Y-74395000D02*
X133390000Y-64115000D01*
X135890000Y-74395000D02*
X135890000Y-64115000D01*
X135950000Y-74635000D02*
X136690000Y-74635000D01*
X136450000Y-74395000D02*
X136450000Y-64115000D01*
X136690000Y-74635000D02*
X136690000Y-74135000D01*
X133270000Y-66715000D02*
G75*
G02*
X128910000Y-66715000I-2180000J0D01*
G01*
X128910000Y-66715000D02*
G75*
G02*
X133270000Y-66715000I2180000J0D01*
G01*
X133270000Y-71795000D02*
G75*
G02*
X128910000Y-71795000I-2180000J0D01*
G01*
X128910000Y-71795000D02*
G75*
G02*
X133270000Y-71795000I2180000J0D01*
G01*
%TO.C,R13*%
X260035000Y-81880000D02*
X260035000Y-88420000D01*
X260035000Y-88420000D02*
X262775000Y-88420000D01*
X261405000Y-81110000D02*
X261405000Y-81880000D01*
X261405000Y-89190000D02*
X261405000Y-88420000D01*
X262775000Y-81880000D02*
X260035000Y-81880000D01*
X262775000Y-88420000D02*
X262775000Y-81880000D01*
%TO.C,R3*%
X134805000Y-77950000D02*
X135575000Y-77950000D01*
X135575000Y-76580000D02*
X135575000Y-79320000D01*
X135575000Y-79320000D02*
X142115000Y-79320000D01*
X142115000Y-76580000D02*
X135575000Y-76580000D01*
X142115000Y-79320000D02*
X142115000Y-76580000D01*
X142885000Y-77950000D02*
X142115000Y-77950000D01*
%TO.C,J1*%
X167415000Y-135960000D02*
X167415000Y-134630000D01*
X168525000Y-135960000D02*
X167415000Y-135960000D01*
X169985000Y-108870000D02*
X169575000Y-108870000D01*
X169985000Y-109590000D02*
X169575000Y-109590000D01*
X169985000Y-111410000D02*
X169575000Y-111410000D01*
X169985000Y-112130000D02*
X169575000Y-112130000D01*
X169985000Y-113950000D02*
X169575000Y-113950000D01*
X169985000Y-114670000D02*
X169575000Y-114670000D01*
X169985000Y-116490000D02*
X169575000Y-116490000D01*
X169985000Y-117210000D02*
X169575000Y-117210000D01*
X169985000Y-119030000D02*
X169575000Y-119030000D01*
X169985000Y-119750000D02*
X169575000Y-119750000D01*
X169985000Y-121570000D02*
X169575000Y-121570000D01*
X169985000Y-122290000D02*
X169575000Y-122290000D01*
X169985000Y-124110000D02*
X169575000Y-124110000D01*
X169985000Y-124830000D02*
X169575000Y-124830000D01*
X169985000Y-126650000D02*
X169575000Y-126650000D01*
X169985000Y-127370000D02*
X169575000Y-127370000D01*
X169985000Y-129190000D02*
X169575000Y-129190000D01*
X169985000Y-129910000D02*
X169575000Y-129910000D01*
X169985000Y-131730000D02*
X169575000Y-131730000D01*
X169985000Y-132450000D02*
X169575000Y-132450000D01*
X169985000Y-134270000D02*
X169635000Y-134270000D01*
X169985000Y-134990000D02*
X169635000Y-134990000D01*
X169985000Y-135960000D02*
X169985000Y-107900000D01*
X178615000Y-107900000D02*
X169985000Y-107900000D01*
X178615000Y-110500000D02*
X169985000Y-110500000D01*
X178615000Y-113040000D02*
X169985000Y-113040000D01*
X178615000Y-115580000D02*
X169985000Y-115580000D01*
X178615000Y-118120000D02*
X169985000Y-118120000D01*
X178615000Y-120660000D02*
X169985000Y-120660000D01*
X178615000Y-123200000D02*
X169985000Y-123200000D01*
X178615000Y-125740000D02*
X169985000Y-125740000D01*
X178615000Y-128280000D02*
X169985000Y-128280000D01*
X178615000Y-130820000D02*
X169985000Y-130820000D01*
X178615000Y-133360000D02*
X169985000Y-133360000D01*
X178615000Y-133478100D02*
X169985000Y-133478100D01*
X178615000Y-133596195D02*
X169985000Y-133596195D01*
X178615000Y-133714290D02*
X169985000Y-133714290D01*
X178615000Y-133832385D02*
X169985000Y-133832385D01*
X178615000Y-133950480D02*
X169985000Y-133950480D01*
X178615000Y-134068575D02*
X169985000Y-134068575D01*
X178615000Y-134186670D02*
X169985000Y-134186670D01*
X178615000Y-134304765D02*
X169985000Y-134304765D01*
X178615000Y-134422860D02*
X169985000Y-134422860D01*
X178615000Y-134540955D02*
X169985000Y-134540955D01*
X178615000Y-134659050D02*
X169985000Y-134659050D01*
X178615000Y-134777145D02*
X169985000Y-134777145D01*
X178615000Y-134895240D02*
X169985000Y-134895240D01*
X178615000Y-135013335D02*
X169985000Y-135013335D01*
X178615000Y-135131430D02*
X169985000Y-135131430D01*
X178615000Y-135249525D02*
X169985000Y-135249525D01*
X178615000Y-135367620D02*
X169985000Y-135367620D01*
X178615000Y-135485715D02*
X169985000Y-135485715D01*
X178615000Y-135603810D02*
X169985000Y-135603810D01*
X178615000Y-135721905D02*
X169985000Y-135721905D01*
X178615000Y-135840000D02*
X169985000Y-135840000D01*
X178615000Y-135960000D02*
X169985000Y-135960000D01*
X178615000Y-135960000D02*
X178615000Y-107900000D01*
%TO.C,R12*%
X253835000Y-81680000D02*
X253835000Y-88220000D01*
X253835000Y-88220000D02*
X256575000Y-88220000D01*
X255205000Y-80910000D02*
X255205000Y-81680000D01*
X255205000Y-88990000D02*
X255205000Y-88220000D01*
X256575000Y-81680000D02*
X253835000Y-81680000D01*
X256575000Y-88220000D02*
X256575000Y-81680000D01*
%TO.C,SW5*%
D13*
X252825000Y-40550000D02*
X246825000Y-40550000D01*
X246825000Y-34550000D01*
X252825000Y-34550000D01*
X252825000Y-40550000D01*
D14*
%TO.C,J8*%
X269415000Y-60100000D02*
X269415000Y-58770000D01*
X270525000Y-60100000D02*
X269415000Y-60100000D01*
X271985000Y-50790000D02*
X271575000Y-50790000D01*
X271985000Y-51510000D02*
X271575000Y-51510000D01*
X271985000Y-53330000D02*
X271575000Y-53330000D01*
X271985000Y-54050000D02*
X271575000Y-54050000D01*
X271985000Y-55870000D02*
X271575000Y-55870000D01*
X271985000Y-56590000D02*
X271575000Y-56590000D01*
X271985000Y-58410000D02*
X271635000Y-58410000D01*
X271985000Y-59130000D02*
X271635000Y-59130000D01*
X271985000Y-60100000D02*
X271985000Y-49820000D01*
X280615000Y-49820000D02*
X271985000Y-49820000D01*
X280615000Y-52420000D02*
X271985000Y-52420000D01*
X280615000Y-54960000D02*
X271985000Y-54960000D01*
X280615000Y-57500000D02*
X271985000Y-57500000D01*
X280615000Y-57618100D02*
X271985000Y-57618100D01*
X280615000Y-57736195D02*
X271985000Y-57736195D01*
X280615000Y-57854290D02*
X271985000Y-57854290D01*
X280615000Y-57972385D02*
X271985000Y-57972385D01*
X280615000Y-58090480D02*
X271985000Y-58090480D01*
X280615000Y-58208575D02*
X271985000Y-58208575D01*
X280615000Y-58326670D02*
X271985000Y-58326670D01*
X280615000Y-58444765D02*
X271985000Y-58444765D01*
X280615000Y-58562860D02*
X271985000Y-58562860D01*
X280615000Y-58680955D02*
X271985000Y-58680955D01*
X280615000Y-58799050D02*
X271985000Y-58799050D01*
X280615000Y-58917145D02*
X271985000Y-58917145D01*
X280615000Y-59035240D02*
X271985000Y-59035240D01*
X280615000Y-59153335D02*
X271985000Y-59153335D01*
X280615000Y-59271430D02*
X271985000Y-59271430D01*
X280615000Y-59389525D02*
X271985000Y-59389525D01*
X280615000Y-59507620D02*
X271985000Y-59507620D01*
X280615000Y-59625715D02*
X271985000Y-59625715D01*
X280615000Y-59743810D02*
X271985000Y-59743810D01*
X280615000Y-59861905D02*
X271985000Y-59861905D01*
X280615000Y-59980000D02*
X271985000Y-59980000D01*
X280615000Y-60100000D02*
X271985000Y-60100000D01*
X280615000Y-60100000D02*
X280615000Y-49820000D01*
%TO.C,R7*%
X239555000Y-57400000D02*
X239555000Y-63940000D01*
X239555000Y-63940000D02*
X242295000Y-63940000D01*
X240925000Y-56630000D02*
X240925000Y-57400000D01*
X240925000Y-64710000D02*
X240925000Y-63940000D01*
X242295000Y-57400000D02*
X239555000Y-57400000D01*
X242295000Y-63940000D02*
X242295000Y-57400000D01*
%TO.C,R14*%
X266235000Y-81680000D02*
X266235000Y-88220000D01*
X266235000Y-88220000D02*
X268975000Y-88220000D01*
X267605000Y-80910000D02*
X267605000Y-81680000D01*
X267605000Y-88990000D02*
X267605000Y-88220000D01*
X268975000Y-81680000D02*
X266235000Y-81680000D01*
X268975000Y-88220000D02*
X268975000Y-81680000D01*
%TO.C,J9*%
X273995000Y-34220000D02*
X275325000Y-34220000D01*
X273995000Y-35550000D02*
X273995000Y-34220000D01*
X273995000Y-36820000D02*
X273995000Y-41960000D01*
X273995000Y-36820000D02*
X276655000Y-36820000D01*
X273995000Y-41960000D02*
X276655000Y-41960000D01*
X276655000Y-36820000D02*
X276655000Y-41960000D01*
%TO.C,J2*%
X134895000Y-87040000D02*
X136225000Y-87040000D01*
X134895000Y-88150000D02*
X134895000Y-87040000D01*
X134895000Y-89610000D02*
X147715000Y-89610000D01*
X134895000Y-98240000D02*
X134895000Y-89610000D01*
X134895000Y-98240000D02*
X147715000Y-98240000D01*
X135015000Y-98240000D02*
X135015000Y-89610000D01*
X135133095Y-98240000D02*
X135133095Y-89610000D01*
X135251190Y-98240000D02*
X135251190Y-89610000D01*
X135369285Y-98240000D02*
X135369285Y-89610000D01*
X135487380Y-98240000D02*
X135487380Y-89610000D01*
X135605475Y-98240000D02*
X135605475Y-89610000D01*
X135723570Y-98240000D02*
X135723570Y-89610000D01*
X135841665Y-98240000D02*
X135841665Y-89610000D01*
X135865000Y-89610000D02*
X135865000Y-89260000D01*
X135959760Y-98240000D02*
X135959760Y-89610000D01*
X136077855Y-98240000D02*
X136077855Y-89610000D01*
X136195950Y-98240000D02*
X136195950Y-89610000D01*
X136314045Y-98240000D02*
X136314045Y-89610000D01*
X136432140Y-98240000D02*
X136432140Y-89610000D01*
X136550235Y-98240000D02*
X136550235Y-89610000D01*
X136585000Y-89610000D02*
X136585000Y-89260000D01*
X136668330Y-98240000D02*
X136668330Y-89610000D01*
X136786425Y-98240000D02*
X136786425Y-89610000D01*
X136904520Y-98240000D02*
X136904520Y-89610000D01*
X137022615Y-98240000D02*
X137022615Y-89610000D01*
X137140710Y-98240000D02*
X137140710Y-89610000D01*
X137258805Y-98240000D02*
X137258805Y-89610000D01*
X137376900Y-98240000D02*
X137376900Y-89610000D01*
X137495000Y-98240000D02*
X137495000Y-89610000D01*
X138405000Y-89610000D02*
X138405000Y-89200000D01*
X139125000Y-89610000D02*
X139125000Y-89200000D01*
X140035000Y-98240000D02*
X140035000Y-89610000D01*
X140945000Y-89610000D02*
X140945000Y-89200000D01*
X141665000Y-89610000D02*
X141665000Y-89200000D01*
X142575000Y-98240000D02*
X142575000Y-89610000D01*
X143485000Y-89610000D02*
X143485000Y-89200000D01*
X144205000Y-89610000D02*
X144205000Y-89200000D01*
X145115000Y-98240000D02*
X145115000Y-89610000D01*
X146025000Y-89610000D02*
X146025000Y-89200000D01*
X146745000Y-89610000D02*
X146745000Y-89200000D01*
X147715000Y-98240000D02*
X147715000Y-89610000D01*
%TO.C,SW1*%
D13*
X264825000Y-116550000D02*
X270825000Y-116550000D01*
X270825000Y-122550000D01*
X264825000Y-122550000D01*
X264825000Y-116550000D01*
D14*
%TO.C,D7*%
X272245000Y-92985000D02*
X272089000Y-92985000D01*
X274561000Y-92985000D02*
X274405000Y-92985000D01*
X272245164Y-95586129D02*
G75*
G02*
X272245001Y-93504040I1079836J1041129D01*
G01*
X272246392Y-96217334D02*
G75*
G02*
X272089485Y-92985001I1078608J1672334D01*
G01*
X274404999Y-93504040D02*
G75*
G02*
X274404836Y-95586129I-1079999J-1040960D01*
G01*
X274560515Y-92985001D02*
G75*
G02*
X274403608Y-96217334I-1235515J-1559999D01*
G01*
%TO.C,R16*%
X236075000Y-53280000D02*
X236075000Y-59820000D01*
X236075000Y-59820000D02*
X238815000Y-59820000D01*
X237445000Y-52510000D02*
X237445000Y-53280000D01*
X237445000Y-60590000D02*
X237445000Y-59820000D01*
X238815000Y-53280000D02*
X236075000Y-53280000D01*
X238815000Y-59820000D02*
X238815000Y-53280000D01*
%TO.C,R11*%
X251205000Y-31550000D02*
X251975000Y-31550000D01*
X251975000Y-30180000D02*
X251975000Y-32920000D01*
X251975000Y-32920000D02*
X258515000Y-32920000D01*
X258515000Y-30180000D02*
X251975000Y-30180000D01*
X258515000Y-32920000D02*
X258515000Y-30180000D01*
X259285000Y-31550000D02*
X258515000Y-31550000D01*
%TO.C,R9*%
X237035000Y-73680000D02*
X237035000Y-80220000D01*
X237035000Y-80220000D02*
X239775000Y-80220000D01*
X238405000Y-72910000D02*
X238405000Y-73680000D01*
X238405000Y-80990000D02*
X238405000Y-80220000D01*
X239775000Y-73680000D02*
X237035000Y-73680000D01*
X239775000Y-80220000D02*
X239775000Y-73680000D01*
%TO.C,D4*%
X254045000Y-92985000D02*
X253889000Y-92985000D01*
X256361000Y-92985000D02*
X256205000Y-92985000D01*
X254045164Y-95586129D02*
G75*
G02*
X254045001Y-93504040I1079836J1041129D01*
G01*
X254046392Y-96217334D02*
G75*
G02*
X253889485Y-92985001I1078608J1672334D01*
G01*
X256204999Y-93504040D02*
G75*
G02*
X256204836Y-95586129I-1079999J-1040960D01*
G01*
X256360515Y-92985001D02*
G75*
G02*
X256203608Y-96217334I-1235515J-1559999D01*
G01*
%TO.C,C3*%
X202605000Y-81780000D02*
X202605000Y-85520000D01*
X202605000Y-81780000D02*
X209845000Y-81780000D01*
X202605000Y-85520000D02*
X209845000Y-85520000D01*
X209845000Y-81780000D02*
X209845000Y-85520000D01*
%TO.C,R6*%
X243035000Y-60280000D02*
X243035000Y-66820000D01*
X243035000Y-66820000D02*
X245775000Y-66820000D01*
X244405000Y-59510000D02*
X244405000Y-60280000D01*
X244405000Y-67590000D02*
X244405000Y-66820000D01*
X245775000Y-60280000D02*
X243035000Y-60280000D01*
X245775000Y-66820000D02*
X245775000Y-60280000D01*
%TO.C,D6*%
X266245000Y-92985000D02*
X266089000Y-92985000D01*
X268561000Y-92985000D02*
X268405000Y-92985000D01*
X266245164Y-95586129D02*
G75*
G02*
X266245001Y-93504040I1079836J1041129D01*
G01*
X266246392Y-96217334D02*
G75*
G02*
X266089485Y-92985001I1078608J1672334D01*
G01*
X268404999Y-93504040D02*
G75*
G02*
X268404836Y-95586129I-1079999J-1040960D01*
G01*
X268560515Y-92985001D02*
G75*
G02*
X268403608Y-96217334I-1235515J-1559999D01*
G01*
%TO.C,C2*%
X202605000Y-76730000D02*
X202605000Y-80470000D01*
X202605000Y-76730000D02*
X209845000Y-76730000D01*
X202605000Y-80470000D02*
X209845000Y-80470000D01*
X209845000Y-76730000D02*
X209845000Y-80470000D01*
%TO.C,RV1*%
X168690000Y-91515000D02*
X175530000Y-91515000D01*
X168690000Y-94425000D02*
X168690000Y-91515000D01*
X168690000Y-98755000D02*
X168690000Y-95725000D01*
X168690000Y-98755000D02*
X175530000Y-98755000D01*
X175530000Y-94425000D02*
X175530000Y-91515000D01*
X175530000Y-98755000D02*
X175530000Y-95725000D01*
%TO.C,SW3*%
D13*
X248825000Y-116550000D02*
X254825000Y-116550000D01*
X254825000Y-122550000D01*
X248825000Y-122550000D01*
X248825000Y-116550000D01*
%TO.C,SW4*%
X256825000Y-124550000D02*
X262825000Y-124550000D01*
X262825000Y-130550000D01*
X256825000Y-130550000D01*
X256825000Y-124550000D01*
D14*
%TO.C,J3*%
X180355000Y-30760000D02*
X180355000Y-39390000D01*
X181325000Y-39390000D02*
X181325000Y-39800000D01*
X182045000Y-39390000D02*
X182045000Y-39800000D01*
X182955000Y-30760000D02*
X182955000Y-39390000D01*
X183073100Y-30760000D02*
X183073100Y-39390000D01*
X183191195Y-30760000D02*
X183191195Y-39390000D01*
X183309290Y-30760000D02*
X183309290Y-39390000D01*
X183427385Y-30760000D02*
X183427385Y-39390000D01*
X183545480Y-30760000D02*
X183545480Y-39390000D01*
X183663575Y-30760000D02*
X183663575Y-39390000D01*
X183781670Y-30760000D02*
X183781670Y-39390000D01*
X183865000Y-39390000D02*
X183865000Y-39740000D01*
X183899765Y-30760000D02*
X183899765Y-39390000D01*
X184017860Y-30760000D02*
X184017860Y-39390000D01*
X184135955Y-30760000D02*
X184135955Y-39390000D01*
X184254050Y-30760000D02*
X184254050Y-39390000D01*
X184372145Y-30760000D02*
X184372145Y-39390000D01*
X184490240Y-30760000D02*
X184490240Y-39390000D01*
X184585000Y-39390000D02*
X184585000Y-39740000D01*
X184608335Y-30760000D02*
X184608335Y-39390000D01*
X184726430Y-30760000D02*
X184726430Y-39390000D01*
X184844525Y-30760000D02*
X184844525Y-39390000D01*
X184962620Y-30760000D02*
X184962620Y-39390000D01*
X185080715Y-30760000D02*
X185080715Y-39390000D01*
X185198810Y-30760000D02*
X185198810Y-39390000D01*
X185316905Y-30760000D02*
X185316905Y-39390000D01*
X185435000Y-30760000D02*
X185435000Y-39390000D01*
X185555000Y-30760000D02*
X180355000Y-30760000D01*
X185555000Y-30760000D02*
X185555000Y-39390000D01*
X185555000Y-39390000D02*
X180355000Y-39390000D01*
X185555000Y-40850000D02*
X185555000Y-41960000D01*
X185555000Y-41960000D02*
X184225000Y-41960000D01*
%TO.C,SW2*%
D13*
X256825000Y-107550000D02*
X262825000Y-107550000D01*
X262825000Y-113550000D01*
X256825000Y-113550000D01*
X256825000Y-107550000D01*
D14*
%TO.C,R15*%
X272035000Y-81680000D02*
X272035000Y-88220000D01*
X272035000Y-88220000D02*
X274775000Y-88220000D01*
X273405000Y-80910000D02*
X273405000Y-81680000D01*
X273405000Y-88990000D02*
X273405000Y-88220000D01*
X274775000Y-81680000D02*
X272035000Y-81680000D01*
X274775000Y-88220000D02*
X274775000Y-81680000D01*
%TO.C,J10*%
X268995000Y-34220000D02*
X270325000Y-34220000D01*
X268995000Y-35550000D02*
X268995000Y-34220000D01*
X268995000Y-36820000D02*
X268995000Y-41960000D01*
X268995000Y-36820000D02*
X271655000Y-36820000D01*
X268995000Y-41960000D02*
X271655000Y-41960000D01*
X271655000Y-36820000D02*
X271655000Y-41960000D01*
%TO.C,U1*%
X254275000Y-68110000D02*
X254275000Y-73410000D01*
X254275000Y-73410000D02*
X277255000Y-73410000D01*
X277255000Y-68110000D02*
X254275000Y-68110000D01*
X277255000Y-69760000D02*
X277255000Y-68110000D01*
X277255000Y-73410000D02*
X277255000Y-71760000D01*
X277255000Y-71760000D02*
G75*
G02*
X277255000Y-69760000I0J1000000D01*
G01*
%TO.C,C5*%
X202605000Y-91880000D02*
X202605000Y-95620000D01*
X202605000Y-91880000D02*
X209845000Y-91880000D01*
X202605000Y-95620000D02*
X209845000Y-95620000D01*
X209845000Y-91880000D02*
X209845000Y-95620000D01*
%TO.C,R4*%
X180355000Y-47600000D02*
X180355000Y-54140000D01*
X180355000Y-54140000D02*
X183095000Y-54140000D01*
X181725000Y-46830000D02*
X181725000Y-47600000D01*
X181725000Y-54910000D02*
X181725000Y-54140000D01*
X183095000Y-47600000D02*
X180355000Y-47600000D01*
X183095000Y-54140000D02*
X183095000Y-47600000D01*
%TO.C,D3*%
X258980000Y-34985000D02*
X258824000Y-34985000D01*
X261296000Y-34985000D02*
X261140000Y-34985000D01*
X258980164Y-37586129D02*
G75*
G02*
X258980001Y-35504040I1079836J1041129D01*
G01*
X258981392Y-38217334D02*
G75*
G02*
X258824485Y-34985001I1078608J1672334D01*
G01*
X261139999Y-35504040D02*
G75*
G02*
X261139836Y-37586129I-1079999J-1040960D01*
G01*
X261295515Y-34985001D02*
G75*
G02*
X261138608Y-38217334I-1235515J-1559999D01*
G01*
%TO.C,C6*%
X246205000Y-49820000D02*
X246205000Y-46080000D01*
X253445000Y-46080000D02*
X246205000Y-46080000D01*
X253445000Y-49820000D02*
X246205000Y-49820000D01*
X253445000Y-49820000D02*
X253445000Y-46080000D01*
%TD*%
M02*
