%TF.GenerationSoftware,KiCad,Pcbnew,8.0.0*%
%TF.CreationDate,2024-05-22T13:11:44+02:00*%
%TF.ProjectId,Remote_Board_L476RG,52656d6f-7465-45f4-926f-6172645f4c34,rev?*%
%TF.SameCoordinates,Original*%
%TF.FileFunction,Copper,L1,Top*%
%TF.FilePolarity,Positive*%
%FSLAX46Y46*%
G04 Gerber Fmt 4.6, Leading zero omitted, Abs format (unit mm)*
G04 Created by KiCad (PCBNEW 8.0.0) date 2024-05-22 13:11:44*
%MOMM*%
%LPD*%
G01*
G04 APERTURE LIST*
%TA.AperFunction,ComponentPad*%
%ADD10R,1.700000X1.700000*%
%TD*%
%TA.AperFunction,ComponentPad*%
%ADD11O,1.700000X1.700000*%
%TD*%
%TA.AperFunction,ComponentPad*%
%ADD12C,1.600000*%
%TD*%
%TA.AperFunction,ComponentPad*%
%ADD13O,1.600000X1.600000*%
%TD*%
%TA.AperFunction,ComponentPad*%
%ADD14R,1.676400X1.676400*%
%TD*%
%TA.AperFunction,ComponentPad*%
%ADD15C,1.524000*%
%TD*%
%TA.AperFunction,ComponentPad*%
%ADD16R,1.524000X1.524000*%
%TD*%
%TA.AperFunction,ComponentPad*%
%ADD17R,1.800000X1.800000*%
%TD*%
%TA.AperFunction,ComponentPad*%
%ADD18C,1.800000*%
%TD*%
%TA.AperFunction,ComponentPad*%
%ADD19R,1.600000X1.600000*%
%TD*%
%TA.AperFunction,ComponentPad*%
%ADD20R,2.600000X2.600000*%
%TD*%
%TA.AperFunction,ComponentPad*%
%ADD21C,2.600000*%
%TD*%
%TA.AperFunction,ComponentPad*%
%ADD22C,1.440000*%
%TD*%
G04 APERTURE END LIST*
D10*
%TO.P,J5,1,Pin_1*%
%TO.N,unconnected-(J5-Pin_1-Pad1)*%
X169745001Y-36290000D03*
D11*
%TO.P,J5,2,Pin_2*%
%TO.N,unconnected-(J5-Pin_2-Pad2)*%
X172285001Y-36290000D03*
%TO.P,J5,3,Pin_3*%
%TO.N,T_OUT*%
X169745001Y-38830000D03*
%TO.P,J5,4,Pin_4*%
%TO.N,unconnected-(J5-Pin_4-Pad4)*%
X172285001Y-38830000D03*
%TO.P,J5,5,Pin_5*%
%TO.N,SD_CS*%
X169745001Y-41370000D03*
%TO.P,J5,6,Pin_6*%
%TO.N,unconnected-(J5-Pin_6-Pad6)*%
X172285001Y-41370000D03*
%TO.P,J5,7,Pin_7*%
%TO.N,unconnected-(J5-Pin_7-Pad7)*%
X169745001Y-43910000D03*
%TO.P,J5,8,Pin_8*%
%TO.N,unconnected-(J5-Pin_8-Pad8)*%
X172285001Y-43910000D03*
%TO.P,J5,9,Pin_9*%
%TO.N,unconnected-(J5-Pin_9-Pad9)*%
X169745001Y-46450000D03*
%TO.P,J5,10,Pin_10*%
%TO.N,unconnected-(J5-Pin_10-Pad10)*%
X172285001Y-46450000D03*
%TO.P,J5,11,Pin_11*%
%TO.N,unconnected-(J5-Pin_11-Pad11)*%
X169745001Y-48990000D03*
%TO.P,J5,12,Pin_12*%
%TO.N,unconnected-(J5-Pin_12-Pad12)*%
X172285001Y-48990000D03*
%TO.P,J5,13,Pin_13*%
%TO.N,unconnected-(J5-Pin_13-Pad13)*%
X169745001Y-51530000D03*
%TO.P,J5,14,Pin_14*%
%TO.N,unconnected-(J5-Pin_14-Pad14)*%
X172285001Y-51530000D03*
%TO.P,J5,15,Pin_15*%
%TO.N,LCD_DC*%
X169745001Y-54070000D03*
%TO.P,J5,16,Pin_16*%
%TO.N,unconnected-(J5-Pin_16-Pad16)*%
X172285001Y-54070000D03*
%TO.P,J5,17,Pin_17*%
%TO.N,LCD_RES*%
X169745001Y-56610000D03*
%TO.P,J5,18,Pin_18*%
%TO.N,3.3V_NUC*%
X172285001Y-56610000D03*
%TO.P,J5,19,Pin_19*%
%TO.N,LCD_CS*%
X169745001Y-59150000D03*
%TO.P,J5,20,Pin_20*%
%TO.N,5V_NUC*%
X172285001Y-59150000D03*
%TO.P,J5,21,Pin_21*%
%TO.N,GND*%
X169745001Y-61690000D03*
%TO.P,J5,22,Pin_22*%
X172285001Y-61690000D03*
%TO.P,J5,23,Pin_23*%
%TO.N,unconnected-(J5-Pin_23-Pad23)*%
X169745001Y-64230000D03*
%TO.P,J5,24,Pin_24*%
%TO.N,GND*%
X172285001Y-64230000D03*
%TO.P,J5,25,Pin_25*%
%TO.N,USER_BUTTON*%
X169745001Y-66770000D03*
%TO.P,J5,26,Pin_26*%
%TO.N,VIN*%
X172285001Y-66770000D03*
%TO.P,J5,27,Pin_27*%
%TO.N,unconnected-(J5-Pin_27-Pad27)*%
X169745001Y-69310000D03*
%TO.P,J5,28,Pin_28*%
%TO.N,unconnected-(J5-Pin_28-Pad28)*%
X172285001Y-69310000D03*
%TO.P,J5,29,Pin_29*%
%TO.N,unconnected-(J5-Pin_29-Pad29)*%
X169745001Y-71850000D03*
%TO.P,J5,30,Pin_30*%
%TO.N,unconnected-(J5-Pin_30-Pad30)*%
X172285001Y-71850000D03*
%TO.P,J5,31,Pin_31*%
%TO.N,unconnected-(J5-Pin_31-Pad31)*%
X169745001Y-74390000D03*
%TO.P,J5,32,Pin_32*%
%TO.N,unconnected-(J5-Pin_32-Pad32)*%
X172285001Y-74390000D03*
%TO.P,J5,33,Pin_33*%
%TO.N,JOYSW*%
X169745001Y-76930000D03*
%TO.P,J5,34,Pin_34*%
%TO.N,ADC_OUT*%
X172285001Y-76930000D03*
%TO.P,J5,35,Pin_35*%
%TO.N,unconnected-(J5-Pin_35-Pad35)*%
X169745001Y-79470000D03*
%TO.P,J5,36,Pin_36*%
%TO.N,unconnected-(J5-Pin_36-Pad36)*%
X172285001Y-79470000D03*
%TO.P,J5,37,Pin_37*%
%TO.N,JOYX*%
X169745001Y-82010000D03*
%TO.P,J5,38,Pin_38*%
%TO.N,AN_IN*%
X172285001Y-82010000D03*
%TO.P,J5,39,Pin_39*%
%TO.N,JOYY*%
X169745001Y-84550000D03*
%TO.P,J5,40,Pin_40*%
%TO.N,POT_OUT*%
X172285001Y-84550000D03*
%TD*%
D10*
%TO.P,J6,1,Pin_1*%
%TO.N,unconnected-(J6-Pin_1-Pad1)*%
X230785000Y-36290000D03*
D11*
%TO.P,J6,2,Pin_2*%
%TO.N,unconnected-(J6-Pin_2-Pad2)*%
X233325000Y-36290000D03*
%TO.P,J6,3,Pin_3*%
%TO.N,unconnected-(J6-Pin_3-Pad3)*%
X230785000Y-38830000D03*
%TO.P,J6,4,Pin_4*%
%TO.N,LED_OUT*%
X233325000Y-38830000D03*
%TO.P,J6,5,Pin_5*%
%TO.N,unconnected-(J6-Pin_5-Pad5)*%
X230785000Y-41370000D03*
%TO.P,J6,6,Pin_6*%
%TO.N,unconnected-(J6-Pin_6-Pad6)*%
X233325000Y-41370000D03*
%TO.P,J6,7,Pin_7*%
%TO.N,unconnected-(J6-Pin_7-Pad7)*%
X230785000Y-43910000D03*
%TO.P,J6,8,Pin_8*%
%TO.N,SW5_OUT*%
X233325000Y-43910000D03*
%TO.P,J6,9,Pin_9*%
%TO.N,unconnected-(J6-Pin_9-Pad9)*%
X230785000Y-46450000D03*
%TO.P,J6,10,Pin_10*%
%TO.N,unconnected-(J6-Pin_10-Pad10)*%
X233325000Y-46450000D03*
%TO.P,J6,11,Pin_11*%
%TO.N,unconnected-(J6-Pin_11-Pad11)*%
X230785000Y-48990000D03*
%TO.P,J6,12,Pin_12*%
%TO.N,unconnected-(J6-Pin_12-Pad12)*%
X233325000Y-48990000D03*
%TO.P,J6,13,Pin_13*%
%TO.N,SCK*%
X230785000Y-51530000D03*
%TO.P,J6,14,Pin_14*%
%TO.N,SW4_OUT*%
X233325000Y-51530000D03*
%TO.P,J6,15,Pin_15*%
%TO.N,MISO*%
X230785000Y-54070000D03*
%TO.P,J6,16,Pin_16*%
%TO.N,SW3_OUT*%
X233325000Y-54070000D03*
%TO.P,J6,17,Pin_17*%
%TO.N,MOSI*%
X230785000Y-56610000D03*
%TO.P,J6,18,Pin_18*%
%TO.N,SW2_OUT*%
X233325000Y-56610000D03*
%TO.P,J6,19,Pin_19*%
%TO.N,unconnected-(J6-Pin_19-Pad19)*%
X230785000Y-59150000D03*
%TO.P,J6,20,Pin_20*%
%TO.N,SW1_OUT*%
X233325000Y-59150000D03*
%TO.P,J6,21,Pin_21*%
%TO.N,nRF_CS*%
X230785000Y-61690000D03*
%TO.P,J6,22,Pin_22*%
%TO.N,GND*%
X233325000Y-61690000D03*
%TO.P,J6,23,Pin_23*%
%TO.N,nRF_INT*%
X230785000Y-64230000D03*
%TO.P,J6,24,Pin_24*%
%TO.N,unconnected-(J6-Pin_24-Pad24)*%
X233325000Y-64230000D03*
%TO.P,J6,25,Pin_25*%
%TO.N,nRF_CE*%
X230785000Y-66770000D03*
%TO.P,J6,26,Pin_26*%
%TO.N,unconnected-(J6-Pin_26-Pad26)*%
X233325000Y-66770000D03*
%TO.P,J6,27,Pin_27*%
%TO.N,unconnected-(J6-Pin_27-Pad27)*%
X230785000Y-69310000D03*
%TO.P,J6,28,Pin_28*%
%TO.N,MCP_INT*%
X233325000Y-69310000D03*
%TO.P,J6,29,Pin_29*%
%TO.N,unconnected-(J6-Pin_29-Pad29)*%
X230785000Y-71850000D03*
%TO.P,J6,30,Pin_30*%
%TO.N,SDA*%
X233325000Y-71850000D03*
%TO.P,J6,31,Pin_31*%
%TO.N,unconnected-(J6-Pin_31-Pad31)*%
X230785000Y-74390000D03*
%TO.P,J6,32,Pin_32*%
%TO.N,SCL*%
X233325000Y-74390000D03*
%TO.P,J6,33,Pin_33*%
%TO.N,unconnected-(J6-Pin_33-Pad33)*%
X230785000Y-76930000D03*
%TO.P,J6,34,Pin_34*%
%TO.N,unconnected-(J6-Pin_34-Pad34)*%
X233325000Y-76930000D03*
%TO.P,J6,35,Pin_35*%
%TO.N,unconnected-(J6-Pin_35-Pad35)*%
X230785000Y-79470000D03*
%TO.P,J6,36,Pin_36*%
%TO.N,unconnected-(J6-Pin_36-Pad36)*%
X233325000Y-79470000D03*
%TO.P,J6,37,Pin_37*%
%TO.N,unconnected-(J6-Pin_37-Pad37)*%
X230785000Y-82010000D03*
%TO.P,J6,38,Pin_38*%
%TO.N,unconnected-(J6-Pin_38-Pad38)*%
X233325000Y-82010000D03*
%TO.P,J6,39,Pin_39*%
%TO.N,unconnected-(J6-Pin_39-Pad39)*%
X230785000Y-84550000D03*
%TO.P,J6,40,Pin_40*%
%TO.N,unconnected-(J6-Pin_40-Pad40)*%
X233325000Y-84550000D03*
%TD*%
D12*
%TO.P,R2,1*%
%TO.N,SW1_OUT*%
X251525000Y-74630000D03*
D13*
%TO.P,R2,2*%
%TO.N,GND*%
X251525000Y-64470000D03*
%TD*%
D14*
%TO.P,CON1,P1,AN*%
%TO.N,unconnected-(CON1-AN-PadP1)*%
X133325000Y-37550000D03*
D15*
%TO.P,CON1,P2,RST*%
%TO.N,nRF_CE*%
X133325000Y-40090000D03*
%TO.P,CON1,P3,CS*%
%TO.N,nRF_CS*%
X133325000Y-42630000D03*
%TO.P,CON1,P4,SCK*%
%TO.N,SCK*%
X133325000Y-45170000D03*
%TO.P,CON1,P5,MISO*%
%TO.N,MISO*%
X133325000Y-47710000D03*
%TO.P,CON1,P6,MOSI*%
%TO.N,MOSI*%
X133325000Y-50250000D03*
%TO.P,CON1,P7,3V3*%
%TO.N,3.3V_NUC*%
X133325000Y-52790000D03*
%TO.P,CON1,P8,GND1*%
%TO.N,GND*%
X133325000Y-55330000D03*
%TO.P,CON1,P9,GND2*%
X156185000Y-55330000D03*
%TO.P,CON1,P10,5V*%
%TO.N,unconnected-(CON1-5V-PadP10)*%
X156185000Y-52790000D03*
%TO.P,CON1,P11,SDA*%
%TO.N,unconnected-(CON1-SDA-PadP11)*%
X156185000Y-50250000D03*
%TO.P,CON1,P12,SCL*%
%TO.N,unconnected-(CON1-SCL-PadP12)*%
X156185000Y-47710000D03*
%TO.P,CON1,P13,RX*%
%TO.N,unconnected-(CON1-RX-PadP13)*%
X156185000Y-45170000D03*
%TO.P,CON1,P14,TX*%
%TO.N,unconnected-(CON1-TX-PadP14)*%
X156185000Y-42630000D03*
%TO.P,CON1,P15,INT*%
%TO.N,nRF_INT*%
X156185000Y-40090000D03*
D16*
%TO.P,CON1,P16,PWM*%
%TO.N,unconnected-(CON1-PWM-PadP16)*%
X156185000Y-37550000D03*
%TD*%
D17*
%TO.P,D5,1,K*%
%TO.N,Net-(D5-K)*%
X261325000Y-93200000D03*
D18*
%TO.P,D5,2,A*%
%TO.N,3.3V_NUC*%
X261325000Y-95740000D03*
%TD*%
D19*
%TO.P,D2,1,K*%
%TO.N,AN_IN*%
X185725000Y-55950000D03*
D13*
%TO.P,D2,2,A*%
%TO.N,GND*%
X185725000Y-48330000D03*
%TD*%
D19*
%TO.P,D1,1,K*%
%TO.N,VCC*%
X177725000Y-48330000D03*
D13*
%TO.P,D1,2,A*%
%TO.N,AN_IN*%
X177725000Y-55950000D03*
%TD*%
D12*
%TO.P,R8,1*%
%TO.N,3.3V_NUC*%
X242245000Y-84630000D03*
D13*
%TO.P,R8,2*%
%TO.N,SCL*%
X242245000Y-74470000D03*
%TD*%
D12*
%TO.P,R5,1*%
%TO.N,SW2_OUT*%
X248005000Y-71630000D03*
D13*
%TO.P,R5,2*%
%TO.N,GND*%
X248005000Y-61470000D03*
%TD*%
D12*
%TO.P,C4,1*%
%TO.N,3.3V_NUC*%
X203725000Y-88700000D03*
%TO.P,C4,2*%
%TO.N,SW3_OUT*%
X208725000Y-88700000D03*
%TD*%
D20*
%TO.P,J4,1,Pin_1*%
%TO.N,GND*%
X131090000Y-71795000D03*
D21*
%TO.P,J4,2,Pin_2*%
%TO.N,VIN*%
X131090000Y-66715000D03*
%TD*%
D12*
%TO.P,R13,1*%
%TO.N,Net-(D5-K)*%
X261405000Y-90230000D03*
D13*
%TO.P,R13,2*%
%TO.N,LED2*%
X261405000Y-80070000D03*
%TD*%
D12*
%TO.P,R3,1*%
%TO.N,3.3V_NUC*%
X143925000Y-77950000D03*
D13*
%TO.P,R3,2*%
%TO.N,JOYSW*%
X133765000Y-77950000D03*
%TD*%
D10*
%TO.P,J1,1,Pin_1*%
%TO.N,SD_CS*%
X168525000Y-134630000D03*
D11*
%TO.P,J1,2,Pin_2*%
%TO.N,MOSI*%
X168525000Y-132090000D03*
%TO.P,J1,3,Pin_3*%
%TO.N,SCK*%
X168525000Y-129550000D03*
%TO.P,J1,4,Pin_4*%
%TO.N,MISO*%
X168525000Y-127010000D03*
%TO.P,J1,5,Pin_5*%
%TO.N,LCD_CS*%
X168525000Y-124470000D03*
%TO.P,J1,6,Pin_6*%
%TO.N,LCD_RES*%
X168525000Y-121930000D03*
%TO.P,J1,7,Pin_7*%
%TO.N,LCD_DC*%
X168525000Y-119390000D03*
%TO.P,J1,8,Pin_8*%
%TO.N,MOSI*%
X168525000Y-116850000D03*
%TO.P,J1,9,Pin_9*%
%TO.N,SCK*%
X168525000Y-114310000D03*
%TO.P,J1,10,Pin_10*%
%TO.N,GND*%
X168525000Y-111770000D03*
%TO.P,J1,11,Pin_11*%
%TO.N,3.3V_NUC*%
X168525000Y-109230000D03*
%TD*%
D12*
%TO.P,R12,1*%
%TO.N,Net-(D4-K)*%
X255205000Y-90030000D03*
D13*
%TO.P,R12,2*%
%TO.N,LED1*%
X255205000Y-79870000D03*
%TD*%
D15*
%TO.P,SW5,1,1*%
%TO.N,3.3V_NUC*%
X252325000Y-37550000D03*
%TO.P,SW5,2,2*%
%TO.N,SW5_OUT*%
X247325000Y-37550000D03*
%TD*%
D10*
%TO.P,J8,1,Pin_1*%
%TO.N,SCL*%
X270525000Y-58770000D03*
D11*
%TO.P,J8,2,Pin_2*%
%TO.N,SDA*%
X270525000Y-56230000D03*
%TO.P,J8,3,Pin_3*%
%TO.N,5V_NUC*%
X270525000Y-53690000D03*
%TO.P,J8,4,Pin_4*%
%TO.N,GND*%
X270525000Y-51150000D03*
%TD*%
D12*
%TO.P,R7,1*%
%TO.N,SW4_OUT*%
X240925000Y-65750000D03*
D13*
%TO.P,R7,2*%
%TO.N,GND*%
X240925000Y-55590000D03*
%TD*%
D12*
%TO.P,R14,1*%
%TO.N,Net-(D6-K)*%
X267605000Y-90030000D03*
D13*
%TO.P,R14,2*%
%TO.N,LED3*%
X267605000Y-79870000D03*
%TD*%
D10*
%TO.P,J9,1,Pin_1*%
%TO.N,GND*%
X275325000Y-35550000D03*
D11*
%TO.P,J9,2,Pin_2*%
X275325000Y-38090000D03*
%TO.P,J9,3,Pin_3*%
X275325000Y-40630000D03*
%TD*%
D10*
%TO.P,J2,1,Pin_1*%
%TO.N,JOYSW*%
X136225000Y-88150000D03*
D11*
%TO.P,J2,2,Pin_2*%
%TO.N,JOYY*%
X138765000Y-88150000D03*
%TO.P,J2,3,Pin_3*%
%TO.N,JOYX*%
X141305000Y-88150000D03*
%TO.P,J2,4,Pin_4*%
%TO.N,GND*%
X143845000Y-88150000D03*
%TO.P,J2,5,Pin_5*%
%TO.N,3.3V_NUC*%
X146385000Y-88150000D03*
%TD*%
D15*
%TO.P,SW1,1,1*%
%TO.N,3.3V_NUC*%
X265325000Y-119550000D03*
%TO.P,SW1,2,2*%
%TO.N,SW1_OUT*%
X270325000Y-119550000D03*
%TD*%
D17*
%TO.P,D7,1,K*%
%TO.N,Net-(D7-K)*%
X273325000Y-93275000D03*
D18*
%TO.P,D7,2,A*%
%TO.N,3.3V_NUC*%
X273325000Y-95815000D03*
%TD*%
D12*
%TO.P,R16,1*%
%TO.N,SW5_OUT*%
X237445000Y-51470000D03*
D13*
%TO.P,R16,2*%
%TO.N,GND*%
X237445000Y-61630000D03*
%TD*%
D12*
%TO.P,R11,1*%
%TO.N,Net-(D3-K)*%
X260325000Y-31550000D03*
D13*
%TO.P,R11,2*%
%TO.N,LED_OUT*%
X250165000Y-31550000D03*
%TD*%
D12*
%TO.P,R9,1*%
%TO.N,3.3V_NUC*%
X238405000Y-82030000D03*
D13*
%TO.P,R9,2*%
%TO.N,SDA*%
X238405000Y-71870000D03*
%TD*%
D17*
%TO.P,D4,1,K*%
%TO.N,Net-(D4-K)*%
X255125000Y-93275000D03*
D18*
%TO.P,D4,2,A*%
%TO.N,3.3V_NUC*%
X255125000Y-95815000D03*
%TD*%
D12*
%TO.P,C3,1*%
%TO.N,3.3V_NUC*%
X203725000Y-83650000D03*
%TO.P,C3,2*%
%TO.N,SW2_OUT*%
X208725000Y-83650000D03*
%TD*%
%TO.P,R6,1*%
%TO.N,SW3_OUT*%
X244405000Y-68630000D03*
D13*
%TO.P,R6,2*%
%TO.N,GND*%
X244405000Y-58470000D03*
%TD*%
D17*
%TO.P,D6,1,K*%
%TO.N,Net-(D6-K)*%
X267325000Y-93275000D03*
D18*
%TO.P,D6,2,A*%
%TO.N,3.3V_NUC*%
X267325000Y-95815000D03*
%TD*%
D12*
%TO.P,C2,1*%
%TO.N,3.3V_NUC*%
X203725000Y-78600000D03*
%TO.P,C2,2*%
%TO.N,SW1_OUT*%
X208725000Y-78600000D03*
%TD*%
D22*
%TO.P,RV1,1,1*%
%TO.N,VCC*%
X174650000Y-95075000D03*
%TO.P,RV1,2,2*%
%TO.N,POT_OUT*%
X172110000Y-92535000D03*
%TO.P,RV1,3,3*%
%TO.N,GND*%
X169570000Y-95075000D03*
%TD*%
D15*
%TO.P,SW3,1,1*%
%TO.N,3.3V_NUC*%
X249325000Y-119550000D03*
%TO.P,SW3,2,2*%
%TO.N,SW3_OUT*%
X254325000Y-119550000D03*
%TD*%
%TO.P,SW4,1,1*%
%TO.N,3.3V_NUC*%
X257325000Y-127550000D03*
%TO.P,SW4,2,2*%
%TO.N,SW4_OUT*%
X262325000Y-127550000D03*
%TD*%
D10*
%TO.P,J3,1,Pin_1*%
%TO.N,GND*%
X184225000Y-40850000D03*
D11*
%TO.P,J3,2,Pin_2*%
%TO.N,Net-(J3-Pin_2)*%
X181685000Y-40850000D03*
%TD*%
D15*
%TO.P,SW2,1,1*%
%TO.N,3.3V_NUC*%
X257325000Y-110550000D03*
%TO.P,SW2,2,2*%
%TO.N,SW2_OUT*%
X262325000Y-110550000D03*
%TD*%
D12*
%TO.P,R15,1*%
%TO.N,Net-(D7-K)*%
X273405000Y-90030000D03*
D13*
%TO.P,R15,2*%
%TO.N,LED4*%
X273405000Y-79870000D03*
%TD*%
D10*
%TO.P,J10,1,Pin_1*%
%TO.N,3.3V_NUC*%
X270325000Y-35550000D03*
D11*
%TO.P,J10,2,Pin_2*%
X270325000Y-38090000D03*
%TO.P,J10,3,Pin_3*%
X270325000Y-40630000D03*
%TD*%
D19*
%TO.P,U1,1,SCL*%
%TO.N,SCL*%
X275925000Y-66950000D03*
D13*
%TO.P,U1,2,SDA*%
%TO.N,SDA*%
X273385000Y-66950000D03*
%TO.P,U1,3,A2*%
%TO.N,GND*%
X270845000Y-66950000D03*
%TO.P,U1,4,A1*%
X268305000Y-66950000D03*
%TO.P,U1,5,A0*%
X265765000Y-66950000D03*
%TO.P,U1,6,~{RESET}*%
%TO.N,3.3V_NUC*%
X263225000Y-66950000D03*
%TO.P,U1,7,NC*%
%TO.N,unconnected-(U1-NC-Pad7)*%
X260685000Y-66950000D03*
%TO.P,U1,8,INT*%
%TO.N,MCP_INT*%
X258145000Y-66950000D03*
%TO.P,U1,9,VSS*%
%TO.N,GND*%
X255605000Y-66950000D03*
%TO.P,U1,10,GP0*%
%TO.N,SW1_OUT*%
X255605000Y-74570000D03*
%TO.P,U1,11,GP1*%
%TO.N,SW2_OUT*%
X258145000Y-74570000D03*
%TO.P,U1,12,GP2*%
%TO.N,SW3_OUT*%
X260685000Y-74570000D03*
%TO.P,U1,13,GP3*%
%TO.N,SW4_OUT*%
X263225000Y-74570000D03*
%TO.P,U1,14,GP4*%
%TO.N,LED1*%
X265765000Y-74570000D03*
%TO.P,U1,15,GP5*%
%TO.N,LED2*%
X268305000Y-74570000D03*
%TO.P,U1,16,GP6*%
%TO.N,LED3*%
X270845000Y-74570000D03*
%TO.P,U1,17,GP7*%
%TO.N,LED4*%
X273385000Y-74570000D03*
%TO.P,U1,18,VDD*%
%TO.N,3.3V_NUC*%
X275925000Y-74570000D03*
%TD*%
D12*
%TO.P,C5,1*%
%TO.N,3.3V_NUC*%
X203725000Y-93750000D03*
%TO.P,C5,2*%
%TO.N,SW4_OUT*%
X208725000Y-93750000D03*
%TD*%
%TO.P,R4,1*%
%TO.N,Net-(J3-Pin_2)*%
X181725000Y-45790000D03*
D13*
%TO.P,R4,2*%
%TO.N,AN_IN*%
X181725000Y-55950000D03*
%TD*%
D17*
%TO.P,D3,1,K*%
%TO.N,Net-(D3-K)*%
X260060000Y-35275000D03*
D18*
%TO.P,D3,2,A*%
%TO.N,3.3V_NUC*%
X260060000Y-37815000D03*
%TD*%
D12*
%TO.P,C6,1*%
%TO.N,3.3V_NUC*%
X252325000Y-47950000D03*
%TO.P,C6,2*%
%TO.N,SW5_OUT*%
X247325000Y-47950000D03*
%TD*%
M02*
