%TF.GenerationSoftware,KiCad,Pcbnew,8.0.0*%
%TF.CreationDate,2024-05-27T21:39:51+02:00*%
%TF.ProjectId,Motor_Board_L476RG,4d6f746f-725f-4426-9f61-72645f4c3437,rev?*%
%TF.SameCoordinates,Original*%
%TF.FileFunction,Drillmap*%
%TF.FilePolarity,Positive*%
%FSLAX45Y45*%
G04 Gerber Fmt 4.5, Leading zero omitted, Abs format (unit mm)*
G04 Created by KiCad (PCBNEW 8.0.0) date 2024-05-27 21:39:51*
%MOMM*%
%LPD*%
G01*
G04 APERTURE LIST*
%ADD10C,0.050000*%
%ADD11C,0.200000*%
G04 APERTURE END LIST*
D10*
X12350000Y-4050000D02*
X24350000Y-4050000D01*
X24350000Y-15050000D01*
X12350000Y-15050000D01*
X12350000Y-4050000D01*
X22400000Y-5950000D02*
X22900000Y-5950000D01*
X22900000Y-6830000D01*
X22400000Y-6830000D01*
X22400000Y-5950000D01*
X19310000Y-6300000D02*
X20190000Y-6300000D01*
X20190000Y-6800000D01*
X19310000Y-6800000D01*
X19310000Y-6300000D01*
X20300000Y-4400000D02*
X21000000Y-4400000D01*
X21000000Y-5280000D01*
X20300000Y-5280000D01*
X20300000Y-4400000D01*
X16650000Y-9320000D02*
X20050000Y-9320000D01*
X20050000Y-10220000D01*
X16650000Y-10220000D01*
X16650000Y-9320000D01*
X17197500Y-12200000D02*
X19497500Y-12200000D01*
X19497500Y-13050000D01*
X17197500Y-13050000D01*
X17197500Y-12200000D01*
X16520000Y-6300000D02*
X17400000Y-6300000D01*
X17400000Y-6800000D01*
X16520000Y-6800000D01*
X16520000Y-6300000D01*
D11*
X12608277Y-15363984D02*
X12608277Y-15163984D01*
X12608277Y-15163984D02*
X12655896Y-15163984D01*
X12655896Y-15163984D02*
X12684467Y-15173508D01*
X12684467Y-15173508D02*
X12703515Y-15192555D01*
X12703515Y-15192555D02*
X12713039Y-15211603D01*
X12713039Y-15211603D02*
X12722562Y-15249698D01*
X12722562Y-15249698D02*
X12722562Y-15278269D01*
X12722562Y-15278269D02*
X12713039Y-15316365D01*
X12713039Y-15316365D02*
X12703515Y-15335412D01*
X12703515Y-15335412D02*
X12684467Y-15354460D01*
X12684467Y-15354460D02*
X12655896Y-15363984D01*
X12655896Y-15363984D02*
X12608277Y-15363984D01*
X12808277Y-15363984D02*
X12808277Y-15230650D01*
X12808277Y-15268746D02*
X12817801Y-15249698D01*
X12817801Y-15249698D02*
X12827324Y-15240174D01*
X12827324Y-15240174D02*
X12846372Y-15230650D01*
X12846372Y-15230650D02*
X12865420Y-15230650D01*
X12932086Y-15363984D02*
X12932086Y-15230650D01*
X12932086Y-15163984D02*
X12922562Y-15173508D01*
X12922562Y-15173508D02*
X12932086Y-15183031D01*
X12932086Y-15183031D02*
X12941610Y-15173508D01*
X12941610Y-15173508D02*
X12932086Y-15163984D01*
X12932086Y-15163984D02*
X12932086Y-15183031D01*
X13055896Y-15363984D02*
X13036848Y-15354460D01*
X13036848Y-15354460D02*
X13027324Y-15335412D01*
X13027324Y-15335412D02*
X13027324Y-15163984D01*
X13160658Y-15363984D02*
X13141610Y-15354460D01*
X13141610Y-15354460D02*
X13132086Y-15335412D01*
X13132086Y-15335412D02*
X13132086Y-15163984D01*
X13389229Y-15363984D02*
X13389229Y-15163984D01*
X13389229Y-15163984D02*
X13455896Y-15306841D01*
X13455896Y-15306841D02*
X13522562Y-15163984D01*
X13522562Y-15163984D02*
X13522562Y-15363984D01*
X13703515Y-15363984D02*
X13703515Y-15259222D01*
X13703515Y-15259222D02*
X13693991Y-15240174D01*
X13693991Y-15240174D02*
X13674943Y-15230650D01*
X13674943Y-15230650D02*
X13636848Y-15230650D01*
X13636848Y-15230650D02*
X13617801Y-15240174D01*
X13703515Y-15354460D02*
X13684467Y-15363984D01*
X13684467Y-15363984D02*
X13636848Y-15363984D01*
X13636848Y-15363984D02*
X13617801Y-15354460D01*
X13617801Y-15354460D02*
X13608277Y-15335412D01*
X13608277Y-15335412D02*
X13608277Y-15316365D01*
X13608277Y-15316365D02*
X13617801Y-15297317D01*
X13617801Y-15297317D02*
X13636848Y-15287793D01*
X13636848Y-15287793D02*
X13684467Y-15287793D01*
X13684467Y-15287793D02*
X13703515Y-15278269D01*
X13798753Y-15230650D02*
X13798753Y-15430650D01*
X13798753Y-15240174D02*
X13817801Y-15230650D01*
X13817801Y-15230650D02*
X13855896Y-15230650D01*
X13855896Y-15230650D02*
X13874943Y-15240174D01*
X13874943Y-15240174D02*
X13884467Y-15249698D01*
X13884467Y-15249698D02*
X13893991Y-15268746D01*
X13893991Y-15268746D02*
X13893991Y-15325888D01*
X13893991Y-15325888D02*
X13884467Y-15344936D01*
X13884467Y-15344936D02*
X13874943Y-15354460D01*
X13874943Y-15354460D02*
X13855896Y-15363984D01*
X13855896Y-15363984D02*
X13817801Y-15363984D01*
X13817801Y-15363984D02*
X13798753Y-15354460D01*
X13979705Y-15344936D02*
X13989229Y-15354460D01*
X13989229Y-15354460D02*
X13979705Y-15363984D01*
X13979705Y-15363984D02*
X13970182Y-15354460D01*
X13970182Y-15354460D02*
X13979705Y-15344936D01*
X13979705Y-15344936D02*
X13979705Y-15363984D01*
X13979705Y-15240174D02*
X13989229Y-15249698D01*
X13989229Y-15249698D02*
X13979705Y-15259222D01*
X13979705Y-15259222D02*
X13970182Y-15249698D01*
X13970182Y-15249698D02*
X13979705Y-15240174D01*
X13979705Y-15240174D02*
X13979705Y-15259222D01*
M02*
